<svg xmlns="http://www.w3.org/2000/svg" width="220" height="220" viewBox="0 0 220 220">
  <g id="Group_938" data-name="Group 938" transform="translate(570 -2263)">
    <g id="Group_936" data-name="Group 936" transform="translate(-768 -345.639)">
      <g id="Group_934" data-name="Group 934" transform="translate(198.1 2629.7)">
        <g id="Group_795" data-name="Group 795" transform="translate(0 0)">
          <g id="Group_784" data-name="Group 784" transform="translate(82.035 1.554)">
            <g id="Group_780" data-name="Group 780">
              <rect id="Rectangle_507" data-name="Rectangle 507" width="28.899" height="112.54" fill="#1a7c7b"/>
            </g>
            <g id="Group_781" data-name="Group 781" transform="translate(2.9 102.078)">
              <rect id="Rectangle_508" data-name="Rectangle 508" width="22.218" height="3.936" fill="#45bbc6"/>
            </g>
            <g id="Group_782" data-name="Group 782" transform="translate(2.9 3.315)">
              <rect id="Rectangle_509" data-name="Rectangle 509" width="22.218" height="3.936" fill="#45bbc6"/>
            </g>
            <g id="Group_783" data-name="Group 783" transform="translate(7.82 13.88)">
              <ellipse id="Ellipse_83" data-name="Ellipse 83" cx="6.733" cy="6.836" rx="6.733" ry="6.836" fill="#45bbc6"/>
            </g>
          </g>
          <g id="Group_789" data-name="Group 789" transform="translate(50.961 1.554)">
            <g id="Group_785" data-name="Group 785">
              <rect id="Rectangle_510" data-name="Rectangle 510" width="28.899" height="112.54" fill="#1a7c7b"/>
            </g>
            <g id="Group_786" data-name="Group 786" transform="translate(2.952 102.078)">
              <rect id="Rectangle_511" data-name="Rectangle 511" width="22.218" height="3.936" fill="#45bbc6"/>
            </g>
            <g id="Group_787" data-name="Group 787" transform="translate(2.952 3.315)">
              <rect id="Rectangle_512" data-name="Rectangle 512" width="22.218" height="3.936" fill="#45bbc6"/>
            </g>
            <g id="Group_788" data-name="Group 788" transform="translate(7.82 13.88)">
              <ellipse id="Ellipse_84" data-name="Ellipse 84" cx="6.733" cy="6.836" rx="6.733" ry="6.836" fill="#45bbc6"/>
            </g>
          </g>
          <g id="Group_794" data-name="Group 794" transform="translate(0 0)">
            <g id="Group_790" data-name="Group 790">
              <path id="Path_931" data-name="Path 931" d="M41.1,199.853l28.277,6.111L91.647,98.811,63.37,92.7Z" transform="translate(-41.1 -92.7)" fill="#1a7c7b"/>
            </g>
            <g id="Group_791" data-name="Group 791" transform="translate(4.143 97.779)">
              <path id="Path_932" data-name="Path 932" d="M49.1,285.281l21.752,4.661.777-3.729L49.877,281.5Z" transform="translate(-49.1 -281.5)" fill="#45bbc6"/>
            </g>
            <g id="Group_792" data-name="Group 792" transform="translate(23.72 3.781)">
              <path id="Path_933" data-name="Path 933" d="M86.9,103.781l21.7,4.661.777-3.729L87.677,100Z" transform="translate(-86.9 -100)" fill="#45bbc6"/>
            </g>
            <g id="Group_793" data-name="Group 793" transform="translate(25.711 16.162)">
              <path id="Path_934" data-name="Path 934" d="M104.032,131.982a6.754,6.754,0,0,0-5.231-7.924,6.626,6.626,0,0,0-7.924,5.075,6.754,6.754,0,0,0,5.231,7.924A6.574,6.574,0,0,0,104.032,131.982Z" transform="translate(-90.745 -123.907)" fill="#45bbc6"/>
            </g>
          </g>
        </g>
        <g id="Group_796" data-name="Group 796" transform="translate(63.239 29.676)">
          <path id="Path_935" data-name="Path 935" d="M174.442,234.262h89.545V152.641A2.608,2.608,0,0,0,261.4,150H209.866l-6.992,8.39H165.793a2.636,2.636,0,0,0-2.538,3.159l4.661,67.223A6.659,6.659,0,0,0,174.442,234.262Z" transform="translate(-163.208 -150)" fill="#1e4c4c"/>
        </g>
        <g id="Group_797" data-name="Group 797" transform="translate(73.076 32.628)">
          <rect id="Rectangle_513" data-name="Rectangle 513" width="96.381" height="80.223" transform="translate(0 0)" fill="#fafafc"/>
        </g>
        <g id="Group_798" data-name="Group 798" transform="translate(69.45 6.888)">
          <path id="Path_936" data-name="Path 936" d="M175.2,183.219l92.808,26.568,21.286-77.271L196.486,106Z" transform="translate(-175.2 -106)" fill="#fafafc"/>
        </g>
        <g id="Group_799" data-name="Group 799" transform="translate(72.817 17.609)">
          <path id="Path_937" data-name="Path 937" d="M181.7,206.871l96.329,4.195,3.366-80.119L185.118,126.7Z" transform="translate(-181.7 -126.7)" fill="#fafafc"/>
        </g>
        <g id="Group_800" data-name="Group 800" transform="translate(75.716 36.771)" opacity="0.2">
          <path id="Path_938" data-name="Path 938" d="M193.773,238.692h86.593a6.6,6.6,0,0,0,6.577-6.629V166.289a2.553,2.553,0,0,0-2.538-2.589H241.472l-6.888,7.458H189.837a2.553,2.553,0,0,0-2.538,2.589v58.315A6.511,6.511,0,0,0,193.773,238.692Z" transform="translate(-187.299 -163.7)" fill="#1e4c4c"/>
        </g>
        <g id="Group_801" data-name="Group 801" transform="translate(76.856 37.703)">
          <path id="Path_939" data-name="Path 939" d="M196.129,241.735h87.629A6.665,6.665,0,0,0,290.387,235V168.141a2.608,2.608,0,0,0-2.59-2.641H244.346l-6.94,7.561H192.089A2.608,2.608,0,0,0,189.5,175.7V234.95A6.709,6.709,0,0,0,196.129,241.735Z" transform="translate(-189.5 -165.5)" fill="#fcc020"/>
        </g>
      </g>
      <g id="Group_935" data-name="Group 935" transform="translate(290.079 2680.04)">
        <g id="Group_833" data-name="Group 833" transform="translate(39.619 13.931)">
          <path id="Path_964" data-name="Path 964" d="M246.311,292.336H160.339A1.149,1.149,0,0,1,159.2,291.2V183.939a1.15,1.15,0,0,1,1.139-1.139h85.971a1.15,1.15,0,0,1,1.139,1.139V291.2A1.149,1.149,0,0,1,246.311,292.336Z" transform="translate(-159.2 -182.8)" fill="#1e4c4c"/>
        </g>
        <g id="Group_834" data-name="Group 834" transform="translate(37.858 14.035)">
          <path id="Path_965" data-name="Path 965" d="M244.257,278.034V186.573A3.581,3.581,0,0,0,240.684,183h-81.31a3.581,3.581,0,0,0-3.574,3.574V288.651a3.581,3.581,0,0,0,3.574,3.573h73.7Z" transform="translate(-155.8 -183)" fill="#fafafa"/>
        </g>
        <g id="Group_835" data-name="Group 835" transform="translate(62.925 8.183)">
          <path id="Path_966" data-name="Path 966" d="M243.042,171.7H205.029a.818.818,0,0,0-.829.829V183.3h39.619V172.529A.808.808,0,0,0,243.042,171.7Z" transform="translate(-204.2 -171.7)" fill="#3fa9b3"/>
        </g>
        <g id="Group_849" data-name="Group 849" transform="translate(30.038 122.431)">
          <ellipse id="Ellipse_86" data-name="Ellipse 86" cx="48.941" cy="1.347" rx="48.941" ry="1.347" transform="translate(0)" fill="#053838"/>
        </g>
        <g id="Group_850" data-name="Group 850" transform="translate(75.147 0)">
          <path id="Path_967" data-name="Path 967" d="M235.62,171.541a7.82,7.82,0,1,1,7.82-7.82A7.847,7.847,0,0,1,235.62,171.541Zm0-12.067a4.247,4.247,0,1,0,4.247,4.247A4.266,4.266,0,0,0,235.62,159.473Z" transform="translate(-227.8 -155.9)" fill="#3fa9b3"/>
        </g>
        <g id="Group_851" data-name="Group 851" transform="translate(114.922 109.121)">
          <path id="Path_968" data-name="Path 968" d="M304.6,381V366.6h11.394Z" transform="translate(-304.6 -366.6)" fill="#d5e3e6"/>
        </g>
        <g id="Group_852" data-name="Group 852" transform="translate(62.873 19.784)">
          <rect id="Rectangle_529" data-name="Rectangle 529" width="39.826" height="0.673" transform="translate(0 0)" fill="#bde2e5"/>
        </g>
        <g id="Group_853" data-name="Group 853" transform="translate(64.582 9.581)">
          <rect id="Rectangle_530" data-name="Rectangle 530" width="36.357" height="0.673" transform="translate(0 0)" fill="#1295a1"/>
        </g>
        <g id="Group_854" data-name="Group 854" transform="translate(104.357 35.114)">
          <path id="Path_969" data-name="Path 969" d="M289.793,234.99l-5.593-3,1.243-2.382,3.211,1.761,3.832-7.665,2.382,1.191Z" transform="translate(-284.2 -223.7)" fill="#9ec10d"/>
        </g>
        <g id="Group_855" data-name="Group 855" transform="translate(104.357 62.044)">
          <path id="Path_970" data-name="Path 970" d="M289.793,287.042l-5.593-3.056,1.243-2.331,3.211,1.709,3.832-7.665,2.382,1.191Z" transform="translate(-284.2 -275.7)" fill="#9ec10d"/>
        </g>
        <g id="Group_856" data-name="Group 856" transform="translate(104.357 89.597)">
          <path id="Path_971" data-name="Path 971" d="M289.793,340.242l-5.593-3,1.243-2.382,3.211,1.761,3.832-7.717,2.382,1.191Z" transform="translate(-284.2 -328.9)" fill="#9ec10d"/>
        </g>
        <g id="Group_857" data-name="Group 857" transform="translate(74.267 40.448)">
          <path id="Path_972" data-name="Path 972" d="M248.525,234H226.514a.408.408,0,0,0-.414.414v2.538a.408.408,0,0,0,.414.414h22.011a.408.408,0,0,0,.414-.414v-2.538C248.888,234.155,248.732,234,248.525,234Z" transform="translate(-226.1 -234)" fill="#1a7c7b"/>
        </g>
        <g id="Group_858" data-name="Group 858" transform="translate(74.267 67.897)">
          <path id="Path_973" data-name="Path 973" d="M248.525,287H226.514a.409.409,0,0,0-.414.414v2.538a.408.408,0,0,0,.414.414h22.011a.408.408,0,0,0,.414-.414v-2.538C248.888,287.155,248.732,287,248.525,287Z" transform="translate(-226.1 -287)" fill="#1a7c7b"/>
        </g>
        <g id="Group_859" data-name="Group 859" transform="translate(50.599 60.335)">
          <path id="Path_974" data-name="Path 974" d="M199.252,281.826a9.426,9.426,0,1,0-9.426,9.426A9.427,9.427,0,0,0,199.252,281.826Z" transform="translate(-180.4 -272.4)" fill="#9ec10d"/>
        </g>
        <g id="Group_860" data-name="Group 860" transform="translate(74.267 94.465)">
          <path id="Path_975" data-name="Path 975" d="M248.525,338.3H226.514a.408.408,0,0,0-.414.414v2.538a.408.408,0,0,0,.414.414h22.011a.409.409,0,0,0,.414-.414v-2.538C248.888,338.455,248.732,338.3,248.525,338.3Z" transform="translate(-226.1 -338.3)" fill="#1a7c7b"/>
        </g>
        <g id="Group_869" data-name="Group 869" transform="translate(5.127 118.34)">
          <rect id="Rectangle_537" data-name="Rectangle 537" width="6.836" height="45.886" transform="translate(0.877 7.856) rotate(-90.105)" fill="#fff"/>
          <path id="Path_978" data-name="Path 978" d="M92.6,393.152V384.5l47.7-.1v8.649Zm1.761-6.836v5.075l44.125-.1v-5.075Z" transform="translate(-92.6 -384.4)" fill="#3fa9b3"/>
        </g>
        <g id="Group_870" data-name="Group 870" transform="translate(52.101 118.081)">
          <path id="Path_979" data-name="Path 979" d="M183.3,393.119V383.9l11.756,4.609Zm1.761-6.577v3.988l5.075-2.02Z" transform="translate(-183.3 -383.9)" fill="#3fa9b3"/>
        </g>
        <g id="Group_871" data-name="Group 871" transform="translate(0 120.308)">
          <rect id="Rectangle_538" data-name="Rectangle 538" width="3.211" height="4.558" transform="translate(0.888 4.095) rotate(-90.105)" fill="#fff"/>
          <path id="Path_980" data-name="Path 980" d="M82.7,393.172V388.2h6.37v4.972Zm1.761-3.211v1.4h2.8v-1.4Z" transform="translate(-82.7 -388.2)" fill="#3fa9b3"/>
        </g>
        <g id="Group_872" data-name="Group 872" transform="translate(10.151 113.99)">
          <path id="Path_981" data-name="Path 981" d="M102.352,381.075l-.052-5.024L119.546,376v1.813H104.113v3.263Z" transform="translate(-102.3 -376)" fill="#3fa9b3"/>
        </g>
        <g id="Group_891" data-name="Group 891" transform="translate(56.814 64.737)">
          <g id="Group_875" data-name="Group 875" transform="translate(0 1.347)">
            <rect id="Rectangle_541" data-name="Rectangle 541" width="6.474" height="8.338" fill="#fafafa"/>
          </g>
          <g id="Group_876" data-name="Group 876" transform="translate(0.829 0.466)">
            <rect id="Rectangle_542" data-name="Rectangle 542" width="4.765" height="2.279" fill="#fafafa"/>
          </g>
          <g id="Group_877" data-name="Group 877" transform="translate(1.916 0)">
            <rect id="Rectangle_543" data-name="Rectangle 543" width="2.745" height="1.709" fill="#fafafa"/>
          </g>
          <g id="Group_888" data-name="Group 888" transform="translate(1.243 2.175)">
            <g id="Group_878" data-name="Group 878">
              <rect id="Rectangle_544" data-name="Rectangle 544" width="1.191" height="1.088" fill="#bfddb5"/>
            </g>
            <g id="Group_879" data-name="Group 879" transform="translate(0 1.916)">
              <rect id="Rectangle_545" data-name="Rectangle 545" width="1.191" height="1.088" fill="#bfddb5"/>
            </g>
            <g id="Group_880" data-name="Group 880" transform="translate(0 3.832)">
              <rect id="Rectangle_546" data-name="Rectangle 546" width="1.191" height="1.088" fill="#bfddb5"/>
            </g>
            <g id="Group_881" data-name="Group 881" transform="translate(2.797)">
              <rect id="Rectangle_547" data-name="Rectangle 547" width="1.191" height="1.088" fill="#bfddb5"/>
            </g>
            <g id="Group_882" data-name="Group 882" transform="translate(2.797 1.916)">
              <rect id="Rectangle_548" data-name="Rectangle 548" width="1.191" height="1.088" fill="#bfddb5"/>
            </g>
            <g id="Group_883" data-name="Group 883" transform="translate(2.797 3.832)">
              <rect id="Rectangle_549" data-name="Rectangle 549" width="1.191" height="1.088" fill="#bfddb5"/>
            </g>
            <g id="Group_884" data-name="Group 884" transform="translate(1.398 5.645)">
              <rect id="Rectangle_550" data-name="Rectangle 550" width="0.621" height="1.45" fill="#bfddb5"/>
            </g>
            <g id="Group_885" data-name="Group 885" transform="translate(2.123 5.645)">
              <rect id="Rectangle_551" data-name="Rectangle 551" width="0.621" height="1.45" fill="#bfddb5"/>
            </g>
            <g id="Group_886" data-name="Group 886" transform="translate(2.175 6.267)">
              <path id="Path_982" data-name="Path 982" d="M199.207,297.3a.1.1,0,1,0-.1.1A.111.111,0,0,0,199.207,297.3Z" transform="translate(-199 -297.2)" fill="#fafafa"/>
            </g>
            <g id="Group_887" data-name="Group 887" transform="translate(1.761 6.267)">
              <path id="Path_983" data-name="Path 983" d="M198.407,297.3a.1.1,0,1,0-.1.1A.111.111,0,0,0,198.407,297.3Z" transform="translate(-198.2 -297.2)" fill="#fafafa"/>
            </g>
          </g>
          <g id="Group_889" data-name="Group 889" transform="translate(2.02 9.581)">
            <rect id="Rectangle_552" data-name="Rectangle 552" width="2.538" height="0.518" fill="#fafafa"/>
          </g>
          <g id="Group_890" data-name="Group 890" transform="translate(2.227 9.322)">
            <rect id="Rectangle_553" data-name="Rectangle 553" width="2.123" height="0.311" fill="#bfddb5"/>
          </g>
        </g>
        <g id="Group_892" data-name="Group 892" transform="translate(50.599 32.42)">
          <path id="Path_984" data-name="Path 984" d="M199.252,227.926a9.426,9.426,0,1,0-9.426,9.426A9.427,9.427,0,0,0,199.252,227.926Z" transform="translate(-180.4 -218.5)" fill="#9ec10d"/>
        </g>
        <g id="Group_909" data-name="Group 909" transform="translate(56.814 36.823)">
          <g id="Group_893" data-name="Group 893" transform="translate(0 1.347)">
            <rect id="Rectangle_554" data-name="Rectangle 554" width="6.474" height="8.338" fill="#fafafa"/>
          </g>
          <g id="Group_894" data-name="Group 894" transform="translate(0.829 0.466)">
            <rect id="Rectangle_555" data-name="Rectangle 555" width="4.765" height="2.279" fill="#fafafa"/>
          </g>
          <g id="Group_895" data-name="Group 895" transform="translate(1.916 0)">
            <rect id="Rectangle_556" data-name="Rectangle 556" width="2.745" height="1.709" fill="#fafafa"/>
          </g>
          <g id="Group_906" data-name="Group 906" transform="translate(1.243 2.227)">
            <g id="Group_896" data-name="Group 896">
              <rect id="Rectangle_557" data-name="Rectangle 557" width="1.191" height="1.088" fill="#bfddb5"/>
            </g>
            <g id="Group_897" data-name="Group 897" transform="translate(0 1.864)">
              <rect id="Rectangle_558" data-name="Rectangle 558" width="1.191" height="1.088" fill="#bfddb5"/>
            </g>
            <g id="Group_898" data-name="Group 898" transform="translate(0 3.781)">
              <rect id="Rectangle_559" data-name="Rectangle 559" width="1.191" height="1.088" fill="#bfddb5"/>
            </g>
            <g id="Group_899" data-name="Group 899" transform="translate(2.797)">
              <rect id="Rectangle_560" data-name="Rectangle 560" width="1.191" height="1.088" fill="#bfddb5"/>
            </g>
            <g id="Group_900" data-name="Group 900" transform="translate(2.797 1.864)">
              <rect id="Rectangle_561" data-name="Rectangle 561" width="1.191" height="1.088" fill="#bfddb5"/>
            </g>
            <g id="Group_901" data-name="Group 901" transform="translate(2.797 3.781)">
              <rect id="Rectangle_562" data-name="Rectangle 562" width="1.191" height="1.088" fill="#bfddb5"/>
            </g>
            <g id="Group_902" data-name="Group 902" transform="translate(1.398 5.593)">
              <rect id="Rectangle_563" data-name="Rectangle 563" width="0.621" height="1.45" fill="#bfddb5"/>
            </g>
            <g id="Group_903" data-name="Group 903" transform="translate(2.123 5.593)">
              <rect id="Rectangle_564" data-name="Rectangle 564" width="0.621" height="1.45" fill="#bfddb5"/>
            </g>
            <g id="Group_904" data-name="Group 904" transform="translate(2.175 6.215)">
              <path id="Path_985" data-name="Path 985" d="M199.207,243.4a.1.1,0,1,0-.1.1A.111.111,0,0,0,199.207,243.4Z" transform="translate(-199 -243.3)" fill="#fafafa"/>
            </g>
            <g id="Group_905" data-name="Group 905" transform="translate(1.761 6.215)">
              <path id="Path_986" data-name="Path 986" d="M198.407,243.4a.1.1,0,1,0-.1.1A.111.111,0,0,0,198.407,243.4Z" transform="translate(-198.2 -243.3)" fill="#fafafa"/>
            </g>
          </g>
          <g id="Group_907" data-name="Group 907" transform="translate(2.02 9.581)">
            <rect id="Rectangle_565" data-name="Rectangle 565" width="2.538" height="0.518" fill="#fafafa"/>
          </g>
          <g id="Group_908" data-name="Group 908" transform="translate(2.227 9.322)">
            <rect id="Rectangle_566" data-name="Rectangle 566" width="2.123" height="0.311" fill="#bfddb5"/>
          </g>
        </g>
        <g id="Group_910" data-name="Group 910" transform="translate(50.599 87.525)">
          <path id="Path_987" data-name="Path 987" d="M199.252,334.326a9.426,9.426,0,1,0-9.426,9.426A9.427,9.427,0,0,0,199.252,334.326Z" transform="translate(-180.4 -324.9)" fill="#9ec10d"/>
        </g>
        <g id="Group_927" data-name="Group 927" transform="translate(56.814 91.927)">
          <g id="Group_911" data-name="Group 911" transform="translate(0 1.347)">
            <rect id="Rectangle_567" data-name="Rectangle 567" width="6.474" height="8.338" fill="#fafafa"/>
          </g>
          <g id="Group_912" data-name="Group 912" transform="translate(0.829 0.466)">
            <rect id="Rectangle_568" data-name="Rectangle 568" width="4.765" height="2.279" fill="#fafafa"/>
          </g>
          <g id="Group_913" data-name="Group 913" transform="translate(1.916 0)">
            <rect id="Rectangle_569" data-name="Rectangle 569" width="2.745" height="1.709" fill="#fafafa"/>
          </g>
          <g id="Group_924" data-name="Group 924" transform="translate(1.243 2.227)">
            <g id="Group_914" data-name="Group 914">
              <rect id="Rectangle_570" data-name="Rectangle 570" width="1.191" height="1.088" fill="#bfddb5"/>
            </g>
            <g id="Group_915" data-name="Group 915" transform="translate(0 1.864)">
              <rect id="Rectangle_571" data-name="Rectangle 571" width="1.191" height="1.088" fill="#bfddb5"/>
            </g>
            <g id="Group_916" data-name="Group 916" transform="translate(0 3.781)">
              <rect id="Rectangle_572" data-name="Rectangle 572" width="1.191" height="1.088" fill="#bfddb5"/>
            </g>
            <g id="Group_917" data-name="Group 917" transform="translate(2.797)">
              <rect id="Rectangle_573" data-name="Rectangle 573" width="1.191" height="1.088" fill="#bfddb5"/>
            </g>
            <g id="Group_918" data-name="Group 918" transform="translate(2.797 1.864)">
              <rect id="Rectangle_574" data-name="Rectangle 574" width="1.191" height="1.088" fill="#bfddb5"/>
            </g>
            <g id="Group_919" data-name="Group 919" transform="translate(2.797 3.781)">
              <rect id="Rectangle_575" data-name="Rectangle 575" width="1.191" height="1.088" fill="#bfddb5"/>
            </g>
            <g id="Group_920" data-name="Group 920" transform="translate(1.398 5.593)">
              <rect id="Rectangle_576" data-name="Rectangle 576" width="0.621" height="1.45" fill="#bfddb5"/>
            </g>
            <g id="Group_921" data-name="Group 921" transform="translate(2.123 5.593)">
              <rect id="Rectangle_577" data-name="Rectangle 577" width="0.621" height="1.45" fill="#bfddb5"/>
            </g>
            <g id="Group_922" data-name="Group 922" transform="translate(2.175 6.215)">
              <path id="Path_988" data-name="Path 988" d="M199.207,349.8a.1.1,0,1,0-.1.1A.111.111,0,0,0,199.207,349.8Z" transform="translate(-199 -349.7)" fill="#fafafa"/>
            </g>
            <g id="Group_923" data-name="Group 923" transform="translate(1.761 6.215)">
              <path id="Path_989" data-name="Path 989" d="M198.407,349.8a.1.1,0,1,0-.1.1A.111.111,0,0,0,198.407,349.8Z" transform="translate(-198.2 -349.7)" fill="#fafafa"/>
            </g>
          </g>
          <g id="Group_925" data-name="Group 925" transform="translate(2.02 9.581)">
            <rect id="Rectangle_578" data-name="Rectangle 578" width="2.538" height="0.518" fill="#fafafa"/>
          </g>
          <g id="Group_926" data-name="Group 926" transform="translate(2.227 9.322)">
            <rect id="Rectangle_579" data-name="Rectangle 579" width="2.123" height="0.311" fill="#bfddb5"/>
          </g>
        </g>
      </g>
    </g>
    <rect id="Rectangle_580" data-name="Rectangle 580" width="220" height="220" transform="translate(-570 2263)" fill="none"/>
  </g>
</svg>
