<svg xmlns="http://www.w3.org/2000/svg" width="220" height="220" viewBox="0 0 220 220">
  <g id="Group_942" data-name="Group 942" transform="translate(570 -2263)">
    <g id="Group_779" data-name="Group 779" transform="translate(399.203 90.854)">
      <g id="Group_777" data-name="Group 777" transform="translate(-969.203 2250.26)">
        <g id="Red_Trumpet" transform="translate(40.086 20.64)">
          <path id="Path_899" data-name="Path 899" d="M183.338,237.441l-16.232-33.6L150.873,170.2l-10.287,7.314L130.3,184.875l26.519,26.283Z" transform="translate(-130.197 -169.889)" fill="#ef5160" fill-rule="evenodd"/>
          <path id="Path_900" data-name="Path 900" d="M184.393,234.943l-1.935-4.011q-.991.779-2.123,1.557c-.708.519-1.463,1.038-2.171,1.463l3.162,3.114c.519-.33,1.038-.708,1.557-1.085.472-.283.991-.661,1.51-1.038Zm-5.568-11.514-1.935-4.011c-1.227.991-2.5,1.935-3.822,2.926-1.321.944-2.69,1.84-4.011,2.642l3.162,3.161c1.085-.708,2.218-1.463,3.35-2.265s2.218-1.6,3.256-2.454Zm-5.568-11.561-.236-.519-1.7-3.539a67.166,67.166,0,0,1-5.474,4.341c-1.982,1.416-3.964,2.642-5.851,3.775l2.784,2.737.377.425c1.7-1.038,3.445-2.171,5.191-3.4a58.809,58.809,0,0,0,4.907-3.822Zm-5.615-11.608-1.935-4.058a65.366,65.366,0,0,1-7.125,5.8,68.579,68.579,0,0,1-7.786,4.813L154,209.981a76.4,76.4,0,0,0,7.125-4.483,61.88,61.88,0,0,0,6.512-5.238Zm-5.662-11.7L160,184.5a73.779,73.779,0,0,1-8.682,7.361,66.51,66.51,0,0,1-9.815,5.8l3.209,3.209a73.865,73.865,0,0,0,9.107-5.474,64.371,64.371,0,0,0,8.163-6.842Z" transform="translate(-136.112 -177.441)" fill="#ffcb9d" fill-rule="evenodd"/>
          <path id="Path_901" data-name="Path 901" d="M237.21,304.976l-3.681-6.276c1.416,4.388,1.652,4.2-2.029,1.416l4.766,5.521a.641.641,0,0,0,.755.094h0C237.257,305.495,237.351,305.165,237.21,304.976Z" transform="translate(-183.644 -237.754)" fill="#ffcb9d" fill-rule="evenodd"/>
          <path id="Path_902" data-name="Path 902" d="M150.711,169.8c-.8-1.085-6.04,1.274-11.7,5.332s-9.626,8.21-8.824,9.343c.8,1.085,6.04-1.274,11.7-5.332s9.626-8.211,8.824-9.343Z" transform="translate(-130.081 -169.541)" fill="#71262b" fill-rule="evenodd"/>
        </g>
        <g id="Green_Trumpet" transform="translate(40.362 66.328)">
          <path id="Path_903" data-name="Path 903" d="M181.193,290.371l-22.036-11.985L137.026,266.4l-2.69,8.069-2.737,8.022,24.82,3.964Z" transform="translate(-131.16 -266.383)" fill="#45b431" fill-rule="evenodd"/>
          <path id="Path_904" data-name="Path 904" d="M180.185,289.478l-2.642-1.416c-.189.566-.33,1.133-.519,1.7a17.06,17.06,0,0,1-.613,1.652l2.926.472c.142-.378.283-.8.425-1.18a7.612,7.612,0,0,0,.425-1.227Zm-7.55-4.105-2.642-1.416c-.283.991-.566,2.029-.944,3.067-.33,1.038-.755,2.029-1.132,3.02l2.973.472c.33-.849.661-1.652.944-2.548.33-.849.566-1.746.8-2.6Zm-7.6-4.105-.33-.189L162.4,279.8q-.5,2.194-1.274,4.53t-1.7,4.388l2.6.425.378.047c.519-1.227,1.038-2.548,1.51-3.917a34.323,34.323,0,0,0,1.133-4.011Zm-7.6-4.152-2.642-1.463a44.838,44.838,0,0,1-1.6,5.946,49.508,49.508,0,0,1-2.359,5.71l3.02.472a54.916,54.916,0,0,0,2.123-5.238,51.819,51.819,0,0,0,1.463-5.426Zm-7.691-4.152-2.69-1.463a46.274,46.274,0,0,1-1.84,7.455,49.16,49.16,0,0,1-3.02,7.031l3.02.472A42.166,42.166,0,0,0,148,279.9a49.743,49.743,0,0,0,1.746-6.936Z" transform="translate(-136.758 -269.077)" fill="#a7ffa7" fill-rule="evenodd"/>
          <path id="Path_905" data-name="Path 905" d="M231.349,314.182l-4.483-1.982c2.5,1.84,2.548,1.652-.566,1.557l4.766,1.132a.38.38,0,0,0,.425-.236h0A.351.351,0,0,0,231.349,314.182Z" transform="translate(-181.174 -290.572)" fill="#a7ffa7" fill-rule="evenodd"/>
          <path id="Path_906" data-name="Path 906" d="M136.534,266.381c-.9-.283-2.784,3.067-4.294,7.5s-2.029,8.258-1.132,8.588c.9.283,2.784-3.067,4.294-7.5,1.463-4.436,1.982-8.3,1.132-8.588Z" transform="translate(-130.667 -266.365)" fill="#1b4513" fill-rule="evenodd"/>
        </g>
        <g id="Papers" transform="translate(0 0)">
          <path id="Path_907" data-name="Path 907" d="M101.583,260.965c-2.407-2.6-3.539-7.55-8.494-5.9-4.011,1.368-9.249-2.69-6.465.283,2.171,2.312,9.013-.661,9.39.9.472,1.84,5.426,4.53,5.568,4.719Z" transform="translate(-66.632 -193.63)" fill="#ffa758" fill-rule="evenodd"/>
          <path id="Path_908" data-name="Path 908" d="M74.032,270.7c-9.3,0-4.105.425-7.078,2.312-.283.189-4.152.189-.33.661,2.69.33.283-2.312,7.031-2.029.142,0,1.321-.944.377-.944Z" transform="translate(-55.596 -202.326)" fill="#ef5160" fill-rule="evenodd"/>
          <path id="Path_909" data-name="Path 909" d="M80.489,240.048l-1.7-2.076L73.6,237.5l1.652,1.793Z" transform="translate(-60.166 -184.792)" fill="#a7ffa7" fill-rule="evenodd"/>
          <path id="Path_910" data-name="Path 910" d="M112.572,293.73l-2.171-.33-5,3.02,2.123.236Z" transform="translate(-76.961 -214.315)" fill="#a7ffa7" fill-rule="evenodd"/>
          <path id="Path_911" data-name="Path 911" d="M50.542,295.322c-3.775-1.51-1.274,7.975-5.143,5.851-1.227-.661,2.076,3.161,3.209-.047.283-.9-1.18-5.474,2.5-5.332.377,0,1.51-2.029-.283-.519-.142.094-.142.094-.283.047Z" transform="translate(-45.13 -215.01)" fill="#ffa758" fill-rule="evenodd"/>
          <path id="Path_912" data-name="Path 912" d="M124.369,251.366l-.283,1.935-3.586-4.341.755-2.359Z" transform="translate(-84.935 -189.598)" fill="#fff0e6" fill-rule="evenodd"/>
          <path id="Path_913" data-name="Path 913" d="M68.862,220.1l1.274.236L67.257,222.7l-1.557-.519Z" transform="translate(-55.994 -175.603)" fill="#fff0e6" fill-rule="evenodd"/>
          <path id="Path_914" data-name="Path 914" d="M83.562,305.153l.236-2.69-3.3-3.964-.094,2.407Z" transform="translate(-63.757 -217.008)" fill="#fff0e6" fill-rule="evenodd"/>
          <path id="Path_915" data-name="Path 915" d="M124.786,273.33l1.982-.33-3.114,4.766-2.454-.047Z" transform="translate(-85.305 -203.541)" fill="#f3cd3e" fill-rule="evenodd"/>
          <path id="Path_916" data-name="Path 916" d="M103.262,235.4l1.274.189-2.878,2.359-1.557-.519Z" transform="translate(-74.161 -183.683)" fill="#f3cd3e" fill-rule="evenodd"/>
          <path id="Path_917" data-name="Path 917" d="M64.262,248.5l1.321.189-2.926,2.359-1.557-.519Z" transform="translate(-53.564 -190.602)" fill="#f3cd3e" fill-rule="evenodd"/>
          <path id="Path_918" data-name="Path 918" d="M106.662,162.8l1.274.189-2.878,2.359-1.557-.519Z" transform="translate(-75.957 -145.341)" fill="#a7ffa7" fill-rule="evenodd"/>
          <path id="Path_919" data-name="Path 919" d="M127.117,176.866l-.33,1.935-3.586-4.388.8-2.312Z" transform="translate(-86.361 -150.253)" fill="#f3cd3e" fill-rule="evenodd"/>
          <path id="Path_920" data-name="Path 920" d="M141.642,158.1l-1.7-2.123L134.8,155.5l1.6,1.793Z" transform="translate(-92.488 -141.486)" fill="#ffa758" fill-rule="evenodd"/>
          <path id="Path_921" data-name="Path 921" d="M99.617,191.061c-3.067-1.793-5.568-6.229-9.815-3.209-3.445,2.454-9.626.094-6.087,2.123,2.784,1.6,8.446-3.256,9.249-1.84.944,1.652,6.465,2.784,6.653,2.926Z" transform="translate(-64.949 -158.03)" fill="#ef5160" fill-rule="evenodd"/>
          <path id="Path_922" data-name="Path 922" d="M105.014,147.8l1.321.189-2.878,2.359-1.557-.472Z" transform="translate(-75.112 -137.419)" fill="#fff0e6" fill-rule="evenodd"/>
          <path id="Path_923" data-name="Path 923" d="M123.117,130.519l-.33,1.982-3.586-4.388.8-2.312Z" transform="translate(-84.249 -125.8)" fill="#ef5160" fill-rule="evenodd"/>
          <path id="Path_924" data-name="Path 924" d="M144.962,132.5l1.274.236-2.878,2.359-1.557-.519Z" transform="translate(-96.185 -129.339)" fill="#f3cd3e" fill-rule="evenodd"/>
        </g>
      </g>
      <g id="Stars" transform="translate(-883.998 2224.146) rotate(13)">
        <path id="Path_928" data-name="Path 928" d="M14.486,5.1a.737.737,0,0,0-.566-.283L9.768,4.678H9.72L8.022.431a.675.675,0,0,0-.9-.378A.926.926,0,0,0,6.7.479L5.238,4.442v.047h0L.661,4.82A.763.763,0,0,0,0,5.575a.64.64,0,0,0,.283.519L3.539,8.642a.046.046,0,0,1,.047.047L2.5,13.125a.778.778,0,0,0,.519.9.772.772,0,0,0,.566-.094l3.492-2.359,3.869,2.454a.755.755,0,0,0,.991-.236.812.812,0,0,0,.094-.566l-1.18-4.058,3.492-2.926A.877.877,0,0,0,14.486,5.1Z" transform="translate(0 17.394)" fill="#f3cd3e"/>
        <path id="Path_929" data-name="Path 929" d="M23.074,8.105a1.162,1.162,0,0,0-.9-.425l-6.653-.236h-.047L12.74.7A1.129,1.129,0,0,0,11.278.083a1.289,1.289,0,0,0-.661.661L8.352,7.067v.047h0l-7.267.519A1.2,1.2,0,0,0,0,8.86a1.271,1.271,0,0,0,.472.849l5.191,4.058.047.047L3.964,20.893a1.138,1.138,0,0,0,.849,1.368,1.153,1.153,0,0,0,.9-.142l5.615-3.775,6.181,3.869a1.147,1.147,0,0,0,1.557-.377,1.033,1.033,0,0,0,.142-.9l-1.84-6.512,5.568-4.671A1.232,1.232,0,0,0,23.074,8.105Z" transform="translate(17.648 0)" fill="#f3cd3e"/>
        <path id="Path_930" data-name="Path 930" d="M18.6,6.577a.911.911,0,0,0-.708-.33l-5.379-.189h-.047L10.243.584A.905.905,0,0,0,9.064.065a.935.935,0,0,0-.519.519L6.7,5.68v.047L.853,6.152A.909.909,0,0,0,0,7.143a1.056,1.056,0,0,0,.377.708l4.2,3.3.047.047-1.416,5.71A.882.882,0,0,0,3.873,18a.741.741,0,0,0,.708-.142l4.53-3.02,5,3.114a.922.922,0,0,0,1.274-.283.849.849,0,0,0,.094-.755l-1.51-5.238L18.5,7.9A1.011,1.011,0,0,0,18.6,6.577Z" transform="translate(46.428 4.784)" fill="#f3cd3e"/>
      </g>
      <g id="Group_778" data-name="Group 778" transform="translate(-842.243 2250.26)">
        <g id="Red_Trumpet-2" data-name="Red_Trumpet" transform="translate(0 20.64)">
          <path id="Path_899-2" data-name="Path 899" d="M130.3,237.441l16.232-33.6L162.765,170.2l10.287,7.314,10.287,7.361-26.519,26.283Z" transform="translate(-129.809 -169.889)" fill="#ef5160" fill-rule="evenodd"/>
          <path id="Path_900-2" data-name="Path 900" d="M141.5,234.943l1.935-4.011q.991.779,2.123,1.557c.708.519,1.463,1.038,2.171,1.463l-3.162,3.114c-.519-.33-1.038-.708-1.557-1.085-.472-.283-.991-.661-1.51-1.038Zm5.568-11.514L149,219.418c1.227.991,2.5,1.935,3.822,2.926,1.321.944,2.69,1.84,4.011,2.642l-3.161,3.161c-1.085-.708-2.218-1.463-3.35-2.265s-2.218-1.6-3.256-2.454Zm5.568-11.561.236-.519,1.7-3.539a67.17,67.17,0,0,0,5.474,4.341c1.982,1.416,3.964,2.642,5.851,3.775l-2.784,2.737-.378.425c-1.7-1.038-3.445-2.171-5.191-3.4a58.807,58.807,0,0,1-4.907-3.822Zm5.615-11.608,1.935-4.058a65.364,65.364,0,0,0,7.125,5.8,68.577,68.577,0,0,0,7.786,4.813l-3.209,3.162a76.4,76.4,0,0,1-7.125-4.483,61.879,61.879,0,0,1-6.512-5.238Zm5.662-11.7L165.9,184.5a73.784,73.784,0,0,0,8.682,7.361,66.51,66.51,0,0,0,9.815,5.8l-3.209,3.209a73.866,73.866,0,0,1-9.107-5.474,64.369,64.369,0,0,1-8.163-6.842Z" transform="translate(-136.149 -177.441)" fill="#ffcb9d" fill-rule="evenodd"/>
          <path id="Path_901-2" data-name="Path 901" d="M231.566,304.976l3.681-6.276c-1.416,4.388-1.652,4.2,2.029,1.416l-4.766,5.521a.641.641,0,0,1-.755.094h0C231.519,305.495,231.425,305.165,231.566,304.976Z" transform="translate(-231.5 -237.754)" fill="#ffcb9d" fill-rule="evenodd"/>
          <path id="Path_902-2" data-name="Path 902" d="M130.185,169.8c.8-1.085,6.04,1.274,11.7,5.332s9.626,8.21,8.824,9.343c-.8,1.085-6.04-1.274-11.7-5.332s-9.626-8.211-8.824-9.343Z" transform="translate(-97.182 -169.541)" fill="#71262b" fill-rule="evenodd"/>
        </g>
        <g id="Green_Trumpet-2" data-name="Green_Trumpet" transform="translate(3.001 66.328)">
          <path id="Path_903-2" data-name="Path 903" d="M131.6,290.371l22.036-11.985L175.767,266.4l2.69,8.069,2.737,8.022-24.82,3.964Z" transform="translate(-131.279 -266.383)" fill="#45b431" fill-rule="evenodd"/>
          <path id="Path_904-2" data-name="Path 904" d="M142.2,289.478l2.642-1.416c.189.566.33,1.133.519,1.7a17.064,17.064,0,0,0,.613,1.652l-2.926.472c-.142-.378-.283-.8-.425-1.18a7.617,7.617,0,0,1-.425-1.227Zm7.55-4.105,2.642-1.416c.283.991.566,2.029.944,3.067.33,1.038.755,2.029,1.132,3.02l-2.973.472c-.33-.849-.661-1.652-.944-2.548-.33-.849-.566-1.746-.8-2.6Zm7.6-4.105.33-.189,2.312-1.274q.5,2.194,1.274,4.53t1.7,4.388l-2.6.425-.378.047c-.519-1.227-1.038-2.548-1.51-3.917a34.32,34.32,0,0,1-1.133-4.011Zm7.6-4.152,2.642-1.463a44.845,44.845,0,0,0,1.6,5.946,49.516,49.516,0,0,0,2.359,5.71l-3.02.472a54.916,54.916,0,0,1-2.123-5.238,51.816,51.816,0,0,1-1.463-5.426Zm7.691-4.152,2.69-1.463a46.273,46.273,0,0,0,1.84,7.455,49.157,49.157,0,0,0,3.02,7.031l-3.02.472a42.168,42.168,0,0,1-2.784-6.559,49.743,49.743,0,0,1-1.746-6.936Z" transform="translate(-135.273 -269.077)" fill="#a7ffa7" fill-rule="evenodd"/>
          <path id="Path_905-2" data-name="Path 905" d="M226.48,314.182l4.483-1.982c-2.5,1.84-2.548,1.652.566,1.557l-4.766,1.132a.38.38,0,0,1-.425-.236h0A.351.351,0,0,1,226.48,314.182Z" transform="translate(-226.3 -290.572)" fill="#a7ffa7" fill-rule="evenodd"/>
          <path id="Path_906-2" data-name="Path 906" d="M131.076,266.381c.9-.283,2.784,3.067,4.294,7.5s2.029,8.258,1.132,8.588c-.9.283-2.784-3.067-4.294-7.5-1.463-4.436-1.982-8.3-1.132-8.588Z" transform="translate(-86.588 -266.365)" fill="#1b4513" fill-rule="evenodd"/>
        </g>
        <g id="Papers-2" data-name="Papers" transform="translate(42.989 0)">
          <path id="Path_907-2" data-name="Path 907" d="M85.842,260.965c2.407-2.6,3.539-7.55,8.494-5.9,4.011,1.368,9.249-2.69,6.465.283-2.171,2.312-9.013-.661-9.39.9-.472,1.84-5.426,4.53-5.568,4.719Z" transform="translate(-70.743 -193.63)" fill="#ffa758" fill-rule="evenodd"/>
          <path id="Path_908-2" data-name="Path 908" d="M65.31,270.7c9.3,0,4.105.425,7.078,2.312.283.189,4.152.189.33.661-2.69.33-.283-2.312-7.031-2.029-.142,0-1.321-.944-.377-.944Z" transform="translate(-33.695 -202.326)" fill="#ef5160" fill-rule="evenodd"/>
          <path id="Path_909-2" data-name="Path 909" d="M73.6,240.048l1.7-2.076,5.191-.472-1.652,1.793Z" transform="translate(-43.872 -184.792)" fill="#a7ffa7" fill-rule="evenodd"/>
          <path id="Path_910-2" data-name="Path 910" d="M105.4,293.73l2.171-.33,5,3.02-2.123.236Z" transform="translate(-90.961 -214.315)" fill="#a7ffa7" fill-rule="evenodd"/>
          <path id="Path_911-2" data-name="Path 911" d="M46.4,295.322c3.775-1.51,1.274,7.975,5.143,5.851,1.227-.661-2.076,3.161-3.209-.047-.283-.9,1.18-5.474-2.5-5.332-.377,0-1.51-2.029.283-.519.142.094.142.094.283.047Z" transform="translate(-1.758 -215.01)" fill="#ffa758" fill-rule="evenodd"/>
          <path id="Path_912-2" data-name="Path 912" d="M120.5,251.366l.283,1.935,3.586-4.341-.755-2.359Z" transform="translate(-109.883 -189.598)" fill="#fff0e6" fill-rule="evenodd"/>
          <path id="Path_913-2" data-name="Path 913" d="M66.974,220.1l-1.274.236,2.878,2.359,1.557-.519Z" transform="translate(-29.791 -175.603)" fill="#fff0e6" fill-rule="evenodd"/>
          <path id="Path_914-2" data-name="Path 914" d="M80.636,305.153l-.236-2.69,3.3-3.964.094,2.407Z" transform="translate(-50.389 -217.008)" fill="#fff0e6" fill-rule="evenodd"/>
          <path id="Path_915-2" data-name="Path 915" d="M123.182,273.33,121.2,273l3.114,4.766,2.454-.047Z" transform="translate(-112.612 -203.541)" fill="#f3cd3e" fill-rule="evenodd"/>
          <path id="Path_916-2" data-name="Path 916" d="M101.374,235.4l-1.274.189,2.878,2.359,1.557-.519Z" transform="translate(-80.423 -183.683)" fill="#f3cd3e" fill-rule="evenodd"/>
          <path id="Path_917-2" data-name="Path 917" d="M62.421,248.5l-1.321.189,2.926,2.359,1.557-.519Z" transform="translate(-23.067 -190.602)" fill="#f3cd3e" fill-rule="evenodd"/>
          <path id="Path_918-2" data-name="Path 918" d="M104.774,162.8l-1.274.189,2.878,2.359,1.557-.519Z" transform="translate(-85.427 -145.341)" fill="#a7ffa7" fill-rule="evenodd"/>
          <path id="Path_919-2" data-name="Path 919" d="M123.2,176.866l.33,1.935,3.586-4.388-.8-2.312Z" transform="translate(-113.904 -150.253)" fill="#f3cd3e" fill-rule="evenodd"/>
          <path id="Path_920-2" data-name="Path 920" d="M134.8,158.1l1.7-2.123,5.143-.472-1.6,1.793Z" transform="translate(-133.903 -141.486)" fill="#ffa758" fill-rule="evenodd"/>
          <path id="Path_921-2" data-name="Path 921" d="M82.656,191.061c3.067-1.793,5.568-6.229,9.815-3.209,3.445,2.454,9.626.094,6.087,2.123-2.784,1.6-8.446-3.256-9.249-1.84-.944,1.652-6.465,2.784-6.653,2.926Z" transform="translate(-67.273 -158.03)" fill="#ef5160" fill-rule="evenodd"/>
          <path id="Path_922-2" data-name="Path 922" d="M103.221,147.8l-1.321.189,2.878,2.359,1.557-.472Z" transform="translate(-83.072 -137.419)" fill="#fff0e6" fill-rule="evenodd"/>
          <path id="Path_923-2" data-name="Path 923" d="M119.2,130.519l.33,1.982,3.586-4.388-.8-2.312Z" transform="translate(-108.017 -125.8)" fill="#ef5160" fill-rule="evenodd"/>
          <path id="Path_924-2" data-name="Path 924" d="M143.074,132.5l-1.274.236,2.878,2.359,1.557-.519Z" transform="translate(-141.8 -129.339)" fill="#f3cd3e" fill-rule="evenodd"/>
        </g>
      </g>
    </g>
    <rect id="Rectangle_582" data-name="Rectangle 582" width="220" height="220" transform="translate(-570 2263)" fill="none"/>
  </g>
</svg>
