<svg xmlns="http://www.w3.org/2000/svg" width="576" height="576" viewBox="0 0 576 576">
  <g id="Group_99" data-name="Group 99" transform="translate(1585 -1305)">
    <g id="Group_90" data-name="Group 90" transform="translate(-1245.427 -303.589)">
      <g id="g582" transform="translate(-76.545 1869.537)">
        <path id="path584" d="M-27.064-36.666l12.374-.885,1.262-10.3L.034-61.523s5.179,15.9,3.285,23.3C1.438-30.835-8.254-31.294-8.254-31.294A26.282,26.282,0,0,0,.461-23.725C2.793-22.456-5.016-3.09-5.016-3.09s8.966,22.457-.187,28.8C-16.285,33.36-19.456,46.1-19.456,46.1s-8.16-17.156-14.9-20.368-.441-29-.441-29S-44.74-20.252-43.84-21.05a113.607,113.607,0,0,0,9.706-10.124s-12.058-.947-11.237-10.653a105.541,105.541,0,0,1,3.407-18.41l12.565,11.8Z" transform="translate(45.411 61.523)" fill="#1a1a1a"/>
      </g>
      <g id="g586" transform="translate(-40.79 1875.534)">
        <path id="path588" d="M0-30.018s.649-17.091,8.318-20.35L10.5-42.643l-.965,1.57,1.5.514s3.04,15-11.035,10.542" transform="translate(0 50.368)" fill="#313131"/>
      </g>
      <g id="g590" transform="translate(-73.765 1874.429)">
        <path id="path592" d="M-19.4-32.415S-18.2-43.193-31-54.389l-1.453,10.264,2.447.854-2.336,1.3s-2.92,12.079,12.941,9.553" transform="translate(32.554 54.389)" fill="#313131"/>
      </g>
      <g id="g594" transform="translate(-339.437 1820.349)">
        <path id="path596" d="M-118.147-75.8C-149.16-56.255-198.242-7.615-198.242-7.615S-79.276-50.945-88.918,13.919c0,0,94.5-45.207,69.757,6.559,0,0,58.867-32.348,55.948,6.769,0,0,33.017-21.376,54.919-13.365,4.419-4-12.622-32.663-12.622-32.663S14.014-77.223,33.742-127.141c0,0-64.725-3.615-151.889,51.339" transform="translate(198.242 127.19)" fill="#1a1a1a"/>
      </g>
      <g id="g598" transform="translate(-156.173 1826.174)">
        <path id="path600" d="M0-202.223l6.313-2.817s30.3-125.507,38.049-134.275c0,0-16.618,13.067-44.362,137.092" transform="translate(0 339.315)" fill="#313131"/>
      </g>
      <g id="g602" transform="translate(-226.325 1833.27)">
        <path id="path604" d="M0-183.259l5.76-3.092L106.53-307.494S2.052-191.387,0-183.259" transform="translate(0 307.494)" fill="#313131"/>
      </g>
      <g id="g606" transform="translate(-328.815 1827.51)">
        <path id="path608" d="M-309.51-.066s-85.758-5.565-209.824,107.082l15.642-5.88s75.769-76.67,194.182-101.2" transform="translate(519.333 0.111)" fill="#313131"/>
      </g>
      <g id="g610" transform="translate(-53.047 1815.585)">
        <path id="path612" d="M-304.288-65.6c31.881,18.07,83.19,64.359,83.19,64.359S-341.961-38.969-329.306,25.381c0,0-96.505-40.741-69.36,9.817,0,0-60.323-29.554-55.588,9.373,0,0-33.961-19.807-55.471-10.779C-514.335,30.014-498.632.579-498.632.579s62.247-61.434,40.216-110.372c0,0,64.484-6.629,154.127,44.19" transform="translate(510.573 110.077)" fill="#1a1a1a"/>
      </g>
      <g id="g614" transform="translate(3.715 1821.447)">
        <path id="path616" d="M-74.842-198.917l-6.436-2.5s-36.141-123.96-44.3-132.348c0,0,17.221,12.263,50.737,134.85" transform="translate(125.58 333.767)" fill="#313131"/>
      </g>
      <g id="g618" transform="translate(12.033 1828.155)">
        <path id="path620" d="M-165.574-175.7-171.5-178.5-277.821-294.8s109.8,111.092,112.247,119.109" transform="translate(277.821 294.805)" fill="#313131"/>
      </g>
      <g id="g622" transform="translate(10.964 1822.266)">
        <path id="path624" d="M0-.327S85.394-9.9,214.6,96.813l-15.91-5.129S119.418,18.63,0-.327" transform="translate(0 0.548)" fill="#313131"/>
      </g>
      <g id="g650" transform="translate(-71.022 1907.42)">
        <path id="path652" d="M-10.579,0a7.177,7.177,0,0,0-7.172,7.181,7.171,7.171,0,0,0,7.172,7.181,7.175,7.175,0,0,0,7.19-7.181A7.181,7.181,0,0,0-10.579,0" transform="translate(17.751)" fill="#f98008"/>
      </g>
      <g id="g654" transform="translate(-49.453 1907.428)">
        <path id="path656" d="M0-10.58A7.155,7.155,0,0,0,7.172-3.4a7.166,7.166,0,0,0,7.173-7.181,7.17,7.17,0,0,0-7.173-7.172A7.159,7.159,0,0,0,0-10.58" transform="translate(0 17.752)" fill="#f98008"/>
      </g>
    </g>
    <rect id="Rectangle_26" data-name="Rectangle 26" width="576" height="576" transform="translate(-1585 1305)" fill="none"/>
  </g>
</svg>
