<svg xmlns="http://www.w3.org/2000/svg" width="220" height="220" viewBox="0 0 220 220">
  <g id="Group_754" data-name="Group 754" transform="translate(254 -2433)">
    <g id="Group_753" data-name="Group 753" transform="translate(-409.456 29.543)">
      <g id="Group_752" data-name="Group 752" transform="translate(155.616 2403.457)">
        <circle id="Ellipse_81" data-name="Ellipse 81" cx="79.497" cy="79.497" r="79.497" transform="translate(0 86.334) rotate(-32.889)" fill="#fb0"/>
        <circle id="Ellipse_82" data-name="Ellipse 82" cx="61.336" cy="61.336" r="61.336" transform="translate(28.959 141.076) rotate(-66.034)" fill="#ffdc12"/>
        <g id="Group_751" data-name="Group 751" transform="translate(30.469 30.4)">
          <path id="Path_738" data-name="Path 738" d="M78.3,132.371v17.99h5.14V132.2H80.87C80.013,132.2,79.157,132.371,78.3,132.371Z" transform="translate(-1.373 -132.2)" fill="#ffdc12"/>
          <path id="Path_739" data-name="Path 739" d="M38.9,158.726l15.591,9.08c.857-1.542,1.713-3.084,2.741-4.626L41.641,154.1C40.613,155.642,39.757,157.184,38.9,158.726Z" transform="translate(-29.477 -116.579)" fill="#ffdc12"/>
          <path id="Path_740" data-name="Path 740" d="M64.38,156.032l4.626-2.57L59.926,137.7c-1.542.857-3.084,1.713-4.626,2.741Z" transform="translate(-17.779 -128.277)" fill="#ffdc12"/>
          <path id="Path_741" data-name="Path 741" d="M115.6,177.1v5.14h18.161V177.1Z" transform="translate(25.233 -100.173)" fill="#ffdc12"/>
          <path id="Path_742" data-name="Path 742" d="M125.691,154.1,110.1,163.18l2.57,4.626,15.762-9.08C127.576,157.184,126.548,155.642,125.691,154.1Z" transform="translate(21.31 -116.579)" fill="#ffdc12"/>
          <path id="Path_743" data-name="Path 743" d="M96.4,153.291c1.542.857,3.084,1.713,4.626,2.741l9.08-15.591c-1.542-.857-3.084-1.885-4.626-2.741Z" transform="translate(11.538 -128.277)" fill="#ffdc12"/>
          <path id="Path_744" data-name="Path 744" d="M101.026,208.9,96.4,211.47l9.08,15.762c1.542-.857,3.084-1.713,4.626-2.741Z" transform="translate(11.538 -77.49)" fill="#ffdc12"/>
          <path id="Path_745" data-name="Path 745" d="M83.54,232.49V214.5H78.4v18.161h2.57A11.345,11.345,0,0,1,83.54,232.49Z" transform="translate(-1.302 -73.496)" fill="#ffdc12"/>
          <path id="Path_746" data-name="Path 746" d="M128.332,204.28l-15.591-9.08c-.857,1.542-1.713,3.084-2.741,4.626l15.591,9.08A32.724,32.724,0,0,0,128.332,204.28Z" transform="translate(21.238 -87.262)" fill="#ffdc12"/>
          <path id="Path_747" data-name="Path 747" d="M33.571,182.34h17.99V177.2H33.4v2.57A12.968,12.968,0,0,0,33.571,182.34Z" transform="translate(-33.4 -100.102)" fill="#ffdc12"/>
          <path id="Path_748" data-name="Path 748" d="M57.132,199.826l-2.57-4.626L38.8,204.28c.857,1.542,1.713,3.084,2.741,4.626Z" transform="translate(-29.548 -87.262)" fill="#ffdc12"/>
          <path id="Path_749" data-name="Path 749" d="M68.906,211.541c-1.542-.857-3.084-1.713-4.626-2.741L55.2,224.391c1.542.857,3.084,1.885,4.626,2.741Z" transform="translate(-17.85 -77.562)" fill="#ffdc12"/>
        </g>
      </g>
      <path id="Path_750" data-name="Path 750" d="M118.354,202.373A16.121,16.121,0,0,0,116.3,198.6a17.913,17.913,0,0,0-3.255-2.913,15.4,15.4,0,0,0-4.112-2.056v-.171a13.952,13.952,0,0,0,5.825-5.483,14.87,14.87,0,0,0,1.713-7.2,13.421,13.421,0,0,0-.685-4.455,11.965,11.965,0,0,0-2.227-4.112,15.123,15.123,0,0,0-3.769-3.6,21.865,21.865,0,0,0-5.311-2.57,40.5,40.5,0,0,0-5.654-1.2V155.6H92.483v8.909H85.63V155.6H79.291v8.909H63.7v10.28h8.909v40.605H63.7v10.28H79.291v8.909H85.63v-8.909h6.853v8.909h6.339v-9.252c.857-.171,1.713-.171,2.4-.343l2.57-.514a25.608,25.608,0,0,0,7.539-3.255,17.25,17.25,0,0,0,4.8-4.455,15.3,15.3,0,0,0,2.57-4.969,16.221,16.221,0,0,0,.685-4.8A18.355,18.355,0,0,0,118.354,202.373Zm-25.7-28.441a30.366,30.366,0,0,1,4.112.171c1.028.171,2.056.343,2.913.514,2.056.685,3.427,1.542,4.112,2.741a7.359,7.359,0,0,1,1.2,4.283,8.139,8.139,0,0,1-1.028,4.112,6.985,6.985,0,0,1-3.6,2.913c-1.542.685-3.769.857-6.853.857H83.4V173.761h9.252Zm14.563,35.979a6.722,6.722,0,0,1-1.371,2.4,9.982,9.982,0,0,1-2.57,1.885,17.5,17.5,0,0,1-3.941,1.371q-1.542.257-3.6.514a43.385,43.385,0,0,1-4.969.171H83.4V199.118H94.025a35.932,35.932,0,0,1,4.626.171q1.8.257,3.084.514a8.487,8.487,0,0,1,4.455,2.913,6.594,6.594,0,0,1,1.371,4.455A7.1,7.1,0,0,1,107.218,209.911Z" transform="translate(174.298 2318.347)" fill="#ff8c00"/>
    </g>
    <rect id="Rectangle_430" data-name="Rectangle 430" width="220" height="220" transform="translate(-254 2433)" fill="none"/>
  </g>
</svg>
