<svg xmlns="http://www.w3.org/2000/svg" width="220.824" height="220" viewBox="0 0 220.824 220">
  <g id="Group_755" data-name="Group 755" transform="translate(254.824 -2433)">
    <g id="Group_749" data-name="Group 749" transform="translate(-601.524 2147.7)">
      <g id="Group_747" data-name="Group 747" transform="translate(346.7 285.3)">
        <path id="Path_703" data-name="Path 703" d="M363.376,285.3a3.483,3.483,0,0,0-3.476,3.476v30.237a3.483,3.483,0,0,0,3.476,3.475,3.737,3.737,0,0,0,3.475-3.475V288.776A3.284,3.284,0,0,0,363.376,285.3Z" transform="translate(-314.023 -285.3)" fill="#ff8c00"/>
        <path id="Path_704" data-name="Path 704" d="M368.376,285.3a3.483,3.483,0,0,0-3.475,3.476v30.237a3.475,3.475,0,0,0,6.951,0V288.776A3.284,3.284,0,0,0,368.376,285.3Z" transform="translate(-301.646 -285.3)" fill="#ff8c00"/>
        <path id="Path_705" data-name="Path 705" d="M373.376,285.3a3.483,3.483,0,0,0-3.475,3.476v30.237a3.475,3.475,0,0,0,6.951,0V288.776A3.284,3.284,0,0,0,373.376,285.3Z" transform="translate(-289.268 -285.3)" fill="#ff8c00"/>
        <path id="Path_706" data-name="Path 706" d="M378.376,285.3a3.483,3.483,0,0,0-3.476,3.476v30.237a3.476,3.476,0,0,0,6.951,0V288.776A3.284,3.284,0,0,0,378.376,285.3Z" transform="translate(-276.891 -285.3)" fill="#ff8c00"/>
        <path id="Path_707" data-name="Path 707" d="M383.376,285.3a3.483,3.483,0,0,0-3.476,3.476v30.237a3.476,3.476,0,0,0,6.951,0V288.776A3.284,3.284,0,0,0,383.376,285.3Z" transform="translate(-264.513 -285.3)" fill="#ff8c00"/>
        <path id="Path_708" data-name="Path 708" d="M388.375,285.3a3.483,3.483,0,0,0-3.475,3.476v30.237a3.476,3.476,0,0,0,6.951,0V288.776A3.284,3.284,0,0,0,388.375,285.3Z" transform="translate(-252.135 -285.3)" fill="#ff8c00"/>
        <path id="Path_709" data-name="Path 709" d="M393.375,285.3a3.483,3.483,0,0,0-3.475,3.476v30.237a3.483,3.483,0,0,0,3.475,3.475,3.738,3.738,0,0,0,3.476-3.475V288.776A3.284,3.284,0,0,0,393.375,285.3Z" transform="translate(-239.758 -285.3)" fill="#ff8c00"/>
        <path id="Path_710" data-name="Path 710" d="M398.376,285.3a3.483,3.483,0,0,0-3.476,3.476v30.237a3.483,3.483,0,0,0,3.476,3.475,3.737,3.737,0,0,0,3.475-3.475V288.776C402.2,286.69,400.461,285.3,398.376,285.3Z" transform="translate(-227.38 -285.3)" fill="#ff8c00"/>
        <path id="Path_711" data-name="Path 711" d="M363.376,337.9a3.483,3.483,0,0,0-3.476,3.476v30.237a3.483,3.483,0,0,0,3.476,3.476,3.738,3.738,0,0,0,3.475-3.476V341.723A3.572,3.572,0,0,0,363.376,337.9Z" transform="translate(-314.023 -155.088)" fill="#ff8c00"/>
        <path id="Path_712" data-name="Path 712" d="M368.376,337.9a3.483,3.483,0,0,0-3.475,3.476v30.237a3.475,3.475,0,1,0,6.951,0V341.723A3.572,3.572,0,0,0,368.376,337.9Z" transform="translate(-301.646 -155.088)" fill="#ff8c00"/>
        <path id="Path_713" data-name="Path 713" d="M373.376,337.9a3.483,3.483,0,0,0-3.475,3.476v30.237a3.475,3.475,0,1,0,6.951,0V341.723A3.572,3.572,0,0,0,373.376,337.9Z" transform="translate(-289.268 -155.088)" fill="#ff8c00"/>
        <path id="Path_714" data-name="Path 714" d="M378.376,337.9a3.483,3.483,0,0,0-3.476,3.476v30.237a3.476,3.476,0,1,0,6.951,0V341.723A3.572,3.572,0,0,0,378.376,337.9Z" transform="translate(-276.891 -155.088)" fill="#ff8c00"/>
        <path id="Path_715" data-name="Path 715" d="M383.376,337.9a3.483,3.483,0,0,0-3.476,3.476v30.237a3.476,3.476,0,1,0,6.951,0V341.723A3.572,3.572,0,0,0,383.376,337.9Z" transform="translate(-264.513 -155.088)" fill="#ff8c00"/>
        <path id="Path_716" data-name="Path 716" d="M388.375,337.9a3.483,3.483,0,0,0-3.475,3.476v30.237a3.476,3.476,0,1,0,6.951,0V341.723A3.572,3.572,0,0,0,388.375,337.9Z" transform="translate(-252.135 -155.088)" fill="#ff8c00"/>
        <path id="Path_717" data-name="Path 717" d="M393.375,337.9a3.483,3.483,0,0,0-3.475,3.476v30.237a3.483,3.483,0,0,0,3.475,3.476,3.738,3.738,0,0,0,3.476-3.476V341.723A3.572,3.572,0,0,0,393.375,337.9Z" transform="translate(-239.758 -155.088)" fill="#ff8c00"/>
        <path id="Path_718" data-name="Path 718" d="M398.376,337.9a3.483,3.483,0,0,0-3.476,3.476v30.237a3.483,3.483,0,0,0,3.476,3.476,3.738,3.738,0,0,0,3.475-3.476V341.723A3.378,3.378,0,0,0,398.376,337.9Z" transform="translate(-227.38 -155.088)" fill="#ff8c00"/>
        <path id="Path_719" data-name="Path 719" d="M402.876,305.451h30.237a3.476,3.476,0,1,0,0-6.951H402.876a3.476,3.476,0,1,0,0,6.951Z" transform="translate(-216.24 -252.623)" fill="#ff8c00"/>
        <path id="Path_720" data-name="Path 720" d="M433.113,303.5H402.876a3.475,3.475,0,1,0,0,6.951h30.237a3.483,3.483,0,0,0,3.476-3.476A3.284,3.284,0,0,0,433.113,303.5Z" transform="translate(-216.24 -240.246)" fill="#ff8c00"/>
        <path id="Path_721" data-name="Path 721" d="M433.113,308.5H402.876a3.476,3.476,0,1,0,0,6.951h30.237a3.483,3.483,0,0,0,3.476-3.476A3.284,3.284,0,0,0,433.113,308.5Z" transform="translate(-216.24 -227.868)" fill="#ff8c00"/>
        <path id="Path_722" data-name="Path 722" d="M433.113,313.5H402.876a3.476,3.476,0,1,0,0,6.951h30.237a3.483,3.483,0,0,0,3.476-3.475A3.284,3.284,0,0,0,433.113,313.5Z" transform="translate(-216.24 -215.491)" fill="#ff8c00"/>
        <path id="Path_723" data-name="Path 723" d="M433.113,318.5H402.876a3.483,3.483,0,0,0-3.476,3.475,3.738,3.738,0,0,0,3.476,3.475h30.237a3.475,3.475,0,1,0,0-6.951Z" transform="translate(-216.24 -203.113)" fill="#ff8c00"/>
        <path id="Path_724" data-name="Path 724" d="M433.113,323.5H402.876a3.476,3.476,0,1,0,0,6.951h30.237a3.483,3.483,0,0,0,3.476-3.476A3.284,3.284,0,0,0,433.113,323.5Z" transform="translate(-216.24 -190.735)" fill="#ff8c00"/>
        <path id="Path_725" data-name="Path 725" d="M433.113,328.5H402.876a3.476,3.476,0,1,0,0,6.951h30.237a3.483,3.483,0,0,0,3.476-3.475A3.284,3.284,0,0,0,433.113,328.5Z" transform="translate(-216.24 -178.358)" fill="#ff8c00"/>
        <path id="Path_726" data-name="Path 726" d="M433.113,333.5H402.876a3.476,3.476,0,1,0,0,6.951h30.237a3.476,3.476,0,1,0,0-6.951Z" transform="translate(-216.24 -165.98)" fill="#ff8c00"/>
        <path id="Path_727" data-name="Path 727" d="M380.413,298.4H350.176a3.476,3.476,0,0,0,0,6.951h30.237a3.483,3.483,0,0,0,3.475-3.475C384.236,300.138,382.5,298.4,380.413,298.4Z" transform="translate(-346.7 -252.871)" fill="#ff8c00"/>
        <path id="Path_728" data-name="Path 728" d="M380.413,303.5H350.176a3.475,3.475,0,0,0,0,6.951h30.237a3.483,3.483,0,0,0,3.475-3.476C384.236,304.89,382.5,303.5,380.413,303.5Z" transform="translate(-346.7 -240.246)" fill="#ff8c00"/>
        <path id="Path_729" data-name="Path 729" d="M380.413,308.5H350.176a3.476,3.476,0,0,0,0,6.951h30.237a3.483,3.483,0,0,0,3.475-3.476C384.236,309.89,382.5,308.5,380.413,308.5Z" transform="translate(-346.7 -227.868)" fill="#ff8c00"/>
        <path id="Path_730" data-name="Path 730" d="M380.413,313.5H350.176a3.476,3.476,0,0,0,0,6.951h30.237a3.483,3.483,0,0,0,3.475-3.475C384.236,314.89,382.5,313.5,380.413,313.5Z" transform="translate(-346.7 -215.491)" fill="#ff8c00"/>
        <path id="Path_731" data-name="Path 731" d="M380.413,318.5H350.176a3.483,3.483,0,0,0-3.475,3.475,3.737,3.737,0,0,0,3.475,3.475h30.237a3.475,3.475,0,0,0,0-6.951Z" transform="translate(-346.7 -203.113)" fill="#ff8c00"/>
        <path id="Path_732" data-name="Path 732" d="M380.413,323.5H350.176a3.476,3.476,0,0,0,0,6.951h30.237a3.483,3.483,0,0,0,3.475-3.476C384.236,324.89,382.5,323.5,380.413,323.5Z" transform="translate(-346.7 -190.735)" fill="#ff8c00"/>
        <path id="Path_733" data-name="Path 733" d="M380.413,328.5H350.176a3.476,3.476,0,0,0,0,6.951h30.237a3.483,3.483,0,0,0,3.475-3.475C384.236,329.89,382.5,328.5,380.413,328.5Z" transform="translate(-346.7 -178.358)" fill="#ff8c00"/>
        <path id="Path_734" data-name="Path 734" d="M380.413,333.5H350.176a3.476,3.476,0,0,0,0,6.951h30.237a3.483,3.483,0,0,0,3.475-3.475C384.236,335.238,382.5,333.5,380.413,333.5Z" transform="translate(-346.7 -165.98)" fill="#ff8c00"/>
      </g>
      <g id="Group_748" data-name="Group 748" transform="translate(380.413 319.013)">
        <rect id="Rectangle_423" data-name="Rectangle 423" width="152.923" height="152.923" fill="#fb0"/>
        <rect id="Rectangle_424" data-name="Rectangle 424" width="108.088" height="108.088" transform="translate(22.591 21.548)" fill="#ffdc12"/>
      </g>
      <path id="Path_735" data-name="Path 735" d="M418.915,347.354a16.459,16.459,0,0,0-4.518-3.823,6.233,6.233,0,0,0,1.738-2.433c1.39-2.085,1.738-4.518,1.738-7.3a14.012,14.012,0,0,0-2.085-7.646c-1.39-2.433-4.171-4.171-7.646-5.213h-.348V308.775a3.476,3.476,0,0,0-6.951,0v11.469h-6.951V308.775a3.483,3.483,0,0,0-3.476-3.475,3.738,3.738,0,0,0-3.476,3.475v11.469H374.776a3.476,3.476,0,1,0,0,6.951h7.994v36.84h-7.994a3.476,3.476,0,1,0,0,6.951H386.94V383.5a3.483,3.483,0,0,0,3.476,3.476,3.738,3.738,0,0,0,3.476-3.476V370.987h6.951V383.5a3.476,3.476,0,1,0,6.951,0V369.945a14.884,14.884,0,0,0,5.908-2.085,13.905,13.905,0,0,0,4.171-3.475,11.445,11.445,0,0,0,2.433-4.518A20.514,20.514,0,0,0,421,355,9.951,9.951,0,0,0,418.915,347.354ZM402.927,327.2a6.94,6.94,0,0,1,3.128.7c1.738.7,3.128,1.39,3.823,2.433a7.531,7.531,0,0,1,0,7.646,7.57,7.57,0,0,1-3.128,2.433,21.919,21.919,0,0,1-7.646,1.043h-9.731v-13.9h8.689A28.386,28.386,0,0,1,402.927,327.2Zm11.122,30.584a7.6,7.6,0,0,1-1.043,1.738,6.235,6.235,0,0,1-2.433,1.738,11.728,11.728,0,0,1-4.171,1.39c-1.043.348-2.433.348-4.171.7-1.738,0-3.823.348-6.256.348H389.72v-15.64h10.427a24.722,24.722,0,0,1,5.561.348,10.282,10.282,0,0,1,3.475.7c2.085.7,3.476,1.39,4.171,2.433a7.006,7.006,0,0,1,1.043,3.823C414.4,356.39,414.049,357.085,414.049,357.78Z" transform="translate(60.898 49.51)" fill="#ff8c00"/>
    </g>
    <rect id="Rectangle_431" data-name="Rectangle 431" width="220" height="220" transform="translate(-254 2433)" fill="none"/>
  </g>
</svg>
