<svg xmlns="http://www.w3.org/2000/svg" width="220" height="220" viewBox="0 0 220 220">
  <g id="Group_575" data-name="Group 575" transform="translate(254 -2433)">
    <g id="Group_574" data-name="Group 574" transform="translate(175 -649)">
      <g id="g344" transform="translate(-421.54 3260.837)">
        <path id="path346" d="M-15.864,0H176.229a6.859,6.859,0,0,1,6.86,6.86V34.3a6.862,6.862,0,0,1-6.86,6.86H-15.864a6.859,6.859,0,0,1-6.86-6.86V6.86A6.857,6.857,0,0,1-15.864,0" transform="translate(22.724)" fill="#6aaf2e" fill-rule="evenodd"/>
      </g>
      <g id="g348" transform="translate(-407.819 3082.465)">
        <path id="path350" d="M-380.734-74.032H-394.96c-15.074-16.807-36.888-32.016-61.24-32.016s-46.165,15.209-61.239,32.016h-14.226a13.723,13.723,0,0,0-13.721,13.721V72.325h178.372V-60.311a13.723,13.723,0,0,0-13.721-13.721" transform="translate(545.385 106.048)" fill="#4d4949" fill-rule="evenodd"/>
      </g>
      <g id="g352" transform="translate(-407.819 3124.776)">
        <path id="path354" d="M-134.007-49.559c0-5.045-1.961-8.85-6.892-9.053a7.7,7.7,0,0,0-2.885.411v18.125h2.064c5.154,0,7.713-4.429,7.713-9.483M-190.445,65.071h-1.514V56.017l13.7-24.579,21.912-7.558,22.725-29.051a118.289,118.289,0,0,1-2.224-12.423c-1.045-8.254-2.885-10.21-6.405-10.21h-1.536v26.57h-15.883V-69.646A95.9,95.9,0,0,1-143.49-70.99c7.646,0,14.949.933,19.782,5.259,4.543,4.013,5.784,8.656,5.784,14.845a18.506,18.506,0,0,1-10.514,17.1v.212c4.538,2.061,6.789,6.182,8.044,12.978,1.229,6.9,3.292,16.7,4.636,19.362h-16.709a17.826,17.826,0,0,1-.768-2.427L-153.7,26.909l-22.274,7.549Zm125.628-103.9a11.874,11.874,0,0,0,1.867.1c6.374,0,8.437-4.733,8.437-9.791,0-5.556-2.265-9.676-7.419-9.676a7.952,7.952,0,0,0-2.885.509Zm-15.865,37.6V-69.646A82.269,82.269,0,0,1-65.438-70.99c8.754,0,15.454,1.043,20.4,5.467,4.44,3.806,6.3,9.784,6.3,15.555,0,8.048-2.577,13.812-6.593,17.828C-49.882-27.8-57.09-25.96-62.446-25.96h-2.371V-1.234Zm-11.774,0h-15.963V-70.678h15.963Z" transform="translate(191.96 70.99)" fill="#3d3d3d" fill-rule="evenodd"/>
      </g>
    </g>
    <rect id="Rectangle_357" data-name="Rectangle 357" width="220" height="220" transform="translate(-254 2433)" fill="none"/>
  </g>
</svg>
