<svg xmlns="http://www.w3.org/2000/svg" width="576" height="576" viewBox="0 0 576 576">
  <g id="Group_104" data-name="Group 104" transform="translate(742 -1052)">
    <g id="Group_95" data-name="Group 95" transform="translate(-646.802 -1384.744)">
      <g id="g660" transform="translate(336.424 2734.247)">
        <path id="path662" d="M0-300.883l22.852-106.3,50.33-37.912,19.843,58.549L45.633-283.832Z" transform="translate(0 445.094)" fill="#1a1a1a"/>
      </g>
      <g id="g664" transform="translate(376.937 2778.22)">
        <path id="path666" d="M-60.647-30.543l-9.478-3.164,3-8.937-7.593-2.538-2.981,8.93-9.478-3.178-2.532,7.608,9.478,3.15L-86.846-8.894l7.58,2.524,6.609-19.758,9.478,3.171Z" transform="translate(89.714 45.183)" fill="#f98008"/>
      </g>
      <g id="g668" transform="translate(-79.096 2654.02)">
        <path id="path670" d="M-21.154-10.563A5.069,5.069,0,0,1-26.217-5.5a5.072,5.072,0,0,1-5.076-5.063,5.062,5.062,0,0,1,5.076-5.063,5.059,5.059,0,0,1,5.063,5.063" transform="translate(31.293 15.625)" fill="#fdfae1"/>
      </g>
      <g id="g672" transform="translate(-33.013 2495.479)">
        <path id="path674" d="M-21.183-10.563A5.062,5.062,0,0,1-26.259-5.5a5.062,5.062,0,0,1-5.076-5.063,5.08,5.08,0,0,1,5.076-5.063,5.08,5.08,0,0,1,5.076,5.063" transform="translate(31.336 15.625)" fill="#fdfae1"/>
      </g>
      <g id="g676" transform="translate(125.134 2563.246)">
        <path id="path678" d="M-21.154-10.621a5.068,5.068,0,0,1-5.062,5.063,5.081,5.081,0,0,1-5.077-5.063,5.087,5.087,0,0,1,5.077-5.091,5.074,5.074,0,0,1,5.062,5.091" transform="translate(31.293 15.712)" fill="#fdfae1"/>
      </g>
      <g id="g680" transform="translate(219.536 2454.282)">
        <path id="path682" d="M-21.154-10.563A5.064,5.064,0,0,1-26.216-5.5a5.067,5.067,0,0,1-5.077-5.063,5.067,5.067,0,0,1,5.077-5.063,5.063,5.063,0,0,1,5.062,5.063" transform="translate(31.293 15.625)" fill="#fdfae1"/>
      </g>
      <g id="g684" transform="translate(224.922 2734.794)">
        <path id="path686" d="M-21.154-10.563a5.074,5.074,0,0,1-5.076,5.076,5.062,5.062,0,0,1-5.063-5.076,5.059,5.059,0,0,1,5.063-5.063,5.071,5.071,0,0,1,5.076,5.063" transform="translate(31.293 15.625)" fill="#fdfae1"/>
      </g>
      <g id="g688" transform="translate(319.211 2678.207)">
        <path id="path690" d="M-21.154-10.592A5.059,5.059,0,0,1-26.217-5.53a5.062,5.062,0,0,1-5.076-5.063,5.065,5.065,0,0,1,5.076-5.077,5.062,5.062,0,0,1,5.063,5.077" transform="translate(31.293 15.669)" fill="#fdfae1"/>
      </g>
      <g id="g692" transform="translate(412.558 2582.083)">
        <path id="path694" d="M-21.154-10.563A5.064,5.064,0,0,1-26.217-5.5a5.076,5.076,0,0,1-5.076-5.063,5.076,5.076,0,0,1,5.076-5.063,5.064,5.064,0,0,1,5.063,5.063" transform="translate(31.293 15.625)" fill="#fdfae1"/>
      </g>
      <g id="g696" transform="translate(262.117 2475.883)">
        <path id="path698" d="M-202.242-92.9a60.979,60.979,0,0,0-24.722-44.528A61.749,61.749,0,0,1-211-100.667c2.826,33.187-20.152,62.522-51.314,65.545A53.973,53.973,0,0,1-299.175-45.2c11.5,12.459,27.984,19.547,45.618,17.846,31.177-3.024,54.141-32.358,51.315-65.546" transform="translate(299.175 137.433)" fill="#f98008"/>
      </g>
      <g id="g700" transform="translate(-95.198 2812.973)">
        <path id="path702" d="M0-379.7c20.5-173.539,413.622-303.238,576,0" transform="translate(0 561.681)" fill="#1a1a1a"/>
      </g>
      <g id="g704" transform="translate(29.804 2638.059)">
        <path id="path706" d="M0-519.35l80.2-97.425-5.751-151.5,135.436,3.825.366,164.975L272.307-518.6Z" transform="translate(0 768.271)" fill="#1a1a1a"/>
      </g>
      <g id="g708" transform="translate(73.792 2525.158)">
        <path id="path710" d="M-100.607-248.569l-48.22,5.829S-76.42-267.243-63-310.605s10.21-57.1,10.21-57.1,3.98,49.612,40.373,81.837c30.727,27.225,58.754,40.022,58.754,40.022Z" transform="translate(148.828 367.706)" fill="#1a1a1a"/>
      </g>
      <g id="g712" transform="translate(146.552 2721.225)">
        <path id="path714" d="M0-21.037,3.768,92.7s53.62-.254,60.033-.049c6.412.175-8.157-123.771-8.157-123.771Z" transform="translate(0 31.12)" fill="#f98008"/>
      </g>
      <g id="g716" transform="translate(132.826 2664.187)">
        <path id="path718" d="M-1.292-78.31a6.293,6.293,0,0,0,2.883.464c1.491,0,1.491-.4,2.981-.38s1.5-.021,3-.021c1.49.021,1.49.5,2.967.5,1.5.014,1.5.042,2.982.042,1.518.021,1.518-.365,3.009-.365s1.927,1.265,3.037.253c1.013-.928.127-1.442.141-2.813.014-1.392-.028-1.392-.014-2.77s.239-1.371.253-2.77c.014-1.364-.407-1.364-.38-2.764,0-1.371.31-1.371.338-2.749,0-1.393.056-1.393.056-2.764.028-1.4-.436-1.4-.422-2.764,0-1.4.2-1.4.211-2.8.014-1.364-.029-1.364-.014-2.763.014-1.371.056-1.371,0-2.763a5.547,5.547,0,0,0-.535-2.658,22.5,22.5,0,0,0-1.547-2.278,11.826,11.826,0,0,0-1.477-2.2c-.591-.654-.928-1.666-1.73-2.137a7.616,7.616,0,0,0-2.671-.675,25.758,25.758,0,0,0-2.63-.049,16.107,16.107,0,0,0-2.615-.288,10.107,10.107,0,0,0-2.573.562A8.852,8.852,0,0,0,1.521-114a8.629,8.629,0,0,0-1.561,2.208,11.044,11.044,0,0,0-1.04,2.5c-.168.7.281,1.779.169,2.926-.085.836-.211,1.779-.267,2.792-.042.9-.239,1.842-.267,2.833-.028.921-.1,1.864-.127,2.834-.014.928.127,1.892.127,2.841s-.169,1.885-.169,2.827c0,.97-.309,1.912-.3,2.862s.506,1.912.52,2.834c.028.991-.239,1.954-.225,2.84.014,1.055.394,2.025.422,2.827.028,1.736-1.42,2.1-.1,2.573" transform="translate(1.911 115.843)" fill="#f98008"/>
      </g>
      <g id="g720" transform="translate(142.332 2659.811)">
        <path id="path722" d="M-5.753-94.143c-.985.963-1.406,1.1-2.363.113s.1-1.258.1-2.651c.029-1.4-.085-1.4-.056-2.8,0-1.392-.183-1.392-.169-2.784.014-1.42-.168-1.42-.168-2.813.028-1.391.422-1.391.422-2.791.028-1.4-.338-1.4-.338-2.791s-.056-1.392-.056-2.785.45-1.4.464-2.8-.507-1.392-.492-2.812c.014-1.392.014-1.392.028-2.784s.2-1.392.211-2.791.365-1.4.365-2.792-.267-1.392-.253-2.784c.014-1.42-.154-1.42-.154-2.813s-.085-1.4-.071-2.8-.337-1.589.647-2.588,1.617-1.209,2.559-.225c.985,1.013-.379,1.421-.408,2.813,0,1.4.366,1.4.337,2.812,0,1.379-.281,1.379-.3,2.77s.6,1.392.591,2.812c-.014,1.392-.576,1.392-.576,2.771-.014,1.42.267,1.42.253,2.812s-.14,1.392-.154,2.784.211,1.4.211,2.812c-.029,1.378-.029,1.378-.057,2.771,0,1.42-.365,1.42-.379,2.812s.436,1.392.422,2.791-.394,1.4-.394,2.791.352,1.392.352,2.813c-.014,1.392-.435,1.371-.45,2.784A12.015,12.015,0,0,0-5.6-96.639c.211,1.322.829,1.484-.155,2.5" transform="translate(8.51 139.265)" fill="#1a1a1a"/>
      </g>
      <g id="g724" transform="translate(130.432 2675.484)">
        <path id="path726" d="M-56.311-2.1c1,.942,1.083,1.575.071,2.5-1.069.985-1.393-.049-2.841-.07s-1.463.042-2.925.021c-1.449,0-1.449.112-2.9.092-1.462,0-1.462.084-2.911.084S-69.262.289-70.725.261c-1.463,0-1.463.2-2.939.2C-75.1.444-75.1.486-76.561.486c-1.477-.021-1.462-.267-2.925-.3-1.462,0-2.039,1.237-3.079.225a1.98,1.98,0,0,1,.028-3.1c1.069-.992,1.618.063,3.066.091,1.462,0,1.462.2,2.911.225,1.462,0,1.462-.155,2.9-.14,1.477,0,1.477-.085,2.939-.085s1.448-.042,2.911-.028,1.449.436,2.911.45,1.448-.2,2.911-.176c1.462,0,1.519.5,2.953.246,1.462-.246,1.687-1.013,2.728,0" transform="translate(83.301 3.109)" fill="#1a1a1a"/>
      </g>
      <g id="g728" transform="translate(130.3 2690.314)">
        <path id="path730" d="M-56.322-2.056c1,.943,1.083,1.575.071,2.517-1.069.992-1.393-.07-2.841-.07s-1.462.049-2.925.028S-63.465.5-64.914.5s-1.462.1-2.91.07c-1.449,0-1.449-.225-2.911-.246S-72.2.531-73.674.5c-1.449,0-1.449.049-2.911.028S-78.034.264-79.5.264c-1.462-.028-2.025,1.21-3.079.2a1.949,1.949,0,0,1,.029-3.08c1.054-.991,1.617.07,3.065.07s1.449.2,2.911.225,1.462-.162,2.9-.141c1.476,0,1.476-.084,2.939-.07s1.449-.042,2.911-.042c1.448.028,1.448.429,2.91.45,1.449,0,1.463-.183,2.925-.183,1.448.028,1.505.5,2.939.253s1.687-1.012,2.728,0" transform="translate(83.316 3.042)" fill="#1a1a1a"/>
      </g>
      <g id="g732" transform="translate(189.78 2663.34)">
        <path id="path734" d="M-1.32-78.287a5.45,5.45,0,0,0,2.868.45c1.505.021,1.519-.365,3-.365s1.49-.014,2.981,0,1.477.479,2.981.5c1.491,0,1.491.021,3,.021,1.477.028,1.491-.359,2.981-.359,1.491.021,1.927,1.258,3.038.246,1.026-.921.14-1.42.155-2.812s-.028-1.392-.014-2.77.225-1.364.239-2.763c.014-1.371-.38-1.371-.38-2.763s.337-1.379.337-2.75c.014-1.4.07-1.4.084-2.791,0-1.371-.45-1.371-.45-2.77.014-1.364.211-1.364.225-2.742s-.029-1.392-.014-2.77.057-1.392-.014-2.785a5.391,5.391,0,0,0-.534-2.658,18.522,18.522,0,0,0-1.547-2.25,10.811,10.811,0,0,0-1.462-2.222c-.59-.661-.942-1.674-1.729-2.138a8.173,8.173,0,0,0-2.686-.675,19.377,19.377,0,0,0-2.63-.028,14.673,14.673,0,0,0-2.6-.309,10.418,10.418,0,0,0-2.588.576,7.876,7.876,0,0,0-2.419,1.238,8.789,8.789,0,0,0-1.575,2.236,11.926,11.926,0,0,0-1.027,2.489c-.169.675.281,1.737.155,2.883-.085.858-.2,1.779-.253,2.813-.056.9-.253,1.842-.281,2.84-.029.914-.1,1.864-.112,2.827-.014.928.141,1.871.112,2.841,0,.942-.169,1.885-.169,2.833s-.3,1.913-.3,2.833c.028.991.52,1.941.52,2.855.029,1-.239,1.962-.225,2.84.029,1.055.394,2,.422,2.833.057,1.737-1.406,2.074-.084,2.567" transform="translate(1.953 115.81)" fill="#f98008"/>
      </g>
      <g id="g736" transform="translate(199.29 2658.955)">
        <path id="path738" d="M-5.743-94.154c-.97.963-1.392,1.1-2.349.127-.956-1.013.085-1.28.1-2.672s-.085-1.392-.071-2.791-.183-1.4-.168-2.792c.014-1.42-.169-1.42-.141-2.812,0-1.371.394-1.371.407-2.784s-.351-1.4-.337-2.8-.07-1.392-.056-2.785.436-1.392.45-2.791-.492-1.4-.492-2.813c.028-1.371.028-1.371.042-2.791.014-1.392.2-1.392.211-2.785s.337-1.4.366-2.8c0-1.391-.282-1.391-.253-2.784,0-1.42-.169-1.42-.155-2.791.015-1.413-.084-1.413-.07-2.812s-.352-1.625.661-2.588c.956-.991,1.6-1.216,2.545-.225.97,1.013-.38,1.414-.394,2.813s.337,1.4.324,2.812c-.014,1.371-.281,1.371-.3,2.763s.6,1.421.59,2.812-.562,1.4-.576,2.8.267,1.392.254,2.785-.141,1.392-.155,2.791.211,1.414.183,2.813c0,1.371-.014,1.371-.028,2.791,0,1.392-.38,1.392-.394,2.771,0,1.413.451,1.413.422,2.812,0,1.392-.366,1.392-.38,2.784s.352,1.392.337,2.812c0,1.392-.422,1.392-.45,2.792a13.649,13.649,0,0,0,.028,2.834c.212,1.329.844,1.5-.154,2.5" transform="translate(8.495 139.281)" fill="#1a1a1a"/>
      </g>
      <g id="g740" transform="translate(187.394 2674.63)">
        <path id="path742" d="M-56.323-2.065c1,.963,1.083,1.589.07,2.517-1.069.985-1.392-.042-2.855-.07-1.448,0-1.448.042-2.9.028s-1.463.112-2.925.112c-1.449-.028-1.449.064-2.911.064C-69.3.565-69.3.339-70.751.339c-1.463-.028-1.463.183-2.925.183-1.448-.028-1.448.014-2.911,0S-78.036.269-79.512.269c-1.448-.021-2.025,1.217-3.066.2a1.971,1.971,0,0,1,.029-3.1c1.069-1,1.6.064,3.066.085,1.448,0,1.448.2,2.9.225,1.463,0,1.463-.155,2.911-.134,1.462,0,1.462-.091,2.911-.091,1.462.029,1.462-.042,2.925-.021,1.462,0,1.462.429,2.911.429,1.462.021,1.462-.183,2.925-.155s1.519.492,2.953.267c1.449-.267,1.674-1.041,2.729-.042" transform="translate(83.318 3.055)" fill="#1a1a1a"/>
      </g>
      <g id="g744" transform="translate(187.259 2689.459)">
        <path id="path746" d="M-56.34-2.05c1,.943,1.069,1.575.07,2.517-1.083,1-1.392-.064-2.84-.085-1.463,0-1.463.071-2.926.042C-63.469.4-63.469.517-64.946.5c-1.463,0-1.463.112-2.911.084C-69.319.58-69.319.34-70.768.34c-1.462-.028-1.462.2-2.925.176S-75.156.566-76.6.538c-1.448,0-1.448-.246-2.911-.267s-2.039,1.209-3.094.2a1.958,1.958,0,0,1,.029-3.08c1.069-.985,1.617.07,3.08.07,1.462.021,1.462.225,2.911.225,1.449.021,1.449-.155,2.9-.14s1.463-.084,2.925-.064c1.449,0,1.449-.063,2.911-.049s1.448.436,2.911.45,1.477-.176,2.911-.176c1.477.021,1.533.514,2.967.274s1.659-1.04,2.728-.028" transform="translate(83.343 3.032)" fill="#1a1a1a"/>
      </g>
      <g id="g748" transform="translate(141.545 2726.42)">
        <path id="path750" d="M0-20.054l3.488,108s50.034-.253,56.011-.07S51.947-29.665,51.947-29.665Z" transform="translate(0 29.665)" fill="#1a1a1a"/>
      </g>
      <path id="path752" d="M1039.582-1701.4h2.433v-139.725h-2.433Z" transform="translate(-869.953 4329.219)" fill="#1a1a1a"/>
      <g id="g754" transform="translate(169.6 2483.582)">
        <path id="path756" d="M0-41.633c7.046-1.716,14.653,5.583,21.7,3.867C29.756-39.72,35.325-50.3,43.383-52.279c-7.1-1.5-14.583,6.054-21.684,4.543C13.7-49.466,8.016-59.859,0-61.588Z" transform="translate(0 61.588)" fill="#1a1a1a"/>
      </g>
      <g id="g758" transform="translate(43.712 2751.22)">
        <path id="path760" d="M-62.435-207.581-92.36-285.073l13.64-22,21.038,12.825,13.3,85.2Z" transform="translate(92.36 307.074)" fill="#1a1a1a"/>
      </g>
      <g id="g762" transform="translate(17.232 2790.074)">
        <path id="path764" d="M-42.073-139.894l-20.165-52.228,9.2-14.822,14.175,8.635,8.958,57.424Z" transform="translate(62.239 206.945)" fill="#1a1a1a"/>
      </g>
      <g id="g766" transform="translate(13.919 2791.434)">
        <path id="path768" d="M-8.878-81.136a2.474,2.474,0,0,0,.366-.127l74.559-32.428a3.3,3.3,0,0,0,1.73-4.345,3.287,3.287,0,0,0-4.359-1.7l-74.559,32.4a3.324,3.324,0,0,0-1.716,4.359,3.3,3.3,0,0,0,3.98,1.842" transform="translate(13.134 120.024)" fill="#1a1a1a"/>
      </g>
      <g id="g770" transform="translate(258.785 2731.757)">
        <path id="path772" d="M-37.672-208.1l28.561-77.984-14.02-21.755-20.8,13.176-11.8,85.417Z" transform="translate(55.728 307.834)" fill="#1a1a1a"/>
      </g>
      <g id="g774" transform="translate(301.014 2770.05)">
        <path id="path776" d="M-25.409-140.275l19.251-52.566-9.45-14.666-14.021,8.887-7.959,57.572Z" transform="translate(37.588 207.507)" fill="#1a1a1a"/>
      </g>
      <g id="g778" transform="translate(254.417 2772.542)">
        <path id="path780" d="M-161.74-78.448a3.112,3.112,0,0,1-.365-.112l-75.122-31.12A3.319,3.319,0,0,1-239.014-114a3.317,3.317,0,0,1,4.317-1.8l75.122,31.12a3.3,3.3,0,0,1,1.786,4.318,3.261,3.261,0,0,1-3.952,1.912" transform="translate(239.261 116.048)" fill="#1a1a1a"/>
      </g>
      <g id="g782" transform="translate(317.833 2654.472)">
        <path id="path784" d="M0-7.594S49.682-28.252,64.87,28.856c0,0,36.436-43.692,74.785-11l-21.037,1.737s3.965,15.272,3.037,15.047c-.956-.226-18.732-9.246-18.732-9.246s-2.714,16.263-3.811,15.349c-1.112-.9-21.094-22.191-36.352,2.137,0,0,2.616-18.1-27.253-18.253l4.529-9.45-21.8.45.9-13.584Z" transform="translate(0 11.234)" fill="#1a1a1a"/>
      </g>
      <g id="g786" transform="translate(-93.046 2544.719)">
        <path id="path788" d="M0-121.848s48.966-56.989,103.782,4.676c0,0,17.986-77.4,86.358-60.722L165-162.482s14.541,16.509,13.233,16.833-29.166.239-29.166.239,6.849,21.987,4.908,21.537S113.724-138.273,110-98.356c0,0-8.115-24.23-45.465-5.625l-.281-14.653L37.337-104.361l-7.425-17.508Z" transform="translate(0 180.249)" fill="#1a1a1a"/>
      </g>
      <g id="g790" transform="translate(-61.49 2725.499)">
        <path id="path792" d="M-98.553-310.624l-23.6-57.783-19.744,10.913-3.895-102.01,67.148,69.792-17.48,7.65,34.383,54.83Z" transform="translate(145.789 459.504)" fill="#1a1a1a"/>
      </g>
      <g id="g794" transform="translate(-29.441 2816.758)">
        <path id="path796" d="M0-5.061,5.006-7.487,8.185-1.3,2.306,1.2Z" transform="translate(0 7.487)" fill="#f98008"/>
      </g>
      <g id="g798" transform="translate(-21.932 2812.054)">
        <path id="path800" d="M0-7.937l3.206,6.3,7.257-4.339L6.173-11.741Z" transform="translate(0 11.741)" fill="#f98008"/>
      </g>
      <g id="g802" transform="translate(-25.687 2825.512)">
        <path id="path804" d="M0-5.722,5.667-8.464l3.727,6.5L2.784,1.324Z" transform="translate(0 8.464)" fill="#f98008"/>
      </g>
      <g id="g806" transform="translate(-17.235 2820.31)">
        <path id="path808" d="M0-8.787,3.8-2.6,10.87-7.078,6.68-13Z" transform="translate(0 12.999)" fill="#f98008"/>
      </g>
    </g>
    <rect id="Rectangle_31" data-name="Rectangle 31" width="576" height="576" transform="translate(-742 1052)" fill="none"/>
  </g>
</svg>
