<svg xmlns="http://www.w3.org/2000/svg" width="576" height="576" viewBox="0 0 576 576">
  <g id="Group_100" data-name="Group 100" transform="translate(742 -1052)">
    <g id="Group_91" data-name="Group 91" transform="translate(-1352 -788)">
      <g id="g472" transform="translate(803.076 1840.306)">
        <path id="path474" d="M-313.953-13.878c-39.458-13.735-71.6-12.074-95.505,4.9-22.8,16.209-36.9,45.642-42.7,89.243-78.426,19.253-87.04,146.008-44.59,220.452,0,0,48.834,70.811,52.4,174.17,3.541,103.41-16.594,36.137-32.019,54.543-12.974,15.5,3.869,23.231,13.6,10.612-6.406,5.656,7.093,24.8,13.3-.718-5.224,17.4,30.2,8.078,19.986-5.657-3.189-3.538-6.1,6.037-2.982-18.4,2.266-35.41,2.82-63.018,2.82-63.018s11.5,70.092,20.7,84.261c-7.8-13.476-26.357,16.174,6.044,7.784,0,0-5.656,10.785,8.251,7.793,9.6-5.656,2.831-11.313,2.831-11.313s18.971,15.093,19.691-1.453c-1.643-23.111-24.938-5.657-24.938-5.657s-16.371-43.895-16.838-63.01c-.4-15.715,9.221-124.523,33.282-167.1C-358.289,264.03-305.1,85.406-423.3,78.02c4.987-31.708,15.09-53.194,30.238-63.953,15.99-11.382,39.5-11.8,69.823-1.245a14.139,14.139,0,0,0,17.99-8.71,14.135,14.135,0,0,0-8.7-17.99" transform="translate(522.001 23.075)" fill="#1a1a1a"/>
      </g>
      <g id="g476" transform="translate(767.575 2157.957)">
        <path id="path478" d="M0-123.78C.721-59.126,100.758-30.7,129.629-30.93c35.168-.294,128.222-32.2,127.508-95.722-.485-44.509-58.452-79.928-129.462-79.141S-.507-168.289,0-123.78" transform="translate(0.008 205.805)" fill="#1a1a1a"/>
      </g>
      <g id="g480" transform="translate(951.521 2127.092)">
        <path id="path482" d="M-68.12-117.339C-59.8-128.557-31.862-149.99-51.738-195.1c-42.779,7.17-61.842,36.439-61.519,56.09Z" transform="translate(113.261 195.096)" fill="#1a1a1a"/>
      </g>
      <g id="g484" transform="translate(768.082 2138.025)">
        <path id="path486" d="M-46.444-116.072c-9.779-10.188-40.225-27.764-27.874-76.918,42.658.735,65.677,27.695,68.409,47.831Z" transform="translate(77.221 192.99)" fill="#1a1a1a"/>
      </g>
      <g id="g488" transform="translate(790.614 2199.835)">
        <path id="path490" d="M-145.47-59.566s-6.078-9.852-22.315-22.4c-17.31-13.381-44.55-22.765-74.084-13.1,0,0,39.429,52.147,96.4,35.505" transform="translate(241.869 99.039)" fill="#f98008"/>
      </g>
      <g id="g492" transform="translate(828.19 2202.635)">
        <path id="path494" d="M-31.747-31.156c-4.388,13.648-15.436,14.323-15.436,14.323s-8.961-5.89-4.215-20.637C-46.762-51.958-35.968-51.8-35.968-51.8s8.787,6.435,4.221,20.646" transform="translate(52.784 51.801)" fill="#1a1a1a"/>
      </g>
      <g id="g496" transform="translate(905.308 2198.429)">
        <path id="path498" d="M0-61.387S3.321-68.808,19.276-81.7c17.016-13.761,46.562-26.328,76.315-17.324,0,0-38.281,53-95.592,37.641" transform="translate(0 102.067)" fill="#f98008"/>
      </g>
      <g id="g500" transform="translate(939.963 2202.807)">
        <path id="path502" d="M-2.237-31.248C2.451-17.695,13.539-17.279,13.539-17.279s8.823-6.072,3.76-20.7C12.329-52.343,1.552-51.953,1.552-51.953S-7.1-45.337-2.237-31.248" transform="translate(3.719 51.954)" fill="#1a1a1a"/>
      </g>
      <g id="g504" transform="translate(654.1 2214.986)">
        <path id="path506" d="M-206.389-44.233-343.156-72.352l.242-1.194,136.768,28.136Z" transform="translate(343.156 73.545)" fill="#fdfae1"/>
      </g>
      <g id="g508" transform="translate(631.987 2251.279)">
        <path id="path510" d="M-.113-16.85l-.075-1.211,147.735-9.955.086,1.2Z" transform="translate(0.188 28.016)" fill="#fdfae1"/>
      </g>
      <g id="g512" transform="translate(658.246 2269.943)">
        <path id="path514" d="M-.313-33.831-.52-35.016,121.042-56.251l.208,1.167Z" transform="translate(0.52 56.251)" fill="#fdfae1"/>
      </g>
      <g id="g516" transform="translate(1003.974 2214.986)">
        <path id="path518" d="M-.365-44.233,136.4-72.352l-.242-1.194L-.607-45.409Z" transform="translate(0.607 73.545)" fill="#fdfae1"/>
      </g>
      <g id="g520" transform="translate(1015.276 2251.279)">
        <path id="path522" d="M-222.955-16.85l.075-1.211-147.735-9.955-.086,1.2Z" transform="translate(370.7 28.016)" fill="#fdfae1"/>
      </g>
      <g id="g524" transform="translate(1015.068 2269.943)">
        <path id="path526" d="M-183.443-33.831l.207-1.185L-304.8-56.251l-.208,1.167Z" transform="translate(305.006 56.251)" fill="#fdfae1"/>
      </g>
    </g>
    <rect id="Rectangle_27" data-name="Rectangle 27" width="576" height="576" transform="translate(-742 1052)" fill="none"/>
  </g>
</svg>
