<svg xmlns="http://www.w3.org/2000/svg" width="220.5" height="220.3" viewBox="0 0 220.5 220.3">
  <g id="Group_673" data-name="Group 673" transform="translate(254 -2432.7)">
    <g id="Group_671" data-name="Group 671" transform="translate(-703.3 -213)">
      <g id="Group_667" data-name="Group 667" transform="translate(449.5 2645.7)">
        <circle id="Ellipse_77" data-name="Ellipse 77" cx="110.15" cy="110.15" r="110.15" transform="translate(0 0)" fill="#1b3232"/>
      </g>
      <g id="Group_668" data-name="Group 668" transform="translate(536.361 2682.05)">
        <path id="Path_649" data-name="Path 649" d="M241.842,245.871a10.071,10.071,0,1,0-10.071,10.071A9.942,9.942,0,0,0,241.842,245.871Z" transform="translate(-221.7 -235.8)"/>
      </g>
      <g id="Group_669" data-name="Group 669" transform="translate(484.748 2727.841)">
        <path id="Path_650" data-name="Path 650" d="M209.042,274.971a10.071,10.071,0,1,0-10.071,10.071A9.942,9.942,0,0,0,209.042,274.971Z" transform="translate(-188.9 -264.9)"/>
      </g>
      <g id="Group_670" data-name="Group 670" transform="translate(491.357 2684.882)">
        <path id="Path_651" data-name="Path 651" d="M213.242,247.671a10.071,10.071,0,1,0-10.071,10.071A10.141,10.141,0,0,0,213.242,247.671Z" transform="translate(-193.1 -237.6)"/>
      </g>
    </g>
    <rect id="Rectangle_395" data-name="Rectangle 395" width="220" height="220" transform="translate(-254 2433)" fill="none"/>
  </g>
</svg>
