<svg xmlns="http://www.w3.org/2000/svg" width="220" height="220" viewBox="0 0 220 220">
  <g id="Group_284" data-name="Group 284" transform="translate(752 -2171)">
    <g id="Group_281" data-name="Group 281" transform="translate(-813.6 2043.428)">
      <path id="Path_299" data-name="Path 299" d="M172.5,169.88h0l-1.814-16.935a2.085,2.085,0,0,0-1.966-1.966H124.867a1.965,1.965,0,0,0-1.966,1.966l-1.814,16.935H110.2l2.268-17.993c.756-6.048,5.746-10.887,11.189-10.887h46.268c5.443,0,10.433,4.838,11.189,10.887l2.268,17.993H172.5Z" transform="translate(24.885 0)" fill="#2c3944"/>
      <path id="Path_300" data-name="Path 300" d="M107,168.721a5.034,5.034,0,0,0,4.99,4.99h9.828a5.034,5.034,0,0,0,4.99-4.99V164.79a5.034,5.034,0,0,0-4.99-4.99H111.99a5.034,5.034,0,0,0-4.99,4.99Z" transform="translate(23.246 9.626)" fill="#5e6c77"/>
      <path id="Path_301" data-name="Path 301" d="M148.5,168.721a5.034,5.034,0,0,0,4.99,4.99h9.828a5.034,5.034,0,0,0,4.99-4.99V164.79a5.034,5.034,0,0,0-4.99-4.99H153.49a5.034,5.034,0,0,0-4.99,4.99Z" transform="translate(44.495 9.626)" fill="#5e6c77"/>
      <path id="Path_302" data-name="Path 302" d="M276.54,210.2v78.172a9.809,9.809,0,0,1-9.828,9.828H73.928a9.809,9.809,0,0,1-9.828-9.828V210.2a326.386,326.386,0,0,0,106.3,17.388A325.461,325.461,0,0,0,276.54,210.2Z" transform="translate(1.28 35.432)" fill="#4c5c6b"/>
      <path id="Path_303" data-name="Path 303" d="M64.1,210.1v78.172a9.809,9.809,0,0,0,9.828,9.828H170.4V227.488A326.387,326.387,0,0,1,64.1,210.1Z" transform="translate(1.28 35.381)" fill="#3f4d5c"/>
      <path id="Path_304" data-name="Path 304" d="M73.979,168.1H266.763a9.809,9.809,0,0,1,9.828,9.828V237.8a326.386,326.386,0,0,1-106.3,17.388c-38.254,0-74.392-6.2-106.3-17.388V177.928A10.037,10.037,0,0,1,73.979,168.1Z" transform="translate(1.229 13.876)" fill="#2c3944"/>
      <path id="Path_305" data-name="Path 305" d="M71.882,164.1H271.318a9.973,9.973,0,0,1,10.131,9.828V233.8c-32.962,11.038-70.309,17.388-109.924,17.388S94.562,244.993,61.6,233.8V173.928A10.2,10.2,0,0,1,71.882,164.1Z" transform="translate(0 11.828)" fill="#4c5c6b"/>
      <path id="Path_306" data-name="Path 306" d="M61.7,207.7v3.629c32.962,11.038,70.309,17.388,109.924,17.388s76.962-6.2,109.924-17.388V207.7c-32.962,11.038-70.309,17.388-109.924,17.388S94.662,218.738,61.7,207.7Z" transform="translate(0.051 34.152)" fill="#5e6c77"/>
      <path id="Path_307" data-name="Path 307" d="M61.7,173.375v57a361.073,361.073,0,0,0,109.924,17.086V164H71.831C66.236,164,61.7,168.082,61.7,173.375Z" transform="translate(0.051 11.777)" fill="#3f4d5c"/>
      <path id="Path_308" data-name="Path 308" d="M128.522,209.2h20.412a2.71,2.71,0,0,1,2.722,2.722v29.031a2.71,2.71,0,0,1-2.722,2.722H128.522a2.71,2.71,0,0,1-2.722-2.722V211.922A2.71,2.71,0,0,1,128.522,209.2Z" transform="translate(32.872 34.92)" fill="#e1f4f8"/>
      <path id="Path_309" data-name="Path 309" d="M129.822,211.2h16.027a2.2,2.2,0,0,1,2.117,2.268v24.041a2.2,2.2,0,0,1-2.117,2.268H129.822a2.2,2.2,0,0,1-2.117-2.268V213.468A2.1,2.1,0,0,1,129.822,211.2Z" transform="translate(33.84 35.944)" fill="#4ba5a5"/>
    </g>
    <rect id="Rectangle_248" data-name="Rectangle 248" width="220" height="220" transform="translate(-752 2171)" fill="none"/>
  </g>
</svg>
