<svg xmlns="http://www.w3.org/2000/svg" width="220" height="220" viewBox="0 0 220 220">
  <g id="Group_322" data-name="Group 322" transform="translate(752 -2171)">
    <g id="Group_319" data-name="Group 319" transform="translate(-466 -394)">
      <path id="Path_442" data-name="Path 442" d="M202.494,361.309H174.406A95.815,95.815,0,0,1,78.6,265.5v-12.7A95.815,95.815,0,0,1,174.406,157h28.088A95.815,95.815,0,0,1,298.3,252.806v12.7A95.57,95.57,0,0,1,202.494,361.309Z" transform="translate(-364.3 2416)" fill="#fff"/>
      <rect id="Rectangle_272" data-name="Rectangle 272" width="219.315" height="89.65" transform="translate(-285.315 2630.329)" fill="#3f434f"/>
      <circle id="Ellipse_14" data-name="Ellipse 14" cx="67.334" cy="67.334" r="67.334" transform="translate(-270.824 2675.263) rotate(-45)" fill="#dce7f4"/>
      <circle id="Ellipse_15" data-name="Ellipse 15" cx="56.945" cy="56.945" r="56.945" transform="translate(-250.098 2644.135) rotate(-22.5)" fill="#90959b"/>
      <circle id="Ellipse_16" data-name="Ellipse 16" cx="48.865" cy="48.865" r="48.865" transform="translate(-234.393 2711.571) rotate(-76.714)" fill="#2b3a47"/>
      <circle id="Ellipse_17" data-name="Ellipse 17" cx="30.012" cy="30.012" r="30.012" transform="translate(-211.958 2697.364) rotate(-76.714)" fill="#797e84"/>
      <path id="Path_443" data-name="Path 443" d="M130.99,189.945A16.545,16.545,0,1,1,114.445,173.4,16.422,16.422,0,0,1,130.99,189.945Z" transform="translate(-309.341 2462.701)" fill="#fff"/>
      <path id="Path_444" data-name="Path 444" d="M107.873,188.187a5.387,5.387,0,1,1-5.387-5.387A5.26,5.26,0,0,1,107.873,188.187Z" transform="translate(-311.619 2489.469)" fill="#fff"/>
      <path id="Path_445" data-name="Path 445" d="M113.721,181.711a7.311,7.311,0,1,1-7.311-7.31A7.306,7.306,0,0,1,113.721,181.711Z" transform="translate(-305.924 2465.549)" fill="#f8ffdc"/>
      <path id="Path_446" data-name="Path 446" d="M117.629,179.76H91.08A8.127,8.127,0,0,1,83,171.68h0a8.127,8.127,0,0,1,8.08-8.08h26.549a8.127,8.127,0,0,1,8.08,8.08h0C125.324,175.912,121.861,179.76,117.629,179.76Z" transform="translate(-351.77 2434.794)" fill="#ec610e"/>
    </g>
    <rect id="Rectangle_273" data-name="Rectangle 273" width="220" height="220" transform="translate(-752 2171)" fill="none"/>
  </g>
</svg>
