<svg xmlns="http://www.w3.org/2000/svg" width="220" height="220" viewBox="0 0 220 220">
  <g id="Group_175" data-name="Group 175" transform="translate(752 -2171)">
    <g id="Group_173" data-name="Group 173" transform="translate(471.175 534)">
      <path id="Path_191" data-name="Path 191" d="M179.292,261.5v7.55a1.5,1.5,0,0,0-.265-.066h0a.667.667,0,0,0-.066.2v.132h.331v10.132H128.1V269.315h.662a2.768,2.768,0,0,1-.662-.265V261.5Z" transform="translate(-1282.479 1503.05)" fill="#fafafa"/>
      <path id="Path_192" data-name="Path 192" d="M105.892,312.7H94.7V296.341a3.844,3.844,0,0,1,3.841-3.841h7.351Z" transform="translate(-1271.198 1492.58)" fill="#596273"/>
      <path id="Path_193" data-name="Path 193" d="M178.894,396.711l-43.973.066A1.922,1.922,0,0,1,133,394.856v-6.49l47.814-.066v6.49A1.922,1.922,0,0,1,178.894,396.711Z" transform="translate(-1284.134 1460.223)" fill="#596273"/>
      <path id="Path_194" data-name="Path 194" d="M217.151,390.452h-7.02c-.2,0-.331-.2-.331-.53V388.2h7.616v1.722C217.416,390.253,217.283,390.452,217.151,390.452Z" transform="translate(-1310.073 1460.257)" fill="#596273"/>
      <path id="Path_195" data-name="Path 195" d="M226.223,390.452h-1.457c-.066,0-.066-.2-.066-.53V388.2h1.589v1.722A1.833,1.833,0,0,1,226.223,390.452Z" transform="translate(-1315.106 1460.257)" fill="#596273"/>
      <path id="Path_196" data-name="Path 196" d="M230.523,390.452h-1.457c-.066,0-.066-.2-.066-.53V388.2h1.589v1.722C230.589,390.253,230.589,390.452,230.523,390.452Z" transform="translate(-1316.558 1460.257)" fill="#596273"/>
      <path id="Path_197" data-name="Path 197" d="M87.948,347.639l104.105-.066s1.722.066,6.026,2.98a13.443,13.443,0,0,0,7.616,2.185,23.951,23.951,0,0,0,12.781-4.967s5.3-3.377,5.96-17.616l1.06-25.364a47.454,47.454,0,0,0-1.192-12.98c-.265-1.06-.53-2.185-.927-3.311a22.921,22.921,0,0,0-14.04-14.569,13.678,13.678,0,0,0-3.245-.795s-16.689-3.974-17.152,13.576l-.4,3.841a.722.722,0,0,1-.728.662l-5.894-.132a.776.776,0,0,1-.728-.6,62.746,62.746,0,0,1-.861-10.2,1.926,1.926,0,0,0-1.523-2.119,3.306,3.306,0,0,0-2.119.132,20.241,20.241,0,0,1-9.6,1.324s-4.437-7.55-9.735-11.258c-2.583-1.788-8.543-3.973-18.079-3.775,0,0-15.96-.464-22.781,4.768a26.326,26.326,0,0,0-6.556,10.265,26.248,26.248,0,0,0-7.881-.066,1.626,1.626,0,0,0-1.457,1.258c-.993,3.444-4.5,13.841-12.252,16.689,0,0-8.278,4.3-8.146,13.179V340.62a4.158,4.158,0,0,0,.2,1.258v.132A7.949,7.949,0,0,0,87.948,347.639Z" transform="translate(-1266.3 1502.01)" fill="#404856"/>
      <path id="Path_198" data-name="Path 198" d="M281.091,303.8a1.228,1.228,0,0,1-.132-.464,26.39,26.39,0,0,0-16.887-16.622,25.805,25.805,0,0,0-3.907-.927s-9.205-2.053-15.364,2.848c1.921-14.7,16.954-11.126,16.954-11.126A19.314,19.314,0,0,1,265,278.3a22.624,22.624,0,0,1,14.04,14.569c.331,1.126.662,2.252.927,3.311A41.424,41.424,0,0,1,281.091,303.8Z" transform="translate(-1321.895 1497.774)" fill="#404856"/>
      <path id="Path_199" data-name="Path 199" d="M170.633,294.74c.2-.927-.861-1.656-1.921-1.457a102.69,102.69,0,0,1-14.238,1.457,92.561,92.561,0,0,1-14.238-1.391c-1.126-.2-2.119.53-1.921,1.457a100.951,100.951,0,0,1-7.351,58.808c-.265.53.265,1.06.927,1.06h45.3c.662,0,1.192-.53.927-1.06A101.066,101.066,0,0,1,170.633,294.74Z" transform="translate(-1283.423 1492.327)" fill="#596273"/>
      <circle id="Ellipse_10" data-name="Ellipse 10" cx="13.179" cy="13.179" r="13.179" transform="translate(-1185.396 1830.969) rotate(-57.704)" fill="#596273"/>
      <circle id="Ellipse_11" data-name="Ellipse 11" cx="10.066" cy="10.066" r="10.066" transform="translate(-1181.408 1827.935) rotate(-49.36)" fill="#2f3744"/>
      <path id="Path_200" data-name="Path 200" d="M271.455,316.8h-15.43a1.328,1.328,0,0,1-1.324-1.324v-1.854a1.328,1.328,0,0,1,1.324-1.324h15.43a1.328,1.328,0,0,1,1.324,1.324v1.854A1.328,1.328,0,0,1,271.455,316.8Z" transform="translate(-1325.239 1485.892)" fill="#596273"/>
      <path id="Path_201" data-name="Path 201" d="M267.4,331.062H263.76A1.046,1.046,0,0,1,262.7,330V326.36a1.046,1.046,0,0,1,1.06-1.06H267.4a1.046,1.046,0,0,1,1.06,1.06V330A1.045,1.045,0,0,1,267.4,331.062Z" transform="translate(-1327.941 1481.502)" fill="#596273"/>
      <path id="Path_202" data-name="Path 202" d="M262.369,288.834A4.834,4.834,0,1,1,257.534,284,4.862,4.862,0,0,1,262.369,288.834Z" transform="translate(-1324.563 1495.451)" fill="#596273"/>
      <path id="Path_203" data-name="Path 203" d="M212.7,363.418V341.895a.735.735,0,0,1,.728-.728l41.854-.066a.735.735,0,0,1,.728.728v21.523a.735.735,0,0,1-.728.728l-41.854.066A.735.735,0,0,1,212.7,363.418Z" transform="translate(-1311.053 1476.165)" fill="#85cc8d"/>
      <path id="Path_204" data-name="Path 204" d="M212.7,364.146,256.011,341.1h0v23.046H212.7Z" transform="translate(-1311.053 1476.165)" fill="#435061" opacity="0.1"/>
      <path id="Path_205" data-name="Path 205" d="M159.71,317h0a13.482,13.482,0,0,0-13.51,13.51v30.331h27.02V330.51A13.524,13.524,0,0,0,159.71,317Z" transform="translate(-1288.593 1484.305)" fill="#2f3744"/>
      <path id="Path_206" data-name="Path 206" d="M160.385,320.1h0A12.168,12.168,0,0,0,148.2,332.352v27.483h24.437V332.352A12.309,12.309,0,0,0,160.385,320.1Z" transform="translate(-1289.268 1483.258)" fill="#404856"/>
      <rect id="Rectangle_77" data-name="Rectangle 77" width="20.861" height="18.278" transform="translate(-1139.412 1823.888)" fill="#596273"/>
      <path id="Path_207" data-name="Path 207" d="M167.289,364.8H161.66a1.046,1.046,0,0,0-1.06,1.06v8.146h7.815V365.86A1.2,1.2,0,0,0,167.289,364.8Z" transform="translate(-1293.456 1468.16)" fill="#2f3744"/>
      <path id="Path_208" data-name="Path 208" d="M168.515,358.407a3.907,3.907,0,1,1-3.907-3.907A3.914,3.914,0,0,1,168.515,358.407Z" transform="translate(-1293.49 1471.639)" fill="#2f3744"/>
      <path id="Path_209" data-name="Path 209" d="M167.7,359.252A2.252,2.252,0,1,1,165.452,357,2.233,2.233,0,0,1,167.7,359.252Z" transform="translate(-1294.334 1470.795)" fill="#596273"/>
      <g id="Group_143" data-name="Group 143" transform="translate(-1131.995 1833.954)">
        <rect id="Rectangle_78" data-name="Rectangle 78" width="0.464" height="8.079" transform="translate(0)" fill="#e2e1e0"/>
        <rect id="Rectangle_79" data-name="Rectangle 79" width="0.464" height="8.079" transform="translate(1.126)" fill="#e2e1e0"/>
        <rect id="Rectangle_80" data-name="Rectangle 80" width="0.464" height="8.079" transform="translate(2.185)" fill="#e2e1e0"/>
        <rect id="Rectangle_81" data-name="Rectangle 81" width="0.464" height="8.079" transform="translate(3.245)" fill="#e2e1e0"/>
        <rect id="Rectangle_82" data-name="Rectangle 82" width="0.464" height="8.079" transform="translate(4.371)" fill="#e2e1e0"/>
        <rect id="Rectangle_83" data-name="Rectangle 83" width="0.464" height="8.079" transform="translate(5.43)" fill="#e2e1e0"/>
      </g>
      <g id="Group_169" data-name="Group 169" transform="translate(-1180.355 1813.689)">
        <g id="Group_144" data-name="Group 144" transform="translate(12.996 0)">
          <rect id="Rectangle_84" data-name="Rectangle 84" width="0.199" height="3.113" fill="#e2e1e0"/>
        </g>
        <g id="Group_145" data-name="Group 145" transform="translate(15.478 0.351)">
          <rect id="Rectangle_85" data-name="Rectangle 85" width="3.113" height="0.199" transform="translate(0 3.017) rotate(-75.794)" fill="#e2e1e0"/>
        </g>
        <g id="Group_146" data-name="Group 146" transform="translate(17.805 1.536)">
          <rect id="Rectangle_86" data-name="Rectangle 86" width="3.113" height="0.199" transform="translate(0 2.736) rotate(-61.528)" fill="#e2e1e0"/>
        </g>
        <g id="Group_147" data-name="Group 147" transform="translate(19.872 3.379)">
          <rect id="Rectangle_87" data-name="Rectangle 87" width="3.113" height="0.199" transform="matrix(0.678, -0.735, 0.735, 0.678, 0, 2.286)" fill="#e2e1e0"/>
        </g>
        <g id="Group_148" data-name="Group 148" transform="translate(21.54 5.911)">
          <rect id="Rectangle_88" data-name="Rectangle 88" width="3.113" height="0.199" transform="translate(0 1.696) rotate(-33.01)" fill="#e2e1e0"/>
        </g>
        <g id="Group_149" data-name="Group 149" transform="translate(22.658 8.82)">
          <rect id="Rectangle_89" data-name="Rectangle 89" width="3.113" height="0.199" transform="translate(0 1.001) rotate(-18.754)" fill="#e2e1e0"/>
        </g>
        <g id="Group_150" data-name="Group 150" transform="translate(23.121 11.99)">
          <rect id="Rectangle_90" data-name="Rectangle 90" width="3.113" height="0.199" transform="translate(0 0.244) rotate(-4.488)" fill="#e2e1e0"/>
        </g>
        <g id="Group_151" data-name="Group 151" transform="translate(23.012 14.788)">
          <rect id="Rectangle_91" data-name="Rectangle 91" width="0.199" height="3.113" transform="translate(0 0.196) rotate(-80.235)" fill="#e2e1e0"/>
        </g>
        <g id="Group_152" data-name="Group 152" transform="translate(22.28 17.208)">
          <rect id="Rectangle_92" data-name="Rectangle 92" width="0.199" height="3.113" transform="translate(0 0.181) rotate(-65.978)" fill="#e2e1e0"/>
        </g>
        <g id="Group_153" data-name="Group 153" transform="translate(20.96 19.315)">
          <rect id="Rectangle_93" data-name="Rectangle 93" width="0.199" height="3.113" transform="matrix(0.62, -0.785, 0.785, 0.62, 0, 0.156)" fill="#e2e1e0"/>
        </g>
        <g id="Group_154" data-name="Group 154" transform="translate(19.173 21.109)">
          <rect id="Rectangle_94" data-name="Rectangle 94" width="0.199" height="3.113" transform="translate(0 0.121) rotate(-37.454)" fill="#e2e1e0"/>
        </g>
        <g id="Group_155" data-name="Group 155" transform="translate(16.949 22.36)">
          <rect id="Rectangle_95" data-name="Rectangle 95" width="0.199" height="3.113" transform="translate(0 0.078) rotate(-23.191)" fill="#e2e1e0"/>
        </g>
        <g id="Group_156" data-name="Group 156" transform="translate(14.624 23.122)">
          <rect id="Rectangle_96" data-name="Rectangle 96" width="0.199" height="3.113" transform="translate(0 0.031) rotate(-8.94)" fill="#e2e1e0"/>
        </g>
        <g id="Group_157" data-name="Group 157" transform="translate(11.829 23.175)">
          <rect id="Rectangle_97" data-name="Rectangle 97" width="3.113" height="0.199" transform="matrix(0.093, -0.996, 0.996, 0.093, 0, 3.099)" fill="#e2e1e0"/>
        </g>
        <g id="Group_158" data-name="Group 158" transform="translate(8.598 22.573)">
          <rect id="Rectangle_98" data-name="Rectangle 98" width="3.113" height="0.199" transform="matrix(0.335, -0.942, 0.942, 0.335, 0, 2.932)" fill="#e2e1e0"/>
        </g>
        <g id="Group_159" data-name="Group 159" transform="translate(5.74 21.446)">
          <rect id="Rectangle_99" data-name="Rectangle 99" width="3.113" height="0.199" transform="translate(0 2.586) rotate(-56.18)" fill="#e2e1e0"/>
        </g>
        <g id="Group_160" data-name="Group 160" transform="translate(3.259 19.794)">
          <rect id="Rectangle_100" data-name="Rectangle 100" width="3.113" height="0.199" transform="matrix(0.744, -0.668, 0.668, 0.744, 0, 2.079)" fill="#e2e1e0"/>
        </g>
        <g id="Group_161" data-name="Group 161" transform="translate(1.394 17.699)">
          <rect id="Rectangle_101" data-name="Rectangle 101" width="3.113" height="0.199" transform="matrix(0.886, -0.464, 0.464, 0.886, 0, 1.444)" fill="#e2e1e0"/>
        </g>
        <g id="Group_162" data-name="Group 162" transform="translate(0.292 15.407)">
          <rect id="Rectangle_102" data-name="Rectangle 102" width="3.113" height="0.199" transform="matrix(0.973, -0.232, 0.232, 0.973, 0, 0.721)" fill="#e2e1e0"/>
        </g>
        <g id="Group_163" data-name="Group 163" transform="translate(0 12.88)">
          <rect id="Rectangle_103" data-name="Rectangle 103" width="0.199" height="3.113" transform="translate(0 0.199) rotate(-89.123)" fill="#e2e1e0"/>
        </g>
        <g id="Group_164" data-name="Group 164" transform="translate(0.421 9.661)">
          <rect id="Rectangle_104" data-name="Rectangle 104" width="0.199" height="3.113" transform="translate(0 0.192) rotate(-74.864)" fill="#e2e1e0"/>
        </g>
        <g id="Group_165" data-name="Group 165" transform="translate(1.61 6.6)">
          <rect id="Rectangle_105" data-name="Rectangle 105" width="0.199" height="3.113" transform="translate(0 0.173) rotate(-60.608)" fill="#e2e1e0"/>
        </g>
        <g id="Group_166" data-name="Group 166" transform="translate(3.547 3.987)">
          <rect id="Rectangle_106" data-name="Rectangle 106" width="0.199" height="3.113" transform="translate(0 0.144) rotate(-46.349)" fill="#e2e1e0"/>
        </g>
        <g id="Group_167" data-name="Group 167" transform="translate(6.045 1.98)">
          <rect id="Rectangle_107" data-name="Rectangle 107" width="0.199" height="3.113" transform="matrix(0.847, -0.531, 0.531, 0.847, 0, 0.106)" fill="#e2e1e0"/>
        </g>
        <g id="Group_168" data-name="Group 168" transform="translate(9.014 0.634)">
          <rect id="Rectangle_108" data-name="Rectangle 108" width="0.199" height="3.113" transform="translate(0 0.061) rotate(-17.837)" fill="#e2e1e0"/>
        </g>
      </g>
      <circle id="Ellipse_12" data-name="Ellipse 12" cx="9.205" cy="9.205" r="9.205" transform="translate(-1179.651 1830.694) rotate(-62.166)" fill="#404856"/>
      <path id="Path_210" data-name="Path 210" d="M225.726,303.4a48.283,48.283,0,0,0-1.258-10.2c-.265-1.06-.53-2.185-.927-3.311a22.921,22.921,0,0,0-14.04-14.569,13.678,13.678,0,0,0-3.245-.795S189.567,270.555,189.1,288.1l-.4,3.841a.722.722,0,0,1-.728.662l-5.894-.132a.776.776,0,0,1-.728-.6,62.747,62.747,0,0,1-.861-10.2,1.926,1.926,0,0,0-1.523-2.119,3.306,3.306,0,0,0-2.119.132,20.24,20.24,0,0,1-9.6,1.324s-4.437-7.55-9.735-11.258c-2.583-1.788-8.543-3.973-18.079-3.775,0,0-15.96-.464-22.781,4.768a26.326,26.326,0,0,0-6.556,10.265,26.248,26.248,0,0,0-7.881-.066,1.626,1.626,0,0,0-1.457,1.258c-.993,3.444-4.437,13.841-12.185,16.689,0,0-8.079,4.238-8.079,12.848v-.993c-.331-8.874,8.079-13.245,8.079-13.245,7.748-2.848,11.258-13.245,12.252-16.689a1.779,1.779,0,0,1,1.457-1.258,29.259,29.259,0,0,1,7.881.066,27.173,27.173,0,0,1,6.556-10.265c6.821-5.232,22.781-4.768,22.781-4.768,9.536-.132,15.5,1.987,18.079,3.775,5.3,3.775,9.735,11.258,9.735,11.258a20.081,20.081,0,0,0,9.6-1.324,3.306,3.306,0,0,1,2.119-.132,1.9,1.9,0,0,1,1.523,2.119,62.749,62.749,0,0,0,.861,10.2.776.776,0,0,0,.728.6l5.894.132a.722.722,0,0,0,.728-.662l.4-3.841c.464-17.55,17.152-13.576,17.152-13.576a19.312,19.312,0,0,1,3.245.795,22.624,22.624,0,0,1,14.04,14.569c.331,1.126.662,2.252.927,3.311A48.873,48.873,0,0,1,225.726,303.4Z" transform="translate(-1266.397 1502.009)" fill="#2f3744"/>
      <path id="Path_211" data-name="Path 211" d="M180.035,238.9v19.47a3.535,3.535,0,0,1-.331,1.656h0a3.369,3.369,0,0,1-.861,1.06c-.2.132-.331.4-.53.464-.066,0-.066.2-.132.2h0l-.066-.066h-.066a3.324,3.324,0,0,1-.795.132c-.066,0-.132-.066-.2-.066h0c-.132,0-.2.331-.331.331H128.976l-.066-.066a3.286,3.286,0,0,1-.861-.2c-.2-.066-.4-.2-.6-.265-.066,0-.132-.066-.2-.132a4.7,4.7,0,0,1-.861-.795h0c-.662-.53-.662-1.192-.993-1.921h0V238.9Z" transform="translate(-1281.567 1510.683)" fill="#23292f"/>
      <g id="Group_170" data-name="Group 170" transform="translate(-1156.234 1749.252)">
        <path id="Path_212" data-name="Path 212" d="M125.3,258.566h0V238.5h.795v21.987A4.546,4.546,0,0,1,125.3,258.566Z" transform="translate(-125.3 -238.434)" fill="#2f3744"/>
        <path id="Path_213" data-name="Path 213" d="M128.795,261.512a2.353,2.353,0,0,1-.6-.265c-.066,0-.132-.066-.2-.132V238.4h.795v23.112Z" transform="translate(-126.212 -238.4)" fill="#2f3744"/>
        <rect id="Rectangle_109" data-name="Rectangle 109" width="0.795" height="23.179" transform="translate(3.444 0.132)" fill="#2f3744"/>
        <rect id="Rectangle_110" data-name="Rectangle 110" width="0.795" height="23.179" transform="translate(5.166 0.132)" fill="#2f3744"/>
        <rect id="Rectangle_111" data-name="Rectangle 111" width="0.795" height="23.179" transform="translate(6.821 0.132)" fill="#2f3744"/>
        <rect id="Rectangle_112" data-name="Rectangle 112" width="0.795" height="23.179" transform="translate(8.543 0.132)" fill="#2f3744"/>
        <rect id="Rectangle_113" data-name="Rectangle 113" width="0.795" height="23.179" transform="translate(10.265 0.132)" fill="#2f3744"/>
        <rect id="Rectangle_114" data-name="Rectangle 114" width="0.795" height="23.179" transform="translate(11.92 0.132)" fill="#2f3744"/>
        <rect id="Rectangle_115" data-name="Rectangle 115" width="0.795" height="23.179" transform="translate(13.642 0.132)" fill="#2f3744"/>
        <rect id="Rectangle_116" data-name="Rectangle 116" width="0.795" height="23.179" transform="translate(15.364 0.132)" fill="#2f3744"/>
        <rect id="Rectangle_117" data-name="Rectangle 117" width="0.795" height="23.179" transform="translate(17.02 0.066)" fill="#2f3744"/>
        <rect id="Rectangle_118" data-name="Rectangle 118" width="0.795" height="23.179" transform="translate(18.742 0.066)" fill="#2f3744"/>
        <rect id="Rectangle_119" data-name="Rectangle 119" width="0.795" height="23.179" transform="translate(20.397 0.066)" fill="#2f3744"/>
        <rect id="Rectangle_120" data-name="Rectangle 120" width="0.795" height="23.179" transform="translate(22.119 0.066)" fill="#2f3744"/>
        <rect id="Rectangle_121" data-name="Rectangle 121" width="0.795" height="23.179" transform="translate(23.841 0.066)" fill="#2f3744"/>
        <rect id="Rectangle_122" data-name="Rectangle 122" width="0.795" height="23.179" transform="translate(25.497 0.066)" fill="#2f3744"/>
        <rect id="Rectangle_123" data-name="Rectangle 123" width="0.795" height="23.179" transform="translate(27.218 0.066)" fill="#2f3744"/>
        <rect id="Rectangle_124" data-name="Rectangle 124" width="0.795" height="23.179" transform="translate(28.94 0.066)" fill="#2f3744"/>
        <rect id="Rectangle_125" data-name="Rectangle 125" width="0.795" height="23.179" transform="translate(30.596 0.066)" fill="#2f3744"/>
        <rect id="Rectangle_126" data-name="Rectangle 126" width="0.795" height="23.179" transform="translate(32.318 0.066)" fill="#2f3744"/>
        <rect id="Rectangle_127" data-name="Rectangle 127" width="0.795" height="23.179" transform="translate(34.04 0.066)" fill="#2f3744"/>
        <rect id="Rectangle_128" data-name="Rectangle 128" width="0.795" height="23.179" transform="translate(35.695 0.066)" fill="#2f3744"/>
        <rect id="Rectangle_129" data-name="Rectangle 129" width="0.795" height="23.179" transform="translate(37.417 0.066)" fill="#2f3744"/>
        <rect id="Rectangle_130" data-name="Rectangle 130" width="0.795" height="23.179" transform="translate(39.073 0.066)" fill="#2f3744"/>
        <rect id="Rectangle_131" data-name="Rectangle 131" width="0.795" height="23.179" transform="translate(40.794 0.066)" fill="#2f3744"/>
        <rect id="Rectangle_132" data-name="Rectangle 132" width="0.795" height="23.179" transform="translate(42.516 0.066)" fill="#2f3744"/>
        <rect id="Rectangle_133" data-name="Rectangle 133" width="0.795" height="23.179" transform="translate(44.172 0.066)" fill="#2f3744"/>
        <rect id="Rectangle_134" data-name="Rectangle 134" width="0.795" height="23.179" transform="translate(45.894 0.066)" fill="#2f3744"/>
        <rect id="Rectangle_135" data-name="Rectangle 135" width="0.795" height="23.179" transform="translate(47.616 0.066)" fill="#2f3744"/>
        <rect id="Rectangle_136" data-name="Rectangle 136" width="0.795" height="23.179" transform="translate(49.271 0.066)" fill="#2f3744"/>
        <rect id="Rectangle_137" data-name="Rectangle 137" width="0.795" height="23.179" transform="translate(50.993 0.066)" fill="#2f3744"/>
        <path id="Path_214" data-name="Path 214" d="M205.561,260.984c-.2.132-.331.265-.53.4-.066.066-.132.066-.265.132v-7.55l-.066-15.033V238.6h.795v.331Z" transform="translate(-152.118 -238.468)" fill="#2f3744"/>
        <path id="Path_215" data-name="Path 215" d="M207.8,239.1v19.338a3.4,3.4,0,0,1-.4,1.656V239.1h.4Z" transform="translate(-153.029 -238.636)" fill="#2f3744"/>
      </g>
      <rect id="Rectangle_138" data-name="Rectangle 138" width="57.483" height="17.947" transform="translate(-1157.558 1728.458)" fill="#f1fbfd"/>
      <rect id="Rectangle_139" data-name="Rectangle 139" width="61.258" height="28.808" transform="translate(-1159.412 1696.736)" fill="#23292f"/>
      <path id="Path_216" data-name="Path 216" d="M178.778,205.48h-55.3a2.968,2.968,0,0,1-2.98-2.98h61.258A3.055,3.055,0,0,1,178.778,205.48Z" transform="translate(-1279.912 1522.978)" fill="#b5bcbe"/>
      <path id="Path_217" data-name="Path 217" d="M177.307,238.637h-50.4a3.533,3.533,0,0,1-3.51-3.51V234.2h57.483v.927A3.636,3.636,0,0,1,177.307,238.637Z" transform="translate(-1280.892 1512.271)" fill="#b5bcbe"/>
      <g id="Group_171" data-name="Group 171" transform="translate(-1158.75 1696.736)">
        <rect id="Rectangle_140" data-name="Rectangle 140" width="0.861" height="28.742" transform="translate(0 0)" fill="#2f3744"/>
        <rect id="Rectangle_141" data-name="Rectangle 141" width="0.861" height="28.742" transform="translate(1.854 0)" fill="#2f3744"/>
        <rect id="Rectangle_142" data-name="Rectangle 142" width="0.861" height="28.742" transform="translate(3.709 0)" fill="#2f3744"/>
        <rect id="Rectangle_143" data-name="Rectangle 143" width="0.861" height="28.742" transform="translate(5.497 0)" fill="#2f3744"/>
        <rect id="Rectangle_144" data-name="Rectangle 144" width="0.861" height="28.742" transform="translate(7.351 0)" fill="#2f3744"/>
        <rect id="Rectangle_145" data-name="Rectangle 145" width="0.861" height="28.742" transform="translate(9.205 0)" fill="#2f3744"/>
        <rect id="Rectangle_146" data-name="Rectangle 146" width="0.861" height="28.742" transform="translate(10.993 0)" fill="#2f3744"/>
        <rect id="Rectangle_147" data-name="Rectangle 147" width="0.861" height="28.742" transform="translate(12.848 0)" fill="#2f3744"/>
        <rect id="Rectangle_148" data-name="Rectangle 148" width="0.861" height="28.742" transform="translate(14.702 0)" fill="#2f3744"/>
        <rect id="Rectangle_149" data-name="Rectangle 149" width="0.861" height="28.742" transform="translate(16.556 0)" fill="#2f3744"/>
        <rect id="Rectangle_150" data-name="Rectangle 150" width="0.861" height="28.742" transform="translate(18.344 0)" fill="#2f3744"/>
        <rect id="Rectangle_151" data-name="Rectangle 151" width="0.861" height="28.742" transform="translate(20.199 0)" fill="#2f3744"/>
        <rect id="Rectangle_152" data-name="Rectangle 152" width="0.861" height="28.742" transform="translate(22.053 0)" fill="#2f3744"/>
        <rect id="Rectangle_153" data-name="Rectangle 153" width="0.861" height="28.742" transform="translate(23.841 0)" fill="#2f3744"/>
        <rect id="Rectangle_154" data-name="Rectangle 154" width="0.861" height="28.742" transform="translate(25.695 0)" fill="#2f3744"/>
        <rect id="Rectangle_155" data-name="Rectangle 155" width="0.861" height="28.742" transform="translate(27.55 0)" fill="#2f3744"/>
        <rect id="Rectangle_156" data-name="Rectangle 156" width="0.861" height="28.742" transform="translate(29.404 0)" fill="#2f3744"/>
        <rect id="Rectangle_157" data-name="Rectangle 157" width="0.861" height="28.742" transform="translate(31.192 0)" fill="#2f3744"/>
        <rect id="Rectangle_158" data-name="Rectangle 158" width="0.861" height="28.742" transform="translate(33.046 0)" fill="#2f3744"/>
        <rect id="Rectangle_159" data-name="Rectangle 159" width="0.861" height="28.742" transform="translate(34.9 0)" fill="#2f3744"/>
        <rect id="Rectangle_160" data-name="Rectangle 160" width="0.861" height="28.742" transform="translate(36.689 0)" fill="#2f3744"/>
        <rect id="Rectangle_161" data-name="Rectangle 161" width="0.861" height="28.742" transform="translate(38.543 0)" fill="#2f3744"/>
        <rect id="Rectangle_162" data-name="Rectangle 162" width="0.861" height="28.742" transform="translate(40.397 0)" fill="#2f3744"/>
        <rect id="Rectangle_163" data-name="Rectangle 163" width="0.861" height="28.742" transform="translate(42.185 0)" fill="#2f3744"/>
        <rect id="Rectangle_164" data-name="Rectangle 164" width="0.861" height="28.742" transform="translate(44.039 0)" fill="#2f3744"/>
        <rect id="Rectangle_165" data-name="Rectangle 165" width="0.861" height="28.742" transform="translate(45.894 0)" fill="#2f3744"/>
        <rect id="Rectangle_166" data-name="Rectangle 166" width="0.861" height="28.742" transform="translate(47.748 0)" fill="#2f3744"/>
        <rect id="Rectangle_167" data-name="Rectangle 167" width="0.861" height="28.742" transform="translate(49.536 0)" fill="#2f3744"/>
        <rect id="Rectangle_168" data-name="Rectangle 168" width="0.861" height="28.742" transform="translate(51.39 0)" fill="#2f3744"/>
        <rect id="Rectangle_169" data-name="Rectangle 169" width="0.861" height="28.742" transform="translate(53.245 0)" fill="#2f3744"/>
        <rect id="Rectangle_170" data-name="Rectangle 170" width="0.861" height="28.742" transform="translate(55.033 0)" fill="#2f3744"/>
        <rect id="Rectangle_171" data-name="Rectangle 171" width="0.861" height="28.742" transform="translate(56.887 0)" fill="#2f3744"/>
        <rect id="Rectangle_172" data-name="Rectangle 172" width="0.861" height="28.742" transform="translate(58.741 0)" fill="#2f3744"/>
      </g>
      <rect id="Rectangle_173" data-name="Rectangle 173" width="64.437" height="11.656" transform="translate(-1161.068 1685.08)" fill="#f1fbfd"/>
      <path id="Path_218" data-name="Path 218" d="M181.861,85.558l-3.642,5.828a2.385,2.385,0,0,1-4.04.066L160.338,70.26a2.422,2.422,0,0,0-1.987-1.06H140.736a2.335,2.335,0,0,0-1.987,1.06L124.908,91.452a2.385,2.385,0,0,1-4.04-.066l-3.642-5.828a.611.611,0,0,0-1.126.331l1.192,28.874a2.451,2.451,0,0,0,2.384,2.318h59.669a2.4,2.4,0,0,0,2.384-2.318l1.192-28.874A.563.563,0,0,0,181.861,85.558Z" transform="translate(-1278.426 1568)" fill="#404856"/>
      <path id="Path_219" data-name="Path 219" d="M146.2,204.7H125.87l-.066-.066a1.833,1.833,0,0,1-.861-.2c-.2-.066-.4-.2-.6-.265-.066,0-.066-.066-.132-.132a4.7,4.7,0,0,1-.861-.795c-.662-.53-.662-1.192-.993-1.921V181.981a3.872,3.872,0,0,1-1.258-2.649V160.325h1.126a3,3,0,0,1-3.046-2.848V128.8h-1.589V117.014h.861a5.279,5.279,0,0,1-.861-2.252L116.4,85.889a.572.572,0,0,1,1.06-.331l3.576,5.828a2.325,2.325,0,0,0,3.973.066L138.652,70.26a2.422,2.422,0,0,1,1.987-1.06H156.6c-8.874,14.569-15.828,33.377-19.4,54.437C131.9,155.756,135.8,185.557,146.2,204.7Z" transform="translate(-1278.527 1568)" fill="#222830" opacity="0.15"/>
    </g>
    <rect id="Rectangle_175" data-name="Rectangle 175" width="220" height="220" transform="translate(-752 2171)" fill="none"/>
  </g>
</svg>
