<svg xmlns="http://www.w3.org/2000/svg" width="220" height="220" viewBox="0 0 220 220">
  <g id="Group_570" data-name="Group 570" transform="translate(254 -2433)">
    <g id="Group_564" data-name="Group 564" transform="translate(-698.824 -393.329)">
      <g id="Group_373" data-name="Group 373" transform="translate(444.824 2965.021)">
        <rect id="Rectangle_316" data-name="Rectangle 316" width="220" height="48.191" transform="translate(0 0)" fill="#7e482f"/>
      </g>
      <g id="Group_375" data-name="Group 375" transform="translate(463.686 2971.06)">
        <path id="Path_535" data-name="Path 535" d="M757.825,1500.238a2.246,2.246,0,0,1,1.16.36c1.878,1.113,1.442,4.779-1.335,4.873H727.8c-2.235-.075-3.765-3.652-1.181-4.957a2.223,2.223,0,0,1,1.181-.281H757.65Z" transform="translate(-725.27 -1500.234)" fill="#75402a" fill-rule="evenodd"/>
      </g>
      <g id="Group_376" data-name="Group 376" transform="translate(510.732 2995.569)">
        <path id="Path_536" data-name="Path 536" d="M1056.438,1500.24c1.353.161,1.435.5,1.787.911a2.716,2.716,0,0,1-1.992,4.32h-41.574c-1.361-.055-1.469-.385-1.851-.769a2.714,2.714,0,0,1,1.851-4.469h41.574Z" transform="translate(-1012.141 -1500.234)" fill="#75402a" fill-rule="evenodd"/>
      </g>
      <g id="Group_377" data-name="Group 377" transform="translate(571.239 2995.569)">
        <path id="Path_537" data-name="Path 537" d="M747.443,1500.238c2.55.257,3.438,5.113-.175,5.234H717.831a2.238,2.238,0,0,1-1.181-.283c-1.973-1-1.734-4.859,1.181-4.955h29.437Z" transform="translate(-715.369 -1500.234)" fill="#75402a" fill-rule="evenodd"/>
      </g>
      <g id="Group_378" data-name="Group 378" transform="translate(623.719 2995.569)">
        <path id="Path_538" data-name="Path 538" d="M407.874,1500.236c2.219.163,3.468,3.662,1.106,4.926a2.605,2.605,0,0,1-.85.281,3.346,3.346,0,0,1-.384.029h-16.1c-2.226-.055-3.582-3.675-1.235-4.93a2.652,2.652,0,0,1,.85-.281,2.978,2.978,0,0,1,.384-.027h16.1Z" transform="translate(-389.18 -1500.234)" fill="#75402a" fill-rule="evenodd"/>
      </g>
      <g id="Group_379" data-name="Group 379" transform="translate(468.833 3005.018)">
        <path id="Path_539" data-name="Path 539" d="M407.862,1500.236c2.5.185,3.765,5.14-.129,5.236h-16.1c-2.252-.056-3.6-3.667-1.235-4.93a2.651,2.651,0,0,1,.85-.281,2.979,2.979,0,0,1,.384-.027h16.1Z" transform="translate(-389.155 -1500.234)" fill="#75402a" fill-rule="evenodd"/>
      </g>
      <g id="Group_380" data-name="Group 380" transform="translate(504.188 3005.018)">
        <path id="Path_540" data-name="Path 540" d="M648.584,1500.238a2.237,2.237,0,0,1,1.078.306c1.925,1.035,1.59,4.84-1.239,4.928H622.867c-2.274-.071-3.667-3.815-1.095-5a2.218,2.218,0,0,1,1.095-.239h25.555C648.476,1500.234,648.53,1500.236,648.584,1500.238Z" transform="translate(-620.389 -1500.234)" fill="#75402a" fill-rule="evenodd"/>
      </g>
      <g id="Group_381" data-name="Group 381" transform="translate(608.04 3005.018)">
        <path id="Path_541" data-name="Path 541" d="M648.566,1500.238a2.237,2.237,0,0,1,1.078.306c1.925,1.035,1.59,4.84-1.239,4.928H622.85c-2.309-.071-3.69-3.8-1.095-5a2.217,2.217,0,0,1,1.095-.239h25.555C648.458,1500.234,648.513,1500.236,648.566,1500.238Z" transform="translate(-620.352 -1500.234)" fill="#75402a" fill-rule="evenodd"/>
      </g>
      <g id="Group_382" data-name="Group 382" transform="translate(450.958 2978.118)">
        <path id="Path_542" data-name="Path 542" d="M2194.268,1500.248a2.717,2.717,0,0,1,1.56,4.455,2.271,2.271,0,0,1-1.852.769h-86.26c-2.1-.119-3.45-2.872-1.852-4.471a2.277,2.277,0,0,1,1.852-.767h86.26Z" transform="translate(-2105.162 -1500.234)" fill="#75402a" fill-rule="evenodd"/>
      </g>
      <g id="Group_383" data-name="Group 383" transform="translate(566.056 2978.118)">
        <path id="Path_543" data-name="Path 543" d="M1753.014,1500.246c2.056.314,3.078,3.187,1.439,4.593a2.265,2.265,0,0,1-1.706.633h-68.933c-2.32-.119-2.431-1.19-2.588-2.223a2.75,2.75,0,0,1,2.588-3.015h68.933Z" transform="translate(-1681.2 -1500.234)" fill="#75402a" fill-rule="evenodd"/>
      </g>
      <g id="Group_390" data-name="Group 390" transform="translate(506.723 2858.937)">
        <path id="Path_546" data-name="Path 546" d="M831.363,630.115s48.1,38.646,48.1,65.194S857.91,736.2,831.363,736.2s-48.1-14.341-48.1-40.889S831.363,630.115,831.363,630.115Z" transform="translate(-783.262 -630.115)" fill="#c74237" fill-rule="evenodd"/>
        <g id="Group_388" data-name="Group 388" transform="translate(14.778 20.882)">
          <path id="Path_547" data-name="Path 547" d="M575.91,506.09s33.321,31.04,33.321,52.362S594.3,591.292,575.91,591.292s-33.321-11.519-33.321-32.841S575.91,506.09,575.91,506.09Z" transform="translate(-542.589 -506.09)" fill="#d17135" fill-rule="evenodd"/>
        </g>
        <g id="Group_389" data-name="Group 389" transform="translate(32.795 45.66)">
          <path id="Path_548" data-name="Path 548" d="M264.523,358.895s15.3,22.012,15.3,37.133-6.858,23.289-15.3,23.289-15.3-8.168-15.3-23.289S264.523,358.895,264.523,358.895Z" transform="translate(-249.218 -358.895)" fill="#e5a435" fill-rule="evenodd"/>
        </g>
      </g>
    </g>
    <rect id="Rectangle_354" data-name="Rectangle 354" width="220" height="220" transform="translate(-254 2433)" fill="none"/>
  </g>
</svg>
