<svg xmlns="http://www.w3.org/2000/svg" width="220" height="220" viewBox="0 0 220 220">
  <g id="Group_581" data-name="Group 581" transform="translate(254 -2433)">
    <g id="Group_580" data-name="Group 580" transform="translate(-208 -649)">
      <g id="g322" transform="translate(31.45 3082.465)">
        <path id="path324" d="M-120.962-133.914a26.155,26.155,0,0,1-26.156,26.146,26.154,26.154,0,0,1-26.155-26.146c0-14.444,26.155-57.912,26.155-57.912s26.156,43.468,26.156,57.912" transform="translate(173.273 191.826)" fill="#ff5a12"/>
      </g>
      <g id="g326" transform="translate(44.018 3107.459)">
        <path id="path328" d="M-31.418-105.4a13.6,13.6,0,0,1-13.587-13.583c0-4.082,5.753-17.352,13.587-32,7.834,14.659,13.587,27.924,13.587,32A13.6,13.6,0,0,1-31.418-105.4" transform="translate(45.005 150.98)" fill="#ff860d"/>
      </g>
      <g id="g330" transform="translate(52.272 3141.369)">
        <path id="path332" d="M-12.332,0A5.334,5.334,0,0,1-6.995,5.333v21.35a5.339,5.339,0,0,1-5.337,5.333,5.335,5.335,0,0,1-5.333-5.333V5.333A5.33,5.33,0,0,1-12.332,0" transform="translate(17.665)" fill="#404040" fill-rule="evenodd"/>
      </g>
      <g id="g334" transform="translate(-8.82 3270.056)">
        <path id="path336" d="M0,0,10.728,31.944H120.344L131.073,0Z" fill="#663f25"/>
      </g>
      <path id="path338" d="M4030.054-3942.777h-55.206v-104.078h55.206Z" transform="translate(-3944.846 7218.232)" fill="#6aaf2e"/>
      <g id="g340" transform="translate(-15.703 3237.786)">
        <path id="path342" d="M-334.917-68.144a10.232,10.232,0,0,1-5.471,1.6,10.332,10.332,0,0,1-9.7-6.829,10.374,10.374,0,0,1-.661-3.529A10.363,10.363,0,0,1-340.388-87.26,10.363,10.363,0,0,1-330.03-76.9a10.33,10.33,0,0,1-4.887,8.759m-5.471-29.469A20.711,20.711,0,0,0-361.1-76.9a20.383,20.383,0,0,0,.357,3.529H-479.755v17.187h139.366a20.532,20.532,0,0,0,5.471-.826A20.652,20.652,0,0,0-319.678-76.9a20.713,20.713,0,0,0-20.711-20.711" transform="translate(479.755 97.613)" fill="#855231"/>
      </g>
    </g>
    <rect id="Rectangle_360" data-name="Rectangle 360" width="220" height="220" transform="translate(-254 2433)" fill="none"/>
  </g>
</svg>
