<svg xmlns="http://www.w3.org/2000/svg" width="135.1" height="135" viewBox="0 0 135.1 135">
  <g id="Group_71" data-name="Group 71" transform="translate(-525.9 -971)">
    <g id="Credit_Card" transform="translate(381 923.5)">
      <path id="Path_5" data-name="Path 5" d="M169.6,80H274.8a5.015,5.015,0,0,1,5,5v49.4a5.015,5.015,0,0,1-5,5H169.6a5.015,5.015,0,0,1-5-5V85a5.081,5.081,0,0,1,5-5Z" fill="#526a96" fill-rule="evenodd"/>
      <rect id="Rectangle_27" data-name="Rectangle 27" width="115.2" height="15.7" transform="translate(164.6 95.6)" fill="#333"/>
      <path id="Path_6" data-name="Path 6" d="M149.9,90.4H255.1a4.951,4.951,0,0,1,5,5v49.4a4.951,4.951,0,0,1-5,5H149.9a5.015,5.015,0,0,1-5-5V95.4a4.951,4.951,0,0,1,5-5Z" fill="#2f4f6f" fill-rule="evenodd"/>
      <path id="Path_7" data-name="Path 7" d="M195.4,99.1h45.9a2.8,2.8,0,0,1,2.8,2.8h0a2.8,2.8,0,0,1-2.8,2.8H195.4a2.862,2.862,0,0,1-2.8-2.8h0a2.933,2.933,0,0,1,2.8-2.8Z" fill="#a7a7ff" fill-rule="evenodd"/>
      <rect id="Rectangle_28" data-name="Rectangle 28" width="115.2" height="15.7" transform="translate(144.9 110.8)" fill="#ffb01a"/>
      <path id="Path_8" data-name="Path 8" d="M206.5,143.8a4.25,4.25,0,1,0-4.2-4.3,4.125,4.125,0,0,0,4.2,4.3Z" fill="#4bd14b" fill-rule="evenodd"/>
      <path id="Path_9" data-name="Path 9" d="M224,143.8a4.25,4.25,0,1,0-4.2-4.3,4.247,4.247,0,0,0,4.2,4.3Z" fill="#d14b4b" fill-rule="evenodd"/>
      <path id="Path_10" data-name="Path 10" d="M241.6,143.8a4.25,4.25,0,1,0,0-8.5,4.25,4.25,0,0,0,0,8.5Z" fill="#4bd1d1" fill-rule="evenodd"/>
    </g>
    <rect id="Rectangle_29" data-name="Rectangle 29" width="135" height="135" transform="translate(526 971)" fill="none"/>
  </g>
</svg>
