<svg xmlns="http://www.w3.org/2000/svg" width="576" height="576" viewBox="0 0 576 576">
  <g id="Group_102" data-name="Group 102" transform="translate(742 -1052)">
    <g id="Group_92" data-name="Group 92" transform="translate(-744.008 -979)">
      <g id="g438" transform="translate(102.769 2240.913)">
        <path id="path440" d="M-42.013-134.927c3.565-7.44,13.754-30.646,19.787-63.289,1.07-5.552,1.842-10.687,2.5-15.586,1.261.816,2.531,1.778,3.847,2.794A175.462,175.462,0,0,1,.563-196.837a234.773,234.773,0,0,1-3.656,30.3,256.625,256.625,0,0,1-39.746,96.1A210.481,210.481,0,0,1-67.371-80.819a256.175,256.175,0,0,1-.6-95.732,229.45,229.45,0,0,1,17.636-55.306,173.673,173.673,0,0,1,17.964,9.6c-1.769,6.551-3.547,14.044-5.108,22.3a274.462,274.462,0,0,0-4.536,65.031" transform="translate(72.195 231.857)" fill="#1a1a1a"/>
      </g>
      <g id="g442" transform="translate(132.578 2250.512)">
        <path id="path444" d="M-28.062-33.467C-34.095-.824-44.283,22.382-47.849,29.822a274.519,274.519,0,0,1,4.536-65.031c1.561-8.256,3.339-15.75,5.108-22.3,4.274,2.541,8.465,5.371,12.647,8.456-.662,4.9-1.433,10.034-2.5,15.586" transform="translate(48.221 57.509)" fill="#1a1a1a"/>
      </g>
      <g id="g446" transform="translate(132.125 2275.932)">
        <path id="path448" d="M-60.417,0C-10.365,48.266,3.244,113.877,6.728,138.173c-21.174,2.4-64.995,4.174-110.547-11.776A256.624,256.624,0,0,0-64.073,30.3,234.872,234.872,0,0,0-60.417,0" transform="translate(103.82)" fill="#f98008"/>
      </g>
      <g id="g450" transform="translate(2.008 2223.07)">
        <path id="path452" d="M-170.692-24.838a229.45,229.45,0,0,0-17.637,55.306,256.176,256.176,0,0,0,.6,95.732,194.865,194.865,0,0,1-30.339-19.033c-64.432-49.354-73.886-122.3-75.247-146.3,21.873-4.1,71.763-9.326,122.623,14.3" transform="translate(293.315 42.682)" fill="#f98008"/>
      </g>
      <g id="g454" transform="translate(404.461 2240.913)">
        <path id="path456" d="M-59.293-134.927c-3.556-7.44-13.745-30.646-19.8-63.289-1.053-5.552-1.86-10.687-2.5-15.586-1.235.816-2.513,1.778-3.847,2.794a182.658,182.658,0,0,0-16.44,14.171,233.473,233.473,0,0,0,3.683,30.3,256.629,256.629,0,0,0,39.719,96.1A211.448,211.448,0,0,0-33.936-80.819a257.54,257.54,0,0,0,.6-95.732,230.613,230.613,0,0,0-17.636-55.306,170.918,170.918,0,0,0-17.955,9.6c1.742,6.551,3.538,14.044,5.081,22.3a273.877,273.877,0,0,1,4.554,65.031" transform="translate(101.888 231.857)" fill="#1a1a1a"/>
      </g>
      <g id="g458" transform="translate(424.748 2250.512)">
        <path id="path460" d="M-3.485-33.467C2.575-.824,12.763,22.382,16.319,29.822a273.809,273.809,0,0,0-4.554-65.031c-1.543-8.256-3.339-15.75-5.081-22.3A149.376,149.376,0,0,0-5.989-49.053c.644,4.9,1.451,10.034,2.5,15.586" transform="translate(5.989 57.509)" fill="#1a1a1a"/>
      </g>
      <g id="g462" transform="translate(337.344 2275.932)">
        <path id="path464" d="M-93.428,0c-50.053,48.266-63.661,113.877-67.118,138.173,21.148,2.4,64.985,4.174,110.52-11.776A256.646,256.646,0,0,1-89.746,30.3,233.571,233.571,0,0,1-93.428,0" transform="translate(160.546)" fill="#f98008"/>
      </g>
      <g id="g466" transform="translate(455.376 2223.07)">
        <path id="path468" d="M0-24.838A230.663,230.663,0,0,1,17.636,30.468a257.527,257.527,0,0,1-.6,95.732,197.579,197.579,0,0,0,30.357-19.033c64.4-49.354,73.876-122.3,75.238-146.3-21.9-4.1-71.763-9.326-122.632,14.3" transform="translate(0 42.682)" fill="#f98008"/>
      </g>
    </g>
    <rect id="Rectangle_29" data-name="Rectangle 29" width="576" height="576" transform="translate(-742 1052)" fill="none"/>
  </g>
</svg>
