<svg xmlns="http://www.w3.org/2000/svg" xmlns:xlink="http://www.w3.org/1999/xlink" width="576" height="576.041" viewBox="0 0 576 576.041">
  <defs>
    <clipPath id="clip-path">
      <path id="path116" d="M3528.55-3691.957a13.811,13.811,0,0,0,13.828,13.814h0a13.819,13.819,0,0,0,13.808-13.814h0a13.819,13.819,0,0,0-13.808-13.814h0a13.811,13.811,0,0,0-13.828,13.814" transform="translate(-3528.55 3705.772)"/>
    </clipPath>
    <radialGradient id="radial-gradient" cx="0.75" cy="0.75" r="0.5" gradientTransform="translate(-0.014 126.995)" gradientUnits="objectBoundingBox">
      <stop offset="0" stop-color="#f3a147"/>
      <stop offset="0.832" stop-color="#eb731d"/>
      <stop offset="1" stop-color="#eb731d"/>
    </radialGradient>
    <clipPath id="clip-path-2">
      <path id="path138" d="M3080.9-3680.241a14,14,0,0,0,13.993,14h0a14.013,14.013,0,0,0,14.016-14h0a14.013,14.013,0,0,0-14.016-14.015h0a14,14,0,0,0-13.993,14.015" transform="translate(-3080.898 3694.256)"/>
    </clipPath>
    <radialGradient id="radial-gradient-2" cx="0.75" cy="0.75" r="0.5" gradientTransform="translate(0.001 124.855)" xlink:href="#radial-gradient"/>
    <clipPath id="clip-path-3">
      <path id="path160" d="M3213.485-3897.5a13.582,13.582,0,0,0,13.579,13.6h0a13.573,13.573,0,0,0,13.6-13.6h0a13.574,13.574,0,0,0-13.6-13.6h0a13.583,13.583,0,0,0-13.579,13.6" transform="translate(-3213.485 3911.095)"/>
    </clipPath>
    <radialGradient id="radial-gradient-3" cx="0.75" cy="0.75" r="0.5" gradientTransform="translate(0.041 136.266)" xlink:href="#radial-gradient"/>
    <clipPath id="clip-path-4">
      <path id="path182" d="M3300.072-3658.225a20.643,20.643,0,0,0,20.648,20.635h0a20.639,20.639,0,0,0,20.628-20.635h0a20.642,20.642,0,0,0-20.628-20.634h0a20.647,20.647,0,0,0-20.648,20.634" transform="translate(-3300.072 3678.859)"/>
    </clipPath>
    <radialGradient id="radial-gradient-4" cx="0.75" cy="0.75" r="0.5" gradientTransform="translate(-0.007 83.902)" xlink:href="#radial-gradient"/>
    <clipPath id="clip-path-5">
      <path id="path204" d="M3353.417-3734.149a13.61,13.61,0,0,0,13.6,13.6h0a13.623,13.623,0,0,0,13.6-13.6h0a13.6,13.6,0,0,0-13.6-13.586h0a13.59,13.59,0,0,0-13.6,13.586" transform="translate(-3353.417 3747.735)"/>
    </clipPath>
    <radialGradient id="radial-gradient-5" cx="0.75" cy="0.75" r="0.5" gradientTransform="translate(-0.03 130.572)" xlink:href="#radial-gradient"/>
    <clipPath id="clip-path-6">
      <path id="path226" d="M3618.563-3675.773a21.549,21.549,0,0,0,21.543,21.556h0a21.553,21.553,0,0,0,21.563-21.556h0a21.555,21.555,0,0,0-21.563-21.557h0a21.551,21.551,0,0,0-21.543,21.557" transform="translate(-3618.563 3697.331)"/>
    </clipPath>
    <radialGradient id="radial-gradient-6" cx="0.75" cy="0.75" r="0.5" gradientTransform="translate(0.007 80.659)" xlink:href="#radial-gradient"/>
    <clipPath id="clip-path-7">
      <path id="path248" d="M3718.177-3620.264a10.49,10.49,0,0,0,10.482,10.479h0a10.476,10.476,0,0,0,10.481-10.479h0a10.478,10.478,0,0,0-10.481-10.481h0a10.491,10.491,0,0,0-10.482,10.481" transform="translate(-3718.177 3630.745)"/>
    </clipPath>
    <radialGradient id="radial-gradient-7" cx="0.75" cy="0.75" r="0.5" gradientTransform="translate(-0.005 164.449)" xlink:href="#radial-gradient"/>
    <clipPath id="clip-path-8">
      <path id="path270" d="M2923.992-3607.7a17.3,17.3,0,0,0,17.3,17.306h0a17.318,17.318,0,0,0,17.321-17.306h0a17.326,17.326,0,0,0-17.321-17.336h0a17.309,17.309,0,0,0-17.3,17.336" transform="translate(-2923.992 3625.041)"/>
    </clipPath>
    <radialGradient id="radial-gradient-8" cx="0.75" cy="0.75" r="0.5" gradientTransform="translate(0.023 98.75)" xlink:href="#radial-gradient"/>
    <clipPath id="clip-path-9">
      <path id="path292" d="M3030.112-3604.655a9.591,9.591,0,0,0,9.586,9.574h0a9.591,9.591,0,0,0,9.587-9.574h0a9.587,9.587,0,0,0-9.587-9.6h0a9.587,9.587,0,0,0-9.586,9.6" transform="translate(-3030.112 3614.255)"/>
    </clipPath>
    <radialGradient id="radial-gradient-9" cx="0.75" cy="0.75" r="0.5" gradientTransform="translate(-0.002 179.101)" xlink:href="#radial-gradient"/>
    <clipPath id="clip-path-10">
      <path id="path314" d="M3009.405-3756.207a17.12,17.12,0,0,0,17.135,17.135h0a17.128,17.128,0,0,0,17.114-17.135h0a17.134,17.134,0,0,0-17.114-17.135h0a17.126,17.126,0,0,0-17.135,17.135" transform="translate(-3009.405 3773.343)"/>
    </clipPath>
    <radialGradient id="radial-gradient-10" cx="0.75" cy="0.75" r="0.5" gradientTransform="translate(0.026 103.987)" xlink:href="#radial-gradient"/>
    <clipPath id="clip-path-11">
      <path id="path336" d="M3234.712-3775.432a18.059,18.059,0,0,0,18.049,18.064h0a18.064,18.064,0,0,0,18.071-18.064h0a18.078,18.078,0,0,0-18.071-18.077h0a18.073,18.073,0,0,0-18.049,18.077" transform="translate(-3234.712 3793.509)"/>
    </clipPath>
    <radialGradient id="radial-gradient-11" cx="0.75" cy="0.75" r="0.5" gradientTransform="translate(0.025 99.06)" xlink:href="#radial-gradient"/>
    <clipPath id="clip-path-12">
      <path id="path358" d="M3506.977-3817.42a18.6,18.6,0,0,0,18.611,18.6h0a18.591,18.591,0,0,0,18.59-18.6h0a18.6,18.6,0,0,0-18.59-18.618h0a18.6,18.6,0,0,0-18.611,18.618" transform="translate(-3506.977 3836.038)"/>
    </clipPath>
    <radialGradient id="radial-gradient-12" cx="0.75" cy="0.75" r="0.5" gradientTransform="translate(0.018 97.252)" xlink:href="#radial-gradient"/>
  </defs>
  <g id="Group_101" data-name="Group 101" transform="translate(742 -1052)">
    <g id="Group_93" data-name="Group 93" transform="translate(-1067.515 -1123.477)">
      <g id="g100" transform="translate(335.933 2362.413)">
        <path id="path102" d="M-602.968-102.431c0-33.978-5.448-63.838-15.491-94.211l-525.241,5.129c-8.983,28.9-13.85,57-13.85,89.082,0,93.13,40.986,173.286,104.845,224.7-23.85,25.418-41.235,54.952-19.5,66.265,20.9,13.136,45.249-8.741,66.915-35.607a274.731,274.731,0,0,0,125.036,29.8,274.926,274.926,0,0,0,125.909-30.248c21.75,27.06,46.267,49.276,67.269,36.057,21.9-11.41,4.1-41.3-20.025-66.819C-643.662,70.251-602.968-9.647-602.968-102.431" transform="translate(1157.55 196.642)" fill="#1a1a1a"/>
      </g>
      <g id="g104" transform="translate(349.907 2336.559)">
        <path id="path106" d="M-570.818-30.891c0,15.679-115.471,31.212-261.154,31.212-145.747,0-263.858-15.534-263.858-31.212S-977.719-59.3-831.972-59.3c145.684,0,261.154,12.727,261.154,28.412" transform="translate(1095.83 59.303)" fill="#333"/>
      </g>
      <g id="g108" transform="translate(360.221 2348.522)">
        <path id="path110" d="M-547.327-22.9q-5.926-.5-13.516-.956A15.888,15.888,0,0,0-575.5-33.541a15.852,15.852,0,0,0-13.892,8.331c-2.786-.1-5.615-.222-8.525-.312A15.907,15.907,0,0,0-613.744-40.5a15.872,15.872,0,0,0-15.742,14.015c-3.348-.083-6.758-.166-10.21-.242.042-.45.146-.866.146-1.324A15.93,15.93,0,0,0-655.5-43.965a15.926,15.926,0,0,0-15.928,15.914c0,.243.062.458.062.679-2.6-.041-5.2-.1-7.838-.138a15.916,15.916,0,0,0-14.556-9.5A15.884,15.884,0,0,0-708.108-27.9c-2.787-.042-5.594-.076-8.381-.111A15.925,15.925,0,0,0-732.022-40.5a15.9,15.9,0,0,0-15.449,12.235c-1.144-.008-2.309-.035-3.432-.035a15.91,15.91,0,0,0-15.908-15.665,15.921,15.921,0,0,0-15.908,15.527h-4.824A15.86,15.86,0,0,0-801.6-37.007a15.872,15.872,0,0,0-14.056,8.554c-1.768,0-3.556.015-5.324.015A15.909,15.909,0,0,0-836.388-40.5a15.937,15.937,0,0,0-15.449,12.172c-2.309.013-4.617.027-6.9.055-.146-8.706-8.027-15.692-16.719-15.692-8.8,0-16.76,7.132-16.76,15.914v.07c-2.724.027-4.512.083-7.153.1a15.286,15.286,0,0,0-13.974-9.122,15.615,15.615,0,0,0-14.39,9.593c-1.85.041-3.556.07-5.406.1a15.833,15.833,0,0,0-14.618-9.7A15.87,15.87,0,0,0-962.63-26.6q-3.868.094-7.61.215A15.889,15.889,0,0,0-985.982-40.5a15.9,15.9,0,0,0-15.865,15.312c-1.644.076-3.265.132-4.866.215a15.848,15.848,0,0,0-14.057-8.567,15.885,15.885,0,0,0-14.889,10.425c-5.989.505-11.062,1.053-15.075,1.635a15.755,15.755,0,0,0,5.3,3.944c36.68,11.68,133.956,21.231,248.241,21.231,108.255,0,199.77-8.567,239.675-19.436,5.822-2.316,9.378-4.727,10.189-7.16" transform="translate(1050.735 43.965)" fill="#f98008"/>
      </g>
      <g id="g112" transform="translate(706.757 2296.262)">
        <g id="g114" clip-path="url(#clip-path)">
          <g id="g120">
            <g id="g122">
              <path id="path132" d="M3528.55-3691.957a13.811,13.811,0,0,0,13.828,13.814h0a13.819,13.819,0,0,0,13.808-13.814h0a13.819,13.819,0,0,0-13.808-13.814h0a13.811,13.811,0,0,0-13.828,13.814" transform="translate(-3528.55 3705.772)" fill="url(#radial-gradient)"/>
            </g>
          </g>
        </g>
      </g>
      <g id="g134" transform="translate(492.287 2301.78)">
        <g id="g136" transform="translate(0 0)" clip-path="url(#clip-path-2)">
          <g id="g142">
            <g id="g144">
              <path id="path154" d="M3080.9-3680.241a14,14,0,0,0,13.993,14h0a14.013,14.013,0,0,0,14.016-14h0a14.013,14.013,0,0,0-14.016-14.015h0a14,14,0,0,0-13.993,14.015" transform="translate(-3080.898 3694.256)" fill="url(#radial-gradient-2)"/>
            </g>
          </g>
        </g>
      </g>
      <g id="g156" transform="translate(555.809 2197.892)">
        <g id="g158" clip-path="url(#clip-path-3)">
          <g id="g164">
            <g id="g166">
              <path id="path176" d="M3213.485-3897.5a13.582,13.582,0,0,0,13.579,13.6h0a13.573,13.573,0,0,0,13.6-13.6h0a13.574,13.574,0,0,0-13.6-13.6h0a13.583,13.583,0,0,0-13.579,13.6" transform="translate(-3213.485 3911.095)" fill="url(#radial-gradient-3)"/>
            </g>
          </g>
        </g>
      </g>
      <g id="g178" transform="translate(597.293 2309.155)">
        <g id="g180" clip-path="url(#clip-path-4)">
          <g id="g186">
            <g id="g188">
              <path id="path198" d="M3300.072-3658.225a20.643,20.643,0,0,0,20.648,20.635h0a20.639,20.639,0,0,0,20.628-20.635h0a20.642,20.642,0,0,0-20.628-20.634h0a20.647,20.647,0,0,0-20.648,20.634" transform="translate(-3300.072 3678.859)" fill="url(#radial-gradient-4)"/>
            </g>
          </g>
        </g>
      </g>
      <g id="g200" transform="translate(622.851 2276.158)">
        <g id="g202" clip-path="url(#clip-path-5)">
          <g id="g208">
            <g id="g210">
              <path id="path220" d="M3353.417-3734.149a13.61,13.61,0,0,0,13.6,13.6h0a13.623,13.623,0,0,0,13.6-13.6h0a13.6,13.6,0,0,0-13.6-13.586h0a13.59,13.59,0,0,0-13.6,13.586" transform="translate(-3353.417 3747.735)" fill="url(#radial-gradient-5)"/>
            </g>
          </g>
        </g>
      </g>
      <g id="g222" transform="translate(749.883 2300.306)">
        <g id="g224" clip-path="url(#clip-path-6)">
          <g id="g230">
            <g id="g232">
              <path id="path242" d="M3618.563-3675.773a21.549,21.549,0,0,0,21.543,21.556h0a21.553,21.553,0,0,0,21.563-21.556h0a21.555,21.555,0,0,0-21.563-21.557h0a21.551,21.551,0,0,0-21.543,21.557" transform="translate(-3618.563 3697.331)" fill="url(#radial-gradient-6)"/>
            </g>
          </g>
        </g>
      </g>
      <g id="g244" transform="translate(797.607 2332.208)">
        <g id="g246" clip-path="url(#clip-path-7)">
          <g id="g252">
            <g id="g254">
              <path id="path264" d="M3718.177-3620.264a10.49,10.49,0,0,0,10.482,10.479h0a10.476,10.476,0,0,0,10.481-10.479h0a10.478,10.478,0,0,0-10.481-10.481h0a10.491,10.491,0,0,0-10.482,10.481" transform="translate(-3718.177 3630.745)" fill="url(#radial-gradient-7)"/>
            </g>
          </g>
        </g>
      </g>
      <g id="g266" transform="translate(417.113 2334.94)">
        <g id="g268" clip-path="url(#clip-path-8)">
          <g id="g274">
            <g id="g276">
              <path id="path286" d="M2923.992-3607.7a17.3,17.3,0,0,0,17.3,17.306h0a17.318,17.318,0,0,0,17.321-17.306h0a17.326,17.326,0,0,0-17.321-17.336h0a17.309,17.309,0,0,0-17.3,17.336" transform="translate(-2923.992 3625.041)" fill="url(#radial-gradient-8)"/>
            </g>
          </g>
        </g>
      </g>
      <g id="g288" transform="translate(467.955 2340.108)">
        <g id="g290" transform="translate(0 0)" clip-path="url(#clip-path-9)">
          <g id="g296">
            <g id="g298">
              <path id="path308" d="M3030.112-3604.655a9.591,9.591,0,0,0,9.586,9.574h0a9.591,9.591,0,0,0,9.587-9.574h0a9.587,9.587,0,0,0-9.587-9.6h0a9.587,9.587,0,0,0-9.586,9.6" transform="translate(-3030.112 3614.255)" fill="url(#radial-gradient-9)"/>
            </g>
          </g>
        </g>
      </g>
      <g id="g310" transform="translate(458.035 2263.89)">
        <g id="g312" clip-path="url(#clip-path-10)">
          <g id="g318">
            <g id="g320">
              <path id="path330" d="M3009.405-3756.207a17.12,17.12,0,0,0,17.135,17.135h0a17.128,17.128,0,0,0,17.114-17.135h0a17.134,17.134,0,0,0-17.114-17.135h0a17.126,17.126,0,0,0-17.135,17.135" transform="translate(-3009.405 3773.343)" fill="url(#radial-gradient-10)"/>
            </g>
          </g>
        </g>
      </g>
      <g id="g332" transform="translate(565.979 2254.227)">
        <g id="g334" transform="translate(0 0)" clip-path="url(#clip-path-11)">
          <g id="g340">
            <g id="g342">
              <path id="path352" d="M3234.712-3775.432a18.059,18.059,0,0,0,18.049,18.064h0a18.064,18.064,0,0,0,18.071-18.064h0a18.078,18.078,0,0,0-18.071-18.077h0a18.073,18.073,0,0,0-18.049,18.077" transform="translate(-3234.712 3793.509)" fill="url(#radial-gradient-11)"/>
            </g>
          </g>
        </g>
      </g>
      <g id="g354" transform="translate(696.422 2233.853)">
        <g id="g356" clip-path="url(#clip-path-12)">
          <g id="g362">
            <g id="g364">
              <path id="path374" d="M3506.977-3817.42a18.6,18.6,0,0,0,18.611,18.6h0a18.591,18.591,0,0,0,18.59-18.6h0a18.6,18.6,0,0,0-18.59-18.618h0a18.6,18.6,0,0,0-18.611,18.618" transform="translate(-3506.977 3836.038)" fill="url(#radial-gradient-12)"/>
            </g>
          </g>
        </g>
      </g>
      <g id="g384" transform="translate(740.985 2281.056)">
        <path id="path386" d="M-10.719-3.53v-.659a2.664,2.664,0,0,0-3.743-2.4,2.448,2.448,0,0,0-2.267,1.656c-2.661,2.4-3.743,6.605-3.846,10A2.7,2.7,0,0,0-16,6.964a20.876,20.876,0,0,0,3.349-5.421c.394-.866.873-1.843,1.288-2.841a2.664,2.664,0,0,0,.645-1.734Z" transform="translate(20.577 6.777)" fill="#ffeb94"/>
      </g>
      <g id="g388" transform="translate(741.881 2300.979)">
        <path id="path390" d="M-2.917,0A2.712,2.712,0,0,0-5.6,2.7V3.59A2.562,2.562,0,0,0-2.439,6.112,2.508,2.508,0,0,0,.68,3.59,3.357,3.357,0,0,0-2.917,0" transform="translate(5.6 0.002)" fill="#ffeb94"/>
      </g>
      <g id="g392" transform="translate(786.422 2309.506)">
        <path id="path394" d="M-3.8,0c-4.657,0-4.657,7.208,0,7.208C.84,7.208.84,0-3.8,0" transform="translate(7.291)" fill="#ffeb94"/>
      </g>
      <g id="g396" transform="translate(685.192 2212.55)">
        <path id="path398" d="M-11.444-3.647c.167-3.064-3.909-4.416-5.947-2.4-.395.388-.769.769-1.185,1.165A3.154,3.154,0,0,0-19.1-.888c-.79,1.94-2,3.826-2.682,5.683-1.081,2.912,2.662,5.49,5.116,3.945,3.119-1.955,4.387-5.053,5.906-8.228a3.684,3.684,0,0,0-.687-4.159" transform="translate(21.97 7.002)" fill="#ffeb94"/>
      </g>
      <g id="g400" transform="translate(586.43 2289.773)">
        <path id="path402" d="M-10.754-1.634a3.2,3.2,0,0,0-4.99-.526c-3.619,3.687-6.529,7.874-3.868,12.989a3.353,3.353,0,0,0,4.574,1.206c3.266-2.107,4.118-5.7,5.657-9.025a3.54,3.54,0,0,0-1.373-4.644" transform="translate(20.645 3.137)" fill="#ffeb94"/>
      </g>
      <g id="g404" transform="translate(588.267 2308.742)">
        <path id="path406" d="M-7.129-1.448a4.5,4.5,0,0,0-3.348-1.331c-3.639-.1-4.159,4.588-1.685,6.155A3.271,3.271,0,0,0-9.354,5.039h1.1c3.888,0,4.263-5.407,1.123-6.488" transform="translate(13.687 2.78)" fill="#ffeb94"/>
      </g>
      <g id="g408" transform="translate(555.415 2236.067)">
        <path id="path410" d="M-9.862-.038c-.458.049-.791.236-1.227.319a3.954,3.954,0,0,0-4.118.811c-1.622,1.67-3.015,3.251-3.577,5.572a4.016,4.016,0,0,0,.021,1.8c-.021.194-.125.326-.145.512-.417,3.494,4.429,4.963,6.612,2.745A12.555,12.555,0,0,0-9.488,7.573C-5.038,6.589-5.08-.634-9.862-.038" transform="translate(18.933 0.073)" fill="#ffeb94"/>
      </g>
      <g id="g412" transform="translate(480.194 2279.401)">
        <path id="path414" d="M-8.334-3.792v-.554c0-2.413-3.244-4.014-4.97-2.059a10.611,10.611,0,0,0-2.662,5.157c-.229,1.712.707,3.792,2.808,3.66.27-.034.5-.076.749-.118a2.513,2.513,0,0,0,2.557-1A4.174,4.174,0,0,0-8.334-3.792" transform="translate(16 7.28)" fill="#ffeb94"/>
      </g>
      <g id="g416" transform="translate(405.363 2314.08)">
        <path id="path418" d="M-7.986,0h-1.06a3.013,3.013,0,0,0-1.122.215,1.953,1.953,0,0,0-.6.367c-.083.042-.146.09-.229.132a3.566,3.566,0,0,0-.5.576,5.307,5.307,0,0,0-.583,1.026c-.063.166-.1.353-.166.554a11.388,11.388,0,0,0-3.078,7.624c-.125,2.5,2.225,3.445,4.076,2.863A3.576,3.576,0,0,0-7.03,11.319,16.4,16.4,0,0,0-5.969,5.5C-4.16,3.84-4.8,0-7.986,0" transform="translate(15.331)" fill="#ffeb94"/>
      </g>
      <g id="g420" transform="translate(695.76 2274.033)">
        <path id="path422" d="M-4.431-2.048c-.208.194-.457.346-.645.54A3.035,3.035,0,0,0-8.487,1.937,4.918,4.918,0,0,0-4.639,6.595,3.622,3.622,0,0,0-.21,4.092,3.91,3.91,0,0,1,.143,3.4,4.777,4.777,0,0,0,2.2.481C3.366-3.781-2.663-5.6-4.431-2.048" transform="translate(8.506 3.932)" fill="#ffeb94"/>
      </g>
      <g id="g424" transform="translate(448.163 2246.838)">
        <path id="path426" d="M-6.42-.092a3.227,3.227,0,0,0-1.185,0,4.064,4.064,0,0,0-4.72,4.069V5.4a3.956,3.956,0,0,0,1.788,3.21c1.373,3.4,6.7,2.994,7.923-.749.146-.111.146-.165.353-.339A4.151,4.151,0,0,0-1.035,5.107C-.285,1.523-3.717-.639-6.42-.092" transform="translate(12.325 0.176)" fill="#ffeb94"/>
      </g>
      <g id="g428" transform="translate(611.813 2254.029)">
        <path id="path430" d="M-1.673-1.543a10.168,10.168,0,0,0-1.539,6.03c-.042,4.235,6.53,4.221,6.571,0A3.978,3.978,0,0,1,4,1.776C6.478-1.648.8-4.919-1.673-1.543" transform="translate(3.212 2.962)" fill="#ffeb94"/>
      </g>
      <g id="g432" transform="translate(546.02 2175.477)">
        <path id="path434" d="M0-4.375V-3C0,2.348,8.255,2.348,8.255-3V-4.375C8.255-9.74,0-9.74,0-4.375" transform="translate(0 8.399)" fill="#ffeb94"/>
      </g>
    </g>
    <rect id="Rectangle_28" data-name="Rectangle 28" width="576" height="576" transform="translate(-742 1052)" fill="none"/>
  </g>
</svg>
