<svg xmlns="http://www.w3.org/2000/svg" width="220" height="220" viewBox="0 0 220 220">
  <g id="Group_134" data-name="Group 134" transform="translate(-157 -1986)">
    <g id="coffe_2_" transform="translate(-196.051 1702.8)">
      <path id="Path_109" data-name="Path 109" d="M523.788,337.407c-.393-13.75-4.322-21.607-4.322-21.607H381.181c-9.036,80.536,31.429,91.929,31.429,91.929h84.857a146.66,146.66,0,0,0,15.321-24.75,21.143,21.143,0,0,0,8.643,1.571A23.727,23.727,0,0,0,545.4,360.979C545.788,348.8,535.967,338.586,523.788,337.407Zm-3.143,36.536a7.657,7.657,0,0,1-3.143-.393,95.425,95.425,0,0,0,6.286-24.75,12.625,12.625,0,0,1,9.822,12.179C533.217,368.05,527.716,373.943,520.645,373.943Z" transform="translate(0 95.471)" fill="#fff"/>
      <path id="Path_110" data-name="Path 110" d="M455.757,400.664a58.1,58.1,0,0,1,0-13.357c.393-5.893.393-9.036,0-10.607H395.65a13.92,13.92,0,0,1-13.75-13.75v-4.321a13.92,13.92,0,0,1,13.75-13.75h61.286a11.4,11.4,0,0,0,11.393-11.393v-2.357a11.4,11.4,0,0,0-11.393-11.393H427.471a13.92,13.92,0,0,1-13.75-13.75,13.079,13.079,0,0,1,12.964-12.964,9.138,9.138,0,0,0,9.036-9.036V283.2h2.357v.786a11.4,11.4,0,0,1-11.393,11.393,10.563,10.563,0,0,0-10.607,10.607,11.4,11.4,0,0,0,11.393,11.393h29.464a13.919,13.919,0,0,1,13.75,13.75v2.357a13.92,13.92,0,0,1-13.75,13.75H396.043a11.4,11.4,0,0,0-11.393,11.393v4.321a11.4,11.4,0,0,0,11.393,11.393h62.071l.393.786s.786,3.143,0,12.179c-.786,8.643,0,12.964,0,12.964Z" transform="translate(5.96)" fill="#fff"/>
    </g>
    <rect id="Rectangle_62" data-name="Rectangle 62" width="220" height="220" transform="translate(157 1986)" fill="none"/>
  </g>
</svg>
