<svg xmlns="http://www.w3.org/2000/svg" width="220" height="220" viewBox="0 0 220 220">
  <g id="Group_288" data-name="Group 288" transform="translate(752 -2171)">
    <g id="g5001" transform="translate(-827.374 2892.784)">
      <path id="path4718" d="M190.846-706.786A102.191,102.191,0,0,0,88.655-604.6,102.192,102.192,0,0,0,190.847-502.4,102.191,102.191,0,0,0,293.037-604.594a102.192,102.192,0,0,0-3.593-26.4,8.564,8.564,0,0,1-5.314-4.083,8.564,8.564,0,0,1-.971-5.679,12.846,12.846,0,0,1-10.82-6.516,12.846,12.846,0,0,1-1.229-9.537,12.845,12.845,0,0,1-7.533-6,12.846,12.846,0,0,1,.023-12.632,8.563,8.563,0,0,1-4.354-3.769,8.563,8.563,0,0,1-.751-1.808,102.191,102.191,0,0,0-67.65-25.768Zm0,64.947a37.244,37.244,0,0,1,37.244,37.244,37.245,37.245,0,0,1-37.245,37.245A37.244,37.244,0,0,1,153.6-604.594a37.245,37.245,0,0,1,37.245-37.245Z" transform="translate(-4.272 -4.319)" fill="#ffd59d"/>
      <path id="path4742" d="M185.137-717.777a3.027,3.027,0,0,0-.327.022c-31.389.3-61.925,15.222-81.952,39.262l0,0c-17.2,20.309-25.847,46.953-25.021,73.325a91.138,91.138,0,0,0,2.429,21.2,28.874,28.874,0,0,0,3.862,9.245c1.785,2.572,4.542,4.662,7.9,4.662a13.981,13.981,0,0,0,12.263-6.774c2.319-3.838,3.227-8.375,4.071-12.665s1.629-8.366,2.885-10.941,2.25-3.61,5.281-3.61c3.457,0,4.907,1.193,6.405,3.634s2.528,6.251,3.5,10.3,1.888,8.309,3.93,11.946a12.452,12.452,0,0,0,10.911,6.625,11.7,11.7,0,0,0,9.13-4.4,22.531,22.531,0,0,0,4.045-9.233c1.574-6.829,1.565-14.639,1.745-19.931a3.03,3.03,0,0,0-.024-.5c-2.225-16.862,12.543-33.759,29.487-33.833q.068,0,.137,0c14.765-.732,28.621,11.193,30.956,25.523q.007.044.015.088a26.761,26.761,0,0,1,.285,8.264q-.015.122-.019.244c-.206,5.439-.627,11.154.837,16.145a12.636,12.636,0,0,0,4.226,6.588,13.658,13.658,0,0,0,8.525,2.558,11.553,11.553,0,0,0,7.45-2.628,16.056,16.056,0,0,0,4.305-6.2c2.02-4.753,2.858-10.491,3.726-16.077s1.766-11.02,3.291-14.647a10.392,10.392,0,0,1,2.594-3.924,4.873,4.873,0,0,1,3.5-1.2c3.622,0,5.29,1.486,6.993,4.622s2.823,7.881,3.817,12.808,1.867,10.015,3.728,14.268a15.014,15.014,0,0,0,3.91,5.6A10.457,10.457,0,0,0,280.681-585c5.455,0,9.413-3.681,11.577-7.749a27.633,27.633,0,0,0,3.043-12.419,108.828,108.828,0,0,0-3.514-31.789,13.093,13.093,0,0,1-3.062,2.394c-5.15,2.9-11.208,1.917-13.53-2.2a7.6,7.6,0,0,1-.548-5.918c-5.339.347-9.958-1.835-12.176-5.752a11.655,11.655,0,0,1-.442-9.981,11.651,11.651,0,0,1-8.32-5.56c-2.2-3.924-1.682-9.007,1.379-13.4a7.6,7.6,0,0,1-4.777-3.531c-2.257-4.016-.139-9.547,4.794-12.516-18.819-15.173-42.563-24.268-66.971-24.333q-1.5-.036-2.985-.027h-.008Z" transform="translate(0 0)" fill="#ff8686"/>
      <path id="path4725" d="M187.124-712.789c-30.565.188-60.474,14.77-79.994,38.214-16.684,19.7-25.119,45.656-24.305,71.316.039,11.807,2.463,32.13,11.157,32.13,19.293,0,8.174-33.991,24.5-33.991,17.567,0,8.456,32.5,24.746,32.5,11.769,0,11.526-19.884,11.891-30.64-2.48-18.8,13.577-37.176,32.477-37.259,16.443-.815,31.5,12.151,34.1,28.061a29.8,29.8,0,0,1,.318,9.2c-.415,10.944-1.193,22.146,10.56,22.146,18,0,7.018-44.674,24.863-44.674,18.763,0,9.582,39.72,25.207,39.72,8.326,0,11.549-10.652,11.592-17.192a105.965,105.965,0,0,0-3.1-29.753,15.762,15.762,0,0,1-1.691,1.112c-5.608,3.161-12.037,2.385-14.359-1.735a7.33,7.33,0,0,1-.36-6.024c-5.713.558-10.56-1.5-12.778-5.412-1.627-2.9-1.66-6.549-.092-10.178-3.924-.537-7.033-2.461-8.67-5.363-2.2-3.925-1.453-9.136,1.981-13.736a7.33,7.33,0,0,1-4.965-3.425c-2.014-3.577-.29-8.6,4.109-11.967-18.174-14.355-40.927-22.959-64.226-23.022q-1.481-.037-2.96-.027Z" transform="translate(-1.961 -1.959)" fill="#faa"/>
      <path id="path4745" d="M276.17-564.491a4.873,4.873,0,0,0-3.5,1.2,10.392,10.392,0,0,0-2.594,3.924,28.549,28.549,0,0,0-1.246,3.814,54.872,54.872,0,0,1-.45,18.075c-5.354,33.025-41.21,55.765-73.5,49.657-15.2-2.678-28.293-11.9-37.139-24.251a12.964,12.964,0,0,1-6.694-5.877c-2.043-3.638-2.958-7.9-3.931-11.946s-2-7.854-3.5-10.3-2.948-3.634-6.405-3.634c-3.03,0-4.024,1.035-5.281,3.61a23.416,23.416,0,0,0-1.484,4.379c5.56,31.506,31.5,58.908,63.626,64.034,35.826,6.106,74.878-15.532,86.389-50.507a75.643,75.643,0,0,0,4.1-34.28,22.367,22.367,0,0,0-1.408-3.282c-1.7-3.136-3.371-4.622-6.993-4.622Z" transform="translate(-20.694 -60.226)" fill="#fff" opacity="0.3"/>
      <path id="path4800" d="M207.1-666.781q-1.452-.012-2.9.034c-40.274.3-76.35,37.62-75.8,77.472a14.887,14.887,0,0,1,2.342-1.494c4.791-2.279,9.9-1.323,14.005,1.413a60.056,60.056,0,0,1,29.951-52.254,64.468,64.468,0,0,1,32.23-9.22c26.321-.573,49.689,18.959,58.213,43.228a16.433,16.433,0,0,1,5.009-4,13.985,13.985,0,0,1,10.633.073c-5.28-17.51-16.481-33.192-32.491-42.763A77.628,77.628,0,0,0,207.1-666.781Z" transform="translate(-19.882 -20.036)" fill="#fff" opacity="0.4"/>
      <path id="path4848" d="M410.688-539.511a2.994,2.994,0,0,1-2.994,2.994,2.994,2.994,0,0,1-2.994-2.994,2.994,2.994,0,0,1,2.994-2.994A2.994,2.994,0,0,1,410.688-539.511Z" transform="translate(-128.446 -68.865)" fill="#cd4848"/>
      <path id="path4850" d="M350.862-572.972a2.994,2.994,0,0,1-2.994,2.994,2.994,2.994,0,0,1-2.994-2.994,2.994,2.994,0,0,1,2.994-2.994A2.994,2.994,0,0,1,350.862-572.972Z" transform="translate(-104.94 -55.718)" fill="#cd4848"/>
      <path id="path4852" d="M318.414-520.245a2.994,2.994,0,0,1-2.994,2.994,2.994,2.994,0,0,1-2.994-2.994,2.994,2.994,0,0,1,2.994-2.994,2.994,2.994,0,0,1,2.994,2.994Z" transform="translate(-92.192 -76.434)" fill="#cd4848"/>
      <path id="path4854" d="M279.375-629.757a2.994,2.994,0,0,1-2.994,2.994,2.994,2.994,0,0,1-2.994-2.994,2.994,2.994,0,0,1,2.994-2.994A2.994,2.994,0,0,1,279.375-629.757Z" transform="translate(-76.853 -33.407)" fill="#cd4848"/>
      <path id="path4856" d="M326.525-681.979a2.994,2.994,0,0,1-2.994,2.994,2.994,2.994,0,0,1-2.994-2.994,2.994,2.994,0,0,1,2.994-2.994,2.994,2.994,0,0,1,2.994,2.994Z" transform="translate(-95.379 -12.889)" fill="#cd4848"/>
      <path id="path4858" d="M181.522-675.387a2.994,2.994,0,0,1-2.994,2.994,2.994,2.994,0,0,1-2.994-2.994,2.994,2.994,0,0,1,2.994-2.994,2.994,2.994,0,0,1,2.994,2.994Z" transform="translate(-38.407 -15.479)" fill="#cd4848"/>
      <path id="path4860" d="M186.085-571.451a2.994,2.994,0,0,1-2.994,2.994,2.994,2.994,0,0,1-2.994-2.994,2.994,2.994,0,0,1,2.994-2.994,2.994,2.994,0,0,1,2.994,2.994Z" transform="translate(-40.2 -56.315)" fill="#cd4848"/>
      <path id="path4862" d="M123.216-605.929a2.994,2.994,0,0,1-2.994,2.994,2.994,2.994,0,0,1-2.994-2.994,2.994,2.994,0,0,1,2.994-2.994A2.994,2.994,0,0,1,123.216-605.929Z" transform="translate(-15.499 -42.769)" fill="#cd4848"/>
      <path id="path4864" d="M95.838-519.23a2.994,2.994,0,0,1-2.994,2.994,2.994,2.994,0,0,1-2.994-2.994,2.994,2.994,0,0,1,2.994-2.994A2.994,2.994,0,0,1,95.838-519.23Z" transform="translate(-4.742 -76.833)" fill="#cd4848"/>
      <path id="path4866" d="M164.284-540.018a2.994,2.994,0,0,1-2.994,2.994,2.994,2.994,0,0,1-2.994-2.994,2.994,2.994,0,0,1,2.994-2.994A2.994,2.994,0,0,1,164.284-540.018Z" transform="translate(-31.634 -68.665)" fill="#cd4848"/>
      <path id="path4868" d="M200.788-615.054a2.994,2.994,0,0,1-2.994,2.994,2.994,2.994,0,0,1-2.994-2.994,2.994,2.994,0,0,1,2.994-2.994,2.994,2.994,0,0,1,2.994,2.994Z" transform="translate(-45.976 -39.184)" fill="#da7777"/>
      <path id="path4870" d="M295.092-590.21a2.994,2.994,0,0,1-2.994,2.994,2.994,2.994,0,0,1-2.994-2.994A2.994,2.994,0,0,1,292.1-593.2a2.994,2.994,0,0,1,2.994,2.994Z" transform="translate(-83.028 -48.945)" fill="#da7777"/>
      <path id="path4872" d="M345.284-650.037a2.994,2.994,0,0,1-2.994,2.994,2.994,2.994,0,0,1-2.994-2.994,2.994,2.994,0,0,1,2.994-2.994,2.994,2.994,0,0,1,2.994,2.994Z" transform="translate(-102.749 -25.439)" fill="#da7777"/>
      <path id="path4874" d="M248.954-665.755a2.994,2.994,0,0,1-2.994,2.994,2.994,2.994,0,0,1-2.994-2.994,2.994,2.994,0,0,1,2.994-2.994A2.994,2.994,0,0,1,248.954-665.755Z" transform="translate(-64.901 -19.263)" fill="#da7777"/>
      <path id="path4876" d="M116.625-627.223a2.994,2.994,0,0,1-2.994,2.994,2.994,2.994,0,0,1-2.994-2.994,2.994,2.994,0,0,1,2.994-2.994A2.994,2.994,0,0,1,116.625-627.223Z" transform="translate(-12.909 -34.403)" fill="#da7777"/>
      <path id="path4878" d="M124.737-558.27a2.994,2.994,0,0,1-2.994,2.994,2.994,2.994,0,0,1-2.994-2.994,2.994,2.994,0,0,1,2.994-2.994A2.994,2.994,0,0,1,124.737-558.27Z" transform="translate(-16.096 -61.494)" fill="#da7777"/>
      <path id="path4880" d="M274.3-696.175a2.994,2.994,0,0,1-2.994,2.994,2.994,2.994,0,0,1-2.994-2.994,2.994,2.994,0,0,1,2.994-2.994,2.994,2.994,0,0,1,2.994,2.994Z" transform="translate(-74.861 -7.311)" fill="#fff"/>
      <path id="path4882" d="M166.312-631.278a2.994,2.994,0,0,1-2.994,2.994,2.994,2.994,0,0,1-2.994-2.994,2.994,2.994,0,0,1,2.994-2.994A2.994,2.994,0,0,1,166.312-631.278Z" transform="translate(-32.431 -32.809)" fill="#fff"/>
      <path id="path4884" d="M194.7-518.216a2.994,2.994,0,0,1-2.994,2.994,2.994,2.994,0,0,1-2.994-2.994,2.994,2.994,0,0,1,2.994-2.994A2.994,2.994,0,0,1,194.7-518.216Z" transform="translate(-43.586 -77.231)" fill="#fff"/>
      <path id="path4886" d="M237.293-618.6a2.994,2.994,0,0,1-2.994,2.994A2.994,2.994,0,0,1,231.3-618.6,2.994,2.994,0,0,1,234.3-621.6a2.994,2.994,0,0,1,2.994,2.994Z" transform="translate(-60.319 -37.789)" fill="#fff"/>
      <path id="path4888" d="M398.521-575.508a2.994,2.994,0,0,1-2.994,2.994,2.994,2.994,0,0,1-2.994-2.994,2.994,2.994,0,0,1,2.994-2.994,2.994,2.994,0,0,1,2.994,2.994Z" transform="translate(-123.666 -54.721)" fill="#fff"/>
      <path id="path4845" d="M398.521-575.508a2.994,2.994,0,0,1-2.994,2.994,2.994,2.994,0,0,1-2.994-2.994,2.994,2.994,0,0,1,2.994-2.994,2.994,2.994,0,0,1,2.994,2.994Z" transform="translate(-123.666 -54.721)" fill="#fff"/>
    </g>
    <rect id="Rectangle_252" data-name="Rectangle 252" width="220" height="220" transform="translate(-752 2171)" fill="none"/>
  </g>
</svg>
