<svg xmlns="http://www.w3.org/2000/svg" width="220" height="220" viewBox="0 0 220 220">
  <g id="Group_286" data-name="Group 286" transform="translate(752 -2171)">
    <g id="g4972" transform="translate(-1210.656 2570.513)">
      <path id="path815" d="M574.074,814.52a102.009,102.009,0,1,0,85.919,47.515,10.021,10.021,0,0,1-5.726-7.828,18.411,18.411,0,0,1-28.2-12.688,18.387,18.387,0,0,1-21.47-22.114,11.518,11.518,0,0,1-12.03-3.135,101.7,101.7,0,0,0-18.489-1.75Zm0,66.277a35.417,35.417,0,1,1-35.417,35.416A35.417,35.417,0,0,1,574.074,880.8Z" transform="translate(-5.433 -1201.967)" fill="#ffd59d"/>
      <path id="path4579" d="M567.507,800.714c-47.359-.124-92.226,33.728-104.6,79.568a106.618,106.618,0,0,0-4.238,31.475c0,.033,0,.066,0,.1.306,6.731,1.274,13.812,3.535,19.572a20.6,20.6,0,0,0,4.651,7.452,11.5,11.5,0,0,0,7.953,3.311,12.08,12.08,0,0,0,7.524-2.512,15.7,15.7,0,0,0,4.445-6.024c2.09-4.629,2.937-10.189,3.763-15.587s1.624-10.645,2.988-14.123a9.838,9.838,0,0,1,2.283-3.7,3.832,3.832,0,0,1,2.917-1.057,3.376,3.376,0,0,1,2.457.946,11.541,11.541,0,0,1,2.5,3.481c1.649,3.224,3.046,8.016,4.586,12.953s3.219,10.047,5.982,14.224,7.088,7.493,12.762,7.493a11.275,11.275,0,0,0,7.8-3.186,18.373,18.373,0,0,0,4.293-6.977,47.223,47.223,0,0,0,2.461-16.441q0-.062,0-.123a23.74,23.74,0,0,1,3.465-13.935q.029-.046.056-.093c5.011-8.692,14.623-14.273,24.5-13.836l.117,0c14.271.093,26.522,14.021,26.151,27.939q0,.075,0,.15c.121,5.479-.409,13.591.927,20.717a20.7,20.7,0,0,0,4.072,9.685,12.926,12.926,0,0,0,10.057,4.477c4.783,0,8.557-2.783,11.182-6.21s4.483-7.614,6.237-11.644a75.868,75.868,0,0,1,5.135-10.527c1.727-2.608,3.08-3.617,4.76-3.617,2.116,0,3.306.825,4.8,2.75a47.216,47.216,0,0,1,4.4,8.095,38.619,38.619,0,0,0,5.618,9.4,14.2,14.2,0,0,0,10.7,4.982,10.68,10.68,0,0,0,7.847-3.748,22.688,22.688,0,0,0,4.266-7.663,52.774,52.774,0,0,0,2.793-16.76,112.316,112.316,0,0,0-14.1-54.935c-3.88,4.125-9.724,5.05-13.8,2.183a9.638,9.638,0,0,1-3.95-7.332c-6.867,4.872-15.384,5.234-21.528.916a17.422,17.422,0,0,1-7.148-12.935,17.426,17.426,0,0,1-14.57-2.354c-6.091-4.3-8.633-12.355-6.44-20.414a11.235,11.235,0,0,1-10.612-1.034c-4.221-2.976-5.707-8.763-3.651-14.221a102.979,102.979,0,0,0-14.245-.872q-.551-.008-1.1-.009Z" transform="translate(0 -1196.502)" fill="#522a16"/>
      <path id="path4540" d="M569.524,805.824c-45.88-.121-89.644,32.908-101.622,77.3a103.536,103.536,0,0,0-4.125,30.608c.593,13.041,3.921,27.389,13.054,27.389,18.3,0,7.537-43.005,23.92-43.005,13.9,0,9.991,39.1,28.291,39.1,9.125,0,11.577-13.913,11.464-23.481a26.865,26.865,0,0,1,3.929-15.73c5.574-9.668,16.2-15.871,27.314-15.378,16.2.106,29.636,15.381,29.218,31.109.252,11.429-1.908,31.86,11.969,31.86,14.627,0,15.17-32,27.314-32,12.589,0,10.889,25.228,25.523,25.228,8.782,0,11.826-16.6,11.819-25.089a109.288,109.288,0,0,0-13.007-52.112c-4.359,4.773-10.531,6.177-14.593,3.319a9.266,9.266,0,0,1-3.633-7.784c-7.545,5.835-16.506,6.828-22.651,2.511-4.1-2.89-6.483-7.845-6.6-13.719-5.56,1.872-11.019,1.305-15.122-1.57-6.09-4.3-8.194-12.977-5.33-21.989-3.986,1.842-8.078,1.7-11.061-.4-4.255-3-5.388-9.339-2.773-15.52a99.471,99.471,0,0,0-12.216-.645q-.542-.008-1.084-.009Z" transform="translate(-2.023 -1198.525)" fill="#855425"/>
      <path id="path4582" d="M519.5,963.7a3.833,3.833,0,0,0-2.917,1.057,9.837,9.837,0,0,0-2.283,3.7c-1.363,3.477-2.162,8.725-2.988,14.123-.057.373-.115.748-.173,1.123,4.042,34.229,31.814,65.113,66.459,69.324,35.88,5.742,74.736-16.5,85.91-51.5a72.654,72.654,0,0,0,3.547-13.907,33.347,33.347,0,0,0-3.254-5.689c-1.5-1.925-2.687-2.75-4.8-2.75-1.68,0-3.033,1.009-4.76,3.617a75.857,75.857,0,0,0-5.135,10.527c-1.754,4.031-3.612,8.217-6.237,11.644a16.509,16.509,0,0,1-6.234,5.149c-15.1,19.412-42.821,29.264-66.441,20.871-17.156-6-30.695-20.374-36.285-37.538a65.269,65.269,0,0,1-4.859-12.369c-1.54-4.938-2.937-9.729-4.586-12.953a11.54,11.54,0,0,0-2.5-3.481,3.375,3.375,0,0,0-2.457-.946Z" transform="translate(-20.777 -1261.02)" fill="#fff" opacity="0.3"/>
      <path id="path4614" d="M590.161,852.517q-.855.006-1.712.032c-33.8.444-64.95,26.374-73.924,58.471,6.944-3.373,14.856.16,19.179,6.115a54.261,54.261,0,0,1,13.573-24.909c11.076-12.262,27.333-19.9,43.929-19.836,30.863-.636,57.519,27.911,58.452,57.96,3.593-3.672,8.224-5.993,13.628-4.87a15.594,15.594,0,0,1,5.934,2.681,80.2,80.2,0,0,0-15.568-44.327c-4.736,1.113-9.138.44-12.507-1.913-4.1-2.89-6.336-8.054-6.188-14.3-5.82,2.242-11.427,1.884-15.53-.991a15.176,15.176,0,0,1-5.95-10.611,76.6,76.6,0,0,0-23.318-3.5Z" transform="translate(-22.115 -1217.008)" fill="#fff" opacity="0.4"/>
      <rect id="rect4670" width="10.18" height="2.599" rx="1.3" transform="matrix(0.897, -0.442, 0.442, 0.897, 511.162, -343.106)" fill="#0abe0a"/>
      <rect id="rect4672" width="10.18" height="2.599" rx="1.3" transform="matrix(0.897, -0.442, 0.442, 0.897, 536.721, -372.996)" fill="#4290ee"/>
      <rect id="rect4674" width="10.18" height="2.599" rx="1.3" transform="matrix(0.897, -0.442, 0.442, 0.897, 470.659, -286.358)" fill="#0abe0a"/>
      <rect id="rect4676" width="10.18" height="2.599" rx="1.3" transform="matrix(0.897, -0.442, 0.442, 0.897, 517.443, -284.842)" fill="#4290ee"/>
      <rect id="rect4678" width="10.18" height="2.599" rx="1.3" transform="matrix(0.897, -0.442, 0.442, 0.897, 571.809, -344.622)" fill="#0abe0a"/>
      <rect id="rect4680" width="10.18" height="2.599" rx="1.3" transform="matrix(0.897, -0.442, 0.442, 0.897, 611.662, -294.372)" fill="#0abe0a"/>
      <rect id="rect4682" width="10.18" height="2.599" rx="1.3" transform="matrix(0.897, -0.442, 0.442, 0.897, 620.975, -317.114)" fill="#00c800"/>
      <rect id="rect4684" width="10.18" height="2.599" rx="1.3" transform="matrix(0.897, -0.442, 0.442, 0.897, 620.975, -317.114)" fill="#0abe0a"/>
      <rect id="rect4686" width="10.18" height="2.599" rx="1.3" transform="matrix(0.897, -0.442, 0.442, 0.897, 657.796, -289.174)" fill="#c83737"/>
      <rect id="rect4690" width="10.18" height="2.599" rx="1.3" transform="translate(652.594 -312.796) rotate(21.12)" fill="#4290ee"/>
      <rect id="rect4692" width="10.18" height="2.599" rx="1.3" transform="translate(600.828 -344.419) rotate(21.12)" fill="#4290ee"/>
      <rect id="rect4694" width="10.18" height="2.599" rx="1.3" transform="translate(567.256 -328.608) rotate(21.12)" fill="#eded27"/>
      <rect id="rect4696" width="10.18" height="2.599" rx="1.3" transform="translate(562.058 -371.927) rotate(21.12)" fill="#0abe0a"/>
      <rect id="rect4698" width="10.18" height="2.599" rx="1.3" transform="translate(546.463 -349.184) rotate(21.12)" fill="#c83737"/>
      <rect id="rect4700" width="10.18" height="2.599" rx="1.3" transform="translate(484.083 -330.99) rotate(21.12)" fill="#4290ee"/>
      <rect id="rect4702" width="10.18" height="2.599" rx="1.3" transform="matrix(0.639, -0.769, 0.769, 0.639, 529.16, -310.349)" fill="#c83737"/>
      <rect id="rect4704" width="10.18" height="2.599" rx="1.3" transform="matrix(0.639, -0.769, 0.769, 0.639, 504.469, -365.364)" fill="#eded27"/>
      <rect id="rect4706" width="10.18" height="2.599" rx="1.3" transform="matrix(0.639, -0.769, 0.769, 0.639, 642.656, -322.046)" fill="#0abe0a"/>
      <rect id="rect4710" width="10.18" height="2.599" rx="1.3" transform="matrix(0.639, -0.769, 0.769, 0.639, 609.085, -264.432)" fill="#eded27"/>
      <rect id="rect4712" width="10.18" height="2.599" rx="1.3" transform="matrix(0.639, -0.769, 0.769, 0.639, 593.273, -313.166)" fill="#00c800"/>
      <rect id="rect4688" width="10.18" height="2.599" rx="1.3" transform="matrix(0.639, -0.769, 0.769, 0.639, 593.273, -313.166)" fill="#c83737"/>
    </g>
    <rect id="Rectangle_250" data-name="Rectangle 250" width="220" height="220" transform="translate(-752 2171)" fill="none"/>
  </g>
</svg>
