<svg xmlns="http://www.w3.org/2000/svg" width="220" height="220" viewBox="0 0 220 220">
  <g id="Group_287" data-name="Group 287" transform="translate(752 -2171)">
    <g id="g6014" transform="translate(-1136.35 2867.581)">
      <path id="path5003" d="M499.513-681.541A102.619,102.619,0,0,0,443.671-664.9a12.8,12.8,0,0,1-4.439,11.579,12.8,12.8,0,0,1-7.877,2.981,12.8,12.8,0,0,1-4.313,7.257,12.8,12.8,0,0,1-9.715,2.9,102.619,102.619,0,0,0-20.433,61.269A102.619,102.619,0,0,0,499.513-476.3a102.62,102.62,0,0,0,102.62-102.62A102.619,102.619,0,0,0,499.515-681.541Zm0,70.164a32.455,32.455,0,0,1,32.455,32.455,32.455,32.455,0,0,1-32.455,32.455,32.455,32.455,0,0,1-32.455-32.455,32.455,32.455,0,0,1,32.455-32.455Z" transform="translate(-3.999 -4.258)" fill="#ffd59d"/>
      <path id="path5027" d="M496.962-692.447q-1.521-.01-3.045.028a107.235,107.235,0,0,0-57.076,17.164,19.552,19.552,0,0,1,1.928,1.974c5.635,6.71,5.813,15.836.4,20.383a11.362,11.362,0,0,1-8.3,2.471,11.359,11.359,0,0,1-3.884,7.766c-5.415,4.548-14.373,2.8-20.008-3.913q-.144-.177-.284-.358a102.51,102.51,0,0,0-13.457,25.316.032.032,0,0,0,0,.011,106.546,106.546,0,0,0-6.567,29.538q-.01.124-.009.248a41.048,41.048,0,0,0,3.191,16.45c2.261,4.944,6.42,9.175,12.215,9.175a14.722,14.722,0,0,0,8.972-3.257,46.745,46.745,0,0,0,6.237-6.191c3.767-4.193,6.9-7.465,11.863-7.465a7.5,7.5,0,0,1,5.924,2.627,36.964,36.964,0,0,1,4.84,7.153,38.711,38.711,0,0,0,5.822,8.377,14.441,14.441,0,0,0,10.335,4.407,2.991,2.991,0,0,0,.977-.164,16,16,0,0,0,8.439-6.688,26.863,26.863,0,0,0,3.34-9.374c1.227-6.457,1.446-13.059,3.06-16.659,4.223-9.421,14.331-15.922,24.45-15.515l.114,0c10.724.022,21.793,7.836,23.566,17.64.78,4.31,1.422,11.143,3.174,17.129a23.152,23.152,0,0,0,3.865,8.123,10.362,10.362,0,0,0,7.994,4.03c5.216,0,9.153-3.19,11.606-7.1s3.933-8.656,5.359-13.229,2.8-8.986,4.469-11.922,3.048-4.144,5.51-4.125c3.538.026,5.459,1.515,7.37,4.44s3.351,7.279,4.677,11.815,2.535,9.231,4.579,13.135,5.557,7.32,10.44,7.32a13.017,13.017,0,0,0,9.448-3.807,18.647,18.647,0,0,0,4.383-8.419c1.648-6.211,1.476-13.2,1.481-17.917q0-.125-.01-.25A108.351,108.351,0,0,0,579.568-653c-20.175-24.221-50.975-39.254-82.606-39.447Z" fill="#3ca6f2"/>
      <path id="path5009" d="M498.858-687.544q-1.485-.009-2.972.027a104.172,104.172,0,0,0-55.072,16.448q.738.741,1.417,1.543c6.489,7.726,7.359,17.676,1.944,22.224a10.706,10.706,0,0,1-8.641,2.071,10.7,10.7,0,0,1-3.548,8.167c-5.366,4.5-14.9,2.016-21.391-5.573a99.113,99.113,0,0,0-12.643,23.961,103.56,103.56,0,0,0-6.4,28.757c.051,10.391,3.6,22.65,12.417,22.65,11.14,0,14.464-16.914,27.072-16.914,13.843,0,12.8,22.564,26.921,22.564,12.828-4.434,8.99-21.979,13.088-31.118,4.732-10.554,15.853-17.739,27.3-17.28,12.118.025,24.409,8.529,26.5,20.1,1.645,9.091,2.6,26.824,12.091,26.824,16.442,0,12.2-36.488,26.966-36.377,18.169.137,12.534,36.709,27.044,36.709,12.757,0,12.313-17.623,12.322-27.157a105.407,105.407,0,0,0-24.081-59.245c-19.6-23.541-49.638-38.191-80.333-38.379Z" transform="translate(-1.914 -1.914)" fill="#96cff8"/>
      <path id="path5030" d="M579.272-538.177c-2.462-.019-3.841,1.189-5.511,4.125s-3.042,7.349-4.468,11.922-2.906,9.319-5.359,13.229c-.127.2-.26.4-.394.6q-.264.811-.56,1.618c-9.209,31.345-51.824,47.161-78.711,27.994a49.9,49.9,0,0,1-20.131-25.017c-.393-.327-.769-.668-1.123-1.023a38.71,38.71,0,0,1-5.822-8.377,36.962,36.962,0,0,0-4.84-7.153,7.5,7.5,0,0,0-5.924-2.627c-4.968,0-8.1,3.273-11.863,7.465-1.145,1.274-2.314,2.605-3.594,3.868,5.062,35.352,34.692,66.766,70.826,70.427,35.338,5.019,73.492-15.43,86.825-49.093a79.613,79.613,0,0,0,5.955-21.454c-1.3-3.227-2.247-6.783-3.259-10.248-1.325-4.537-2.766-8.891-4.677-11.815s-3.832-4.413-7.37-4.44Z" transform="translate(-17.302 -60.221)" fill="#fff" opacity="0.25"/>
      <path id="path5058" d="M510.659-648.808c-42.971-.02-82.267,39.5-81.006,82.382.366-.405.734-.785,1.107-1.126,6.828-7.251,19.809-9.84,27.08-1.818a16.6,16.6,0,0,1,2.037,2.355c-.028-12.844,4.4-25.548,13.938-34.741a54.165,54.165,0,0,1,39.773-17.165c23.966-.131,44.749,19.424,50.2,42.106,2.419-5.807,5.994-10.932,12.364-12.632,7.093-1.369,13.337,2.651,17.3,8.311-3.042-16.974-11.215-32.991-24.207-44.667-15.427-14.723-36.464-23.307-57.559-23q-.511-.007-1.022-.007Z" transform="translate(-16.776 -17.036)" fill="#fff" opacity="0.4"/>
      <path id="path5897" d="M708.646-539.223c-1.16.537-1.209,2.9-.109,5.27a6.474,6.474,0,0,0,2.893,3.283,4.464,4.464,0,0,0,.344,2.686,4.086,4.086,0,0,0,5.335,2.2,4.086,4.086,0,0,0,1.773-5.491,4.45,4.45,0,0,0-1.973-2.08,6.749,6.749,0,0,0-.683-4.158c-1.1-2.373-2.931-3.861-4.091-3.324-.7.326-1.023,1.345-.86,2.718-.942-1.012-1.928-1.425-2.629-1.1Z" transform="translate(-125.342 -59.139)" fill="#aaf9aa" stroke="#0fdf0f" stroke-width="1.022"/>
      <path id="path5899" d="M555.923-662.55c-1.16.537-1.208,2.9-.109,5.269A6.475,6.475,0,0,0,558.707-654a4.464,4.464,0,0,0,.344,2.686,4.086,4.086,0,0,0,5.335,2.2,4.086,4.086,0,0,0,1.773-5.491,4.45,4.45,0,0,0-1.973-2.08,6.75,6.75,0,0,0-.683-4.158c-1.1-2.373-2.931-3.861-4.091-3.324-.7.326-1.023,1.345-.86,2.718-.942-1.012-1.928-1.425-2.629-1.1Z" transform="translate(-65.725 -10.998)" fill="#e9afaf" stroke="#de8787" stroke-width="1.022"/>
      <path id="path5901" d="M420.407-577.941c-1.16.537-1.209,2.9-.109,5.269a6.475,6.475,0,0,0,2.893,3.283,4.464,4.464,0,0,0,.344,2.686,4.086,4.086,0,0,0,5.335,2.2A4.086,4.086,0,0,0,430.643-570a4.45,4.45,0,0,0-1.973-2.08,6.749,6.749,0,0,0-.683-4.158c-1.1-2.373-2.931-3.861-4.091-3.324-.7.326-1.023,1.345-.86,2.718-.942-1.012-1.928-1.425-2.629-1.1Z" transform="translate(-12.825 -44.025)" fill="#ffea94" stroke="#ffd119" stroke-width="1.022"/>
      <path id="path5903" d="M492.109-542.808c-1.16.537-1.209,2.9-.109,5.269a6.474,6.474,0,0,0,2.893,3.283,4.464,4.464,0,0,0,.344,2.686,4.086,4.086,0,0,0,5.335,2.2,4.086,4.086,0,0,0,1.773-5.491,4.451,4.451,0,0,0-1.973-2.08,6.749,6.749,0,0,0-.683-4.158c-1.1-2.373-2.931-3.861-4.091-3.324-.7.326-1.023,1.345-.86,2.718-.942-1.012-1.928-1.425-2.629-1.1Z" transform="translate(-40.815 -57.74)" fill="#e9afaf" stroke="#de8787" stroke-width="1.022"/>
      <path id="path5905" d="M524.374-604.471c-1.16.537-1.208,2.9-.109,5.269a6.475,6.475,0,0,0,2.893,3.283,4.464,4.464,0,0,0,.344,2.686,4.086,4.086,0,0,0,5.335,2.2,4.086,4.086,0,0,0,1.773-5.491,4.45,4.45,0,0,0-1.973-2.08,6.749,6.749,0,0,0-.683-4.158c-1.1-2.373-2.931-3.861-4.091-3.324-.7.326-1.023,1.345-.86,2.718-.942-1.012-1.928-1.425-2.629-1.1Z" transform="translate(-53.41 -33.669)" fill="#e9afaf" stroke="#de8787" stroke-width="1.022"/>
      <path id="path5907" d="M524.374-604.471c-1.16.537-1.208,2.9-.109,5.269a6.475,6.475,0,0,0,2.893,3.283,4.464,4.464,0,0,0,.344,2.686,4.086,4.086,0,0,0,5.335,2.2,4.086,4.086,0,0,0,1.773-5.491,4.45,4.45,0,0,0-1.973-2.08,6.749,6.749,0,0,0-.683-4.158c-1.1-2.373-2.931-3.861-4.091-3.324-.7.326-1.023,1.345-.86,2.718-.942-1.012-1.928-1.425-2.629-1.1Z" transform="translate(-53.41 -33.669)" fill="#aaf9aa" stroke="#0fdf0f" stroke-width="1.022"/>
      <path id="path5909" d="M637.662-629.567c-1.16.537-1.208,2.9-.109,5.27a6.475,6.475,0,0,0,2.893,3.283,4.464,4.464,0,0,0,.344,2.686,4.086,4.086,0,0,0,5.335,2.2,4.086,4.086,0,0,0,1.773-5.491,4.451,4.451,0,0,0-1.973-2.08,6.75,6.75,0,0,0-.683-4.158c-1.1-2.373-2.931-3.861-4.091-3.324-.7.326-1.023,1.345-.86,2.718-.942-1.012-1.928-1.425-2.629-1.1Z" transform="translate(-97.633 -23.873)" fill="#e9afaf" stroke="#de8787" stroke-width="1.022"/>
      <path id="path5913" d="M690.808-594.152c-.946-.86-3.139.012-4.9,1.947a6.475,6.475,0,0,0-1.9,3.941,4.464,4.464,0,0,0-2.342,1.36,4.086,4.086,0,0,0,.048,5.77,4.086,4.086,0,0,0,5.748-.5,4.45,4.45,0,0,0,1.15-2.626,6.749,6.749,0,0,0,3.566-2.245c1.759-1.935,2.419-4.2,1.474-5.06-.572-.519-1.637-.42-2.839.264.566-1.261.563-2.331-.008-2.85Z" transform="translate(-114.707 -38.242)" fill="#ffea94" stroke="#ffd119" stroke-width="1.022"/>
      <path id="path5915" d="M629.145-520.3c-.946-.86-3.139.012-4.9,1.947a6.475,6.475,0,0,0-1.9,3.941,4.464,4.464,0,0,0-2.342,1.36,4.086,4.086,0,0,0,.048,5.77,4.086,4.086,0,0,0,5.748-.5,4.45,4.45,0,0,0,1.15-2.626,6.749,6.749,0,0,0,3.566-2.245c1.759-1.935,2.419-4.2,1.474-5.06-.572-.519-1.637-.42-2.839.264.566-1.261.563-2.331-.008-2.85Z" transform="translate(-90.636 -67.071)" fill="#e9afaf" stroke="#de8787" stroke-width="1.022"/>
      <path id="path5917" d="M578.953-597.737c-.946-.86-3.139.012-4.9,1.947a6.475,6.475,0,0,0-1.9,3.941,4.465,4.465,0,0,0-2.342,1.36,4.087,4.087,0,0,0,.048,5.77,4.086,4.086,0,0,0,5.748-.5,4.451,4.451,0,0,0,1.15-2.626,6.749,6.749,0,0,0,3.566-2.245c1.759-1.935,2.419-4.2,1.474-5.06-.572-.519-1.637-.42-2.839.264.566-1.261.563-2.331-.008-2.85Z" transform="translate(-71.044 -36.842)" fill="#ffea94" stroke="#ffd119" stroke-width="1.022"/>
      <path id="path5919" d="M502.234-662.986c-.946-.86-3.139.012-4.9,1.947a6.475,6.475,0,0,0-1.9,3.941,4.464,4.464,0,0,0-2.342,1.36,4.086,4.086,0,0,0,.048,5.77,4.086,4.086,0,0,0,5.748-.5,4.45,4.45,0,0,0,1.15-2.626,6.749,6.749,0,0,0,3.566-2.245c1.759-1.935,2.419-4.2,1.474-5.06-.572-.519-1.637-.42-2.839.264.566-1.261.563-2.331-.008-2.85Z" transform="translate(-41.096 -11.372)" fill="#e9afaf" stroke="#de8787" stroke-width="1.022"/>
      <path id="path5921" d="M472.119-595.586c-.946-.86-3.139.012-4.9,1.947a6.475,6.475,0,0,0-1.9,3.941,4.464,4.464,0,0,0-2.342,1.36,4.086,4.086,0,0,0,.048,5.77,4.086,4.086,0,0,0,5.748-.5,4.45,4.45,0,0,0,1.15-2.626,6.749,6.749,0,0,0,3.566-2.245c1.759-1.935,2.419-4.2,1.473-5.06-.572-.519-1.637-.42-2.839.264.566-1.261.563-2.331-.008-2.85Z" transform="translate(-29.34 -37.682)" fill="#e9afaf" stroke="#de8787" stroke-width="1.022"/>
      <path id="path5923" d="M410.456-533.206c-.946-.86-3.139.012-4.9,1.947a6.475,6.475,0,0,0-1.9,3.941,4.464,4.464,0,0,0-2.342,1.36,4.087,4.087,0,0,0,.048,5.77,4.086,4.086,0,0,0,5.748-.5,4.45,4.45,0,0,0,1.15-2.626,6.749,6.749,0,0,0,3.566-2.245c1.759-1.935,2.419-4.2,1.474-5.06-.572-.519-1.637-.42-2.839.264.566-1.261.563-2.331-.008-2.85Z" transform="translate(-5.27 -62.033)" fill="#aaf9aa" stroke="#0fdf0f" stroke-width="1.022"/>
      <path id="path5925" d="M531.507-644.122c-1.23-.348-2.8,1.409-3.517,3.926a6.473,6.473,0,0,0,.055,4.375,4.464,4.464,0,0,0-1.49,2.261,4.086,4.086,0,0,0,2.614,5.144,4.086,4.086,0,0,0,4.923-3.009,4.45,4.45,0,0,0-.141-2.864,6.75,6.75,0,0,0,2.192-3.6c.713-2.516.293-4.839-.936-5.187-.744-.21-1.653.354-2.424,1.5-.055-1.382-.534-2.337-1.278-2.548Z" transform="translate(-54.546 -18.848)" fill="#ffea94" stroke="#ffd119" stroke-width="1.022"/>
      <path id="path5927" d="M613.248-674.953c-1.23-.348-2.8,1.409-3.517,3.926a6.473,6.473,0,0,0,.055,4.375,4.463,4.463,0,0,0-1.49,2.261,4.086,4.086,0,0,0,2.614,5.144,4.086,4.086,0,0,0,4.923-3.009,4.45,4.45,0,0,0-.141-2.864,6.75,6.75,0,0,0,2.192-3.6c.713-2.516.293-4.839-.936-5.187-.743-.21-1.653.354-2.424,1.5-.055-1.381-.534-2.337-1.278-2.548Z" transform="translate(-86.454 -6.813)" fill="#aaf9aa" stroke="#0fdf0f" stroke-width="1.022"/>
      <path id="path5929" d="M619.7-600.384c-1.23-.348-2.8,1.409-3.517,3.926a6.473,6.473,0,0,0,.055,4.375,4.464,4.464,0,0,0-1.49,2.261,4.086,4.086,0,0,0,2.614,5.144,4.086,4.086,0,0,0,4.923-3.009,4.45,4.45,0,0,0-.141-2.864,6.749,6.749,0,0,0,2.192-3.6c.713-2.516.293-4.838-.936-5.187-.744-.21-1.653.354-2.424,1.5-.055-1.381-.534-2.337-1.278-2.548Z" transform="translate(-88.973 -35.921)" fill="#e9afaf" stroke="#de8787" stroke-width="1.022"/>
    </g>
    <rect id="Rectangle_251" data-name="Rectangle 251" width="220" height="220" transform="translate(-752 2171)" fill="none"/>
  </g>
</svg>
