<svg xmlns="http://www.w3.org/2000/svg" width="121.476" height="121.356" viewBox="0 0 121.476 121.356">
  <g id="Group_78" data-name="Group 78" transform="translate(-554.524 -585)">
    <g id="Group_77" data-name="Group 77" transform="translate(203 -350)">
      <path id="Path_15" data-name="Path 15" d="M245.549,196.388a60.217,60.217,0,1,0-25.788,81.161A60.144,60.144,0,0,0,245.549,196.388Z" transform="translate(219.7 772)" fill="#fff"/>
      <g id="Group_69" data-name="Group 69" transform="translate(361.703 937.309)">
        <path id="Path_16" data-name="Path 16" d="M211.2,213.467a.893.893,0,0,1-.393-.655c0-.131-.131,0-.262.131s-.262.785-.131.916v1.571c0,.131.131.131.262.393s.131.524.262.655.393,0,.785,0c.393-.131.131-.262.131-.655q.2-.589,0-.785c-.131-.131,0-.262,0-.393v-.655a1.423,1.423,0,0,1-.131-.655C211.591,213.6,211.46,213.6,211.2,213.467Z" transform="translate(-117.732 -150.186)" fill="#3f434f"/>
        <path id="Path_17" data-name="Path 17" d="M221.573,215.3c-.131-.262-.262.393-.393.524s-.131-.131-.131-.262c-.131-.131-.393-.655-.524-.655a1.807,1.807,0,0,1-.393-.524c-.131-.262-.262-.262-.262-.524s0-.524-.393-.655c-.262-.131-.393.131-.393.393-.131.262-.262.131-.393.131s-.131-.262-.262-.393-.131.131-.131.393c0,.131.262.393.131.655v.655c.131.262.131.262.524.262a.457.457,0,0,1,.131.262,5.668,5.668,0,0,1,.131.655c0,.262,0,.655.131.785s.393.262.524.524a1.18,1.18,0,0,1,.131.655c0,.393.262.131.393.131h.393c.131.131,0,.655,0,.916,0,.131.131.916.131,1.178a1.663,1.663,0,0,0,.524.916c.262.393,0,.393.262.785.131.393.262,0,.524-.131s.262-.524.262-.785a2.228,2.228,0,0,1,.131-.916c.131-.262.262-.262.262-.655a2.359,2.359,0,0,0-.131-1.309c-.131-.524-.131-.131-.262-.393a2.466,2.466,0,0,1-.262-1.047.68.68,0,0,0-.262-.524A9.026,9.026,0,0,0,221.573,215.3Z" transform="translate(-115.278 -150.058)" fill="#3f434f"/>
        <path id="Path_18" data-name="Path 18" d="M219,216.106v-.785c-.131-.262-.131.131-.393.262-.131.131.131.393.262.655A.128.128,0,0,1,219,216.106Z" transform="translate(-115.193 -149.421)" fill="#3f434f"/>
        <path id="Path_19" data-name="Path 19" d="M219.519,216.885c.131,0,.131-.262,0-.524s-.262-.262-.393-.262c-.262.131,0,.262.131.655A.457.457,0,0,0,219.519,216.885Z" transform="translate(-115.057 -149.153)" fill="#3f434f"/>
        <path id="Path_20" data-name="Path 20" d="M220.128,217.339c0-.262-.131-.131-.393-.131s-.131.131,0,.655c0,0,0,.262.262.131A.981.981,0,0,0,220.128,217.339Z" transform="translate(-114.881 -148.821)" fill="#3f434f"/>
        <path id="Path_21" data-name="Path 21" d="M177.967,167.336c.262-.262-.393-.131-.524,0a.251.251,0,0,0-.131.393A1.915,1.915,0,0,0,177.967,167.336Z" transform="translate(-127.962 -164.271)" fill="#3f434f"/>
        <path id="Path_22" data-name="Path 22" d="M176.726,167.437c.131-.131-.262-.131-.393-.131-.262-.131-.131.262.131.393C176.465,167.568,176.6,167.568,176.726,167.437Z" transform="translate(-128.292 -164.241)" fill="#3f434f"/>
        <path id="Path_23" data-name="Path 23" d="M177.958,167.013c.131-.131-.785,0-.655.131l.131.131C177.3,167.275,177.827,167.144,177.958,167.013Z" transform="translate(-127.952 -164.341)" fill="#3f434f"/>
        <path id="Path_24" data-name="Path 24" d="M183.887,166.813c.393-.131-.393-.131-.524-.131s-.393-.262-.393-.262c-.131-.131-.131-.131-.262.131s.131.393.262.524C182.97,167.075,183.494,166.944,183.887,166.813Z" transform="translate(-126.288 -164.533)" fill="#3f434f"/>
        <path id="Path_25" data-name="Path 25" d="M183.47,166.923c-.131,0-.393.131-.262.262a5.668,5.668,0,0,0,.655.131c.262.131.131-.131.393-.262a1.423,1.423,0,0,1,.655-.131c.131-.131-.655-.131-1.178,0C183.339,167.185,183.6,166.923,183.47,166.923Z" transform="translate(-126.134 -164.382)" fill="#3f434f"/>
        <path id="Path_26" data-name="Path 26" d="M185.708,166.867a.573.573,0,0,0,.393.131h.524c.262,0,.131-.262.131-.262s.131-.393.262-.393c.131-.131-.131-.262-.262-.131s-.131.393-.262.524a.405.405,0,0,1-.262.131,1.5,1.5,0,0,0-.785,0C185.053,166.867,185.315,167,185.708,166.867Z" transform="translate(-125.491 -164.588)" fill="#3f434f"/>
        <path id="Path_27" data-name="Path 27" d="M163.068,192.04c-.131-.131-.655,0-1.047,0-.524,0-.655-.262-1.047-.131-.393,0-.393.655-.131.916a2.631,2.631,0,0,0,1.047.524c.393.131.131.262.393.524,0,0,.262.131.393,0a4.358,4.358,0,0,0,.393-.785C163.2,192.563,163.2,192.04,163.068,192.04Z" transform="translate(-133.091 -156.641)" fill="#3f434f"/>
        <path id="Path_28" data-name="Path 28" d="M158.531,191.932c.131.131.131-.131.393-.262s-.131.262,0,.655h.262c.131,0,.262-.262.131-.524a.347.347,0,0,1,.393-.393c.262-.131.131-.262.131-.655s.131-.916.131-1.047-.393.262-.655.524a3.735,3.735,0,0,0-.916,1.047A.981.981,0,0,0,158.531,191.932Z" transform="translate(-133.79 -157.318)" fill="#3f434f"/>
        <path id="Path_29" data-name="Path 29" d="M159.913,189.6c.131,0,0-.262.131-.393,0-.131.262-.524.262-.785s-.262,0-.393.131-.262.131-.393.393c-.262.131.131.393.393.655C159.782,189.6,159.782,189.735,159.913,189.6Z" transform="translate(-133.47 -157.74)" fill="#3f434f"/>
        <path id="Path_30" data-name="Path 30" d="M167.646,195.661c.262.131.262-.131.393-.262h.785a1.848,1.848,0,0,0,1.178.131c.393-.131.393-.393.262-.655s-.524-.131-.785-.131-.262-.131-.393-.131h-.655c-.131,0-.393-.131-.655,0s.131.262-.131.524S167.385,195.53,167.646,195.661Z" transform="translate(-130.993 -155.812)" fill="#3f434f"/>
        <path id="Path_31" data-name="Path 31" d="M169.208,192.185c.131.131.262-.131.524,0h.262c.131-.131.131-.262.131-.524-.131-.262-.262-.262-.524-.262s-.131.262-.131.524C169.339,192.055,169.078,192.055,169.208,192.185Z" transform="translate(-130.461 -156.787)" fill="#3f434f"/>
        <path id="Path_32" data-name="Path 32" d="M169.131,193.075a.405.405,0,0,0,.262-.131c.131,0,.262-.131.262-.393s-.131-.262-.393-.131C168.869,192.551,169,192.813,169.131,193.075Z" transform="translate(-130.514 -156.498)" fill="#3f434f"/>
        <path id="Path_33" data-name="Path 33" d="M167.513,194.17c0-.131.131-.393-.262-.262-.262,0-.262.393-.131.524C167.251,194.432,167.513,194.3,167.513,194.17Z" transform="translate(-131.122 -156.023)" fill="#3f434f"/>
        <path id="Path_34" data-name="Path 34" d="M168.593,193.918c.262-.131.131-.131,0-.393s-.393,0-.393.262C168.331,193.918,168.331,194.049,168.593,193.918Z" transform="translate(-130.761 -156.163)" fill="#3f434f"/>
        <path id="Path_35" data-name="Path 35" d="M169.659,194.224a.256.256,0,0,0,.262-.262c0-.262,0-.262-.262-.262C169.266,193.831,169.4,194.093,169.659,194.224Z" transform="translate(-130.387 -156.076)" fill="#3f434f"/>
        <path id="Path_36" data-name="Path 36" d="M170.385,193.751c0-.262-.131-.262-.262-.131-.131,0-.131.131,0,.262C170.123,193.882,170.385,194.013,170.385,193.751Z" transform="translate(-130.197 -156.127)" fill="#3f434f"/>
        <path id="Path_37" data-name="Path 37" d="M170.013,194.524a.465.465,0,0,0,.393-.262c.131-.131-.131-.131-.262-.262C170.013,194,169.882,194.131,170.013,194.524Z" transform="translate(-130.218 -155.983)" fill="#3f434f"/>
        <path id="Path_38" data-name="Path 38" d="M171.163,194.6c.131-.262-.262-.393-.393-.393-.131-.131-.393.262-.262.524a.405.405,0,0,0,.131.262C170.639,195.122,171.032,194.861,171.163,194.6Z" transform="translate(-130.059 -155.928)" fill="#3f434f"/>
        <path id="Path_39" data-name="Path 39" d="M170.27,194.506c-.131-.131-.393.262-.262.393,0,0,.262.131.393,0C170.794,194.637,170.4,194.637,170.27,194.506Z" transform="translate(-130.213 -155.835)" fill="#3f434f"/>
        <path id="Path_40" data-name="Path 40" d="M173.727,195.163c-.262,0,0,.262,0,.524a1.293,1.293,0,0,0,.262.785.462.462,0,0,0,.524-.131l.655-.655c.262-.131.655-.131.655-.393s.524-.393.655-.524c.131,0-.131-.131-.393-.262s-.524.131-.655.262c-.262.131-.393.131-.524,0-.131-.262-.393.131-.393.262C174.382,195.163,173.989,195.163,173.727,195.163Z" transform="translate(-129.089 -155.837)" fill="#3f434f"/>
        <path id="Path_41" data-name="Path 41" d="M184.41,235.544h.393c.262,0,.131-.393,0-.524-.131-.262-.655.131-.785.262C183.755,235.544,184.279,235.414,184.41,235.544Z" transform="translate(-125.895 -143.333)" fill="#3f434f"/>
        <path id="Path_42" data-name="Path 42" d="M186.249,235.955c.262.131.262-.131.524-.393.131-.262,0-.262-.393-.262s-.393.131-.262.524C186.118,235.693,185.988,235.824,186.249,235.955Z" transform="translate(-125.248 -143.219)" fill="#3f434f"/>
        <path id="Path_43" data-name="Path 43" d="M187.793,234.43c.131-.131.131-.262-.131-.524-.262-.131-.262.262-.262.524Z" transform="translate(-124.827 -143.658)" fill="#3f434f"/>
        <path id="Path_44" data-name="Path 44" d="M190.97,236.408c0-.393-.393-.524-.655-.655s0-.916-.131-1.047-.393.262-.655.785c-.393.524,0,.655-.262.916s-.524.262-.524.524c-.131.393.131.393-.524.524-.524.131-.393.262-.655.393s-.131-.131-.393-.262c-.131-.131-.131.262-.524.524-.393.393-.785.262-1.047.524a4.358,4.358,0,0,1-.785.393c-.262,0-.393.655-.524,1.309,0,0-.262.655-.131.916a1.477,1.477,0,0,1,.131,1.047c-.131.262-.393.916-.524,1.178a5.426,5.426,0,0,0-.262,2.094,1.762,1.762,0,0,0,.655,1.178,1.085,1.085,0,0,0,1.047.393c.524,0,.393-.131.655-.393s.262-.131.655-.262a2.406,2.406,0,0,0,1.309-1.309,3.128,3.128,0,0,1,.393-.916l.393-.785c.131-.262.262-.262.262-.393,0-.262.131-.393.262-.655a.481.481,0,0,0,.131-.393c0-.131.131-.524.262-1.047a.76.76,0,0,0,0-.916c-.131-.262.262-.131.393,0s.262-.131.393-.524-.262-.262-.393-.262-.262,0,0-.262a4.152,4.152,0,0,0,.655-.785c.131-.262.131.262.393.262s.131-.262.131-.655C190.839,237.717,190.97,236.931,190.97,236.408Z" transform="translate(-126.041 -143.411)" fill="#3f434f"/>
        <path id="Path_45" data-name="Path 45" d="M154.485,221.891c.131-.131-.131-.393-.262-.393s-.131-.393-.262-.393c-.131-.131-.262.262-.262.655a1.18,1.18,0,0,0,.131.655s0,.131.131,0,0-.131.131-.393C154.224,221.891,154.224,222.022,154.485,221.891Z" transform="translate(-135.243 -147.614)" fill="#3f434f"/>
        <path id="Path_46" data-name="Path 46" d="M152.312,223.346c-.131.131,0,.655.262.785a.287.287,0,0,0,.393-.131c.131-.262,0-.393-.131-.655C152.574,223.085,152.312,223.085,152.312,223.346Z" transform="translate(-135.687 -146.974)" fill="#3f434f"/>
        <path id="Path_47" data-name="Path 47" d="M161.427,177.3a.465.465,0,0,0,.262-.393.282.282,0,0,1-.262-.262c0-.131-.262-.262-.524-.131a4.151,4.151,0,0,0-.785.655c-.131.131-.262,0-.262-.131s-.262,0-.262.131c-.131.131-.262.131-.393.262s-.393.131-.524.262.262,0,.393-.131a.787.787,0,0,1,.524-.131c.131,0,0,.262-.131.393,0,.131-.393.524-.393.785s-.393.655-.393.785.393.131.393.262c.131.131.131.131-.131.262a2.855,2.855,0,0,0-.524.655c-.131.262-.655.393-.916.655a5.723,5.723,0,0,0-.785,1.309c-.262.393-.131.393-.524.524s-.524,0-.785.262c-.131.131.393.393.655.393s.393-.131.655-.393c.393-.262.262,0,.524.131a3.873,3.873,0,0,0,1.309.262h.785s.393-.262.393-.393-.131-.262,0-.393c.131-.262.393-.131.785-.262s.262-.262.262-.393c0-.262.262-.131.524-.393.262-.131.131-.262.131-.524-.131-.131-.262-.131-.393-.262s-.262-.262-.262-.393c-.131-.131.131-.262.131-.524,0-.131-.262.131-.262,0-.131-.131.262-.524.393-.785s-.131-.131-.131-.262c-.131-.131.393-.524.524-.655a4.3,4.3,0,0,0,.393-.785c0-.131-.131-.131-.262-.131C161.165,177.56,161.165,177.429,161.427,177.3Z" transform="translate(-134.722 -161.405)" fill="#3f434f"/>
        <path id="Path_48" data-name="Path 48" d="M155.355,181.424c.262,0,.262.131.524.131s.262-.131.524,0a.128.128,0,0,0,.131-.131,1.883,1.883,0,0,1,.262-.393,5.542,5.542,0,0,0,.655-.916c.131-.262.262-.262.524-.524.262-.131.393-.262.524-.262.131-.131,0-.262,0-.524-.131-.131-.262.131-.393,0-.131,0,0-.262,0-.393-.131-.131-.131,0-.393.131s-.262.262-.524.524c-.131.262-.262.131-.393,0s-.131-.131-.524,0,0,.262-.131.524-.262.393-.524.916c-.262.393-.262-.262-.393-.131-.131,0-.393.524-.524.655a.787.787,0,0,0,.131.524C154.962,181.685,155.093,181.424,155.355,181.424Z" transform="translate(-134.933 -160.817)" fill="#3f434f"/>
        <path id="Path_49" data-name="Path 49" d="M154.426,180.387c-.262.131,0,.262.131.262a1.919,1.919,0,0,0,.262-.524C154.819,179.864,154.557,180.126,154.426,180.387Z" transform="translate(-135.053 -160.305)" fill="#3f434f"/>
        <path id="Path_50" data-name="Path 50" d="M158.044,177.375l.131-.262c0-.131-.131,0-.262.131S157.913,177.506,158.044,177.375Z" transform="translate(-133.957 -161.219)" fill="#3f434f"/>
        <path id="Path_51" data-name="Path 51" d="M158.493,177.162a.181.181,0,0,0,0-.262,1.884,1.884,0,0,0-.393.262C158.231,177.162,158.362,177.293,158.493,177.162Z" transform="translate(-133.883 -161.268)" fill="#3f434f"/>
        <path id="Path_52" data-name="Path 52" d="M158.623,177.19a.646.646,0,0,0,.393-.131c.131-.131.393-.262.393-.524.131-.262-.131-.131-.262,0l-.393.393c-.131,0-.131,0-.131.262C158.492,177.059,158.492,177.19,158.623,177.19Z" transform="translate(-133.751 -161.427)" fill="#3f434f"/>
        <path id="Path_53" data-name="Path 53" d="M160.793,176.3a.418.418,0,0,0-.393.393s.393-.131.393-.393Z" transform="translate(-133.172 -161.454)" fill="#3f434f"/>
        <path id="Path_54" data-name="Path 54" d="M161.775,175.657a.989.989,0,0,1-.131.524c-.131.262-.262.262-.131.393a1.884,1.884,0,0,0,.393-.262c.131-.131.393-.262.524-.393s0-.262,0-.393C162.429,175.265,161.775,175.526,161.775,175.657Z" transform="translate(-132.845 -161.727)" fill="#3f434f"/>
        <path id="Path_55" data-name="Path 55" d="M182.212,170.874c.131.131.524.131.785.262a.646.646,0,0,0,.393-.131c.131,0,0,0-.262-.131-.262,0-.524-.262-.655-.262C182.212,170.481,182.081,170.612,182.212,170.874Z" transform="translate(-126.447 -163.227)" fill="#3f434f"/>
        <path id="Path_56" data-name="Path 56" d="M182.007,170.54c-.262,0-.262-.131-.524-.262-.131-.262-.262-.393-.393-.655a.584.584,0,0,0-.655,0c-.262,0-.524.131-.524.262-.131.131.131.262,0,.393-.131,0,0,.131.131.262s.262,0,.393.131,0,.262.131.262a.481.481,0,0,0,.393-.131c.131-.131,0-.262.131-.131.131,0,0,.262.393.262a2.853,2.853,0,0,1,.785-.131c.393,0,.131,0,.262-.131C182.662,170.67,182.269,170.54,182.007,170.54Z" transform="translate(-127.158 -163.547)" fill="#3f434f"/>
        <path id="Path_57" data-name="Path 57" d="M180.167,169.384c.131.131-.131.262-.262.524-.131.131.393,0,.655,0h.524c.131,0,0-.131.131-.262,0-.131.393-.131.655-.131s-.131-.131-.262-.262.262-.262.524-.393,0-.262-.131-.393.262-.131.524-.131.262,0,.262-.262c0-.131.131.131.393.131s-.131-.131-.131-.262c-.131-.131-.393,0-.524,0a1.318,1.318,0,0,1-.393-.131c-.131-.131-.131,0-.262.131l-.262.262c-.131,0-.393.131-.524.131-.131.131.131.393,0,.524s-.262.131-.524.131a.787.787,0,0,0-.524.131C179.774,169.253,180.036,169.253,180.167,169.384Z" transform="translate(-127.15 -164.093)" fill="#3f434f"/>
        <path id="Path_58" data-name="Path 58" d="M162.262,171.839c.131-.262-.655-.131-.785-.131s-.393.262-.785.262-.262-.131-.524-.131a2.316,2.316,0,0,0-1.047.655c-.262.262-1.047.916-.916.916s.393.262.785.262.393.131.655.131a.68.68,0,0,0,.524-.262c.262-.131.262.131.785-.131a3.767,3.767,0,0,0,.785-.524C162,172.493,162.131,171.97,162.262,171.839Z" transform="translate(-133.855 -162.883)" fill="#3f434f"/>
        <path id="Path_59" data-name="Path 59" d="M153.943,174.569l1.833-.916a4.65,4.65,0,0,0,1.178-.524c.262-.131.262-.393.655-.524s.785-.131,1.178-.262a5.335,5.335,0,0,1,.916-.262s.131.131.393,0l1.047-.524a5.76,5.76,0,0,1,1.309-.262c.131,0,.524-.131.655,0s.262.262.524.131a8.341,8.341,0,0,0,.916-.262l.131.131c.393-.131.655-.393.393-.524s-.131-.262.131-.393c.131-.131.785-.262.655-.131s0,.393.524.131c.393-.262,1.7-1.178,1.833-1.047.131,0,0,.262.262.131a5.692,5.692,0,0,0,.916-.524c.131-.131.655-.131.655-.262s.524-.393.655-.393a4.65,4.65,0,0,0,1.178-.524c.131-.131.655-.262.785-.393a6.382,6.382,0,0,1,.916-.393,8.343,8.343,0,0,1,1.178-.262,7.255,7.255,0,0,1,1.7-.655c.262,0,1.047,0,1.047-.262-.131-.262-.785-.393-1.178-.524s-1.047,0-1.7-.131a3.253,3.253,0,0,1-1.047-.131,3.3,3.3,0,0,0-1.7.131c-.393.131-1.309.262-1.7.393s-1.047.393-1.047.655c-.131.262-.131.262-.785.393a10.83,10.83,0,0,0-2.749,1.178,9.027,9.027,0,0,0-1.309.524c-.393.262-1.833.655-2.618,1.047-.655.393-1.571.655-2.094,1.047-.524.262-1.178.524-1.833.916a27,27,0,0,0-2.356,1.44,4.638,4.638,0,0,0-1.309,1.571C153.681,174.307,153.681,174.7,153.943,174.569Z" transform="translate(-135.224 -164.959)" fill="#3f434f"/>
        <path id="Path_60" data-name="Path 60" d="M172.4,168.175c.262-.131,0,.131.131.131s.131.262-.131.524c-.262.393.131.262.655.131,0,0,.131-.262,0-.393,0-.131.393-.262.655-.393s.655-.262.916-.393-1.44-.131-1.571-.131,0,.393,0,.393c-.131.131-.131-.131-.262-.131s-.262.131-.262-.262c0-.262-.131-.262-.262-.131s.131.262-.131.655C171.747,168.437,172.139,168.306,172.4,168.175Z" transform="translate(-129.595 -164.194)" fill="#3f434f"/>
        <path id="Path_61" data-name="Path 61" d="M173.855,168a.6.6,0,0,0-.655.393h.524c.262,0,.393.131.655-.131C174.771,167.874,174.247,168,173.855,168Z" transform="translate(-129.216 -164.024)" fill="#3f434f"/>
        <path id="Path_62" data-name="Path 62" d="M154.893,190.412a.59.59,0,0,0-.393.393c.131.131,0,.131,0,.524h.131c.131,0,.262-.262.262-.524C154.893,190.412,155.024,190.281,154.893,190.412Z" transform="translate(-134.995 -157.108)" fill="#3f434f"/>
        <path id="Path_63" data-name="Path 63" d="M155.3,191.083a.573.573,0,0,0,.393.131c.131,0,.131-.393,0-.393C155.562,190.559,155.3,190.952,155.3,191.083Z" transform="translate(-134.748 -156.993)" fill="#3f434f"/>
        <path id="Path_64" data-name="Path 64" d="M155.959,190.112c-.131-.131-.393,0-.524.262-.262.393-.131.393,0,.262h.393C156.09,190.636,155.959,190.243,155.959,190.112Z" transform="translate(-134.753 -157.201)" fill="#3f434f"/>
        <path id="Path_65" data-name="Path 65" d="M156.351,190.561a1.007,1.007,0,0,0,.393-.262c.131-.131,0-.262-.131-.393s-.524.262-.393.524C156.089,190.43,156.089,190.561,156.351,190.561Z" transform="translate(-134.49 -157.257)" fill="#3f434f"/>
        <path id="Path_66" data-name="Path 66" d="M159.27,189.7c-.131,0-.393.262-.262.393a.405.405,0,0,0,.262-.131C159.4,189.962,159.4,189.7,159.27,189.7Z" transform="translate(-133.613 -157.312)" fill="#3f434f"/>
        <path id="Path_67" data-name="Path 67" d="M162.262,194.1c-.131,0-.262.262-.262.393,0,0,.131.131.393-.131C162.524,194.231,162.393,194.1,162.262,194.1Z" transform="translate(-132.677 -155.952)" fill="#3f434f"/>
        <path id="Path_68" data-name="Path 68" d="M190.746,214.7c-.262,0-.262.262,0,.262,0,0,.262-.131.262-.262A.181.181,0,0,1,190.746,214.7Z" transform="translate(-123.854 -149.586)" fill="#3f434f"/>
        <path id="Path_69" data-name="Path 69" d="M192.14,214.1c-.262,0-.785.262-.524.655l.262.262c.131.131.262,0,.524,0,.262-.131.262-.131.131-.393A.7.7,0,0,0,192.14,214.1Z" transform="translate(-123.546 -149.771)" fill="#3f434f"/>
        <path id="Path_70" data-name="Path 70" d="M246.811,229.381a8.049,8.049,0,0,0-.393-1.44,2.829,2.829,0,0,1,.131-1.44c.131-.393-.131-.393-.393-.785a1.493,1.493,0,0,1-.393-.785c-.131-.393-.262-.131-.524-.131-.262-.131-.262-.785-.393-1.047a5.387,5.387,0,0,0-.393-1.047c-.131-.393-.131,0-.393.131-.131.131-.131-.393-.131-.785a2.466,2.466,0,0,1,.262-1.047,1.66,1.66,0,0,0-.131-.785,2.552,2.552,0,0,1-.131-1.047c0-.393-.262-.785-.131-.916s.131.393.393.393c.131.131.262-.262.393-.131,0,.131.393,1.44.785,1.571s.524.131.655.393,0,1.44.131,1.7.262-.262.262-.916a2.677,2.677,0,0,0,0-1.44c-.131-.524.131-.655.262-1.178a9.21,9.21,0,0,0-.131-2.618,11.368,11.368,0,0,0-1.44-3.273,17.335,17.335,0,0,1-1.047-1.833,5.241,5.241,0,0,1-.524-3.273c0-.393.262-.393.393,0a7.725,7.725,0,0,1,.262,1.833.893.893,0,0,0,.655.916c.262,0,0-.655,0-1.178-.131-.524-.655-1.7-.785-2.095s.131-.262.131-.785a3.873,3.873,0,0,0-.262-1.309c-.131-.393.131-.131.262-.393a18.4,18.4,0,0,0-.262-2.356,15.478,15.478,0,0,0-1.178-3.011c-.393-.785-1.44-3.273-1.7-3.927s-.655-1.571-.785-1.833c-.131-.131-1.178-1.047-1.571-1.44a8.832,8.832,0,0,1-1.178-2.487c-.262-1.047-.262-.524-.916-.655s-.131.262-.524-.131,0-.916.262-1.047.262-.262.393-.785c0-.131.131-.393.131-.524a60.81,60.81,0,0,0-32.072-21.207c-.393,0-1.44-.131-2.094-.131-.785-.131-.131.262.262.655.524.393,2.487.262,3.142.655s.393.524-.131.524c-.524-.131-1.047,0-1.178.393s-.131.655-.524.785-1.7-1.047-1.964-1.178c-.262-.262-1.047.262-1.571.262s.393.393,0,.655-.131-.131-.393-.262c-.262,0-.524.131-.785,0-.262,0-.262.262-.393.393s.131.131.393.131c.262.131,0,.393-.262.524s.131.393.393.524a2.067,2.067,0,0,0,.916,0c.131.131-.393.262-.655.393s.262.262.524.393c.131.131.393.131.916.262a2.662,2.662,0,0,1,1.178.785c0,.131-1.047-.524-1.44-.655-.262-.131-.655.131-.785,0s-.131-.262-.524-.262,0,.262.131.393c.131.262.655.393.785.655,0,.262-.524,0-.655-.131a1.578,1.578,0,0,1-.655-.655c-.131-.262-.393-.131-.393,0s.393.393.524.524a4.983,4.983,0,0,0,.785.655,4.592,4.592,0,0,0,1.047.655,2.817,2.817,0,0,0,1.047,0c.393,0,.785.393,1.047.393.262.131.524.131.393.393s-.916-.393-1.047-.524a2.552,2.552,0,0,0-1.047-.131c-.393.131.524.524.524,1.047s-.393.131-.524-.262c0-.393-.655-.916-.916-1.047-.262-.262-.524-.262-.655-.524a1.67,1.67,0,0,0-.916-.655,2.947,2.947,0,0,1-.655-.655.481.481,0,0,1-.393-.131c-.131-.131-.524-.393-.785-.262s.393.262.393.524V171c-.131.131,0,.262.262.393a1.493,1.493,0,0,0,.785.393c.393.131.785.262.785.393,0,.262,0,.262-.524.131s-.393,0-.916-.131a5.868,5.868,0,0,0-1.571.131c-.524,0-.393.131-.131.262s.262.262.262.524-.524-.131-.655-.131a2.427,2.427,0,0,0-.916.262c-.262.131-.393-.131-.393-.262-.131-.131-.524.131-.785.262s-.524.131-.785.262-.131-.393-.131-.524c-.131-.131-.131.131-.524,0-.393,0-.393-.131-.393,0,0,.262.393.131.262.393,0,.262.131.262.262.524.131.393-.131.262-.524.393-.393,0-.131-.131-.262-.524,0-.393-.262-.524-.655-.524h-.524c-.262,0-.524-.131-.524,0s.393.131.393.393c.131.262,0,.393.262.524a1.113,1.113,0,0,1,.393.655c0,.262-.524.131-.655,0s-.262,0-.393,0c-.131.131-.262,0-.655,0-.262,0,0,.262-.393.393-.393.262-.393.262-.655.262s-.262-.131-.655,0-.262.262-.131.524.393.393.393.655c0,.131-.655,0-.916-.262s0-.655,0-1.047-.393-.524-.524-.785.524,0,.655.262c.262.262.393.131.916.131.524.131.785-.131.785-.393.131-.262-.131-.393-.524-.524s-.131-.131-.262-.393-.262-.393-.524-.393a2.882,2.882,0,0,0-1.047-.131c-.262,0-.393.131-.524,0s0-.262-.131-.393a1.423,1.423,0,0,0-.655.131c-.262.131-.393,0-.262,0,.131-.131.393-.262.393-.393,0-.262-.393-.131-.655-.131s-.262-.131-.393-.131c-.131-.131-.131.131-.393.262s-.393,0-.524,0-.131-.262-.393-.262-.655,0-.785.131.393.131.262.262-.262,0-.393,0a1.423,1.423,0,0,0-.655.131c-.262.131-.785.131-1.047.262s-.655,0-.655.131c-.131.131.262.262.131.393a1,1,0,0,1-.655.262c-.262,0,.131-.393.131-.524s-.131,0-.393.131c-.131.131-.524.262-.655.393-.262.131.131.393-.131.655-.131.262-.262-.262-.524-.131s-.262.524-.524.524c-.131,0-.262,0-.655.262-.262.131.393.131.262.262,0,.131-.262.131-.393.262l-.524.262a1.807,1.807,0,0,1-.524.393c-.262.131-.262.262-.393.655-.131.262-.262.131-.393.393s-.524.262-.655.262c-.131.131-.262-.131-.655,0a1.985,1.985,0,0,0-1.047.524c-.393.262-.131.524.131.393.262,0,.262.131.131.262s-.393-.131-.655-.131q-.2,0-.393.393c-.131.131.131.524.131.785s-.262.131-.262,0a1.991,1.991,0,0,0-.785.524c-.262.131.131.131.131.655,0,.393-.524.393-.393.524a1.075,1.075,0,0,0,.916.131c.262,0,.262-.131.524-.262s.393-.131.393-.262c.131-.131.262-.393.393-.524s.524-.262.655-.393.262-.262.262,0a3.014,3.014,0,0,1-.393,1.178c-.262.393,0,.393,0,.916,0,.393-.131.916-.131,1.309s.393,0,.785-.131a3.15,3.15,0,0,0,1.047-.785c.262-.262.524-.131.524-.393s.262-.393.393-.524c.262-.262.131-.262.262-.524s.524-.524.655-.655.655-.262.785-.524c.131-.131,0-.262-.131-.524s0-.393.131-.655a4.047,4.047,0,0,0,.262-1.047c0-.131.655-.393.785-.524.262-.131.655-.131.785-.262s0-.131.524-.262.262-.262.393-.393c0-.131.131-.262.262-.393.262-.131.262-.262.393-.393s.131.131.393,0c.262,0,.785.131.785.393.131.131-.393.262-.393.393-.131.131-.131.131-.393.131a.68.68,0,0,0-.524.262c-.131.131-.655.524-.916.785s-.262.262-.262.393v.524c0,.262-.262.393-.393.655s.131.524.131.785c.131.262.393.131.785.131a5.471,5.471,0,0,0,1.309-.524,3.625,3.625,0,0,1,1.7.131c.262,0,.131.131,0,.393a3.126,3.126,0,0,1-1.178.262c-.262,0-1.047-.131-1.309-.131a1.66,1.66,0,0,1-.785.131.7.7,0,0,0-.393.524.457.457,0,0,0,.131.262.632.632,0,0,0,.524,0c.262,0,.131,0,0,.262-.131.131-.262.393-.524.655s-.262,0-.393-.131q-.2,0-.393-.393c-.131-.131-.262,0-.262.262-.131.131-.393.262-.524.524-.131.131-.131.393-.393.524s-.131.393-.262.655a1.307,1.307,0,0,1-.655.524.523.523,0,0,0-.262.524c0,.131-.524.262-.655.262s.131-.131.262-.262-.262-.131-.393,0c-.262,0-.655.131-.916.131-.131,0-.916.131-1.047.131a.992.992,0,0,0-.524.262c-.131.131,0-.262,0-.393s-.262-.131-.393-.131h-.655c-.131,0-.393.131-.524.131-.262-.131-.393-.131-.524-.393-.131-.131-.131-.524-.131-.655s-.131.131-.262.131c-.131.131-.524.262-.655.524s.262.655.131.785-.262.131-.524.131a1.861,1.861,0,0,1-.785-.262c-.262-.131-.393.262-.655.393a2.714,2.714,0,0,1-.785.262h-.524c-.131.131-.131.131-.262.524-.131.262-.131.393-.393.524-.131.131-.131.262-.393.131s-.785.131-1.178.262-.785.524-.916.524c-.262.131-.262.131-.393.393s-.262.262-.785.131a12.361,12.361,0,0,1-1.178-.393c-.262,0-.262.393-.393.655-.131.131-.131-.131-.393,0-.131,0-.131.131-.393,0a.405.405,0,0,0-.262-.131c-.131.131-.393.131-.524.262,0,.131-.393.262-.524.524-.131.131-.131.131.262.262.262.131.131.131.393.262.131.262.131,0,.262,0s.131,0,.262.262.131.131.131.262-.131.262-.131.524a1.66,1.66,0,0,1-.131.785c-.131.262-.262.262-.131.393.131.262.131.262,0,.393s-.131,0-.131-.262c0-.131-.131-.262-.131-.131-.131.131-.262.131-.393.262s0,.393,0,.393c0,.262-.262.131-.524.393-.262.131-.131.655-.916.524s-.524-.262-.785-.393a.72.72,0,0,1-.655-.393c-.131-.262-.262-.262-.393-.262-.262,0-.655-.262-.916-.131s-.393.131-.393,0c-.131-.131-.393,0-.524.262a12.358,12.358,0,0,0-.393,1.178,12.649,12.649,0,0,1-1.178,2.225c-.524.785-.916,1.309-.916,1.7a2.466,2.466,0,0,1-.262,1.047c-.131.262.131.262.524.262a.981.981,0,0,1,.655.131c.131.131,0,.916.131,1.178s.393-.131.524-.262a.981.981,0,0,1,.655-.131c.262,0,.524.262,1.047.393a3.648,3.648,0,0,0,1.309-.131c.262-.131.393-.524.655-.655a5.306,5.306,0,0,1,1.178-.655,10.62,10.62,0,0,0,.393-1.44c.131-.393.524-.524.785-.655s.916-.262,1.178-.393a1.581,1.581,0,0,0,.916-.916c0-.262.131-.393.655-.655s.655-.131,1.178,0c.524,0,.655.131.916,0a1.66,1.66,0,0,1,.785-.131,8.343,8.343,0,0,0,.916-.262c.131,0,.393.131.524.131s0-.262.131-.393.131.131.393.393a4.3,4.3,0,0,1,.393.785c.131.262.524.524.655.916.262.524.131.524.393.655a1.992,1.992,0,0,1,.785.524,2.794,2.794,0,0,1,.916,1.571,3.681,3.681,0,0,1-.655,1.44c-.262.262.131.262.524.131a1.493,1.493,0,0,0,.785-.393c.131-.262.131-.655.262-.655.131-.131.524-.262.524-.524s-.262-.262-.393-.393.262-.655.393-.655c.262-.131.524.393.655.655s.524-.131.524-.393a1.925,1.925,0,0,0-.655-.785c-.262-.131-.524-.131-.785-.393a4.359,4.359,0,0,0-.393-.785c-.131-.262-.916-.393-1.047-.524a2.231,2.231,0,0,1,0-1.309c0-.262-.393-.131-.785-.262-.262-.131-.131-.393,0-.393s.262-.524.131-.655.131-.131.524,0,.131.262,0,.393c-.131.262.262.524.393.524a.584.584,0,0,0,.393-.524c0-.262.131,0,.393.262s.131.393.393.655c.131.262-.262.393-.262.655-.131.262.131.131.393.262.393.131.131.131.524.393a2.132,2.132,0,0,1,.785.393,7.721,7.721,0,0,1,1.047.524c.393.262.131.524.131.785a4.363,4.363,0,0,0,0,1.309c0,.524.131.262.393.655a4.3,4.3,0,0,1,.393.785q.2.393.393.393c.131,0,.655,0,.655.262s-.393,0-.785.131-.262.131-.393.524c0,.393.131.131.393.655s0,.393.131.524c.131,0,.262-.131.393.131s.131.262.393.131.393-.131.393-.262,0-.393.262-.262.393-.131.262-.524c0-.262,0-.393-.131-.393s-.262.524-.524.262c-.262-.131.524-.393.655-.393.131-.131.131-.262.393-.131.262,0,.524-.131.393-.393-.131-.393-.393-.524-1.047-1.178s.131-.785.785-1.047a7.275,7.275,0,0,1,1.964-.393c.131,0,.131.393-.131.524s-.262.393-.262.655c0,.131.393.262.524.262s.262,0,.393.524a.523.523,0,0,1-.393.655c-.131,0-.262.524-.262.785-.131.262.655,0,.916,0s.131.393.393.655c.131.393.262.262.262.655.131.393-.262.262.131.393s.524,0,.916,0,1.309.262,1.571.131.524-.393.785-.524.655.524,1.047.785a1.76,1.76,0,0,0,1.178-.262c.131-.131.262-.131.785-.131s.655,0,.655-.262.393-.393.393,0-.131.262-.393.524c-.131.262,0,.393.131.785a2.793,2.793,0,0,1,0,1.047c0,.262-.131.393-.262.655s-.131.131-.262.393a1.075,1.075,0,0,0-.131.916c.131.393-.393.785-.655,1.047-.262.393-.524.785-.785.655a2.466,2.466,0,0,1-1.047-.262c-.131-.131-.655-.655-1.047-.655a21.859,21.859,0,0,0-2.356.655c-.524.262-1.44-.262-1.833-.524a1.244,1.244,0,0,0-1.178,0c-.393.131-.524-.393-.916-.655s-.785-.131-1.178-.131-.393-.524-.524-.785-1.309-.262-1.833-.262-.524,0-.524.393a6.756,6.756,0,0,1-.262,1.44c-.131.393-.916.524-1.178.524a9.021,9.021,0,0,1-1.047-.393c-.262,0-.655,0-.655-.262-.131-.131-.393-.131-.655-.393-.393-.131-.393-.655-.524-1.047,0-.393-.524-.655-1.047-.916a1.322,1.322,0,0,0-1.44.131c-.131.131-.785-.131-1.309-.916-.524-.655.393-.916.262-1.178,0-.262.393-.524.655-.785.393-.262,0-.524-.262-.916s.131-.655.524-1.047-.393-.262-.524-.393c-.131,0,.131-.393,0-.524s-.524,0-.393.262c0,.262-.393.262-.785.393-.262.131-.524.393-.785.262s-.131-.262-.655-.393a1.76,1.76,0,0,0-1.178.262c-.262.131-.393,0-.524-.131-.131-.262-.262-.262-.916-.393a4.824,4.824,0,0,0-1.964.131,8.819,8.819,0,0,0-2.225.785c-.524.262-1.178,0-1.833-.131a1.269,1.269,0,0,1-.916-.916c-.131-.393-.131-.131-.393.131a2.856,2.856,0,0,1-.524.655c-.262.393-.393.393-.785.655s-.524.262-.655.393a6.382,6.382,0,0,1-.916.393c-.262.131-.131.655-.393.916a2.531,2.531,0,0,0-.655,1.178.824.824,0,0,0,0,.785c.131.262-.131.262-.262.262s-.262,0-.524.393a.784.784,0,0,1-.785.393c-.262,0-.131.262-.524.393-.393.262-.655.131-.916.393a7.07,7.07,0,0,0-1.047,1.047,14.813,14.813,0,0,0-1.309,1.7c-.262.393-.655,1.047-.785,1.178s-.524.785-.916,1.309c-.393.393-.524.524-.524.785s.393,1.178.262,1.309a8.344,8.344,0,0,0-.262,1.178,3.081,3.081,0,0,1-.262,1.047,3.33,3.33,0,0,0-.262.916.933.933,0,0,1-.393.785c-.262.131-.131.785-.393,1.047s-.524,0-.524.262c-.131.262,0,.655,0,1.047s-.131.916-.131,1.178a10.152,10.152,0,0,1,.131,1.178,1.2,1.2,0,0,0,.393.916,8.336,8.336,0,0,1,.262.916c.131.262.131.655.262,1.047,0,.393.524.393.655.785.262.393-.131,1.047,0,1.309,0,.393.131,1.047.131,1.571s.655.785,1.047,1.309c.393.655.785,1.178,1.44,2.094a1.435,1.435,0,0,0,1.44.916c.393.131.524-.262.916-.524s.262.131.655.262a2.555,2.555,0,0,0,.916.131.787.787,0,0,1,.524-.131c.262,0,.262.262.524.655s.393.131,1.047.262a1.525,1.525,0,0,0,1.178-.131c.393-.131,1.44-.655,1.571-.655a7.381,7.381,0,0,1,.916-.131c.393,0,.262.131.393.524.131.262.262,0,.655,0s.393,0,.655.393a7.016,7.016,0,0,1,.655,1.44,1.034,1.034,0,0,0,.655.785c.262.131.785-.131,1.309-.131s.916-.131,1.178.131.393,1.047.524,1.178.524,0,.655.262-.262.785-.393,1.047,0,.785,0,1.047a3.624,3.624,0,0,1-.131,1.178c0,.393,0,.393-.393.655-.393.131-.262.262-.131.524a5.69,5.69,0,0,1,.524.916c.131.393-.262.393-.131.524.131.262.262.131.524.131s.393.262.393.655c-.131.393.262.524.393.785s.393.262.916.393a1.112,1.112,0,0,1,.916.916c.131.524,0,.393.131.785a1.5,1.5,0,0,1,0,.785c0,.131.262.393.524.655s.131.262.131.655c0,.262.262.131.262.393a1.15,1.15,0,0,1,.131.916.824.824,0,0,0,0,.785c.131.131.393.262.524.524s.524,1.571.655,1.833.131.655-.131.785c-.131.131-.785.524-.916.916s0,.524.131.916-.131.262-.262.655a1.66,1.66,0,0,0-.131.785,3.145,3.145,0,0,0,.262,1.309c.262.785.655.655,1.047,1.047s.131.524.262.785.785.785,1.44,1.7c.655.785.393.785.393.916,0,.262,0,.262.393.916.262.524.785,1.047.785,1.571-.131.655.262.524.393,1.047s1.047,1.047,1.7,1.571a18.657,18.657,0,0,1,1.44,1.571,3.89,3.89,0,0,0,1.309,1.309c.131.131.131.262-.131.262s-.262.131-.131.393a2.131,2.131,0,0,1,.393.785c.131.393.393.131.785.393.393.131.655.393,1.047.393.262,0,1.047-.131,1.571-.131s.785.262,1.44.262h1.309a4.713,4.713,0,0,0,2.88-.655,3.81,3.81,0,0,1,1.571-1.178c.655-.262,1.571-.785,1.833-.916s.131-.393.131-.785.262-.524.524-.916c.131-.393.262-.524.131-.916s.262-.262.655-.524a15.875,15.875,0,0,1,1.833-.655c.262-.131.262-.131.131-.393s.131-1.047.131-1.44,0-.524-.131-.524c-.131.131-.262,0-.393-.524-.262-.524-.393-.785-.262-1.047s1.178-.524,1.571-.655a3.471,3.471,0,0,0,.785-.655c.393-.393.655-.655.785-.655a3.127,3.127,0,0,1,.916-.393,7.752,7.752,0,0,0,.785-.524c.262-.131.262.131.524,0a6.044,6.044,0,0,0,1.309-.916c.524-.393.393-.785,0-1.178-.393-.262-.262-.393-.262-.916s0-.393-.131-.393-.131-.131-.131-.393c.131-.262,0-.524,0-.785a1.941,1.941,0,0,1-.131-.916.884.884,0,0,0-.524-.785.933.933,0,0,1-.393-.785c0-.262-.524-.131-.655-.393a2.721,2.721,0,0,1,.131-1.44c.262-.262-.131-.655-.393-.785s-.262-.785.131-1.309c.262-.524.655-.655,1.047-.916a8.469,8.469,0,0,0,1.047-1.178,1.17,1.17,0,0,0,.524-1.047c0-.393.262-.393.524-.524s.262-.393.262-.785.131-.262.524-.524a2.68,2.68,0,0,0,1.047-1.047,3.169,3.169,0,0,1,1.44-1.047,2.041,2.041,0,0,0,.916-1.047c0-.262.262-.655.916-.785a2.8,2.8,0,0,0,1.571-1.047c.262-.393.655-1.178,1.047-1.833s.916-1.309.785-1.964a1.668,1.668,0,0,1,.655-1.44c.393-.393.131-.655.262-1.178s.524-.262.655-.655c.131-.262-.131-.785-.131-.916s.655-.524.785-.524c.131-.131,0-.393-.262-.524s-.131-.393-.262-.785a.525.525,0,0,0-.785-.262,5.689,5.689,0,0,1-.916.524,1.744,1.744,0,0,0-.655.393,11.526,11.526,0,0,1-1.964.262,22.433,22.433,0,0,0-3.273.393,1.083,1.083,0,0,1-1.309-.524c-.262-.262-.131-.785-.262-1.309,0-.524-.262-.655-.524-.655-.393,0-.524-.262-.785-.916s-.655-.785-1.047-1.047-1.309-.131-1.571-.262-.131-.393-.262-.655a17.08,17.08,0,0,1-.393-1.7,1.77,1.77,0,0,0-1.178-1.178c-.524-.131-.524-.785-.393-1.44a4.291,4.291,0,0,0,0-1.309c0-.131-.131-.524,0-.655s-.262-.393-.393-.393c-.262,0-.131-.655-.262-.916a1.341,1.341,0,0,0-.785-.655c-.262-.131-.655-.131-.916-.393-.131-.262.262-.393.393-.524.131,0-.393-.393-.655-.655s-.262-.393-.524-.524c-.131-.131-.131-.262-.262-.524s0-.262-.131-.655c-.131-.262,0-.393-.262-.785a1.4,1.4,0,0,0-.393-.655,1.252,1.252,0,0,1-.262-.916,1.417,1.417,0,0,0-.524-.655,12.071,12.071,0,0,0-.655-1.047c-.262-.262-.131-.393.131-.262s.262.262.655.393c.393.262.131.393.393.785.262.524.393.262.655.131s0-.916.131-1.309c.131-.262.393-.262.393,0s-.393.524-.131.916c.131.393.655.655,1.047,1.309a4.113,4.113,0,0,1,1.44,1.833c.262.785,0,1.178.131,1.571s.655.131,1.178.393.262.393.393.655.393.393.524.655c.131.393-.262,1.178-.131,1.833a2.544,2.544,0,0,0,1.178,1.44,17,17,0,0,1,1.571,1.833c.131.262.524.785.785,1.309.131.524.916,1.309,1.047,1.7s-.262.131-.393.131-.262.655-.131,1.047a10.617,10.617,0,0,1,.785,1.047c.262.393.131.916.393,1.309s.655.262,1.178,0a9.182,9.182,0,0,0,1.178-.785c.262-.131.916,0,1.309-.262a7.016,7.016,0,0,1,1.44-.655c.524,0,.655-.262,1.047-.524a14.283,14.283,0,0,1,1.44-.785c.524-.262,1.178-.393,1.44-.524s.393-.393.655-.785c.262-.524.393-.393.655-.524s.393-.131.524-.262c.131,0,.262-.131.655-.393s.916-.131,1.178-.393.131-.393.785-.655c.655-.131.393-.131.393-.524a.962.962,0,0,1,.262-.785c.262-.262.655.262,1.047.131.262-.131.131-.131.131-.655a3.038,3.038,0,0,0-.524-1.309c-.262-.262-.131-.393.131-.524s.393.131.655.262c.262,0,.131-.655.131-1.047-.131-.393.262-.524.393-1.047.131-.393,0-.393-.393-.916-.262-.393-.655-.916-.785-.916-.262,0-1.833-.393-1.964-.393a8.008,8.008,0,0,1-.393-1.833c-.131-.785-.655-.524-.916-.262-.262.131-.393,1.178-.916,1.833s-1.047.131-1.44.262-1.178.393-1.44,0c-.262-.262.131-.393.131-.916s-.393-.524-.655-.393c-.262.262-.393.655-.655.655-.131,0-.131-.655.131-.785s.131-.262,0-.655c-.131-.262-.262,0-.655-.131s.131-.262,0-.524a.6.6,0,0,0-.655-.393c-.393,0-.262-.262-.524-.655-.262-.524-.262-.393-.655-.655a2,2,0,0,1-.655-.916c-.262-.393-.131-.393,0-.393s.524-.131.524-.262c-.131-.131.131-.655.393-.524.393.131,0,.393.131.655.131.131.655-.262.916-.131.393.131.262.655.524,1.178a6.033,6.033,0,0,0,.655,1.309c.262.262.524.131.916.393s.524.524,1.047.655a3.179,3.179,0,0,0,1.571,0c.524,0,.785-.655,1.047-.655a1.269,1.269,0,0,1,.916.916c.262.524.785.524,1.178.655s.524,0,1.047.262a10.106,10.106,0,0,0,1.964.262c.655,0,.524-.262.916-.524a3.873,3.873,0,0,1,1.309-.262,3.253,3.253,0,0,0,1.047-.131,12.673,12.673,0,0,1,1.44-.393c.262,0,.393.393.524.655.131.131.262.131.393.262,0,.131.393.524.785.785.393.131.524.262.916.393s.131.131.393.262.785-.262.916-.262c.131.131-.131.262-.393.655s-.131.524,0,.655.524.131.785.262.262.393.524.524.262-.262.393-.524.262-.131.524-.393c.131-.262-.131-.655-.262-.916s.262-.262.393-.131c.131,0,.131.524.262.785s-.131.524-.131.655c0,.262.262.393.393.785a14.141,14.141,0,0,1,.524,2.225,3.7,3.7,0,0,0,.655,1.44c.131.262.131.655.393.916.131.262.393.524.655.916.131.524.655.785.916,1.309a10.38,10.38,0,0,0,.524,1.178,9.765,9.765,0,0,0,.916,1.571,4.421,4.421,0,0,1,.916,1.44,11.8,11.8,0,0,0,.655,1.178c.262.524.524.131.785,0s.131-.393.262-.785.262-.131.393-.393.393-.393.262-.655a.826.826,0,0,1,.131-.916c.262-.262.262-.131.393-.393a3.331,3.331,0,0,0-.262-.916c-.131-.262.262-1.047.262-1.178a2.227,2.227,0,0,0-.131-.916,1.661,1.661,0,0,0-.131-.785.981.981,0,0,1-.131-.655,7.381,7.381,0,0,0-.131-.916c0-.262.393-.524.524-.916a1.76,1.76,0,0,0,.262-1.047c0-.262.262-.262.393-.393s.131-.393.262-.655c0-.262.393-.785.524-1.047s.131-.524.262-.785.262-.393.131-.524-.262-.393,0-.393c.131,0,.262.131.262-.131s.262-.393.131-.785,0-.655-.131-1.047c0-.393.262-.524.393-.524s.131-.131.262-.524c.131-.262.262-.131.393-.393a4.15,4.15,0,0,1,.785-.655c.262-.262.262.131.393.524.131.262.262-.131.524,0s.524.785.785,1.047c.131.262.131-.262.393-.131.131.131.131.524.262.785s.262.262.393.655.131.131.393.131c.131,0,.393.524.524.916a14.459,14.459,0,0,0,.393,2.094c.262.393.393.655.655.524.393-.131.131-.655.131-.916s.262-.524.262-.655.131-.524.262-.262.524,1.571.655,1.833.655.655.655,1.178a1.954,1.954,0,0,0,.393,1.309,1.891,1.891,0,0,1,.393,1.44c.131.785,0,1.309-.131,1.309a.8.8,0,0,0-.131.785,11.512,11.512,0,0,1,.785,1.309c.262.524.524.524.655.916a4.16,4.16,0,0,1,.262,1.7,7.9,7.9,0,0,0,1.178,2.356C246.811,230.428,246.811,229.642,246.811,229.381Zm-65.584-30.763a3.624,3.624,0,0,1-1.178.131H179.4c-.131,0,0-.262.393-.262s.524,0,.785-.393c.262-.262.524-.131.655-.262s.262-.131.131,0a.245.245,0,0,0,0,.393C181.621,198.356,181.621,198.487,181.228,198.618Zm11.127-1.178a1.062,1.062,0,0,1-1.047.524c-.393,0-.393-.262-.655-.131a1.75,1.75,0,0,1-1.178.131c-.524-.131-.785-.393-1.309-.524a11.616,11.616,0,0,0-1.833-.393c-.393,0-1.178-.131-1.44-.131-.393,0-.524,0-.655.262a1.6,1.6,0,0,1-1.178.393c-.524,0-1.047.131-1.309.131s-.262,0-.393-.262,0-.393-.131-.393a.457.457,0,0,1-.262-.131c0-.262.262-.655.131-.916a8.266,8.266,0,0,1,.524-1.178,7.262,7.262,0,0,1,.785-1.047,2.3,2.3,0,0,0,.655-.524,1.022,1.022,0,0,0,.524-.524c.131-.262.524-.393.655-.524.262-.131.785.131.785.262a.4.4,0,0,1,0,.524c-.131.131-.393.393-.262.393.262.131.524,0,.655,0s.131.262.131.393,0,.524.393.393a1.86,1.86,0,0,1,.785-.262c.393,0,.916.131,1.047-.131,0-.131.131-.393-.131-.393s-.655.131-.655,0c-.131-.262-.262-.131-.524-.131s-.262-.524,0-.655.655.131.916,0a.846.846,0,0,1,.655-.262,1.293,1.293,0,0,0,.785-.262,1.15,1.15,0,0,1,.916-.131c.262.131.262.262.131.393s-.524.131-.655.262-.262.131-.131.262.262.262.131.262,0,.393,0,.393a.181.181,0,0,1-.262,0c-.131,0-.262-.131-.393,0s-.393.393,0,.393a2.116,2.116,0,0,1,1.309.524c.393.393.524.655.785.916s.785.262,1.178.655C192.224,196.523,192.486,197.178,192.355,197.44Zm11.781,4.713c0,.131-.262.393-.393.131-.131-.131-.393-.524-.655-.393a8.021,8.021,0,0,0-.785.524c-.131.262-.393.393-.524.131a3.714,3.714,0,0,0-1.178-.785c-.393-.131-.655.131-.785-.131a6.166,6.166,0,0,1-.393-1.178.576.576,0,0,1,.131-.655c.131,0,.393.262.524.131s0-.262.262-.393c.131-.131.393-.262.262-.393s-.393-.393-.262-.524.393,0,.262-.262-.262-.393-.524-.393-.131,0-.393-.131c-.262-.262-.131-.393-.393-.393s-.393.131-.524-.131a1.744,1.744,0,0,0-.393-.655c-.262-.262-.393-.131-.524-.524,0-.393-.131-.655,0-.785s.131-.262-.131-.262-.262.131-.393.131H197.2c-.131-.131.131-.262,0-.393,0-.262-.393-.262-.524-.524a1.075,1.075,0,0,1,.131-.916,3.058,3.058,0,0,0,.916-.916c.131-.262.393-.393.785-.655.393-.131.785-.524,1.047-.524a1.946,1.946,0,0,0,.785.131.72.72,0,0,1,.655.393c0,.262-.262.524-.131.785s.262.262.393.393.131.393,0,.393c-.262,0-.131,0-.393-.131l-.262-.262a.646.646,0,0,1-.131.393c-.262,0-.524,0-.524.131.131.131.393.262.262.262-.131.131-.262.262-.393.262s-.524.262,0,.524.655.262.916.785.131.655.524.524c.393,0,.785-.131.655,0s-.524.131-.524.393a1.258,1.258,0,0,0,.131.916c.262.393.393.393.524.262.131,0,.262-.131.131-.393s-.393-.785-.131-.655.262.262.262.524a1.744,1.744,0,0,1,.393.655c0,.131,0,.262-.393.262-.262-.131-.655-.131-.655.262,0,.262,0,.524.262.655.131.131.655.131.524.262s-.393.131-.262.393.393.262.655.524.262.524.393,1.047.262.785.393.785C203.874,201.629,204.136,202.021,204.136,202.152Z" transform="translate(-139.6 -164.921)" fill="#3f434f"/>
        <path id="Path_71" data-name="Path 71" d="M172.075,190.506a.245.245,0,0,1,0-.393c.131-.131,0,0-.131,0-.131.131-.393,0-.655.262a1.493,1.493,0,0,1-.785.393c-.393,0-.524.262-.393.262h.655c.393,0,.785-.131,1.178-.131C172.206,190.768,172.206,190.637,172.075,190.506Z" transform="translate(-130.186 -157.202)" fill="#3f434f"/>
      </g>
      <path id="Path_72" data-name="Path 72" d="M205.383,277.526a60.47,60.47,0,0,1-27.883,6.807V163.9a59.216,59.216,0,0,1,53.54,32.6A60.017,60.017,0,0,1,205.383,277.526Z" transform="translate(233.816 772.023)" fill="#010102" opacity="0.33"/>
    </g>
    <rect id="Rectangle_55" data-name="Rectangle 55" width="121" height="121" transform="translate(555 585)" fill="none"/>
  </g>
</svg>
