<svg xmlns="http://www.w3.org/2000/svg" width="220" height="220" viewBox="0 0 220 220">
  <g id="Group_756" data-name="Group 756" transform="translate(254 -2433)">
    <g id="Eye_3_" transform="translate(-362.354 2143.716)">
      <path id="Path_780" data-name="Path 780" d="M218.835,339.1c-63.364,0-110.3,59.844-110.3,59.844-3.52,0,44.59,59.844,110.3,59.844s109.518-59.844,109.518-59.844S276.724,339.1,218.835,339.1Z" transform="translate(0 0)" fill="#fff"/>
      <path id="Path_781" data-name="Path 781" d="M228.125,393.312A52.412,52.412,0,1,1,175.712,340.9,52.415,52.415,0,0,1,228.125,393.312Z" transform="translate(43.514 5.24)" fill="#00b0b3"/>
      <path id="Path_782" data-name="Path 782" d="M185.041,374.971A27.771,27.771,0,1,1,157.271,347.2C172.525,347.591,185.041,359.716,185.041,374.971Z" transform="translate(61.565 23.582)" fill="#002b45"/>
      <path id="Path_783" data-name="Path 783" d="M165.58,359.5a13.69,13.69,0,0,1-27.38,0,13.6,13.6,0,0,1,13.69-13.69C159.712,345.422,165.58,351.68,165.58,359.5Z" transform="translate(86.894 19.493)" fill="#fff"/>
    </g>
    <rect id="Rectangle_432" data-name="Rectangle 432" width="220" height="220" transform="translate(-254 2433)" fill="none"/>
  </g>
</svg>
