<svg xmlns="http://www.w3.org/2000/svg" width="220" height="220" viewBox="0 0 220 220">
  <g id="Group_571" data-name="Group 571" transform="translate(254 -2433)">
    <g id="Group_563" data-name="Group 563" transform="translate(-244.098 2433)">
      <path id="Path_546" data-name="Path 546" d="M883.014,630.115s99.753,80.146,99.753,135.2-44.7,84.8-99.753,84.8-99.752-29.741-99.752-84.8S883.014,630.115,883.014,630.115Z" transform="translate(-783.262 -630.115)" fill="#c74237" fill-rule="evenodd"/>
      <g id="Group_388" data-name="Group 388" transform="translate(30.647 43.306)">
        <path id="Path_547" data-name="Path 547" d="M611.69,506.09s69.1,64.37,69.1,108.589-30.963,68.106-69.1,68.106-69.1-23.887-69.1-68.106S611.69,506.09,611.69,506.09Z" transform="translate(-542.589 -506.09)" fill="#d17135" fill-rule="evenodd"/>
      </g>
      <g id="Group_389" data-name="Group 389" transform="translate(68.011 94.691)">
        <path id="Path_548" data-name="Path 548" d="M280.957,358.895S312.7,404.543,312.7,435.9s-14.222,48.3-31.739,48.3-31.739-16.94-31.739-48.3S280.957,358.895,280.957,358.895Z" transform="translate(-249.218 -358.895)" fill="#e5a435" fill-rule="evenodd"/>
      </g>
    </g>
    <rect id="Rectangle_355" data-name="Rectangle 355" width="220" height="220" transform="translate(-254 2433)" fill="none"/>
  </g>
</svg>
