<svg xmlns="http://www.w3.org/2000/svg" width="220.049" height="220" viewBox="0 0 220.049 220">
  <g id="Group_346" data-name="Group 346" transform="translate(752 -2171)">
    <g id="Group_340" data-name="Group 340" transform="translate(662.527 166.521)">
      <path id="path86" d="M5078.1-3949.8h-22v-44.018h22Zm-88.014,22H5100.1v-88.012H4990.088Z" transform="translate(-6338.572 6020.291)" fill="#414042"/>
      <path id="path88" d="M4891.081-3102.715h132.012v-22H4891.082Z" transform="translate(-6261.564 5327.194)" fill="#ffe41b"/>
      <path id="path90" d="M4891.081-3432.721h132.012v-87.99H4891.082Z" transform="translate(-6261.564 5635.203)" fill="#fff"/>
      <path id="path92" d="M5287.187-3872.793h22v-44.017h-22Z" transform="translate(-6569.656 5943.289)" fill="#03db59"/>
      <path id="path94" d="M4891.081-3927.8h22v-88.012h-22Z" transform="translate(-6261.564 6020.291)" fill="#03db59"/>
      <g id="g96" transform="translate(-1414.477 2004.479)">
        <path id="path98" d="M-693.1-77V-99h-22v88.013H-847.1V-99h-44V121h44V11.011h132.008V121h44V-77Z" transform="translate(891.098 99)" fill="#03ed60"/>
      </g>
    </g>
    <rect id="Rectangle_291" data-name="Rectangle 291" width="220" height="220" transform="translate(-752 2171)" fill="none"/>
  </g>
</svg>
