<svg xmlns="http://www.w3.org/2000/svg" width="220" height="220" viewBox="0 0 220 220">
  <g id="Group_342" data-name="Group 342" transform="translate(752 -2171)">
    <g id="Group_337" data-name="Group 337" transform="translate(1004.648 166.521)">
      <g id="g128" transform="translate(-1690.669 2004.479)">
        <path id="path130" d="M-308.057-154.028v22.008h-21.986v-43.993h21.986ZM-396-110.035h109.928V-198H-396Z" transform="translate(395.999 198)" fill="#414042"/>
      </g>
      <path id="path132" d="M1326.8-3102.727H1458.71v-21.985H1326.8Z" transform="translate(-3039.451 5327.085)" fill="#03ed60"/>
      <path id="path134" d="M1326.8-3432.77H1458.71v-87.942H1326.8Z" transform="translate(-3039.451 5635.143)" fill="#fff"/>
      <path id="path136" d="M1722.8-3872.818h21.986v-43.993H1722.8Z" transform="translate(-3347.509 5943.277)"/>
      <path id="path138" d="M1326.8-3927.846h21.985v-87.964H1326.8Z" transform="translate(-3039.451 6020.291)"/>
      <g id="g140" transform="translate(-1756.648 2004.479)">
        <path id="path142" d="M-693.206-77.014V-99h-21.986v87.964H-847.1V-99H-891.1V120.878H-847.1V10.95h131.913V120.878h43.971V-77.014Z" transform="translate(891.098 99)" fill="#231f20"/>
      </g>
    </g>
    <rect id="Rectangle_287" data-name="Rectangle 287" width="220" height="220" transform="translate(-752 2171)" fill="none"/>
  </g>
</svg>
