<svg xmlns="http://www.w3.org/2000/svg" width="220" height="220" viewBox="0 0 220 220">
  <g id="Group_344" data-name="Group 344" transform="translate(752 -2171)">
    <g id="Group_338" data-name="Group 338" transform="translate(890.585 166.521)">
      <path id="path114" d="M2701.867-3949.812h-21.992v-44.006h21.992Zm-87.967,21.992h109.959v-87.989H2613.9Z" transform="translate(-4190.508 6020.291)" fill="#414042"/>
      <path id="path116" d="M2514.9-3102.721h131.951v-21.992H2514.9Z" transform="translate(-4113.5 5327.143)" fill="#00e8f4"/>
      <path id="path118" d="M2514.9-3432.744h131.951v-87.967H2514.9Z" transform="translate(-4113.5 5635.174)" fill="#fff"/>
      <path id="path120" d="M2910.9-3872.805h21.993v-44.005H2910.9Z" transform="translate(-4421.531 5943.283)" fill="#ffce1b"/>
      <path id="path122" d="M2514.9-3927.821h21.991v-87.989H2514.9Z" transform="translate(-4113.5 6020.291)" fill="#ffce1b"/>
      <g id="g124" transform="translate(-1642.585 2004.479)">
        <path id="path126" d="M-693.149-77.008V-99h-22.014v87.99H-847.114V-99H-891.1V120.941h43.984V10.982h131.951V120.941h44.006V-77.008Z" transform="translate(891.098 99)" fill="#ffe41b"/>
      </g>
    </g>
    <rect id="Rectangle_289" data-name="Rectangle 289" width="220" height="220" transform="translate(-752 2171)" fill="none"/>
  </g>
</svg>
