<svg xmlns="http://www.w3.org/2000/svg" width="220" height="220.005" viewBox="0 0 220 220.005">
  <g id="Group_345" data-name="Group 345" transform="translate(752 -2170.995)">
    <g id="Group_339" data-name="Group 339" transform="translate(776.531 166.516)">
      <path id="path100" d="M3890-3949.795h-22.02v-44.018H3890Zm-88.014,22H3912v-88.013h-110.01Z" transform="translate(-5264.523 6020.291)" fill="#414042"/>
      <path id="path102" d="M3702.991-3102.715H3835v-22h-132.01Z" transform="translate(-5187.526 5327.196)" fill="#231f20"/>
      <path id="path104" d="M3702.991-3432.72H3835v-87.991h-132.01Z" transform="translate(-5187.526 5635.204)" fill="#fff"/>
      <path id="path106" d="M4098.99-3872.793h22.021v-44.018H4098.99Z" transform="translate(-5495.533 5943.29)" fill="#e62894"/>
      <path id="path108" d="M3702.991-3927.8h22v-88.013h-22Z" transform="translate(-5187.526 6020.291)" fill="#e62894"/>
      <g id="g110" transform="translate(-1528.531 2004.479)">
        <path id="path112" d="M-693.1-77V-99h-22v88.013H-847.1V-99h-44V121h44V11.011h132.009V121h44V-77Z" transform="translate(891.098 99)" fill="#ff2ca5"/>
      </g>
    </g>
    <rect id="Rectangle_290" data-name="Rectangle 290" width="220" height="220" transform="translate(-752 2171)" fill="none"/>
  </g>
</svg>
