<svg xmlns="http://www.w3.org/2000/svg" width="220" height="220.104" viewBox="0 0 220 220.104">
  <g id="Group_343" data-name="Group 343" transform="translate(752 -2171)">
    <g id="Group_341" data-name="Group 341" transform="translate(548.422 166.624)">
      <g id="g70" transform="translate(-1234.429 2004.479)">
        <path id="path72" d="M-308.085-154v22.02h-22V-176h22ZM-396.1-109.986h110.011V-198H-396.1Z" transform="translate(396.098 197.999)" fill="#414042"/>
      </g>
      <path id="path74" d="M6079.184-3102.714h132.009v-22H6079.184Z" transform="translate(-7335.611 5327.195)" fill="#ff2ca5"/>
      <path id="path76" d="M6079.184-3432.72h132.009v-87.991H6079.184Z" transform="translate(-7335.611 5635.203)" fill="#fff"/>
      <path id="path78" d="M6475.29-3872.792h22v-44.018h-22Z" transform="translate(-7643.702 5943.289)" fill="#00d8e3"/>
      <path id="path80" d="M6079.184-3927.8h22v-88.013h-22Z" transform="translate(-7335.611 6020.29)" fill="#00d8e3"/>
      <g id="g82" transform="translate(-1300.422 2004.479)">
        <path id="path84" d="M-693.094-77V-99h-22v88.013H-847.1V-99h-44V121h44V11.011h132.009V121h44V-77Z" transform="translate(891.096 99)" fill="#00e8f4"/>
      </g>
    </g>
    <rect id="Rectangle_288" data-name="Rectangle 288" width="220" height="220" transform="translate(-752 2171)" fill="none"/>
  </g>
</svg>
