<svg xmlns="http://www.w3.org/2000/svg" xmlns:xlink="http://www.w3.org/1999/xlink" width="576" height="576" viewBox="0 0 576 576">
  <defs>
    <clipPath id="clip-path">
      <path id="path844" d="M3687.924-1638.6h22.747v90.5h-22.747Z" transform="translate(-3687.924 1638.596)"/>
    </clipPath>
  </defs>
  <g id="Group_105" data-name="Group 105" transform="translate(742 -1052)">
    <g id="Group_96" data-name="Group 96" transform="translate(-951.227 -1429.172)">
      <g id="g812" transform="translate(273.041 2481.172)">
        <path id="path814" d="M-60.623-261.771c31.168-10.972,19.973-45.77,19.973-45.77l.116.146C-52.37-384.406-.958-457.349,76.174-471.36c78.405-14.292,152.886,37.828,167.847,116.15a215.949,215.949,0,0,1,3.661,51.795c-20.535,18.682,41.129-71.155,56.092-35.046,27.614,66.69-80.6,100.634-91.162,112.014,18.769,63.122-245.146,346.58-260.817,327.841C-74.673,69.75,55.2-129.557-17-201.193c-13.864-19.73-32.022-5.574-61.266-15.545-25.653-8.729-63.179-16.613,17.642-45.032" transform="translate(109.707 473.719)" fill="#fdfae1"/>
      </g>
      <g id="g816" transform="translate(461.448 2619.761)">
        <path id="path818" d="M-44.742-49c-7.933,1.6-18.5,6.461-22.566,11.326C-82.075-46.188-80.948-77.2-80.948-77.2l64.17-11.476C-14.72-77.123-5.7-59.3-18.157-45.906-25.148-48.979-37.372-50.431-44.742-49" transform="translate(80.968 88.672)" fill="#1a1a1a"/>
      </g>
      <g id="g820" transform="translate(475.108 2658.879)">
        <path id="path822" d="M-33.446-24.062c-6.972,1.418-17.176-1.9-27.08-7.6,4.068-4.865,14.632-9.73,22.566-11.326,7.369-1.432,19.594.02,26.585,3.092-7.681,8.273-15.972,14.544-22.07,15.836" transform="translate(60.527 43.545)" fill="#f98008"/>
      </g>
      <g id="g824" transform="translate(386.605 2612.998)">
        <path id="path826" d="M-3.971-43.925a23.646,23.646,0,0,0,32.333,8.549,23.681,23.681,0,0,0,8.544-32.366A23.64,23.64,0,0,0,4.573-76.267,23.656,23.656,0,0,0-3.971-43.925" transform="translate(7.186 79.49)" fill="#f98008"/>
      </g>
      <g id="g828" transform="translate(547.11 2585.598)">
        <path id="path830" d="M-3.975-43.913a23.676,23.676,0,0,0,32.362,8.52A23.605,23.605,0,0,0,36.863-67.7,23.588,23.588,0,0,0,4.569-76.255,23.65,23.65,0,0,0-3.975-43.913" transform="translate(7.193 79.468)" fill="#f98008"/>
      </g>
      <g id="g832" transform="translate(515.659 2528.641)">
        <path id="path834" d="M-81.983-46.961a.247.247,0,0,0,.165-.044,5.447,5.447,0,0,0,4.234-6.461c-5.36-25.4-25.477-33.876-41.887-30.973h-.078c-16.545,2.97-31.614,17.919-28.37,40.746a5.509,5.509,0,0,0,6.185,4.641,5.489,5.489,0,0,0,4.641-6.17c-2.428-16.72,8.427-26.5,19.467-28.467h.048c11.778-2.093,25.391,4.068,29.285,22.472a5.454,5.454,0,0,0,6.31,4.258" transform="translate(148.362 84.984)" fill="#1a1a1a"/>
      </g>
      <g id="g836" transform="translate(372.768 2554.126)">
        <path id="path838" d="M-8.554-60.16a5.42,5.42,0,0,0,4.417-6.15C-6.854-84.968,3.8-95.429,15.574-97.576c.02,0,.039.025.058,0,11.078-1.994,24.6,3.39,28.139,19.954a5.689,5.689,0,0,0,6.5,4.179,5.474,5.474,0,0,0,4.175-6.476C49.607-102.5,30.284-111.285,13.7-108.309a.342.342,0,0,1-.078.015c-16.36,2.967-32.332,17.846-28.537,43.527a5.506,5.506,0,0,0,6.166,4.646,1.694,1.694,0,0,0,.194-.039" transform="translate(15.479 108.87)" fill="#1a1a1a"/>
      </g>
      <g id="g840" transform="translate(655.404 2533.17)">
        <g id="g854" transform="translate(0 0)">
          <g id="g852" opacity="0.86" clip-path="url(#clip-path)">
            <g id="g850" transform="translate(0 0.002)">
              <path id="path848" d="M0-111.77H0l13.807-90.5,8.942,1.369L3.962-113.328Z" transform="translate(0 202.266)" fill="#fdfbee"/>
            </g>
          </g>
        </g>
      </g>
      <g id="g856" transform="translate(620.566 2495.427)">
        <path id="path858" d="M-60.823-73.3c-7.806,13.788,4.562,25.046-7.457,35.27l15.312,2.65c7.7-19.792-6.845-17.957-7.855-37.92m10.068-6.034C-47.483-63.846-30.783-63.574-33-47.961l13.215-8.127c-7.3-19.953-16.973-8.986-30.974-23.245m1.6-6.063c12.166,10.215,25.6.277,33.42,13.918l5.544-14.476c-18.05-11.234-19.05,3.306-38.964.558m-2.3-5.967c15.924.932,20.846-15.025,35.324-8.768L-20.3-114.943C-41.619-113.209-33.686-101-51.455-91.363m-6.475-3.378c12.893-9.477,6.388-24.764,21.564-29.279l-12.788-8.627c-15.3,15-1.292,19.215-8.776,37.906m-7.758,2.64c3.893-15.447-10.953-22.992-2.1-36.134l-15.439,1.622c-2.213,21.22,11.273,15.463,17.536,34.512m-3.884,15.161c-14.575,6.56-11.476,22.9-27.235,24.09l10.641,11.142c18.118-11.443,5.389-18.511,16.594-35.232m-4.223-4.834C-89.2-85.892-97.156-71.182-110.07-80.169l1.136,15.385c21.225,2.5,15.865-11.059,35.139-16.992m2.747-4.641c-17.554-9.724-23.691,3.53-36.429-13.492l10.407-11.515c2.3,15.53,18.438,11.067,26.022,25.006" transform="translate(110.07 132.648)" fill="#f98008" fill-rule="evenodd"/>
      </g>
      <g id="g860" transform="translate(654.274 2530.11)">
        <path id="path862" d="M-35.849-18.333c-.573,7.492-7.583,13.054-15.584,12.414-8.03-.651-14.011-7.253-13.4-14.788.583-7.506,7.613-13.064,15.613-12.419s14,7.283,13.37,14.793" transform="translate(64.875 33.177)" fill="#f98008" fill-rule="evenodd"/>
      </g>
    </g>
    <rect id="Rectangle_32" data-name="Rectangle 32" width="576" height="576" transform="translate(-742 1052)" fill="none"/>
  </g>
</svg>
