<svg xmlns="http://www.w3.org/2000/svg" width="220" height="222.942" viewBox="0 0 220 222.942">
  <g id="Group_593" data-name="Group 593" transform="translate(254 -2431.242)">
    <g id="Group_592" data-name="Group 592" transform="translate(-587.241 -1410.619)">
      <g id="g22" transform="translate(333.241 3841.861)">
        <path id="path24" d="M-490.937-153.594c-5.937-2.014-14.664,2.277-8.808-8.01,4.912-8.641-3.5-13.136-11.68,1.814-7.72,14.111-25.767,17.975-37.252,16.773-6.685-46.075-18.442-78.487-41.652-78.487-42.831,0-38.813,39.176-52.669,80.038-10.564,2.332-33.225-2.023-40.881-19.077-6.985-15.544-15.721-11.72-11.5-2.721,5.035,10.714-3.329,5.751-9.407,7.294s-2.631,8.754,2.948,9.493,7.248,5.162,2.821,8.99c-4.409,3.819.608,7.661,7.693,5.856s26.571,10.45,30.7,26.674c.032.132.073.218.1.34-24.579,48.143-47.73,115.2,6.79,100.4,7.665-2.077,27.613-6.649,36.812,2.558s41.923-4.6,51.639-9.207,17.381-3.575,32.717,4.1,41.924,14.31,27.1-8.691c-10.963-17.023-25.554-51.952-35.1-88.016a5.168,5.168,0,0,0,1.619-2.721c5.384-15.852,25.759-26.544,32.69-24.194s12.223-1.08,8.128-5.234c-4.114-4.164-2.11-8.45,3.515-8.74s9.621-7.221,3.683-9.231" transform="translate(707.998 221.503)" fill="#dbdbdb"/>
      </g>
      <g id="g26" transform="translate(423.355 3872.926)">
        <path id="path28" d="M-21.01-42.02A9.292,9.292,0,0,1-30.3-51.309,9.289,9.289,0,0,1-21.01-60.6a9.29,9.29,0,0,1,9.289,9.289A9.293,9.293,0,0,1-21.01-42.02" transform="translate(30.299 60.599)" fill="#282828"/>
      </g>
      <g id="g30" transform="translate(452.697 3872.926)">
        <path id="path32" d="M-21.01-42.02A9.29,9.29,0,0,1-30.3-51.309,9.287,9.287,0,0,1-21.01-60.6a9.281,9.281,0,0,1,9.289,9.289A9.284,9.284,0,0,1-21.01-42.02" transform="translate(30.299 60.599)" fill="#282828"/>
      </g>
      <g id="g34" transform="translate(431.139 3901.47)">
        <path id="path36" d="M-68.754-47.272c0,11.539-6.8,20.9-15.2,20.9s-15.2-9.361-15.2-20.9,6.8-20.9,15.2-20.9,15.2,9.357,15.2,20.9" transform="translate(99.153 68.173)" fill="#282828"/>
      </g>
    </g>
    <rect id="Rectangle_366" data-name="Rectangle 366" width="220" height="220" transform="translate(-254 2433)" fill="none"/>
  </g>
</svg>
