<svg xmlns="http://www.w3.org/2000/svg" width="220" height="220" viewBox="0 0 220 220">
  <g id="Group_283" data-name="Group 283" transform="translate(752 -2171)">
    <g id="Group_282" data-name="Group 282" transform="translate(-690.564 -299)">
      <path id="Path_248" data-name="Path 248" d="M267.825,127.367a1.672,1.672,0,0,1,.863,2.157l-87.4,170.665a1.623,1.623,0,0,1-2.243.6h0a1.672,1.672,0,0,1-.863-2.157l87.489-170.665a1.546,1.546,0,0,1,2.157-.6Z" transform="translate(-178.733 2349.949)" fill="#415065"/>
      <path id="Path_249" data-name="Path 249" d="M270.056,266.182A83.992,83.992,0,1,1,264.1,147.545a83.92,83.92,0,0,1,5.953,118.637" transform="translate(-171.3 2350.134)" fill="#bcc751"/>
      <g id="Group_275" data-name="Group 275" transform="translate(-38.345 2475.936)">
        <g id="Group_274" data-name="Group 274" transform="translate(0 0)">
          <path id="Path_250" data-name="Path 250" d="M183.58,241.1c.173-.777.949-3.883.345-4.4-1.122-.863-1.639-1.812-3.624-1.812a22.136,22.136,0,0,1-4.142,0c1.294-2.675.863-4.832,2.416-7.42,1.208-2.071-3.883-1.122-4.573-.949-1.208.345-.863.863-1.035,1.984-.086.777-1.208,1.553-1.035,2.157a5.776,5.776,0,0,0-1.726,0,3.148,3.148,0,0,1-2.243-.259c-1.035-.777-1.726.431-2.416-.863-.431-.777-.345-2.071-.863-2.847-1.122-1.726-1.553-5.177-.345-6.9,1.035-1.553-.69-3.106.949-4.314a6.88,6.88,0,0,0,1.553-3.883c1.381-.086,3.969,1.381,5.091,1.467.345.777,2.157,1.639,2.243.431.431.345.863.949,1.467.518a.755.755,0,0,0-.69-.777,1.468,1.468,0,0,0,.173-1.208c.863-.518,1.726.259,2.243.259a2.645,2.645,0,0,1,1.812-.086c.431.086,1.553-.6,1.984-.777-.173,1.035.345,1.812.949,1.381,1.035-.777,1.208.345,1.984,1.122,1.122,1.035-.345,3.365,1.726,4.487-.173.863,1.208,3.279,1.639,3.192,3.624-.431-1.208-8.714-.6-10.871a4.218,4.218,0,0,1,2.243-2.847c1.122-.6-.086-3.106,1.035-3.451s2.847.173,3.969-.259c.6-.259,1.035-.6.259-1.035A5.1,5.1,0,0,1,196,202.1c-.086-.863-1.381-2.243-1.208-2.847.173.086.6-.259.518-.086.173.518,1.122-1.294,1.122-1.381.6-1.122-1.035-1.812-.777-2.675.518.086,2.071.6,2.416-.173s-.69-4.918-1.122-4.918c1.381-1.553,4.918,2.761,6.212,1.467,1.122.086,1.639.173,1.639-.949-.431-.518-1.122,0-1.467-.69.173-1.208,1.035-1.726,2.33-2.071.518-.173.518-.949.777-1.381a8.8,8.8,0,0,0,1.9-.777c1.9-.777.6-.518,1.208-.863.086,0,3.106-.259,2.934-.518.259.518-2.157,1.208-1.984,2.33.259,1.639,2.157-.431,3.192-.69.949-1.9,3.279-.863,5.177-1.294.173-.6-.518-.259-.431-.777a2.107,2.107,0,0,0,1.984-.69c.259-.431.173-.777-.777-.69,0-.431-.863-4.142-2.243-2.5-.69.863.518,2.5.518,3.451a3.832,3.832,0,0,0-1.726-.086,5.653,5.653,0,0,1-1.208,0c-.431-.6-.6-.518-1.294-.777-.518-.173-1.035-1.639-1.294-1.553a5.5,5.5,0,0,0,.69-1.208,20.9,20.9,0,0,0-2.071-.431c.949,0,3.8-.6,2.416-1.812-1.035-.949-2.5.086-3.624.518a11.962,11.962,0,0,0-3.106,1.639c-.259.173-1.553.086-2.071.259,0-.69,1.984-2.071,2.588-2.416.949-.518,1.639-.086,2.243-1.294.173-.863.69-1.208,1.467-1.035,1.122-.086,2.761-.69,3.969-.6,2.071.173,3.71,1.035,5.522.431a4.826,4.826,0,0,0,1.984-1.726,22.739,22.739,0,0,0,2.416-.173c1.122-.086,1.984-1.035,1.639-1.9-.345-.777.086-3.365-1.984-2.243-.345-.086-.259-1.294-1.639-1.035a3.1,3.1,0,0,0,1.035-.69c-.431-.777-3.969-1.035-4.832-.69-.173-.518.431-1.381-.518-2.157-.518-.345-2.071-.345-1.9-1.294.863.863,2.071-.6.173-1.208-.086-.431,1.381-.086-.086-1.035-.345-.173-1.381-.863-1.208-1.294.431-.777-2.847-3.71-3.71-.518-.086.431-3.71,1.726-4.055,1.122-.431-.949-.69-.431-1.208-.259a2.515,2.515,0,0,1-1.381-.431c-.173-.518.949-.345.6-1.726-.259-1.294-.431-.863.259-1.812.518-.777-3.624-.173-3.279-1.553-1.035-.6-2.157-1.726-3.451-1.208-1.035.345-1.812,1.122-2.934.863-.777-.259-1.812-1.208-2.5-.431a.864.864,0,0,0,.345,1.553,5.669,5.669,0,0,0-1.035,1.467,1.707,1.707,0,0,0,.949.173,1.5,1.5,0,0,0,.259,1.208c-.173.345-.259.949-.6,1.035-.259,1.294-2.071,1.208-.259,2.157,1.381.69,3.624,2.243,2.847,3.969-.6,1.208-4.4,2.071-5.781,2.33-.173,1.294.69,1.208.69,2.5,0,.69.431,1.467.345,2.071-.086,1.553-.69.863-1.467,1.553-.777.777-1.381-.69-2.071-1.035a2.108,2.108,0,0,1-1.294-2.416c.086-1.035.431-2.847-.69-3.106-2.071-.431-4.573.259-6.471-1.035-.949-.69-1.553-1.812-2.847-2.071-.6-.086-1.467.6-1.984.777-.431.173-1.122-.173-1.381.259.431-.6-.173-3.02-1.553-2.934-1.294.086-1.553-1.639-1.208-2.243.345-.777,2.761-1.553,2.847-2.33,0-.259,2.588-2.243,1.726-2.157,2.5-.863,1.984-.863-.259-1.467a2.636,2.636,0,0,1,1.639-.69c1.122.086,2.33.69,1.726-.518A3.276,3.276,0,0,0,182.2,150.5c-.345-.173-3.71-.173-3.451-.777,1.381.431,2.761.863,3.969,0,1.035-.777,1.726-1.035.518-1.467a9.337,9.337,0,0,1,3.8-.259,1.152,1.152,0,0,0-1.208-.777c.6-.518,1.208.173,1.726.259a2.516,2.516,0,0,0,2.416-.949c1.553-1.726-1.812-.949-1.208-2.416a1.276,1.276,0,0,1,1.122,0c.345.086.777.259.863-.345.173-.949-.777-.69-1.467-.863-1.208-.345-5.177.777-2.675,1.294a3.025,3.025,0,0,1-1.208.518,6.916,6.916,0,0,1-1.122,1.639c-.863.949-1.726,1.208-2.5,0,.173-.259,1.812-2.416-.173-1.726-.777.259-1.208,1.122-1.9,1.553.345-.518-.431-1.208.259-1.467-.345-.345-.777-.173-1.294,0a2.519,2.519,0,0,1-.777.173c-.086-.777.863-.431,1.035-.949-.431-.69-1.294-.173-1.122-1.122s-1.812-.259-2.071-.086c-.863.345-1.467,1.294-2.33,1.9a.634.634,0,0,0,.518.173c-.086.345-1.208,1.035,0,1.122a7.6,7.6,0,0,0,1.467-.173,6.661,6.661,0,0,1,1.294-.173c0,.259-1.812.863-1.9.949,0,.345.345.259.6.173a.938.938,0,0,1,.431-.086c-.431.777-1.639,1.035-2.243,1.467-.949.69-.086.69-.518,1.381-1.122.173-.431-.777-.259-1.208-.69-.259-2.761-.173-2.588.949-.777.345-3.969,1.9-4.659,1.467-1.639-.863-3.883,1.467-4.832,2.588v-.086c-2.157-.086-3.365,1.812-5.349,2.157.431-.345.777-.69,1.208-1.035-.863-.6-4.4,2.5-4.918,3.106-2.5,2.847-.777-.518-3.451-.777-.345.345.518.6.431,1.035a10.817,10.817,0,0,0-2.157.777,8.811,8.811,0,0,0-2.33,1.035c-.173.259-.345.431-.518.69a.084.084,0,0,1-.086.086,83.828,83.828,0,0,0-9.146,14.323,7.646,7.646,0,0,1,2.5.259c-.431,1.294,2.934.949,2.847,1.726.345-.173-.173,1.553-.173,1.553a16.78,16.78,0,0,0-.431,1.726c.69-.259.173-1.294.777-1.639a19.519,19.519,0,0,1-.086,2.33c.173,1.035-.777,3.883-.518,4.314.259.345,1.294,1.553,1.035,1.984-.431.6-.086,2.675-.259,3.451-.173,1.122-.431,2.243-.6,3.365a16.91,16.91,0,0,0-.431,5.522,53.269,53.269,0,0,0,1.639,6.385c.431,1.553,1.208.518,1.812,1.812.69,1.553,1.122,3.624,1.9,5.263.259.6,2.416,3.538.69,3.192-.086,1.812,2.5,1.812,2.675,3.451.173,1.9,1.726,2.5,2.33,4.314,1.467.086-.173-2.071-.173-2.416-.863-.086-1.381-2.5-1.467-3.451-.863-.345-1.294-2.243-1.726-3.02a7.49,7.49,0,0,1-1.381-4.228c1.726.431,2.157,2.071,2.761,3.8a8.992,8.992,0,0,0,1.122,2.588,2.9,2.9,0,0,1,1.208,2.416c1.984,1.122,3.192,4.142,4.142,6.04.518,1.122-.259,1.812.345,2.847.6.949,1.812,1.381,2.243,2.5,1.984.6,3.8,1.984,5.522,2.934a10.268,10.268,0,0,0,3.106,1.467c.949.173,1.553-.6,2.416-.6,1.726,0,3.279,2.761,4.573,3.71.6,0,5.091,1.9,5.091,1.208.259,0,2.33,3.279,2.934,3.624.173.777-.518.863.345,1.553-.086-.086.173.086.431.345.863-.431,1.812-.69,2.761-1.122a3.8,3.8,0,0,1-.777-2.675" transform="translate(-134.4 -128.068)" fill="#fff"/>
          <path id="Path_251" data-name="Path 251" d="M255.537,285.284c-.431-1.553-3.02-.086-4.055-.863-.863-.6-1.812-1.726-3.02-1.639a15.667,15.667,0,0,1-3.969-.518c-1.035-.173-1.381,1.035-2.243,1.035.173-1.381-1.294-1.9-2.934-1.639-.518-.777-1.553-.6-2.5-.086l.259-.777c-.69-.6-1.467.086-2.33,0a4.336,4.336,0,0,1-2.761,1.467c.518-1.553,2.243-1.984,3.02-3.279.431-.69-1.122-1.467-1.294-2.071-.777-1.984-.6-1.726-2.33-2.934a8.14,8.14,0,0,0-4.055-1.381c-1.208-.086-1.381.518-2.5.086a9.7,9.7,0,0,0-3.365-.69c.431-2.33-2.33-2.847-3.8-2.675a3.935,3.935,0,0,1,1.035-1.035,1.717,1.717,0,0,0-1.035-.69c.6-.173.345-1.208.518-1.639-1.122-.173-1.726,1.639-2.416.777.173-.259.863,0,.777-.518a4.2,4.2,0,0,0-3.8.345c-1.208.863-2.33-.69-3.624-.518-1.035.086-1.467.345-2.071-.518a1.762,1.762,0,0,0-1.9-.69c-.345-.259-.431-1.553-1.208-1.122-.431.259-.431.949.259.949-.6.518-1.639.259-2.157.777-.259,0-.6-.863-.086-1.035,2.157-.518-.777-1.208-1.208-1.9a3.005,3.005,0,0,0-1.208-1.122c-1.726-.777-4.228.086-5.781.259-.518-.69-1.294-1.381-1.9-2.243-.949.431-1.9.69-2.761,1.122.431.259.863.431.69-.086.518,1.208,1.639.345,1.639,1.9.173.431,1.467.69,1.726.69a1.419,1.419,0,0,1,.863.173,4.635,4.635,0,0,1,1.381.863c.69.518.69.345,1.812.345a8.982,8.982,0,0,0-.518-1.381c1.122,0,1.122-.69,2.416-.431-.086.518.777,1.639.518,1.984-1.122.259-2.33-.086-3.106.863-.345.345-.345,1.812-.863,1.9a1.656,1.656,0,0,0-1.294,1.467,1.257,1.257,0,0,0-.777-.518c-.518.345.69.69.259,1.035a1.053,1.053,0,0,0-.777.69c-.086.777.863,1.38.949,2.157s.431,2.761.086,3.365c-.173.345-1.984,1.381-1.467,1.467-.863.086-.259.949-1.208,1.035-.69-.173-.949.173-.69.949-.173.6-1.812,2.934-.431,3.365.086,0,1.208.173,1.381,0,0,1.208-1.381,1.035-1.9,1.812-.086.777,1.639,1.726.431,1.726.345.69,1.122.777,1.726,1.035a8.2,8.2,0,0,0,1.294,1.726,11.45,11.45,0,0,1,2.5,3.538c1.381,1.035,1.812,2.675,3.02,3.624a11.414,11.414,0,0,0,3.624,1.984,28.391,28.391,0,0,1,3.969,1.984c.259.69.949,2.934.431,3.451-.173.259-.345,4.4-.086,4.4-.173.949-1.035-.518-.173,1.035a.716.716,0,0,1,.173.69c0,.086-.777,1.467-1.467,1.035a1.16,1.16,0,0,0,.518.6,91.8,91.8,0,0,0,18.205.518c-.518-.173-.518-.69-1.381-.6,2.243-.345,4.142.69,6.212-.345.518-.259,1.208-1.122,1.812-1.467l-.086.086c1.208.086,3.969-2.157,4.142-3.106.259-2.416,3.883-2.761,5-4.487,2.588-.345,3.8.6,5.608-.949,1.467-1.294,1.9-2.588,2.847-3.969.6-.863-1.035-3.02-.431-4.055,1.208-.345,3.192-.518,3.71-1.553C253.207,290.116,256.227,287.787,255.537,285.284Z" transform="translate(-141.904 -144.128)" fill="#fff"/>
          <path id="Path_252" data-name="Path 252" d="M153.7,154.359c1.294.173,1.122.69,1.984,1.467.173-.345,3.02-3.624,3.365-3.192a2.626,2.626,0,0,0-.69.69.392.392,0,0,1,.431,0,2.743,2.743,0,0,0-.949,1.035,8,8,0,0,0,2.761-.863,18.215,18.215,0,0,0,3.451-2.243c.863.173,1.726-1.122,2.761-1.208a4.677,4.677,0,0,0,3.365-1.639c-.431-.431-1.035.6-1.381.259.6-.6,2.847-.69,2.5-1.639-.949-.259-1.812.518-2.675,0,.6-.518.345-1.122.259-1.726-1.639-.086-2.071,1.122-2.675,2.33-.518,0-.086-.69-.259-.69-.863.173-1.294.949-1.984,1.467,0,.086-3.192,1.553-4.142,1.467-1.208-.173-1.294-.863-2.675-.69-.173,0-.431.086-.6.086-.6.518-1.122,1.035-1.639,1.553a1.147,1.147,0,0,1-.259.6c-.69,1.122-.777.6-.863,1.9C153.7,153.755,152.322,154.186,153.7,154.359Z" transform="translate(-136.964 -128.474)" fill="#fff"/>
          <path id="Path_253" data-name="Path 253" d="M149.049,157.6a10.34,10.34,0,0,1-.949,1.035,6.613,6.613,0,0,0,1.726-.777A1.055,1.055,0,0,0,149.049,157.6Z" transform="translate(-136.279 -130.163)" fill="#fff"/>
          <path id="Path_254" data-name="Path 254" d="M313.406,195.643a3.626,3.626,0,0,0-.431-2.243A2.108,2.108,0,0,0,313.406,195.643Z" transform="translate(-158.876 -135.074)" fill="#fff"/>
          <path id="Path_255" data-name="Path 255" d="M297.281,168.287c-.173-.173,0-1.035.259-.69-1.035,1.035,2.416,2.675,2.33,4.055a.935.935,0,0,0-.949,0l.518,1.035c-.259.086-.431.086-.69.173.086,1.122,1.467.949,1.9,1.726a4.625,4.625,0,0,1-.949-.431c-.69,2.5-.777.6,1.035,1.9-.086-.173,0-.345.173-.518a12.23,12.23,0,0,0,2.847,1.035,7.4,7.4,0,0,0-.173-1.9,21.358,21.358,0,0,0-2.33-3.365c-.777-1.122-1.639-2.157-2.416-3.192-.173-2.071-.863-1.294-1.726-2.847a.547.547,0,0,0,.518-.431A18.253,18.253,0,0,0,295.9,163.8a1.739,1.739,0,0,0,.259.949c-.086,0-.173-.086-.259-.173C295.986,165.353,296.5,168.114,297.281,168.287Z" transform="translate(-156.555 -131.013)" fill="#fff"/>
          <path id="Path_256" data-name="Path 256" d="M313.935,205.373c-.518-.949-1.035-1.726-1.467-1.812-1.035-.173.69-4.832-1.294-5-.518.518-1.812-.086-2.5-.259a2.85,2.85,0,0,0-2.761.777c.086.345-3.279.949-4.055-.6-.431-.949,1.38-.863,1.726-.863,1.553.086,1.294-1.208,1.984-2.157.431-.6,0-.863-.345-1.467a12.311,12.311,0,0,0,.69-1.9c2.157.259.259-2.157,1.208-2.675a5.668,5.668,0,0,0,1.467,1.035,2.356,2.356,0,0,1,.777-1.035c1.035,1.38,1.381,3.192,2.157,4.659v.086a84.8,84.8,0,0,0-6.9-17.256,1.633,1.633,0,0,0-.518,1.467c-1.035-.518-.863.777-1.38,1.122s-.69.086-.863-.173c-.173-.173-.259-.431-.6-.345a7.287,7.287,0,0,1,.431,1.467,3.545,3.545,0,0,0-2.243-.777c-.173,1.208,2.416,3.106,3.106,4.228.518.69,1.208,3.279.6,4.142-1.208-.949-5.091-2.33-6.212-1.294-.173.69.777,3.106.863,3.883a10.08,10.08,0,0,1-.345,3.192c1.9,1.035-.518,3.279,2.675,2.675,1.38,1.639,1.294,3.71-.345,4.918-1.467,1.035-.863,1.812-1.639,2.934-.863,1.208.6,2.416-.6,3.8-.777.949-2.071,1.38-2.416,2.5-.518,1.553-2.071,2.243-2.071,4.142-1.467.69-1.122,1.984-2.157,2.934-.777.777-.086,1.984-.259,2.934.173-.086.345,0,.518.173a10.2,10.2,0,0,1,.431,3.624c-.086.949-.259,3.279-.863,4.055-1.122,1.38.173,1.812-.173,3.106-.259,1.035.259,2.5,1.553,2.243-.777,1.553,2.33,2.588,1.9,4.659.431,1.294,2.588,2.675,3.71,3.624,1.208,1.035,2.071.345,2.934-.345.863-.6,1.639-1.294,2.847-.518.431.259,4.055-2.761,4.745-3.192.518.518.345,1.467.518,2.157a2.444,2.444,0,0,0,1.467-.949c.431,2.588-1.381,4.659-1.208,7.075v.259a82.7,82.7,0,0,0,4.918-41.243" transform="translate(-155.781 -132.81)" fill="#fff"/>
          <path id="Path_257" data-name="Path 257" d="M293.642,171.7c1.38,2.243,5.263,1.9,3.192-1.122,1.122-.086-1.381-2.847-1.984-2.675a2.626,2.626,0,0,0-.69.69.547.547,0,0,1,.518.431c-.518,0-.776-.345-1.38-.431-.259.6,1.984,3.365.345,3.106" transform="translate(-156.195 -131.574)" fill="#fff"/>
          <path id="Path_258" data-name="Path 258" d="M227.285,126a18.768,18.768,0,0,1-2.243.086,7.26,7.26,0,0,0-3.883.6,3.031,3.031,0,0,1,1.726.431h-.6c-.518-.086-1.208-.086-1.381.259a2.775,2.775,0,0,0,.69.086c.173-.086,1.208.69,1.035,1.122,3.451.431,5.867-1.38,8.887.863,0,.173-1.381,1.122-1.122,1.294a3.563,3.563,0,0,1,2.071-.173l-.518.259a3.812,3.812,0,0,1,1.381.518s-1.381,0-1.208.173a.671.671,0,0,1,.69.173.88.88,0,0,0-.69.431.475.475,0,0,1,.431.173h-.6c-.6.259,1.726.431,2.675.345.086-.173.173-.173.345-.173.086.086-.086.086-.345.173v.173c.949.345,2.416.259,2.934.949-.345-.086-.259.086-.173.173.086.173.259.345-.863,0-.863-.259-2.416-.863-3.279-.173.259.086.431.173.518.431-.863-.173-1.381,1.812-1.381,1.9.6.6,3.969.259,4.573-.949-.431-.173-.777-.345-1.208-.518a15.029,15.029,0,0,1,1.9.431.475.475,0,0,0-.431.173c0,.259.259.259.518.259.173,0,.259-.086.345.086.431,1.639-2.243,1.208-3.106,1.726.69.173-.431.6-.6.949-.259.518-.173.69.345.518-.173.086-.259.173-.431.259.518.518,1.553.086,1.984.518-2.416,0-.863,1.381,1.035,1.639,0,1.035-.518,1.294.431,1.553-.863,0-.69.431-.259.949a8.929,8.929,0,0,0,.949.949c.259.69,0,.345.69.863.259.173,1.208.173,1.381.431a4.915,4.915,0,0,0,0,2.5c1.122.345,1.812-.777,2.243,0a1.879,1.879,0,0,0,.69.431l.086-.086-.086.086c-.863.863,1.726.863,2.071.863,0,.345.259.518.6.6.518,0,.518.173-.086.518a10.618,10.618,0,0,0,2.847-.259c-.173.173-.259.345-.173.518.863.173.69-.69.777-.69s1.467.086,1.467.259a1.225,1.225,0,0,0-.777.69,13.406,13.406,0,0,1,1.984.431c-.863.949.345.518,1.208.949a3.354,3.354,0,0,1,1.294-.173,5.7,5.7,0,0,0,1.208-.086c.259-.777,0-.69-.173-.518h0c.086-.086.259-.345.6-.69-.259-.69-.863-.345-.431-1.639.518-1.553-.518-1.122-1.122-2.33a1.282,1.282,0,0,0,.777-.173.646.646,0,0,0-.431-.69c.69-.086,1.381.086,1.726-1.035a7.819,7.819,0,0,1-1.381-.949,1.2,1.2,0,0,0,.949-.173,4.945,4.945,0,0,0-.949-.949.568.568,0,1,0,.431-.949c1.726.6,2.934,1.553,4.573,1.553-.086-.173-.173-2.416-.173-2.588a2.061,2.061,0,0,0,1.208.431c.259-.863-.431-1.726.431-2.416.6.259,1.467.6,2.071.259a10.429,10.429,0,0,0,1.984-.431A78.312,78.312,0,0,0,227.285,126" transform="translate(-146.267 -125.827)" fill="#fff"/>
          <path id="Path_259" data-name="Path 259" d="M316.159,201.59c-.086-.086-.086-.086-.259,0a2.481,2.481,0,0,0,.6,1.553A10.023,10.023,0,0,1,316.159,201.59Z" transform="translate(-159.299 -136.188)" fill="#fff"/>
          <path id="Path_260" data-name="Path 260" d="M314.122,198.947c-.086-1.467-.259-2.157-1.122-2.847a10.475,10.475,0,0,0,.777,2.934C313.863,198.861,313.949,198.775,314.122,198.947Z" transform="translate(-158.901 -135.444)" fill="#fff"/>
          <path id="Path_261" data-name="Path 261" d="M199.877,128.647a11.849,11.849,0,0,1,2.416-.431c-.6.173-1.467.259-2.416.431a10.031,10.031,0,0,1-1.553.345,3.444,3.444,0,0,0-1.122.6c.173-.086.086.259-.086.431.259-.086.863-.086.431-.345.431-.173,2.588-.345,2.934,0-.69,0-4.745.345-4.832,1.381.777-.086,2.761-.6,3.365-.173-.69.259-7.161.69-6.816,2.416,1.122,0,2.588-.69,3.71-.863a19.633,19.633,0,0,0,3.883-.949c1.38-.431,4.487.259,5.436-1.294-1.381-.086-3.02.69-4.4.259,1.122-.259,2.33-.173,3.365-.431.863-.259.863-.69,1.726-.777.69-.086,2.847-.6,3.192-1.381-.777-.086-1.639.345-2.416.173,1.38-.518,2.934-.086,4.314-.69a.828.828,0,0,1-.777-.173c.863.086,6.04-1.122,8.542-1.381h-.431a67.821,67.821,0,0,0-7.248.259,58.264,58.264,0,0,0-6.557,1.208c-2.071.518-5,.69-6.816,1.9a1.468,1.468,0,0,0,.6-.086A5.237,5.237,0,0,1,199.877,128.647Z" transform="translate(-142.327 -125.8)" fill="#fff"/>
          <path id="Path_262" data-name="Path 262" d="M197.683,129.859a1.886,1.886,0,0,0,.431-.259C197.942,129.6,197.338,129.773,197.683,129.859Z" transform="translate(-143.067 -126.321)" fill="#fff"/>
          <path id="Path_263" data-name="Path 263" d="M188.448,133.12a.869.869,0,0,0,.259-.086h0c.086,0,.173,0,.173-.086a16.689,16.689,0,0,1,3.969-.777,16.632,16.632,0,0,1,3.279-1.639,1.055,1.055,0,0,1-.777-.259l.173-.173c-.173.086-.345.086-.518.173a7.287,7.287,0,0,0-1.467.431h.086s-.173.086-.086.086l.173-.086c.173,0-.518.173-.259.173-.259,0,.431-.173.259-.173-2.588.777-6.385,1.984-6.212,2.847A1.947,1.947,0,0,1,188.448,133.12Z" transform="translate(-141.684 -126.39)" fill="#fff"/>
          <path id="Path_264" data-name="Path 264" d="M280.977,148.955c-.086-.518-1.38-1.467-1.812-1.726-.259-.173-.345-.086-.345,0-.086.086-.173.259-.949-.173a9.936,9.936,0,0,0-2.675-.777c.173.173.259.345.173.518a7.731,7.731,0,0,0-2.847-1.9c-.173.345.518.431.259.518-.431-.173-1.294-.6-1.38.173.431.949,2.243.086,2.588,1.208-.173.086-.345,0-.6-.086-.431-.086-.863-.173-.949.173.69.431,1.812.345,2.243,1.035-.431-.086-.6,0-.69.431.777.259,8.456,3.192,8.283,1.726a6.238,6.238,0,0,1-.345-.6.991.991,0,0,0-.949-.518" transform="translate(-153.194 -128.42)" fill="#fff"/>
          <path id="Path_265" data-name="Path 265" d="M205.231,242.238c0-1.208-1.381-1.208-2.243-1.208-.086-.345.431-.431.173-.69a10.708,10.708,0,0,0-2.847-.777,2.084,2.084,0,0,0-1.553-1.122c-1.122-.345-2.157-1.381-3.279-1.294-1.467,0-2.588-.6-4.142-.173-.69.173-2.761,1.294-2.157,2.416.777.173,2.934-1.208,3.71-1.639.259,1.294,1.812,1.035,3.106,1.639,1.035.518,1.9,0,2.33,1.035.431.949,1.294.6,2.071,1.122-.259.431-.949.345-.777,1.035C201.435,242.238,203.333,242.5,205.231,242.238Z" transform="translate(-141.9 -141.03)" fill="#fff"/>
          <path id="Path_266" data-name="Path 266" d="M200.99,246.634c.086.086,2.675.6,2.5-.086C202.888,245.253,198.66,245.253,200.99,246.634Z" transform="translate(-143.44 -142.233)" fill="#fff"/>
          <path id="Path_267" data-name="Path 267" d="M209.353,246a3.832,3.832,0,0,0,1.726.086,1.461,1.461,0,0,0,1.208.777c.259-2.588,4.659.345,4.659-1.639a6.726,6.726,0,0,0-4.745-2.157c-.777.086-3.451-.69-3.71.259,0,0,1.726,1.812,1.639,1.726-1.035.431-1.984-.6-2.934-.086C206.937,246.6,208.663,245.913,209.353,246Z" transform="translate(-144.383 -141.857)" fill="#fff"/>
          <path id="Path_268" data-name="Path 268" d="M220.3,246.2c.086,1.294,2.934.6,2.761-.173C222.716,246.028,220.213,244.907,220.3,246.2Z" transform="translate(-146.184 -142.232)" fill="#fff"/>
          <path id="Path_269" data-name="Path 269" d="M163.884,146.653c-.518,0-1.984-.259-1.984.69.949.863,4.487-.345,4.142-1.726a1.968,1.968,0,0,1-1.035-.518,4.008,4.008,0,0,0-1.984.518C162.677,145.618,163.8,146.567,163.884,146.653Z" transform="translate(-138.173 -128.448)" fill="#fff"/>
          <path id="Path_270" data-name="Path 270" d="M187.773,136.782c2.588-.259,4.918-1.639,7.42-1.639a2.824,2.824,0,0,0,2.33-.863c.6.777,1.726.259,2.416.086a7.162,7.162,0,0,0,2.243-1.208c-2.33-.69-5,.086-7.161.949-.949.345-1.639.259-2.588.69-.6.259-2.33,0-2.847.431.345-.518,1.122-.345,1.467-.777a9.814,9.814,0,0,0-3.451.949c0,.6.518.086.518.431C187.859,136.178,187.6,136.091,187.773,136.782Z" transform="translate(-141.698 -126.773)" fill="#fff"/>
          <path id="Path_271" data-name="Path 271" d="M208.592,143.673c-1.381-.431-3.192-.086-3.192,1.639C206.608,145.83,208.765,145.4,208.592,143.673Z" transform="translate(-144.14 -128.229)" fill="#fff"/>
          <path id="Path_272" data-name="Path 272" d="M215.665,138.961a4.817,4.817,0,0,1-1.9.259,4.248,4.248,0,0,0,1.467-.518c-.173-.6-1.122-.518-2.071-.518-.863.086-2.243.777-2.33.345.777,0-1.122-2.157-1.9-.69-.086-.863-.69-.69-1.294-.518a1.555,1.555,0,0,1-.863.086,2.46,2.46,0,0,0,1.208-.69c-.949-.69-5.867-1.208-5.867.69a1.177,1.177,0,0,0-1.381-.086,1.047,1.047,0,0,1-1.122.086,6.516,6.516,0,0,0,.949-1.208c-1.467-1.381-3.969-.173-5.349.69a.671.671,0,0,1,.69.173c-.6,0-1.639,0-1.726.777.259.086.431.173.518.431a.694.694,0,0,0-.777.518c.173.431.949,0,1.035.518a1.592,1.592,0,0,1-1.467.431.906.906,0,0,0,.777-.431c-.431-.69-1.208-.69-1.381-1.467.6-.69,1.639-.863,2.243-1.639-1.639.173-6.471,1.467-5.781,3.365a1.122,1.122,0,0,0-.949.777,4.2,4.2,0,0,0,1.035-.086,2.671,2.671,0,0,1,1.639.086c-.518.431-1.812,0-1.984.777.518.6,1.639.345,2.243.086.777-.259.69-.086.863,0,.086.086.345.173,1.294.086a30.15,30.15,0,0,1,5.522-.345c.086-.777.518-.6,1.122-.518a2.185,2.185,0,0,0,1.294,0c1.381-.6-.259-.777-.345-.949.6-.345,3.883,1.208,4.4,1.467a4.03,4.03,0,0,1-1.467.259c-.173,1.208,1.294.431,1.812.259,1.208-.345,1.035.345,2.157.6,2.934.6.518,2.934-1.294,3.365,0,.518,1.208.777.949,1.208-1.553.173-2.675.345-4.228.431-.69,0-2.33.777-2.071,1.9.949.086,4.659-.6,4.745-1.294,0-.431,4.055,1.812,4.573,2.243q-.518.129-.518.518c1.122.863,2.847.69,3.8,1.984a27.554,27.554,0,0,1,4.659.345c0-2.157-1.467-2.157-4.314-2.761,1.726.345,4.142-.086,4.4.086.777.518.69,1.467,1.639,1.467a4.18,4.18,0,0,0,0-1.467,1.226,1.226,0,0,0,.518.173c.259-1.294-.777-1.208-1.381-1.984.259.086.345,0,.431-.259-.69,0-4.4-2.243-4.142-2.5a1.068,1.068,0,0,0,1.208.259c.173-.69-.6-.431-.69-.949a4.1,4.1,0,0,1,3.883.173c.863.69,1.122,2.243,2.157,2.243.173-.431-.518-.863-.173-1.208a12.6,12.6,0,0,1,1.9-.259c.431-.259-.431-.431,0-.69.949.086,1.812-.69.431-1.122-1.122-.345-1.208.086-1.812-.6-.69,0-1.553.431-2.157,0a.921.921,0,0,0,.949-.259c-.949-1.467-4.573-1.035-6.212-1.984a.671.671,0,0,1,.69-.173c.173-.345-.69-.518-.431-.69a4.523,4.523,0,0,0,2.157.259c.086-.6-.431-.6-.949-.6-.431,0-.863,0-.949-.345,2.675.173.863-.777-.086-.6" transform="translate(-141.808 -127.141)" fill="#fff"/>
          <path id="Path_273" data-name="Path 273" d="M193.749,153.275c.518,0,4.228,2.071,4.142,0a4.523,4.523,0,0,0-2.157-.259c.345-1.294-1.553-.431-2.33-.777-1.9-.777-.173-.518-1.553-.69,0-.518-.173-.863-.69-.949-.345.69-1.035,1.294-1.208,2.071-.431,1.381-.949.949-1.553,2.243.777.086,1.467-.6,2.157-.431a1.2,1.2,0,0,0,0,.777c1.122-.086,1.812-1.122,2.934-1.208C193.836,153.879,193.318,153.361,193.749,153.275Z" transform="translate(-141.808 -129.202)" fill="#fff"/>
          <path id="Path_274" data-name="Path 274" d="M179.542,147.09c-.431.086-1.639-.6-2.243-.69-.431.431-1.726,1.381-1.9,1.9C176.867,148.126,178.506,148.557,179.542,147.09Z" transform="translate(-140.025 -128.626)" fill="#fff"/>
          <path id="Path_275" data-name="Path 275" d="M196.8,130.186a.668.668,0,0,1,.259-.086A.317.317,0,0,0,196.8,130.186Z" transform="translate(-142.96 -126.39)" fill="#fff"/>
          <path id="Path_276" data-name="Path 276" d="M185.473,137.791c-1.035-.345-8.8.949-8.973,1.9C178.657,139.344,184.869,141.415,185.473,137.791Z" transform="translate(-140.176 -127.437)" fill="#fff"/>
          <path id="Path_277" data-name="Path 277" d="M240.349,178.7a.647.647,0,0,0-.431.086c-1.035.173-1.553,1.122-2.071,2.071a9.6,9.6,0,0,1-1.294,2.5c-.086.086-.086.086-.173.086a.818.818,0,0,0-.173,1.122,1.52,1.52,0,0,0-1.122.777.778.778,0,0,0-.086.431c.086.345.431.431.863.518h5.177c.259,0,.431,0,.431.086a.3.3,0,0,0-.173.086,3,3,0,0,0-1.122.949,2.195,2.195,0,0,0,.6.173,1.63,1.63,0,0,0,1.122-.6l.086-.086a1.7,1.7,0,0,1,1.035-.518h.259c-.086,1.122-.345,1.122.949,1.553a.938.938,0,0,0,.431.086c.518,0,.518-.518.69-1.035.345-1.294-1.294-1.035-1.553-1.381a.575.575,0,0,1,.431-.6.643.643,0,0,0,.518-.777.317.317,0,0,0-.259-.086c-.173,0-.259.086-.431.086a.647.647,0,0,1-.431.086h-.086c0-.69,1.035-1.467-.173-1.726a1.094,1.094,0,0,0-.518-.086,1.279,1.279,0,0,0-.6.086c-.173,0-.345.086-.6.086a1.465,1.465,0,0,1-1.122-.518c1.553-.431-.431-.518-1.035-.518h-.173c.345-.518,1.208-1.553,1.639-2.243a4.207,4.207,0,0,1,.259-.6,2.935,2.935,0,0,0-.863-.086" transform="translate(-148.201 -133.057)" fill="#fff"/>
        </g>
      </g>
      <path id="Path_278" data-name="Path 278" d="M268.674,353.275H229.761v-18.9c0-4.228-4.228-7.593-9.491-7.679-5.263.086-9.491,3.451-9.491,7.679v18.9H171.866c-9.146,0-16.566,5.867-16.566,13.115a4.2,4.2,0,0,0,.086,1.035h129.94c0-.345.086-.69.086-1.035C285.24,359.142,277.82,353.275,268.674,353.275Z" transform="translate(-175.612 2322.575)" fill="#3f4d5c"/>
      <path id="Path_279" data-name="Path 279" d="M279.19,357.5H230.7v14.064l65.056-.086c0-.345.086-.6.086-.949C295.756,363.281,288.336,357.5,279.19,357.5Z" transform="translate(-185.956 2318.35)" fill="#657688"/>
      <path id="Path_280" data-name="Path 280" d="M265.508,120.19h0a8.259,8.259,0,0,0-3.279-.69,7.874,7.874,0,0,0-3.106,15.1,86.653,86.653,0,0,1-78.257,154.616,7.813,7.813,0,0,0-4.228-1.208,7.917,7.917,0,0,0-7.938,7.938,8.024,8.024,0,0,0,5.349,7.507A102.411,102.411,0,0,0,265.508,120.19Z" transform="translate(-177.451 2351)" fill="#657688"/>
      <path id="Path_281" data-name="Path 281" d="M262.847,128.677a12.04,12.04,0,0,1-2.5-1.38,8.753,8.753,0,0,1-2.243-1.381,11.854,11.854,0,0,1-2.243-2.416,8.182,8.182,0,0,0-1.467,4.487,7.952,7.952,0,0,0,4.745,7.248,86.652,86.652,0,0,1-78.257,154.616,7.813,7.813,0,0,0-4.228-1.208,7.9,7.9,0,0,0-7.852,6.644,13,13,0,0,1,4.487-.259l2.934.863c.173.086.431.173.6.259H177a3.749,3.749,0,0,1,.6.345h0a94.057,94.057,0,0,0,125.367-41.76C326.264,209.091,308.231,152.491,262.847,128.677Z" transform="translate(-177.464 2350.451)" fill="#3f4d5c"/>
      <path id="Path_282" data-name="Path 282" d="M232.779,266.531c-37.1,18.119-80.587,7.334-103.279-23.727a75.626,75.626,0,0,0,4.918,12.856c19.413,39.862,68.853,55.738,110.354,35.462s59.448-68.939,39.948-108.8a80.822,80.822,0,0,0-7.075-11.821C288.172,207.515,269.966,248.412,232.779,266.531Z" transform="translate(-172.073 2344.004)" fill="#231f20" opacity="0.1"/>
      <rect id="Rectangle_244" data-name="Rectangle 244" width="9.405" height="13.891" transform="translate(44.744 2663.598)" fill="#657688"/>
    </g>
    <rect id="Rectangle_247" data-name="Rectangle 247" width="220" height="220" transform="translate(-752 2171)" fill="none"/>
  </g>
</svg>
