<svg xmlns="http://www.w3.org/2000/svg" width="577" height="576" viewBox="0 0 577 576">
  <g id="Group_103" data-name="Group 103" transform="translate(743 -1052)">
    <g id="Group_94" data-name="Group 94" transform="translate(-1372.099 -1094.126)">
      <g id="g22" transform="translate(667.423 2170.126)">
        <path id="path24" d="M-455.219-262.134c0,8.415-3.679,16.287-15.049,16.287a22.177,22.177,0,0,1-3.326-.167v-31.374a15.151,15.151,0,0,1,5.146-.854c9.2,0,13.229,6.855,13.229,16.108m-141.823-1.727c0,8.415-4.571,15.779-13.768,15.779h-3.679v-30.161a14.866,14.866,0,0,1,5.147-.67c8.788.324,12.3,6.659,12.3,15.051m158.211,28.983c-8.12,7.219-20.977,10.292-30.546,10.292h-4.217v41.135h-28.317V-297.28a157.206,157.206,0,0,1,27.2-2.241c15.625,0,27.572,1.733,36.4,9.1,7.916,6.33,11.241,16.275,11.241,25.875,0,13.393-4.608,22.987-11.761,29.664m-84.075,51.426H-551.39V-299h28.483Zm-71.385,0a27.184,27.184,0,0,1-1.375-4.037L-632.2-136.635l-39.743,12.562L-699.252-70.15l-5.276-11.228,28.539-47.713,39.092-12.579L-596.355-190a191.621,191.621,0,0,1-3.976-20.677c-1.858-13.723-5.147-16.98-11.409-16.98h-2.75v44.207h-28.334V-297.28a183.093,183.093,0,0,1,28.855-2.241c13.638,0,26.681,1.554,35.3,8.756,8.1,6.677,10.312,14.393,10.312,24.7A30.652,30.652,0,0,1-587.1-237.605v.346c8.082,3.431,12.115,10.281,14.344,21.6,2.193,11.476,5.871,27.775,8.269,32.211Zm296.6-92.735H-401.931c0-32.875-5.63-69.5-23.355-99.458-13.936-23.565-35.507-42.844-67.93-52.94a176.286,176.286,0,0,0-50.65-7.715c-105.369-1.618-141.972,89.713-141.972,160.113H-795.962L-629.52,92.62h171.31l164.881-365.376,1.561-3.431Z" transform="translate(795.962 436.321)" fill="#fdfae1"/>
      </g>
      <g id="g26" transform="translate(1056.219 2655.157)">
        <path id="path28" d="M-48.206-.127-66.189-.175l4.222,10.708.094-.314c.944-2.944,5.944-7.021,9.847-8.837,1.179-.535,2.535-1.046,3.821-1.51" transform="translate(66.189 0.175)" fill="#f98008"/>
      </g>
      <g id="g30" transform="translate(1139.872 2676.045)">
        <path id="path32" d="M-29.745-.042l-11.1-.016c.024.079.036.141.059.22a49.408,49.408,0,0,0,3.5,8.294C-36.455,5.43-33.33,1.735-30,.088Z" transform="translate(40.841 0.057)" fill="#f98008"/>
      </g>
      <g id="g34" transform="translate(1146.227 2638.742)">
        <path id="path36" d="M-99.228-52.515c-1.427-7.673-.637-14.465,2.205-19.363l-36.827-.228c.342,2,.66,3.8,1.073,5.869A111.256,111.256,0,0,0-119.9-35.613l.684,1.116-3.6.676c-3.491.716-9.835,2.847-12.96,9.128a4.888,4.888,0,0,0,.4,4.823,5.336,5.336,0,0,0,3.785,2.724l54.857-.173c-11.462-8.377-19.964-21.607-22.5-35.2" transform="translate(136.245 72.106)" fill="#f98008"/>
      </g>
      <g id="g38" transform="translate(1107.197 2618.409)">
        <path id="path40" d="M-128.9-137.009c-5.967-11.7-12.618-30.943-11.663-46.682.118-1.576.212-2.944.365-4.43l-22.346.028a93.508,93.508,0,0,0,9.139,35.172l.507,1.046-1.132.24a54.265,54.265,0,0,0-19.611,8.444c-.9.719-2.83,2.692-3.2,4a3.085,3.085,0,0,0,.495,2.854,5.841,5.841,0,0,0,4.174,2.087l44.741.09c-.5-.936-.967-1.84-1.474-2.846" transform="translate(176.992 188.121)" fill="#f98008"/>
      </g>
      <g id="g42" transform="translate(801.05 2599.388)">
        <path id="path44" d="M0-139.465H232.592c-.519-1.392-1.356-3.679-1.97-5.487a138.3,138.3,0,0,1-5.047-22.284,154.263,154.263,0,0,1-1.768-20.153c-.012-1.227-.012-2.7,0-3.852v-.251H8.8c.012,1.168,0,2.791,0,4.1a160.515,160.515,0,0,1-1.792,20.161,141.983,141.983,0,0,1-5.024,22.284c-.613,1.808-1.45,4.1-1.981,5.487" transform="translate(0 191.493)" fill="#f98008"/>
      </g>
      <g id="g46" transform="translate(760.55 2655.157)">
        <path id="path48" d="M-10.148-4.174C-6.209-2.35-1.174,1.73-.3,4.643c.035.094.071.2.118.33l4.21-10.7-17.96.047c1.273.464,2.63.974,3.786,1.51" transform="translate(13.933 5.731)" fill="#f98008"/>
      </g>
      <g id="g50" transform="translate(678.025 2618.409)">
        <path id="path52" d="M-123.691-120.3a54.072,54.072,0,0,0-19.575-8.392l-1.12-.24.519-1.045c5.318-10.928,8.161-21.808,9.128-35.173l-22.334-.028c.141,1.486.259,2.854.377,4.406.955,15.783-5.7,35.015-11.651,46.705l-1.486,2.846,44.74-.09a5.863,5.863,0,0,0,4.174-2.095,3.127,3.127,0,0,0,.484-2.846c-.389-1.352-2.405-3.341-3.255-4.048" transform="translate(169.834 165.177)" fill="#f98008"/>
      </g>
      <g id="g54" transform="translate(683.803 2676.046)">
        <path id="path56" d="M-.727-.389C2.61,1.265,5.723,4.968,6.548,7.979A53.845,53.845,0,0,0,10.074-.307a1.546,1.546,0,0,1,.059-.228L-1-.519Z" transform="translate(0.999 0.535)" fill="#f98008"/>
      </g>
      <g id="g58" transform="translate(629.099 2638.742)">
        <path id="path60" d="M-123.28-102.629l-3.561-.676.7-1.116a110.8,110.8,0,0,0,12.853-30.692c.389-2.008.743-3.8,1.085-5.8l-36.792.228a28.922,28.922,0,0,1,3.891,21.344c-2.217,11.985-10.979,23.966-24.162,33.215l54.811.173a5.312,5.312,0,0,0,3.774-2.723,4.852,4.852,0,0,0,.4-4.824c-3.136-6.285-9.469-8.412-12.995-9.127" transform="translate(169.27 140.914)" fill="#f98008"/>
      </g>
      <g id="g62" transform="translate(787.98 2581.103)">
        <path id="path64" d="M-25.351-73.779c2.783,0,3.679-5.566,3.679-14.713,0-6.179-1.12-12.06-3.821-12.06-2.736,0-3.938,5.881-3.938,14.842,0,6.462,1.391,11.93,4.033,11.93Zm-.9.8c-5.483,0-8.561-4.611-8.561-12.417,0-9.587,3.62-15.908,10-15.908,5.59,0,8.608,5.067,8.608,12.685,0,10.212-3.6,15.641-10.011,15.641Z" transform="translate(34.808 101.302)" fill="#1a1a1a"/>
      </g>
      <g id="g66" transform="translate(820.749 2581.103)">
        <path id="path68" d="M0-43.254C0-49.98,2.205-54.426,5.212-56.926a9.87,9.87,0,0,1,6.556-2.465,7.283,7.283,0,0,1,3.031.5c.189.024.236.169.271.4l.636,5.688c.035.176-.46.4-.636.4-.035,0-.083-.039-.13-.1-.767-1.651-1.533-3.353-2.276-5a2.117,2.117,0,0,0-.46-.723,1.284,1.284,0,0,0-.849-.322c-1.215,0-2.158.955-2.96,2.162C6.6-53.663,5.66-49.756,5.66-43.931c0,8.515,3.373,11.026,5.507,11.026a10.751,10.751,0,0,0,2.382-.259,11.814,11.814,0,0,0,2.288-.963c.095-.024.224.236.224.55a.443.443,0,0,1-.13.283A20.89,20.89,0,0,1,12.7-31.557a9.217,9.217,0,0,1-3.266.491C4.445-31.065,0-34.552,0-43.223Z" transform="translate(0 59.391)" fill="#1a1a1a"/>
      </g>
      <g id="g70" transform="translate(848.331 2581.032)">
        <path id="path72" d="M-50.261-16.711c0,.126-.366.311-.5.311-.047,0-.083,0-.13-.091l-1.887-4.481c-.177-.44-.318-.59-.719-.676a25.189,25.189,0,0,0-3.219-.315c-.142,2.166-.33,9.595-.354,13.015-.071,2.323-.236,11.509-.236,12.4,0,.452.13.55.448.641l1.616.4c.094,0,.188.169.188.448,0,.094-.059.138-.094.138-.955-.043-2.83-.095-4.8-.095-1.8,0-3.455.051-4.221.095-.082,0-.082-.043-.082-.095,0-.134.035-.444.176-.491L-62.454,4c.306-.055.354-.142.354-.637.047-1.47-.129-11.16-.176-12.893-.035-1.895-.177-9.685-.271-12.437a27.474,27.474,0,0,0-3,.275c-.413.1-.589.125-.767.527l-2.111,4.575c-.035.094-.082.094-.13.094-.13,0-.46-.094-.46-.22l.33-5.916c0-.224.036-.318.307-.318.719,0,3.137.276,8.75.276,4.788,0,8.2-.276,8.821-.276.318,0,.366.095.366.362Z" transform="translate(69.01 22.945)" fill="#1a1a1a"/>
      </g>
      <g id="g74" transform="translate(878.457 2581.103)">
        <path id="path76" d="M-25.351-73.779c2.783,0,3.667-5.566,3.667-14.713,0-6.179-1.1-12.06-3.8-12.06-2.736,0-3.95,5.881-3.95,14.842,0,6.462,1.391,11.93,4.045,11.93Zm-.9.8c-5.472,0-8.561-4.611-8.561-12.417,0-9.587,3.632-15.908,10-15.908,5.6,0,8.609,5.067,8.609,12.685,0,10.212-3.6,15.641-10,15.641Z" transform="translate(34.808 101.302)" fill="#1a1a1a"/>
      </g>
      <g id="g78" transform="translate(910.185 2581.135)">
        <path id="path80" d="M-22.727-2.149c-.436,0-.672.15-.672.488-.236,3.1-.578,10.322-.53,11.576.129.13.577.13.79.13,1.887,0,4.186-2.512,4.186-6.049,0-4.666-2.3-6.144-3.727-6.144Zm4.705,19.591c0-4.08-3.125-6.584-5.247-6.584a1.609,1.609,0,0,0-.708.095c-.095,2.194-.271,11.3-.271,12.732,0,.267.271.393.813.393,1.7,0,5.413-1.214,5.413-6.592Zm-1.332-7.4c.306.047.53.095.613.095A7.3,7.3,0,0,1-12.633,17.1c0,5.637-5.117,7.841-11.886,7.841-.543,0-1.887-.051-2.476-.051-1.05,0-2.276.095-3.762.095-.141,0-.141-.044-.141-.095,0-.18.059-.444.248-.491l1.379-.4c.33-.091.46-.232.46-.727.036-1.47,0-10.935,0-12.633,0-1.879,0-9.823-.059-11.564,0-.5-.13-.731-.625-.731l-1.4-.126c-.213,0-.306-.307-.306-.543,0-.039.047-.086.189-.086a73.3,73.3,0,0,1,8.207-.535c5.908,0,8.963,2.186,8.963,6.227,0,3.054-2.606,5.511-4.835,6.328a5.047,5.047,0,0,0-.672.275Z" transform="translate(31.205 2.951)" fill="#1a1a1a"/>
      </g>
      <g id="g82" transform="translate(941.695 2581.265)">
        <path id="path84" d="M-42.2-74.274c-.047.138-.141.224-.366.224-.165,0-.99-.047-2.689-.086-1.663-.043-4.174-.095-7.806-.095-1.652,0-3.314.051-4.67.095-.13,0-.13-.043-.13-.095,0-.18.047-.444.224-.491l1.439-.4c.318-.091.5-.232.5-.727.047-1.195,0-11.1-.035-12.814-.059-1.7-.094-9.764-.224-11.434-.059-.5-.142-.707-.508-.806l-1.285-.306c-.153,0-.189-.275-.189-.491,0-.1,0-.142.083-.142h4.175c3.773,0,6.462-.043,8.243-.094,1.8,0,2.712-.043,2.877-.043.224,0,.271.181.271.409l.13,4.976c0,.126-.342.354-.5.354-.035,0-.071,0-.13-.094-.506-1.3-1.073-2.508-1.663-3.809a1.019,1.019,0,0,0-.8-.539c-.672-.122-3.856-.433-4.481-.4-.366.047-.413.181-.413.4-.224,3.144-.4,10.228-.4,11.446,1.568.071,5.743.26,6.958.26.094,0,.094.047.094.083,0,.326-.235.731-.33.731-1.7.177-4.387.311-6.227.436-.4.055-.542.142-.542.366-.035,1.3-.213,10.26-.213,11.568,0,.44.083.672.413.672a33.975,33.975,0,0,0,5.542-.5,1.457,1.457,0,0,0,.99-.723c.767-1.069,1.474-2.233,2.1-3.3.047-.1.095-.1.13-.1.142,0,.46.271.413.444Z" transform="translate(57.943 101.982)" fill="#1a1a1a"/>
      </g>
      <g id="g86" transform="translate(970.716 2581.234)">
        <path id="path88" d="M-21.052-40.515c1.533,0,4.34-2.064,4.34-7.405,0-3.9-1.781-7.032-3.8-7.032-.495,0-.8.125-.8.5-.189,3.479-.5,12.583-.5,13.392-.059.495.083.546.707.546Zm9.741-7.936c0,3.035-2.028,5.378-4.352,6.761a102.549,102.549,0,0,1,5.236,12.162,1.326,1.326,0,0,0,.637.715l1.168.4a.563.563,0,0,1,.259.538c0,.051,0,.095-.095.095-.755-.044-2.146-.095-3.714-.095-1.439,0-2.83.051-4.116.095-.094,0-.153-.044-.153-.138,0-.216.059-.4.188-.448l1.3-.358c.307-.087.5-.275.271-.684a93,93,0,0,0-5.731-10.118c-.094-.149-.188-.236-.318-.236a6.465,6.465,0,0,1-1.038,0c-.094,2.288-.224,8.8-.224,10.189,0,.5.13.617.448.715l1.474.491c.142.047.176.259.176.491,0,.051-.035.134-.117.095-.861-.044-2.382-.095-4.163-.095-1.674,0-3.2.095-4.092.095-.13,0-.13-.044-.13-.138,0-.189.035-.4.224-.448l1.191-.4a.526.526,0,0,0,.425-.59c0-1.887-.154-10.349-.154-12.641,0-1.84-.083-10.617-.165-11.568-.047-.483-.177-.763-.5-.794l-1.25-.236c-.177-.043-.283-.354-.283-.535,0-.047,0-.087.142-.087,1.923-.188,5.507-.409,8.514-.409,6.191,0,8.939,2.65,8.939,7.122Z" transform="translate(28.905 55.629)" fill="#1a1a1a"/>
      </g>
      <g id="g90" transform="translate(1009.477 2579.079)">
        <path id="path92" d="M-22.97-37.7a7.619,7.619,0,0,1,1.391.252c4.54.9,6.486,4.2,6.486,7.146,0,5.77-4.788,8.765-10.919,8.765a9.181,9.181,0,0,1-5.4-1.588c-.295-.243,0-1.045.165-1.045.047,0,.083.047.189.086a6.968,6.968,0,0,0,4,1.061c3.444,0,6.038-2.445,6.038-6.738,0-2.9-1.851-6.93-7.335-7.138-.26,0-.354-.1-.4-.645-.047-.157.047-.208.188-.208,5.2-.546,6.651-3.537,6.651-7.126,0-2.862-1.545-4.851-3.95-4.851A5.585,5.585,0,0,0-30.3-47.174a.148.148,0,0,1-.153.086c-.2,0-.6-.735-.4-1.089a8.433,8.433,0,0,1,7.134-3.589c4.835,0,7.536,2.775,7.536,6.73,0,3.538-2.748,5.935-5.7,6.737a11.151,11.151,0,0,1-1.085.4Z" transform="translate(31.538 51.765)" fill="#1a1a1a"/>
      </g>
      <g id="g94" transform="translate(1036.176 2578.887)">
        <path id="path96" d="M-1.535-11.78c-.213.047-.448-.307-.554-.5a.18.18,0,0,1,.106-.248L6.79-16.112a.453.453,0,0,1,.259-.063.321.321,0,0,1,.354.354c0,.251-.46,12.971-.519,16.269C6.85,5.484,6.7,11.836,6.7,12.229s.743.487,1.1.589l1.5.354c.154.047.247.295.247.55,0,.051-.059.1-.153.1-.991-.047-2.842-.1-4.835-.1-2.347,0-4.446.051-5.436.1-.106,0-.106-.047-.106-.1,0-.149.106-.5.248-.55l1.945-.4c.306-.055.755-.1.755-.389C2.015,11.321,1.85,2.548,1.8.948c-.036-1.737-.106-9.58-.3-12.527-.059-.35-.259-.637-.6-.59Z" transform="translate(2.107 16.175)" fill="#1a1a1a"/>
      </g>
    </g>
    <rect id="Rectangle_30" data-name="Rectangle 30" width="576" height="576" transform="translate(-742 1052)" fill="none"/>
  </g>
</svg>
