<svg xmlns="http://www.w3.org/2000/svg" width="220.474" height="220.472" viewBox="0 0 220.474 220.472">
  <g id="Group_585" data-name="Group 585" transform="translate(254.474 -2432.861)">
    <g id="Group_584" data-name="Group 584" transform="translate(173 -1409)">
      <g id="g62" transform="translate(-393.624 3841.861)">
        <path id="path64" d="M-89.366-464.481a3.149,3.149,0,0,1-3.122-3.05L-93-505.964a11.646,11.646,0,0,0-1.866-5.526l-32.812-45.34a3.036,3.036,0,0,1,.7-4.241l18.193-13a3.738,3.738,0,0,1,4.638.386l6.6,6.6a2.35,2.35,0,0,1-.417,3.8l-5.764,3.669a2.71,2.71,0,0,0-.691,4.037l13.426,17.041a2.469,2.469,0,0,0,3.916.112l27.7-31.164a4.5,4.5,0,0,0,.493-4.918L-72.357-597.68a3.917,3.917,0,0,0-4.427-1.674l-12.071,4.024a5.419,5.419,0,0,1-5.06-1.193l-2.628-2.63a2.262,2.262,0,0,1,.466-3.718l24.195-14.41a3.6,3.6,0,0,1,4.522.825l16.713,21.028c1.045,1.312,1.9,1.014,1.9-.663v-37.562a4.678,4.678,0,0,0-2.866-4.093l-8.819-3.21a5.237,5.237,0,0,0-5.024,1.115l-1.31,1.307a3.06,3.06,0,0,1-4.315,0l-3.624-3.623a3.057,3.057,0,0,1,0-4.316l6.93-6.932a4.745,4.745,0,0,1,4.934-.9l19.915,9.057a6.278,6.278,0,0,1,3.234,4.281l5.715,38.287c.242,1.664.776,1.684,1.166.056l9.15-37.736a6.076,6.076,0,0,0-1.44-5.123l-11.564-11.562a8.486,8.486,0,0,1-2.157-5.212v-2.5c0-1.678,1.161-2.321,2.584-1.431l23.284,14.62a5.792,5.792,0,0,1,2.44,4.672l-1.7,36.9c-.076,1.675.722,1.978,1.772.669L10.2-634.988a3.5,3.5,0,0,0-.242-4.537l-4.288-4.286a2.354,2.354,0,0,1,.417-3.8l9.4-5.982a2.505,2.505,0,0,1,3.768,1.171l4.9,11.582a6.134,6.134,0,0,1-.57,5.307L-2.665-598.182a31.99,31.99,0,0,0-2.9,5.324L-41.649-503.9a18.78,18.78,0,0,0-1.144,5.876v30.493a3.06,3.06,0,0,1-3.05,3.05Z" transform="translate(128.25 666.581)" fill="#62c110"/>
      </g>
      <g id="g66" transform="translate(-280.491 3983.482)">
        <path id="path68" d="M-10.556,0A4.588,4.588,0,0,1-5.963,4.593a4.593,4.593,0,0,1-4.593,4.593,4.59,4.59,0,0,1-4.593-4.593A4.585,4.585,0,0,1-10.556,0" transform="translate(15.149)" fill="#7a4d2e" fill-rule="evenodd"/>
      </g>
      <g id="g70" transform="translate(-298.097 4001.855)">
        <path id="path72" d="M-15.835,0a6.886,6.886,0,0,1,6.89,6.89,6.894,6.894,0,0,1-6.89,6.89,6.889,6.889,0,0,1-6.89-6.89A6.88,6.88,0,0,1-15.835,0" transform="translate(22.725)" fill="#7a4d2e" fill-rule="evenodd"/>
      </g>
      <g id="g74" transform="translate(-409.873 3965.105)">
        <path id="path76" d="M-15.845,0a6.886,6.886,0,0,1,6.89,6.89,6.9,6.9,0,0,1-6.89,6.89A6.893,6.893,0,0,1-22.74,6.89,6.884,6.884,0,0,1-15.845,0" transform="translate(22.74)" fill="#7a4d2e" fill-rule="evenodd"/>
      </g>
      <g id="g78" transform="translate(-395.326 3986.537)">
        <path id="path80" d="M-23.752,0A10.332,10.332,0,0,1-13.417,10.335,10.337,10.337,0,0,1-23.752,20.67,10.337,10.337,0,0,1-34.087,10.335,10.332,10.332,0,0,1-23.752,0" transform="translate(34.087)" fill="#7a4d2e" fill-rule="evenodd"/>
      </g>
      <g id="g82" transform="translate(-409.105 4014.096)">
        <path id="path84" d="M-15.834,0a6.886,6.886,0,0,1,6.89,6.89,6.888,6.888,0,0,1-6.89,6.89,6.885,6.885,0,0,1-6.89-6.89A6.883,6.883,0,0,1-15.834,0" transform="translate(22.724)" fill="#7a4d2e" fill-rule="evenodd"/>
      </g>
      <g id="g86" transform="translate(-427.474 4026.728)">
        <path id="path88" d="M-506.71-70.132c0,2.355-2.683,5.091-6.02,5.091H-727.184s9.779-22.894,22.957-22.894c9.617,0,11.313-5.082,18.373-5.082,17.9,0,14.246-7.63,27.559-7.63a77.47,77.47,0,0,1,28.708,5.934s7.639-5.934,24.114-5.934c15.269,0,24.114,12.712,24.114,12.712s6.469-2.538,19.526-2.538c10.438,0,13.78,10.169,13.78,10.169s7.379-5.087,13.784-5.087,13.78,10.173,13.78,10.173,13.78-1.978,13.78,5.086" transform="translate(727.184 100.646)" fill="#663f25" fill-rule="evenodd"/>
      </g>
    </g>
    <rect id="Rectangle_362" data-name="Rectangle 362" width="220" height="220" transform="translate(-254 2433)" fill="none"/>
  </g>
</svg>
