<svg xmlns="http://www.w3.org/2000/svg" width="207.926" height="151.172" viewBox="0 0 207.926 151.172">
  <g id="layer9" transform="translate(-146.31 -235.005)">
    <rect id="rect4169" width="22.362" height="44.395" transform="translate(166.572 339.782)" fill="#b74a4a"/>
    <rect id="rect4320" width="22.981" height="6.187" transform="translate(165.993 353.806)" fill="rgba(0,0,0,0.14)"/>
    <rect id="rect4169-5" width="22.362" height="44.395" stroke-width="4" fill="none" stroke="#2e2e2e" transform="translate(166.572 339.782)"/>
    <rect id="rect4169-3" width="22.362" height="44.395" transform="translate(311.611 339.782)" fill="#b74a4a"/>
    <rect id="rect4320-2" width="22.981" height="6.187" transform="translate(310.42 353.806)" fill="rgba(0,0,0,0.14)"/>
    <rect id="rect4169-3-6" width="22.362" height="44.395" stroke-width="4" fill="none" stroke="#2e2e2e" transform="translate(311.611 339.782)"/>
    <path id="rect4190-6" d="M173.937,237.005H326.609l15.267,72.519H158.67Z" fill="#b74a4a" stroke="#2e2e2e" stroke-width="4"/>
    <rect id="rect4190" width="203.926" height="53.435" transform="translate(148.31 299.891)" fill="#a79368"/>
    <rect id="rect4279" width="204.177" height="4.419" transform="translate(147.785 300.596)" fill="rgba(0,0,0,0.14)"/>
    <path id="rect4190-6-7" d="M179.457,242.526h141.63l12.077,57.365H167.38Z" fill="#cbb688"/>
    <rect id="rect4262" width="143.123" height="5.677" transform="translate(179.457 242.526)" fill="rgba(0,0,0,0.14)"/>
    <rect id="rect4244" width="21.205" height="26.603" stroke-width="2" fill="#e1e1c0" stroke="#2e2e2e" transform="translate(317.614 313.307)"/>
    <rect id="rect4244-3" width="21.205" height="26.603" transform="translate(161.726 313.307)" fill="#e1e1c0"/>
    <rect id="rect4281" width="20.064" height="2.298" transform="translate(161.839 313.147)" fill="rgba(0,0,0,0.14)"/>
    <rect id="rect4290" width="113.477" height="26.476" stroke-width="2" fill="#b74a4a" stroke="#2e2e2e" transform="translate(193.534 313.307)"/>
    <path id="path4292" d="M193.534,326.608H307.011" fill="none" stroke="#2e2e2e" stroke-width="2" fill-rule="evenodd"/>
    <path id="path4292-6" d="M193.534,326.608H307.011" fill="none" stroke="#2e2e2e" stroke-width="2" fill-rule="evenodd"/>
    <path id="path4292-6-2" d="M193.534,319.958H307.011" fill="none" stroke="#2e2e2e" stroke-width="2" fill-rule="evenodd"/>
    <path id="path4292-6-9" d="M193.534,333.259H307.011" fill="none" stroke="#2e2e2e" stroke-width="2" fill-rule="evenodd"/>
    <path id="path4292-6-27" d="M193.534,323.283H307.011" fill="none" stroke="#2e2e2e" stroke-width="2" fill-rule="evenodd"/>
    <path id="path4292-6-2-0" d="M193.534,316.632H307.011" fill="none" stroke="#2e2e2e" stroke-width="2" fill-rule="evenodd"/>
    <path id="path4292-6-9-9" d="M193.534,329.934H307.011" fill="none" stroke="#2e2e2e" stroke-width="2" fill-rule="evenodd"/>
    <path id="path4292-6-9-9-3" d="M193.534,336.585H307.011" fill="none" stroke="#2e2e2e" stroke-width="2" fill-rule="evenodd"/>
    <rect id="rect4244-6" width="11.206" height="14.278" stroke-width="2" fill="#f8f6da" stroke="#2e2e2e" transform="translate(322.614 319.47)"/>
    <path id="path4403" d="M317.614,313.307l5,6.163" fill="none" stroke="#2e2e2e" stroke-width="2" fill-rule="evenodd"/>
    <path id="path4405" d="M333.82,319.47l5-6.163" fill="none" stroke="#2e2e2e" stroke-width="2" fill-rule="evenodd"/>
    <path id="path4407" d="M338.82,339.91l-5-6.163" fill="none" stroke="#2e2e2e" stroke-width="2" fill-rule="evenodd"/>
    <path id="path4409" d="M322.614,333.747l-5,6.035" fill="none" stroke="#2e2e2e" stroke-width="2" fill-rule="evenodd"/>
    <rect id="rect4298" width="12.892" height="1.697" transform="translate(165.931 334.125)" fill="rgba(0,0,0,0.14)"/>
    <rect id="rect4244-6-0" width="11.206" height="14.278" stroke-width="2" fill="#f8f6da" stroke="#2e2e2e" transform="translate(166.725 319.47)"/>
    <path id="path4403-6" d="M161.726,313.307l5,6.163" fill="none" stroke="#2e2e2e" stroke-width="2" fill-rule="evenodd"/>
    <path id="path4405-2" d="M177.931,319.47l5-6.163" fill="none" stroke="#2e2e2e" stroke-width="2" fill-rule="evenodd"/>
    <path id="path4407-6" d="M182.931,339.91l-5-6.163" fill="none" stroke="#2e2e2e" stroke-width="2" fill-rule="evenodd"/>
    <path id="path4409-1" d="M166.725,333.747l-5,6.035" fill="none" stroke="#2e2e2e" stroke-width="2" fill-rule="evenodd"/>
    <path id="path4208" d="M180.614,242.526,194.9,277.268" fill="none" stroke="#2e2e2e" stroke-width="2" fill-rule="evenodd"/>
    <path id="path4208-3" d="M208.567,242.526l6.687,16.262" fill="none" stroke="#2e2e2e" stroke-width="2" fill-rule="evenodd"/>
    <path id="path4208-3-6" d="M194.459,242.526l6.009,14.613" fill="none" stroke="#2e2e2e" stroke-width="2" fill-rule="evenodd"/>
    <path id="rect4190-6-7-7" d="M179.457,242.526h141.63l12.077,57.365H167.38Z" fill="none" stroke="#2e2e2e" stroke-width="4"/>
    <rect id="rect4190-5" width="203.926" height="53.435" stroke-width="4" fill="none" stroke="#2e2e2e" transform="translate(148.31 299.891)"/>
    <rect id="rect4244-3-3" width="21.205" height="26.603" stroke-width="2" fill="none" stroke="#2e2e2e" transform="translate(161.726 313.307)"/>
  </g>
</svg>
