<svg xmlns="http://www.w3.org/2000/svg" width="220" height="220" viewBox="0 0 220 220">
  <g id="Group_757" data-name="Group 757" transform="translate(254 -2433)">
    <path id="Path_702" data-name="Path 702" d="M346.931,375.509c0-23.931-25.925-43.209-58.166-43.209-31.908,0-58.166,19.278-58.166,43.209,0,22.269,22.6,40.55,51.518,42.876v91.736H259.184a6.648,6.648,0,1,0,0,13.3h22.934v15.289H241.236a6.647,6.647,0,0,0,0,13.295h47.53a6.667,6.667,0,0,0,6.648-6.647V418.385C324.33,415.726,346.931,397.445,346.931,375.509Zm-58.166,29.914c-24.263,0-44.871-13.627-44.871-29.914S264.5,345.6,288.766,345.6s44.871,13.627,44.871,29.914C333.636,391.463,313.029,405.423,288.766,405.423Z" transform="translate(-432.331 2101)" fill="#fb0"/>
    <rect id="Rectangle_433" data-name="Rectangle 433" width="220" height="220" transform="translate(-254 2433)" fill="none"/>
  </g>
</svg>
