<svg xmlns="http://www.w3.org/2000/svg" width="220.2" height="220" viewBox="0 0 220.2 220">
  <g id="Group_772" data-name="Group 772" transform="translate(254.2 -2433)">
    <g id="Group_771" data-name="Group 771" transform="translate(-478 -240)">
      <path id="Path_857" data-name="Path 857" d="M391.48,417.283H202.92a15.809,15.809,0,0,1-15.82-15.82V330.72a15.809,15.809,0,0,1,15.82-15.82H391.48a15.809,15.809,0,0,1,15.82,15.82v70.742A15.809,15.809,0,0,1,391.48,417.283Z" transform="translate(36.7 2417)" fill="#323641"/>
      <g id="Group_767" data-name="Group 767" transform="translate(238.849 2749.135)">
        <rect id="Rectangle_442" data-name="Rectangle 442" width="16.078" height="14.534" transform="translate(0 0)" fill="#292b37"/>
        <rect id="Rectangle_443" data-name="Rectangle 443" width="16.078" height="14.534" transform="translate(21.737 0)" fill="#292b37"/>
        <rect id="Rectangle_444" data-name="Rectangle 444" width="16.078" height="14.534" transform="translate(43.474 0)" fill="#292b37"/>
        <rect id="Rectangle_445" data-name="Rectangle 445" width="16.078" height="14.534" transform="translate(65.211 0)" fill="#292b37"/>
        <rect id="Rectangle_446" data-name="Rectangle 446" width="16.078" height="14.534" transform="translate(86.948 0)" fill="#292b37"/>
        <rect id="Rectangle_447" data-name="Rectangle 447" width="16.078" height="14.534" transform="translate(108.685 0)" fill="#292b37"/>
        <rect id="Rectangle_448" data-name="Rectangle 448" width="16.078" height="14.534" transform="translate(130.294 0)" fill="#292b37"/>
        <rect id="Rectangle_449" data-name="Rectangle 449" width="16.078" height="14.534" transform="translate(152.031 0)" fill="#292b37"/>
        <rect id="Rectangle_450" data-name="Rectangle 450" width="16.078" height="14.534" transform="translate(173.768 0)" fill="#292b37"/>
        <rect id="Rectangle_451" data-name="Rectangle 451" width="16.078" height="14.534" transform="translate(0 23.28)" fill="#292b37"/>
        <rect id="Rectangle_452" data-name="Rectangle 452" width="16.078" height="14.534" transform="translate(21.737 23.28)" fill="#292b37"/>
        <rect id="Rectangle_453" data-name="Rectangle 453" width="16.078" height="14.534" transform="translate(43.474 23.28)" fill="#292b37"/>
        <rect id="Rectangle_454" data-name="Rectangle 454" width="16.078" height="14.534" transform="translate(65.211 23.28)" fill="#292b37"/>
        <rect id="Rectangle_455" data-name="Rectangle 455" width="16.078" height="14.534" transform="translate(86.948 23.28)" fill="#292b37"/>
        <rect id="Rectangle_456" data-name="Rectangle 456" width="16.078" height="14.534" transform="translate(108.685 23.28)" fill="#292b37"/>
        <rect id="Rectangle_457" data-name="Rectangle 457" width="16.078" height="14.534" transform="translate(130.294 23.28)" fill="#292b37"/>
        <rect id="Rectangle_458" data-name="Rectangle 458" width="16.078" height="14.534" transform="translate(152.031 23.28)" fill="#292b37"/>
        <rect id="Rectangle_459" data-name="Rectangle 459" width="16.078" height="14.534" transform="translate(173.768 23.28)" fill="#292b37"/>
        <rect id="Rectangle_460" data-name="Rectangle 460" width="16.078" height="14.534" transform="translate(0 46.561)" fill="#292b37"/>
        <rect id="Rectangle_461" data-name="Rectangle 461" width="16.078" height="14.534" transform="translate(21.737 46.561)" fill="#292b37"/>
        <rect id="Rectangle_462" data-name="Rectangle 462" width="16.078" height="14.534" transform="translate(43.474 46.561)" fill="#292b37"/>
        <rect id="Rectangle_463" data-name="Rectangle 463" width="103.026" height="14.534" transform="translate(65.211 46.561)" fill="#292b37"/>
        <rect id="Rectangle_464" data-name="Rectangle 464" width="16.078" height="14.534" transform="translate(173.768 46.561)" fill="#292b37"/>
      </g>
      <g id="Group_768" data-name="Group 768" transform="translate(238.849 2747.463)">
        <rect id="Rectangle_465" data-name="Rectangle 465" width="16.078" height="14.534" transform="translate(0)" fill="#2d3039"/>
        <rect id="Rectangle_466" data-name="Rectangle 466" width="16.078" height="14.534" transform="translate(21.737)" fill="#2d3039"/>
        <rect id="Rectangle_467" data-name="Rectangle 467" width="16.078" height="14.534" transform="translate(43.474)" fill="#2d3039"/>
        <rect id="Rectangle_468" data-name="Rectangle 468" width="16.078" height="14.534" transform="translate(65.211)" fill="#2d3039"/>
        <rect id="Rectangle_469" data-name="Rectangle 469" width="16.078" height="14.534" transform="translate(86.948)" fill="#2d3039"/>
        <rect id="Rectangle_470" data-name="Rectangle 470" width="16.078" height="14.534" transform="translate(108.685)" fill="#2d3039"/>
        <rect id="Rectangle_471" data-name="Rectangle 471" width="16.078" height="14.534" transform="translate(130.294)" fill="#2d3039"/>
        <rect id="Rectangle_472" data-name="Rectangle 472" width="16.078" height="14.534" transform="translate(152.031)" fill="#2d3039"/>
        <rect id="Rectangle_473" data-name="Rectangle 473" width="16.078" height="14.534" transform="translate(173.768)" fill="#2d3039"/>
        <rect id="Rectangle_474" data-name="Rectangle 474" width="16.078" height="14.534" transform="translate(0 23.28)" fill="#2d3039"/>
        <rect id="Rectangle_475" data-name="Rectangle 475" width="16.078" height="14.534" transform="translate(21.737 23.28)" fill="#2d3039"/>
        <rect id="Rectangle_476" data-name="Rectangle 476" width="16.078" height="14.534" transform="translate(43.474 23.28)" fill="#2d3039"/>
        <rect id="Rectangle_477" data-name="Rectangle 477" width="16.078" height="14.534" transform="translate(65.211 23.28)" fill="#2d3039"/>
        <rect id="Rectangle_478" data-name="Rectangle 478" width="16.078" height="14.534" transform="translate(86.948 23.28)" fill="#2d3039"/>
        <rect id="Rectangle_479" data-name="Rectangle 479" width="16.078" height="14.534" transform="translate(108.685 23.28)" fill="#2d3039"/>
        <rect id="Rectangle_480" data-name="Rectangle 480" width="16.078" height="14.534" transform="translate(130.294 23.28)" fill="#2d3039"/>
        <rect id="Rectangle_481" data-name="Rectangle 481" width="16.078" height="14.534" transform="translate(152.031 23.28)" fill="#2d3039"/>
        <rect id="Rectangle_482" data-name="Rectangle 482" width="16.078" height="14.534" transform="translate(173.768 23.28)" fill="#2d3039"/>
        <rect id="Rectangle_483" data-name="Rectangle 483" width="16.078" height="14.534" transform="translate(0 46.561)" fill="#2d3039"/>
        <rect id="Rectangle_484" data-name="Rectangle 484" width="16.078" height="14.534" transform="translate(21.737 46.561)" fill="#2d3039"/>
        <rect id="Rectangle_485" data-name="Rectangle 485" width="16.078" height="14.534" transform="translate(43.474 46.561)" fill="#2d3039"/>
        <rect id="Rectangle_486" data-name="Rectangle 486" width="103.026" height="14.534" transform="translate(65.211 46.561)" fill="#2d3039"/>
        <rect id="Rectangle_487" data-name="Rectangle 487" width="16.078" height="14.534" transform="translate(173.768 46.561)" fill="#2d3039"/>
      </g>
    </g>
    <rect id="Rectangle_488" data-name="Rectangle 488" width="220" height="220" transform="translate(-254 2433)" fill="none"/>
  </g>
</svg>
