<svg xmlns="http://www.w3.org/2000/svg" width="220.223" height="220" viewBox="0 0 220.223 220">
  <g id="Group_228" data-name="Group 228" transform="translate(-156.953 -1986)">
    <g id="Group_225" data-name="Group 225" transform="translate(-8.447 -231.8)">
      <path id="Path_189" data-name="Path 189" d="M302.472,392.538H87.219a2.558,2.558,0,0,1-2.519-2.519h0a2.558,2.558,0,0,1,2.519-2.519H302.4a2.558,2.558,0,0,1,2.519,2.519h0A2.5,2.5,0,0,1,302.472,392.538Z" transform="translate(80.7 2007.362)" fill="#292b37"/>
      <path id="Path_190" data-name="Path 190" d="M302.153,369.674H87.58c-2.178,0-3.336-.885-2.587-1.974l30.225-43.5H274.446l30.225,43.5C305.488,368.721,304.331,369.674,302.153,369.674Z" transform="translate(80.679 2027.571)" fill="#dae8f3"/>
      <path id="Path_191" data-name="Path 191" d="M257.551,380.341H212.009c-1.293,0-2.178-.477-2.11-1.157l1.5-9.531c.068-.545,1.089-.953,2.246-.953h42.138c1.157,0,2.178.408,2.246.953l1.5,9.531C259.8,379.864,258.844,380.341,257.551,380.341Z" transform="translate(40.732 2013.364)" fill="#3f434f"/>
      <g id="Group_143" data-name="Group 143" transform="translate(208.56 2353.881)">
        <path id="Path_192" data-name="Path 192" d="M157.358,328.934H148.1l.953-1.634h9.054Z" transform="translate(-148.1 -327.3)" fill="#fdfeff"/>
        <path id="Path_193" data-name="Path 193" d="M173.958,328.934H164.7l.749-1.634h9.122Z" transform="translate(-153.4 -327.3)" fill="#fdfeff"/>
        <path id="Path_194" data-name="Path 194" d="M190.558,328.934H181.3l.613-1.634h9.122Z" transform="translate(-158.699 -327.3)" fill="#fdfeff"/>
        <path id="Path_195" data-name="Path 195" d="M207.09,328.934H197.9l.477-1.634h9.054Z" transform="translate(-163.999 -327.3)" fill="#fdfeff"/>
        <path id="Path_196" data-name="Path 196" d="M223.69,328.934H214.5l.272-1.634h9.122Z" transform="translate(-169.298 -327.3)" fill="#fdfeff"/>
        <path id="Path_197" data-name="Path 197" d="M240.29,328.934H231.1l.136-1.634h9.122Z" transform="translate(-174.598 -327.3)" fill="#fdfeff"/>
        <path id="Path_198" data-name="Path 198" d="M256.89,328.934H247.7V327.3h9.054Z" transform="translate(-179.897 -327.3)" fill="#fdfeff"/>
        <path id="Path_199" data-name="Path 199" d="M273.394,328.934H264.2L264,327.3h9.122Z" transform="translate(-185.101 -327.3)" fill="#fdfeff"/>
        <path id="Path_200" data-name="Path 200" d="M289.931,328.934h-9.19l-.34-1.634h9.122Z" transform="translate(-190.337 -327.3)" fill="#fdfeff"/>
        <path id="Path_201" data-name="Path 201" d="M306.467,328.934h-9.19L296.8,327.3h9.054Z" transform="translate(-195.572 -327.3)" fill="#fdfeff"/>
        <path id="Path_202" data-name="Path 202" d="M322.971,328.934h-9.19L313.1,327.3h9.122Z" transform="translate(-200.776 -327.3)" fill="#fdfeff"/>
        <path id="Path_203" data-name="Path 203" d="M340.107,328.934h-9.19L330.1,327.3h9.122Z" transform="translate(-206.203 -327.3)" fill="#fdfeff"/>
      </g>
      <path id="Path_204" data-name="Path 204" d="M283.822,181.9H134.6a4.939,4.939,0,0,0-4.9,4.969v91.9H288.723v-91.9A4.9,4.9,0,0,0,283.822,181.9Z" transform="translate(66.334 2073)" fill="#292b37"/>
      <g id="Group_146" data-name="Group 146" transform="translate(194.945 2374.167)">
        <g id="Group_144" data-name="Group 144" transform="translate(0.204 0)">
          <path id="Path_205" data-name="Path 205" d="M139.5,362.07H128.4l2.859-4.97h10.688Z" transform="translate(-128.4 -357.1)" fill="#3f434f"/>
          <path id="Path_206" data-name="Path 206" d="M159.4,362.07H148.3l2.383-4.97H161.37Z" transform="translate(-134.753 -357.1)" fill="#3f434f"/>
          <path id="Path_207" data-name="Path 207" d="M179.328,362.07H168.3l1.838-4.97h10.688Z" transform="translate(-141.138 -357.1)" fill="#3f434f"/>
          <path id="Path_208" data-name="Path 208" d="M318.126,362.07h-11.1l-1.43-4.97h10.688Z" transform="translate(-184.971 -357.1)" fill="#3f434f"/>
          <path id="Path_209" data-name="Path 209" d="M298.449,362.07h-11.1l-.953-4.97h10.62Z" transform="translate(-178.841 -357.1)" fill="#3f434f"/>
          <path id="Path_210" data-name="Path 210" d="M253.484,362.07H188.2l1.361-4.97H252.6Z" transform="translate(-147.491 -357.1)" fill="#3f434f"/>
          <path id="Path_211" data-name="Path 211" d="M337.8,362.07H326.774L324.8,357.1h10.688Z" transform="translate(-191.1 -357.1)" fill="#3f434f"/>
          <path id="Path_212" data-name="Path 212" d="M358.279,362.07h-11.1L344.8,357.1h10.62Z" transform="translate(-197.485 -357.1)" fill="#3f434f"/>
        </g>
        <g id="Group_145" data-name="Group 145" transform="translate(0 0.34)">
          <path id="Path_213" data-name="Path 213" d="M139.2,362.638H128.1l2.859-5.038h10.688Z" transform="translate(-128.1 -357.6)" fill="#3f434f"/>
          <path id="Path_214" data-name="Path 214" d="M159.2,362.638H148.1l2.315-5.038H161.17Z" transform="translate(-134.485 -357.6)" fill="#3f434f"/>
          <path id="Path_215" data-name="Path 215" d="M179.1,362.638H168l1.906-5.038h10.688Z" transform="translate(-140.838 -357.6)" fill="#3f434f"/>
          <path id="Path_216" data-name="Path 216" d="M318.294,362.638H307.2l-1.5-5.038h10.756Z" transform="translate(-184.799 -357.6)" fill="#3f434f"/>
          <path id="Path_217" data-name="Path 217" d="M298.549,362.638h-11.1L286.5,357.6h10.688Z" transform="translate(-178.669 -357.6)" fill="#3f434f"/>
          <path id="Path_218" data-name="Path 218" d="M253.556,362.638H188l1.43-5.038H252.6Z" transform="translate(-147.223 -357.6)" fill="#3f434f"/>
          <path id="Path_219" data-name="Path 219" d="M338.07,362.638h-11.1L325,357.6h10.688Z" transform="translate(-190.96 -357.6)" fill="#3f434f"/>
          <path id="Path_220" data-name="Path 220" d="M358.547,362.638h-11.1L345,357.6h10.688Z" transform="translate(-197.345 -357.6)" fill="#3f434f"/>
        </g>
      </g>
      <g id="Group_165" data-name="Group 165" transform="translate(198.757 2368.041)">
        <g id="Group_155" data-name="Group 155" transform="translate(0.204 0)">
          <g id="Group_147" data-name="Group 147">
            <path id="Path_221" data-name="Path 221" d="M170.352,352.661H134l2.587-4.561h35.127Z" transform="translate(-134 -348.1)" fill="#3f434f"/>
          </g>
          <g id="Group_148" data-name="Group 148" transform="translate(38.735)">
            <path id="Path_222" data-name="Path 222" d="M201.452,352.661H190.9l1.293-4.561h10.143Z" transform="translate(-190.9 -348.1)" fill="#3f434f"/>
          </g>
          <g id="Group_149" data-name="Group 149" transform="translate(51.669)">
            <path id="Path_223" data-name="Path 223" d="M220.452,352.661H209.9l.817-4.561h10.211Z" transform="translate(-209.9 -348.1)" fill="#3f434f"/>
          </g>
          <g id="Group_150" data-name="Group 150" transform="translate(64.603)">
            <path id="Path_224" data-name="Path 224" d="M239.452,352.661H228.9l.408-4.561H239.52Z" transform="translate(-228.9 -348.1)" fill="#3f434f"/>
          </g>
          <g id="Group_151" data-name="Group 151" transform="translate(77.538)">
            <path id="Path_225" data-name="Path 225" d="M258.452,352.661H247.9V348.1h10.143Z" transform="translate(-247.9 -348.1)" fill="#3f434f"/>
          </g>
          <g id="Group_152" data-name="Group 152" transform="translate(89.995)">
            <path id="Path_226" data-name="Path 226" d="M277.228,352.661H266.677L266.2,348.1h10.211Z" transform="translate(-266.2 -348.1)" fill="#3f434f"/>
          </g>
          <g id="Group_153" data-name="Group 153" transform="translate(102.521)">
            <path id="Path_227" data-name="Path 227" d="M296.037,352.661H285.485L284.6,348.1h10.211Z" transform="translate(-284.6 -348.1)" fill="#3f434f"/>
          </g>
          <g id="Group_154" data-name="Group 154" transform="translate(114.979)">
            <path id="Path_228" data-name="Path 228" d="M341.158,352.661h-36.9L302.9,348.1h35.671Z" transform="translate(-302.9 -348.1)" fill="#3f434f"/>
          </g>
        </g>
        <g id="Group_164" data-name="Group 164" transform="translate(0 0.34)">
          <g id="Group_156" data-name="Group 156">
            <path id="Path_229" data-name="Path 229" d="M170.12,353.161H133.7l2.587-4.561h35.195Z" transform="translate(-133.7 -348.6)" fill="#3f434f"/>
          </g>
          <g id="Group_157" data-name="Group 157" transform="translate(38.803)">
            <path id="Path_230" data-name="Path 230" d="M201.252,353.161H190.7l1.293-4.561H202.2Z" transform="translate(-190.7 -348.6)" fill="#3f434f"/>
          </g>
          <g id="Group_158" data-name="Group 158" transform="translate(51.737)">
            <path id="Path_231" data-name="Path 231" d="M220.32,353.161H209.7l.885-4.561H220.8Z" transform="translate(-209.7 -348.6)" fill="#3f434f"/>
          </g>
          <g id="Group_159" data-name="Group 159" transform="translate(64.739)">
            <path id="Path_232" data-name="Path 232" d="M239.42,353.161H228.8l.408-4.561H239.42Z" transform="translate(-228.8 -348.6)" fill="#3f434f"/>
          </g>
          <g id="Group_160" data-name="Group 160" transform="translate(77.674)">
            <path id="Path_233" data-name="Path 233" d="M258.42,353.161H247.868L247.8,348.6h10.211Z" transform="translate(-247.8 -348.6)" fill="#3f434f"/>
          </g>
          <g id="Group_161" data-name="Group 161" transform="translate(90.2)">
            <path id="Path_234" data-name="Path 234" d="M277.3,353.161h-10.62L266.2,348.6h10.211Z" transform="translate(-266.2 -348.6)" fill="#3f434f"/>
          </g>
          <g id="Group_162" data-name="Group 162" transform="translate(102.725)">
            <path id="Path_235" data-name="Path 235" d="M296.1,353.161H285.553L284.6,348.6h10.279Z" transform="translate(-284.6 -348.6)" fill="#3f434f"/>
          </g>
          <g id="Group_163" data-name="Group 163" transform="translate(115.319)">
            <path id="Path_236" data-name="Path 236" d="M341.358,353.161H304.393L303.1,348.6h35.671Z" transform="translate(-303.1 -348.6)" fill="#3f434f"/>
          </g>
        </g>
      </g>
      <g id="Group_192" data-name="Group 192" transform="translate(205.156 2357.353)">
        <g id="Group_178" data-name="Group 178" transform="translate(0.204 0)">
          <g id="Group_166" data-name="Group 166">
            <path id="Path_237" data-name="Path 237" d="M153.067,336.212H143.4l2.178-3.812H154.9Z" transform="translate(-143.4 -332.4)" fill="#3f434f"/>
          </g>
          <g id="Group_167" data-name="Group 167" transform="translate(11.845)">
            <path id="Path_238" data-name="Path 238" d="M170.467,336.212H160.8l1.77-3.812h9.394Z" transform="translate(-160.8 -332.4)" fill="#3f434f"/>
          </g>
          <g id="Group_168" data-name="Group 168" transform="translate(23.69)">
            <path id="Path_239" data-name="Path 239" d="M187.867,336.212H178.2l1.43-3.812h9.394Z" transform="translate(-178.2 -332.4)" fill="#3f434f"/>
          </g>
          <g id="Group_169" data-name="Group 169" transform="translate(35.535)">
            <path id="Path_240" data-name="Path 240" d="M205.267,336.212H195.6l1.089-3.812h9.326Z" transform="translate(-195.6 -332.4)" fill="#3f434f"/>
          </g>
          <g id="Group_170" data-name="Group 170" transform="translate(47.38)">
            <path id="Path_241" data-name="Path 241" d="M222.667,336.212H213l.681-3.812h9.394Z" transform="translate(-213 -332.4)" fill="#3f434f"/>
          </g>
          <g id="Group_171" data-name="Group 171" transform="translate(59.225)">
            <path id="Path_242" data-name="Path 242" d="M240.067,336.212H230.4l.34-3.812h9.326Z" transform="translate(-230.4 -332.4)" fill="#3f434f"/>
          </g>
          <g id="Group_172" data-name="Group 172" transform="translate(71.002)">
            <path id="Path_243" data-name="Path 243" d="M257.435,336.212h-9.667L247.7,332.4h9.394Z" transform="translate(-247.7 -332.4)" fill="#3f434f"/>
          </g>
          <g id="Group_173" data-name="Group 173" transform="translate(82.507)">
            <path id="Path_244" data-name="Path 244" d="M274.675,336.212h-9.667L264.6,332.4h9.394Z" transform="translate(-264.6 -332.4)" fill="#3f434f"/>
          </g>
          <g id="Group_174" data-name="Group 174" transform="translate(94.012)">
            <path id="Path_245" data-name="Path 245" d="M291.915,336.212h-9.667L281.5,332.4h9.326Z" transform="translate(-281.5 -332.4)" fill="#3f434f"/>
          </g>
          <g id="Group_175" data-name="Group 175" transform="translate(105.448)">
            <path id="Path_246" data-name="Path 246" d="M309.124,336.212h-9.667L298.3,332.4h9.394Z" transform="translate(-298.3 -332.4)" fill="#3f434f"/>
          </g>
          <g id="Group_176" data-name="Group 176" transform="translate(116.953)">
            <path id="Path_247" data-name="Path 247" d="M326.364,336.212H316.7l-1.5-3.812h9.326Z" transform="translate(-315.2 -332.4)" fill="#3f434f"/>
          </g>
          <g id="Group_177" data-name="Group 177" transform="translate(128.866)">
            <path id="Path_248" data-name="Path 248" d="M344.2,336.212h-9.667L332.7,332.4h9.326Z" transform="translate(-332.7 -332.4)" fill="#3f434f"/>
          </g>
        </g>
        <g id="Group_191" data-name="Group 191" transform="translate(0 0.272)">
          <g id="Group_179" data-name="Group 179">
            <path id="Path_249" data-name="Path 249" d="M152.835,336.612H143.1l2.178-3.812h9.394Z" transform="translate(-143.1 -332.8)" fill="#3f434f"/>
          </g>
          <g id="Group_180" data-name="Group 180" transform="translate(11.913)">
            <path id="Path_250" data-name="Path 250" d="M170.267,336.612H160.6l1.77-3.812h9.394Z" transform="translate(-160.6 -332.8)" fill="#3f434f"/>
          </g>
          <g id="Group_181" data-name="Group 181" transform="translate(23.758)">
            <path id="Path_251" data-name="Path 251" d="M187.735,336.612H178l1.43-3.812h9.394Z" transform="translate(-178 -332.8)" fill="#3f434f"/>
          </g>
          <g id="Group_182" data-name="Group 182" transform="translate(35.671)">
            <path id="Path_252" data-name="Path 252" d="M205.167,336.612H195.5l1.021-3.812h9.394Z" transform="translate(-195.5 -332.8)" fill="#3f434f"/>
          </g>
          <g id="Group_183" data-name="Group 183" transform="translate(47.516)">
            <path id="Path_253" data-name="Path 253" d="M222.567,336.612H212.9l.681-3.812h9.394Z" transform="translate(-212.9 -332.8)" fill="#3f434f"/>
          </g>
          <g id="Group_184" data-name="Group 184" transform="translate(59.361)">
            <path id="Path_254" data-name="Path 254" d="M240.035,336.612H230.3l.34-3.812h9.394Z" transform="translate(-230.3 -332.8)" fill="#3f434f"/>
          </g>
          <g id="Group_185" data-name="Group 185" transform="translate(71.207)">
            <path id="Path_255" data-name="Path 255" d="M257.435,336.612h-9.667L247.7,332.8h9.394Z" transform="translate(-247.7 -332.8)" fill="#3f434f"/>
          </g>
          <g id="Group_186" data-name="Group 186" transform="translate(82.711)">
            <path id="Path_256" data-name="Path 256" d="M274.743,336.612h-9.735L264.6,332.8h9.394Z" transform="translate(-264.6 -332.8)" fill="#3f434f"/>
          </g>
          <g id="Group_187" data-name="Group 187" transform="translate(94.216)">
            <path id="Path_257" data-name="Path 257" d="M291.984,336.612h-9.667L281.5,332.8h9.394Z" transform="translate(-281.5 -332.8)" fill="#3f434f"/>
          </g>
          <g id="Group_188" data-name="Group 188" transform="translate(105.721)">
            <path id="Path_258" data-name="Path 258" d="M309.224,336.612h-9.667L298.4,332.8h9.394Z" transform="translate(-298.4 -332.8)" fill="#3f434f"/>
          </g>
          <g id="Group_189" data-name="Group 189" transform="translate(117.225)">
            <path id="Path_259" data-name="Path 259" d="M326.532,336.612H316.8l-1.5-3.812h9.394Z" transform="translate(-315.3 -332.8)" fill="#3f434f"/>
          </g>
          <g id="Group_190" data-name="Group 190" transform="translate(129.207)">
            <path id="Path_260" data-name="Path 260" d="M344.473,336.612h-9.735L332.9,332.8h9.394Z" transform="translate(-332.9 -332.8)" fill="#3f434f"/>
          </g>
        </g>
      </g>
      <g id="Group_215" data-name="Group 215" transform="translate(202.092 2362.459)">
        <g id="Group_203" data-name="Group 203" transform="translate(0.136 0)">
          <g id="Group_193" data-name="Group 193">
            <path id="Path_261" data-name="Path 261" d="M160.72,344.053H138.8l2.383-4.153h21.171Z" transform="translate(-138.8 -339.9)" fill="#3f434f"/>
          </g>
          <g id="Group_194" data-name="Group 194" transform="translate(24.779)">
            <path id="Path_262" data-name="Path 262" d="M185.275,344.053H175.2l1.566-4.153H186.5Z" transform="translate(-175.2 -339.9)" fill="#3f434f"/>
          </g>
          <g id="Group_195" data-name="Group 195" transform="translate(37.101)">
            <path id="Path_263" data-name="Path 263" d="M203.443,344.053H193.3l1.225-4.153h9.735Z" transform="translate(-193.3 -339.9)" fill="#3f434f"/>
          </g>
          <g id="Group_196" data-name="Group 196" transform="translate(49.491)">
            <path id="Path_264" data-name="Path 264" d="M221.575,344.053H211.5l.749-4.153h9.8Z" transform="translate(-211.5 -339.9)" fill="#3f434f"/>
          </g>
          <g id="Group_197" data-name="Group 197" transform="translate(61.88)">
            <path id="Path_265" data-name="Path 265" d="M239.775,344.053H229.7l.34-4.153h9.8Z" transform="translate(-229.7 -339.9)" fill="#3f434f"/>
          </g>
          <g id="Group_198" data-name="Group 198" transform="translate(74.202)">
            <path id="Path_266" data-name="Path 266" d="M257.943,344.053H247.8V339.9h9.735Z" transform="translate(-247.8 -339.9)" fill="#3f434f"/>
          </g>
          <g id="Group_199" data-name="Group 199" transform="translate(86.183)">
            <path id="Path_267" data-name="Path 267" d="M275.884,344.053H265.808L265.4,339.9h9.735Z" transform="translate(-265.4 -339.9)" fill="#3f434f"/>
          </g>
          <g id="Group_200" data-name="Group 200" transform="translate(98.164)">
            <path id="Path_268" data-name="Path 268" d="M293.892,344.053H283.817L283,339.9h9.735Z" transform="translate(-283 -339.9)" fill="#3f434f"/>
          </g>
          <g id="Group_201" data-name="Group 201" transform="translate(110.077)">
            <path id="Path_269" data-name="Path 269" d="M311.869,344.053H301.725L300.5,339.9h9.8Z" transform="translate(-300.5 -339.9)" fill="#3f434f"/>
          </g>
          <g id="Group_202" data-name="Group 202" transform="translate(122.059)">
            <path id="Path_270" data-name="Path 270" d="M342.675,344.053H319.734L318.1,339.9h22.193Z" transform="translate(-318.1 -339.9)" fill="#3f434f"/>
          </g>
        </g>
        <g id="Group_214" data-name="Group 214" transform="translate(0 0.34)">
          <g id="Group_204" data-name="Group 204">
            <path id="Path_271" data-name="Path 271" d="M160.52,344.553H138.6l2.383-4.153h21.171Z" transform="translate(-138.6 -340.4)" fill="#3f434f"/>
          </g>
          <g id="Group_205" data-name="Group 205" transform="translate(24.779)">
            <path id="Path_272" data-name="Path 272" d="M185.075,344.553H175l1.566-4.153h9.8Z" transform="translate(-175 -340.4)" fill="#3f434f"/>
          </g>
          <g id="Group_206" data-name="Group 206" transform="translate(37.169)">
            <path id="Path_273" data-name="Path 273" d="M203.343,344.553H193.2l1.157-4.153h9.8Z" transform="translate(-193.2 -340.4)" fill="#3f434f"/>
          </g>
          <g id="Group_207" data-name="Group 207" transform="translate(49.559)">
            <path id="Path_274" data-name="Path 274" d="M221.543,344.553H211.4l.749-4.153h9.8Z" transform="translate(-211.4 -340.4)" fill="#3f434f"/>
          </g>
          <g id="Group_208" data-name="Group 208" transform="translate(61.948)">
            <path id="Path_275" data-name="Path 275" d="M239.743,344.553H229.6l.408-4.153h9.8Z" transform="translate(-229.6 -340.4)" fill="#3f434f"/>
          </g>
          <g id="Group_209" data-name="Group 209" transform="translate(74.338)">
            <path id="Path_276" data-name="Path 276" d="M257.943,344.553H247.8V340.4h9.8Z" transform="translate(-247.8 -340.4)" fill="#3f434f"/>
          </g>
          <g id="Group_210" data-name="Group 210" transform="translate(86.319)">
            <path id="Path_277" data-name="Path 277" d="M275.952,344.553H265.877L265.4,340.4h9.8Z" transform="translate(-265.4 -340.4)" fill="#3f434f"/>
          </g>
          <g id="Group_211" data-name="Group 211" transform="translate(98.3)">
            <path id="Path_278" data-name="Path 278" d="M293.96,344.553H283.885L283,340.4h9.8Z" transform="translate(-283 -340.4)" fill="#3f434f"/>
          </g>
          <g id="Group_212" data-name="Group 212" transform="translate(110.35)">
            <path id="Path_279" data-name="Path 279" d="M312,344.553H301.925L300.7,340.4h9.735Z" transform="translate(-300.7 -340.4)" fill="#3f434f"/>
          </g>
          <g id="Group_213" data-name="Group 213" transform="translate(122.331)">
            <path id="Path_280" data-name="Path 280" d="M342.875,344.553H319.934L318.3,340.4h22.261Z" transform="translate(-318.3 -340.4)" fill="#3f434f"/>
          </g>
        </g>
      </g>
      <g id="Group_216" data-name="Group 216" transform="translate(208.423 2354.085)">
        <path id="Path_281" data-name="Path 281" d="M157.158,329.3H147.9l.953-1.7h9.122Z" transform="translate(-147.9 -327.6)" fill="#3f434f"/>
        <path id="Path_282" data-name="Path 282" d="M173.758,329.3H164.5l.817-1.7h9.122Z" transform="translate(-153.2 -327.6)" fill="#3f434f"/>
        <path id="Path_283" data-name="Path 283" d="M190.458,329.3H181.2l.613-1.7h9.122Z" transform="translate(-158.531 -327.6)" fill="#3f434f"/>
        <path id="Path_284" data-name="Path 284" d="M207.058,329.3H197.8l.477-1.7H207.4Z" transform="translate(-163.831 -327.6)" fill="#3f434f"/>
        <path id="Path_285" data-name="Path 285" d="M223.69,329.3H214.5l.272-1.7h9.122Z" transform="translate(-169.162 -327.6)" fill="#3f434f"/>
        <path id="Path_286" data-name="Path 286" d="M240.358,329.3H231.1l.136-1.7h9.122Z" transform="translate(-174.462 -327.6)" fill="#3f434f"/>
        <path id="Path_287" data-name="Path 287" d="M256.958,329.3H247.7v-1.7h9.122Z" transform="translate(-179.761 -327.6)" fill="#3f434f"/>
        <path id="Path_288" data-name="Path 288" d="M273.494,329.3H264.3l-.2-1.7h9.122Z" transform="translate(-184.997 -327.6)" fill="#3f434f"/>
        <path id="Path_289" data-name="Path 289" d="M290.1,329.3H280.84l-.34-1.7h9.122Z" transform="translate(-190.232 -327.6)" fill="#3f434f"/>
        <path id="Path_290" data-name="Path 290" d="M306.635,329.3h-9.258l-.477-1.7h9.122Z" transform="translate(-195.468 -327.6)" fill="#3f434f"/>
        <path id="Path_291" data-name="Path 291" d="M323.171,329.3h-9.19l-.681-1.7h9.122Z" transform="translate(-200.704 -327.6)" fill="#3f434f"/>
        <path id="Path_292" data-name="Path 292" d="M340.375,329.3h-9.258l-.817-1.7h9.122Z" transform="translate(-206.131 -327.6)" fill="#3f434f"/>
      </g>
      <g id="Group_217" data-name="Group 217" transform="translate(204.884 2349.388)">
        <rect id="Rectangle_76" data-name="Rectangle 76" width="15.793" height="2.859" transform="translate(125.462 0)" fill="#fdfeff"/>
        <rect id="Rectangle_77" data-name="Rectangle 77" width="15.793" height="2.859" transform="translate(0 0)" fill="#fdfeff"/>
      </g>
    </g>
    <rect id="Rectangle_84" data-name="Rectangle 84" width="220" height="220" transform="translate(157 1986)" fill="none"/>
  </g>
</svg>
