<svg xmlns="http://www.w3.org/2000/svg" width="246.3" height="246" viewBox="0 0 246.3 246">
  <g id="Group_137" data-name="Group 137" transform="translate(-157 -1960)">
    <g id="Group_125" data-name="Group 125" transform="translate(27 1812.873)">
      <path id="Path_111" data-name="Path 111" d="M360.073,335.188H149.9V199.394a6.666,6.666,0,0,1,6.694-6.694H355.61a4.49,4.49,0,0,1,4.463,4.463Z" transform="translate(1.245)" fill="#1e2438"/>
      <path id="Path_112" data-name="Path 112" d="M157.5,324.513V202.425a2.131,2.131,0,0,1,2.125-2.125H349.4a2.131,2.131,0,0,1,2.125,2.125V324.513Z" transform="translate(1.72 0.475)" fill="#fff"/>
      <path id="Path_113" data-name="Path 113" d="M376.3,326.6H130v6.907H376.3Z" transform="translate(0 8.376)" fill="#fff"/>
      <path id="Path_114" data-name="Path 114" d="M130,333.1v.106s2.231,5.738,6.375,5.738h214c23.27,0,24.757-2.656,25.926-5.738V333.1Z" transform="translate(0 8.783)" fill="#1e2438"/>
      <path id="Path_115" data-name="Path 115" d="M232.3,331.288a.726.726,0,0,0,.744.744h27.308a.726.726,0,0,0,.744-.744v-.744a.726.726,0,0,0-.744-.744H233.044a.726.726,0,0,0-.744.744Z" transform="translate(6.399 8.576)" fill="#1e2438"/>
      <g id="Group_122" data-name="Group 122" transform="translate(330.185 217.351)">
        <path id="Path_116" data-name="Path 116" d="M318.9,216.4h0Z" transform="translate(-318.369 -215.869)" fill="#fff"/>
        <path id="Path_117" data-name="Path 117" d="M318.4,215.9h0Zm6.375,1.169h0Z" transform="translate(-318.4 -215.9)" fill="#fff"/>
      </g>
      <rect id="Rectangle_50" data-name="Rectangle 50" width="182.441" height="114.118" transform="translate(164.533 204.282)" fill="#fff"/>
      <path id="Path_118" data-name="Path 118" d="M344.559,209.238c0-1.7-1.806-4.038-3.613-4.038H166.263c-1.806,0-2.763,2.338-2.763,4.038v7.757H344.559Z" transform="translate(2.096 0.782)" fill="#e8eeef"/>
      <g id="Group_123" data-name="Group 123" transform="translate(175.796 208.638)">
        <path id="Path_119" data-name="Path 119" d="M179.263,210.781a3.081,3.081,0,1,0-3.081,3.081A3.151,3.151,0,0,0,179.263,210.781Z" transform="translate(-173.1 -207.7)" fill="#de3f18"/>
        <path id="Path_120" data-name="Path 120" d="M188.663,210.781a3.081,3.081,0,1,0-3.081,3.081A3.154,3.154,0,0,0,188.663,210.781Z" transform="translate(-172.512 -207.7)" fill="#fd0"/>
        <path id="Path_121" data-name="Path 121" d="M197.263,210.781a3.081,3.081,0,1,0-3.081,3.081A3.23,3.23,0,0,0,197.263,210.781Z" transform="translate(-171.974 -207.7)" fill="#a1b400"/>
      </g>
      <g id="Group_124" data-name="Group 124" transform="translate(227.423 228.402)">
        <path id="Path_122" data-name="Path 122" d="M222.763,249.113H328.168a1.19,1.19,0,0,0,1.063-1.275v-2.763a1.2,1.2,0,0,0-1.063-1.275H222.763a1.19,1.19,0,0,0-1.063,1.275v2.763C221.7,248.581,222.125,249.113,222.763,249.113Z" transform="translate(-221.686 -225.205)" fill="#ef610e"/>
        <path id="Path_123" data-name="Path 123" d="M243.263,259.45h64.072a1.19,1.19,0,0,0,1.063-1.275h0a1.2,1.2,0,0,0-1.063-1.275H243.263a1.19,1.19,0,0,0-1.063,1.275h0C242.2,258.919,242.625,259.45,243.263,259.45Z" transform="translate(-220.404 -224.386)" fill="#2ed154"/>
        <path id="Path_124" data-name="Path 124" d="M243.263,291.75h64.072a1.19,1.19,0,0,0,1.063-1.275h0a1.2,1.2,0,0,0-1.063-1.275H243.263a1.19,1.19,0,0,0-1.063,1.275h0A1.19,1.19,0,0,0,243.263,291.75Z" transform="translate(-220.404 -222.365)" fill="#2ed154"/>
        <path id="Path_125" data-name="Path 125" d="M230.863,304.313h51.428a1.19,1.19,0,0,0,1.063-1.275v-2.763A1.2,1.2,0,0,0,282.291,299H230.863a1.19,1.19,0,0,0-1.063,1.275v2.763A1.121,1.121,0,0,0,230.863,304.313Z" transform="translate(-221.181 -221.752)" fill="#f3803e"/>
        <path id="Path_126" data-name="Path 126" d="M222.763,228.85h35.489a1.19,1.19,0,0,0,1.063-1.275h0a1.2,1.2,0,0,0-1.063-1.275H222.763a1.19,1.19,0,0,0-1.063,1.275h0A1.121,1.121,0,0,0,222.763,228.85Z" transform="translate(-221.687 -226.3)" fill="#2290bf"/>
        <path id="Path_127" data-name="Path 127" d="M226.663,284.413h40.058a1.19,1.19,0,0,0,1.063-1.275v-2.763a1.2,1.2,0,0,0-1.063-1.275H226.663a1.19,1.19,0,0,0-1.063,1.275v2.763A1.274,1.274,0,0,0,226.663,284.413Z" transform="translate(-221.442 -222.997)" fill="#2290bf"/>
        <path id="Path_128" data-name="Path 128" d="M262.263,228.85h32.2a1.19,1.19,0,0,0,1.063-1.275h0a1.2,1.2,0,0,0-1.063-1.275h-32.2a1.19,1.19,0,0,0-1.063,1.275h0A1.121,1.121,0,0,0,262.263,228.85Z" transform="translate(-219.216 -226.3)" fill="#fea511"/>
        <path id="Path_129" data-name="Path 129" d="M268.563,281.75h20.295a1.19,1.19,0,0,0,1.063-1.275h0a1.2,1.2,0,0,0-1.063-1.275H268.563a1.19,1.19,0,0,0-1.063,1.275h0A1.274,1.274,0,0,0,268.563,281.75Z" transform="translate(-218.821 -222.991)" fill="#fff"/>
      </g>
    </g>
    <rect id="Rectangle_65" data-name="Rectangle 65" width="246" height="246" transform="translate(157 1960)" fill="none"/>
  </g>
</svg>
