<svg xmlns="http://www.w3.org/2000/svg" width="220" height="220" viewBox="0 0 220 220">
  <g id="Group_336" data-name="Group 336" transform="translate(752 -2171)">
    <g id="Group_333" data-name="Group 333" transform="translate(808.636 119)">
      <g id="Group_332" data-name="Group 332" transform="translate(-1522.788 2052.162)">
        <path id="Path_524" data-name="Path 524" d="M278.278,313.672H252.926a7.058,7.058,0,0,1-5.85-2.6C240.9,304.571,237,297.1,236.35,287.995c-.65-7.15-3.9-13.651-8.126-19.5-2.925-4.225-6.175-8.125-9.426-12.026-11.376-13.651-14.3-29.252-13-46.153,2.6-30.877,26.327-57.529,59.479-63.054,39.653-6.825,77.03,18.851,83.855,57.2,3.575,19.826.325,38.352-13.326,53.953-2.6,2.925-4.875,5.85-7.15,8.776a46.343,46.343,0,0,0-9.426,24.7c-.65,8.451-5.525,14.951-11.376,20.476-.975.975-2.925,1.3-4.225,1.3Z" transform="translate(-205.512 -146.162)" fill="#fbbe32"/>
        <path id="Path_527" data-name="Path 527" d="M286.78,254.979H224.051a8.6,8.6,0,0,1-8.451-8.451V203.951a8.6,8.6,0,0,1,8.451-8.451H286.78a8.6,8.6,0,0,1,8.451,8.451v42.578A8.6,8.6,0,0,1,286.78,254.979Z" transform="translate(-182.812 -35.141)" fill="#292b37"/>
        <g id="Group_331" data-name="Group 331" transform="translate(26.288 160.034)">
          <path id="Path_528" data-name="Path 528" d="M300.056,208.076H219.45a5.826,5.826,0,0,1-5.85-5.85v-.975a5.826,5.826,0,0,1,5.85-5.85h80.605a5.826,5.826,0,0,1,5.85,5.85v.975A5.826,5.826,0,0,1,300.056,208.076Z" transform="translate(-213.6 -195.4)" fill="#5b6d83"/>
          <path id="Path_529" data-name="Path 529" d="M300.056,212.876H219.45a5.826,5.826,0,0,1-5.85-5.85v-.975a5.826,5.826,0,0,1,5.85-5.85h80.605a5.826,5.826,0,0,1,5.85,5.85v.975A5.826,5.826,0,0,1,300.056,212.876Z" transform="translate(-213.6 -184.599)" fill="#5b6d83"/>
          <path id="Path_530" data-name="Path 530" d="M300.056,217.676H219.45a5.826,5.826,0,0,1-5.85-5.85v-.975a5.826,5.826,0,0,1,5.85-5.85h80.605a5.826,5.826,0,0,1,5.85,5.85v.975A6.043,6.043,0,0,1,300.056,217.676Z" transform="translate(-213.6 -173.798)" fill="#5b6d83"/>
        </g>
      </g>
      <path id="Path_531" data-name="Path 531" d="M275.75,165.958c-18.526-17.226-43.878-16.251-44.853-16.251a5.21,5.21,0,1,0,.65,10.4c.325,0,21.776-.975,37.052,13.326,10.076,9.426,15.276,23.727,15.6,42.253a5.557,5.557,0,0,0,4.225,5.2h.975a5.134,5.134,0,0,0,5.2-5.2C294.276,194.235,287.775,177.334,275.75,165.958Z" transform="translate(-1682.219 1913.955)" fill="#fed96f"/>
    </g>
    <rect id="Rectangle_286" data-name="Rectangle 286" width="220" height="220" transform="translate(-752 2171)" fill="none"/>
  </g>
</svg>
