<svg xmlns="http://www.w3.org/2000/svg" width="220" height="220" viewBox="0 0 220 220">
  <g id="Group_231" data-name="Group 231" transform="translate(752 -2171)">
    <g id="Group_230" data-name="Group 230" transform="translate(-548.639 88.748)">
      <path id="Path_315" data-name="Path 315" d="M106.234,267.108c1.695.848,2.542,1.695,4.237,1.695a2.951,2.951,0,0,1,.847,4.237,17.322,17.322,0,0,0-4.237,7.627c-.847,5.932.847,10.169,5.085,13.559a13.658,13.658,0,0,0,5.932,3.39c2.542.847,2.542,3.39.847,5.085-4.237,3.39-5.085,8.474-3.39,13.559a19.789,19.789,0,0,0,8.474,10.169c.847,0,.847.847,1.695.847,1.695.848,1.695.848,2.542,2.542a3.113,3.113,0,0,1-.847,2.542c-2.542,1.695-3.39,4.237-4.237,6.78a18.66,18.66,0,0,0,.847,6.78c1.695,3.39,3.39,5.932,5.932,7.627.847.847,4.237,2.542,6.78,3.39a19.944,19.944,0,0,0,6.779,1.695c60.168,11.864,101.692-3.39,106.776-5.932.847,0,5.085-2.542,5.932-2.542,0,0,1.695,0,1.695-.847V261.176c-2.542-1.695-4.237-3.39-6.779-5.085l-.847-.847h0c-11.864-15.254-19.491-30.508-27.965-47.456-5.932-11.017-7.627-35.592-7.627-44.066,0-3.39-2.542-9.322-10.169-9.322-1.695,0-5.932,0-7.627.847-2.542.848-5.085,4.237-7.627,9.322-3.39,5.932-5.085,12.711-6.779,19.491a24.744,24.744,0,0,0-1.695,7.627v5.932a18.659,18.659,0,0,0,.847,6.779,65.418,65.418,0,0,0,1.695,12.711c.847,4.237,1.695,9.322,2.542,13.559h0v.848c1.695,5.932-4.237,9.322-7.627,11.017-.847,0-5.085.847-5.932.847h-62.71c-4.237,0-9.322,2.542-10.169,8.474C97.76,256.939,100.3,263.719,106.234,267.108Z" transform="translate(-302.3 1931)" fill="#f06443"/>
      <path id="Path_316" data-name="Path 316" d="M152.445,285.835H143.97a26.4,26.4,0,0,1-26.27-26.27V191.77a26.4,26.4,0,0,1,26.27-26.27h8.474a26.4,26.4,0,0,1,26.27,26.27v67.794A26.4,26.4,0,0,1,152.445,285.835Z" transform="translate(-162.076 2013.965)" fill="#f06443"/>
    </g>
    <rect id="Rectangle_86" data-name="Rectangle 86" width="220" height="220" transform="translate(-752 2171)" fill="none"/>
  </g>
</svg>
