<svg xmlns="http://www.w3.org/2000/svg" width="115" height="116.608" viewBox="0 0 115 116.608">
  <g id="Group_76" data-name="Group 76" transform="translate(-415 -599.392)">
    <g id="Group_75" data-name="Group 75" transform="translate(-92 -379.608)">
      <path id="Path_77" data-name="Path 77" d="M312.593,258.189c3.881,1.838,14.911,7.966,24.716,22.265a1.009,1.009,0,0,0,1.43.2l10.009-9.192a1.08,1.08,0,0,0-.2-1.634,54.16,54.16,0,0,1-22.469-23.082.863.863,0,0,0-1.43-.2l-12.256,10.213A.793.793,0,0,0,312.593,258.189Z" transform="translate(230.824 812.936)" fill="#122a3b"/>
      <path id="Path_78" data-name="Path 78" d="M323.8,217.819a37.778,37.778,0,0,1-8.375,28.189,78.629,78.629,0,0,1-6.128,6.741l14.094,14.094,13.89,13.89c1.43-1.43,3.881-3.677,6.741-6.128a39.2,39.2,0,0,1,28.189-8.375c1.838.2,3.473.613,5.719.817l-27.576-27.576L322.986,212.1A55.056,55.056,0,0,1,323.8,217.819Z" transform="translate(227.989 777.318)" fill="#f4f8fb"/>
      <path id="Path_79" data-name="Path 79" d="M343.368,225.6l27.576,27.576c-2.043-.2-3.881-.613-5.719-.817a38.036,38.036,0,0,0-28.189,8.375,78.638,78.638,0,0,0-6.741,6.128L316.2,252.768Z" transform="translate(235.184 791.394)" fill="#9fd9ec"/>
      <rect id="Rectangle_50" data-name="Rectangle 50" width="5.107" height="78.03" transform="translate(551.031 989.313) rotate(-45)" fill="#ec610e"/>
      <rect id="Rectangle_51" data-name="Rectangle 51" width="5.107" height="39.015" transform="translate(578.536 1016.978) rotate(-45)" fill="#d84e09"/>
      <path id="Path_80" data-name="Path 80" d="M346.187,259.989l-10.826,10.826a19.973,19.973,0,0,1-28.189,0h0a19.973,19.973,0,0,1,0-28.189L318,231.8Z" transform="translate(219.7 797.858)" fill="#274c66"/>
      <path id="Path_81" data-name="Path 81" d="M329.121,238.7l14.094,14.094-10.826,10.826a20.161,20.161,0,0,1-28.189,0Z" transform="translate(222.672 805.053)" fill="#122a3b"/>
      <path id="Path_82" data-name="Path 82" d="M332.217,236.415h0a1.042,1.042,0,0,1-.817-1.021l7.149-27.78a.842.842,0,1,1,1.634.409l-7.149,27.78C332.83,236.21,332.626,236.415,332.217,236.415Z" transform="translate(251.032 772)" fill="#fffeff"/>
      <path id="Path_83" data-name="Path 83" d="M334.769,233.079a.75.75,0,0,1-.613-.2.579.579,0,0,1,0-1.021l17.363-19a.722.722,0,0,1,1.021,1.021l-17.363,19C335.178,233.079,334.974,233.079,334.769,233.079Z" transform="translate(253.587 777.787)" fill="#fffeff"/>
      <path id="Path_84" data-name="Path 84" d="M336.481,230.776c-.2,0-.613-.2-.613-.409-.2-.409-.2-.817.2-1.021.613-.409,18.793-7.558,24.308-9.8a.778.778,0,1,1,.613,1.43c-9.192,3.677-23.286,9.192-24.1,9.6A.633.633,0,0,1,336.481,230.776Z" transform="translate(255.552 784.992)" fill="#fffeff"/>
    </g>
    <rect id="Rectangle_54" data-name="Rectangle 54" width="115" height="115" transform="translate(415 601)" fill="none"/>
  </g>
</svg>
