<svg xmlns="http://www.w3.org/2000/svg" width="220" height="220.301" viewBox="0 0 220 220.301">
  <g id="Group_773" data-name="Group 773" transform="translate(254 -2432.699)">
    <g id="Group_769" data-name="Group 769" transform="translate(-981.148 -136)">
      <path id="Path_854" data-name="Path 854" d="M508.686,400.759c0,31.509-25.995,57.241-57.5,57.241H436.741a58.988,58.988,0,0,1-27.045-6.827,55.186,55.186,0,0,1-14.967-11.816A57.129,57.129,0,0,1,379.5,400.5l.263-61.7h0v-3.413H379.5l.263-42.012A55.975,55.975,0,0,1,435.953,237.7H453.02a54.769,54.769,0,0,1,28.358,7.877h0a52.513,52.513,0,0,1,7.352,5.251,55.68,55.68,0,0,1,19.693,42.8Z" transform="translate(392.7 2331)" fill="#323641"/>
      <path id="Path_855" data-name="Path 855" d="M419.777,254.69v38.073c0,.788-.263,1.576-.263,2.1,0,.263-.263.263-.263.525s0,.263-.263.525v.263c0,.263,0,.263-.263.525v.263c0,.263-.263.263-.263.525-.263.263-.263.788-.525,1.05s-.263.525-.525.788l-.263.263a8.479,8.479,0,0,1-4.464,2.626,8.932,8.932,0,0,1-2.626.263,5.781,5.781,0,0,1-2.1-.263c-4.2-1.05-7.615-4.726-7.352-9.19V254.953a9.3,9.3,0,0,1,7.615-9.19,5.117,5.117,0,0,1,2.1-.263c1.05,0,1.838.263,2.626.263a15.37,15.37,0,0,1,4.464,2.626l.263.263c.263.263.263.525.525.788a1.364,1.364,0,0,1,.525,1.05c0,.263.263.263.263.525v.263c0,.263,0,.263.263.525v.263c0,.263,0,.263.263.525,0,.263.263.263.263.525C419.514,253.115,419.777,253.9,419.777,254.69Z" transform="translate(426.994 2343.682)" fill="#fffbfc"/>
      <path id="Path_856" data-name="Path 856" d="M489.99,392.629c0,31.509-25.995,57.241-57.5,57.241H418.045A58.988,58.988,0,0,1,391,443.043l78.247-196.93,1.313-3.413a55.68,55.68,0,0,1,19.693,42.8Z" transform="translate(411.396 2339.13)" fill="#292b37"/>
    </g>
    <rect id="Rectangle_489" data-name="Rectangle 489" width="220" height="220" transform="translate(-254 2433)" fill="none"/>
  </g>
</svg>
