<svg xmlns="http://www.w3.org/2000/svg" width="119.1" height="118" viewBox="0 0 119.1 118">
  <g id="Group_80" data-name="Group 80" transform="translate(-405.9 -637)">
    <g id="Group_79" data-name="Group 79" transform="translate(117 -449)">
      <path id="Path_7" data-name="Path 7" d="M144.4,345.2v70a4.439,4.439,0,0,1-4.4,4.4H73.5a4.391,4.391,0,0,1-4.3-4.4v-70a4.439,4.439,0,0,1,4.4-4.4H140A4.439,4.439,0,0,1,144.4,345.2Z" transform="translate(219.7 772)" fill="#a7d8e2"/>
      <path id="Path_8" data-name="Path 8" d="M187.5,325.5l-1.6,2.8-1.6-2.8-1.6,2.8-1.6-2.8-1.6,2.8-1.6-2.8-1.6,2.8-1.6-2.8-1.6,2.8-1.6-2.8-1.6,2.8-1.6-2.8-1.6,2.8-1.6-2.8-1.6,2.8-1.6-2.8-1.6,2.8-1.6-2.8-1.6,2.8-1.6-2.8-1.6,2.8-1.6-2.8-1.6,2.8-1.6-2.8-1.6,2.8-1.6-2.8-1.6,2.8-1.6-2.8-1.6,2.8-1.6-2.8-1.6,2.8-1.6-2.8-1.6,2.8-1.6-2.8-1.6,2.8-1.6-2.8-1.6,2.8-1.6-2.8-1.6,2.8-1.6-2.8-1.6,2.8-1.6-2.8-1.6,2.8-1.6-2.8-1.6,2.8-1.6-2.8-1.6,2.8-1.6-2.8-1.6,2.8-1.6-2.8-1.6,2.8-1.6-2.8-1.6,2.8-1.6-2.8-1.6,2.8-1.6-2.8-1.6,2.8-1.6-2.8-1.6,2.8-1.6-2.8-1.6,2.8-1.6-2.8-1.6,2.8-1.6-2.8-1.6,2.8-1.6-2.8-1.6,2.8-1.5-2.5v86.4a7.413,7.413,0,0,1-5.6,7.2,12.31,12.31,0,0,0,2,.2H178.8a9.5,9.5,0,0,0,9.5-9.5V325.8Z" transform="translate(219.7 772)" fill="#fbf9fa"/>
      <rect id="Rectangle_31" data-name="Rectangle 31" width="95.3" height="6" transform="translate(308.4 1169.3)" fill="#2b5e76"/>
      <rect id="Rectangle_32" data-name="Rectangle 32" width="95" height="1.8" transform="translate(308.5 1177.5)" fill="#a7d8e2"/>
      <rect id="Rectangle_33" data-name="Rectangle 33" width="95" height="1.8" transform="translate(308.5 1181.4)" fill="#a7d8e2"/>
      <rect id="Rectangle_34" data-name="Rectangle 34" width="21.2" height="1.8" transform="translate(358.8 1166.2)" fill="#a7d8e2"/>
      <rect id="Rectangle_35" data-name="Rectangle 35" width="95.1" height="3.3" transform="translate(308.4 1127.8)" fill="#a7d8e2"/>
      <path id="Path_9" data-name="Path 9" d="M135.8,395a1,1,0,0,1-1,1h-45a1,1,0,0,1-1-1V362.2a1,1,0,0,1,1-1h45a1,1,0,0,1,1,1Z" transform="translate(219.7 772)" fill="#a7d8e2"/>
      <rect id="Rectangle_36" data-name="Rectangle 36" width="33.9" height="3.6" transform="translate(358.8 1133.6)" fill="#a7d8e2"/>
      <rect id="Rectangle_37" data-name="Rectangle 37" width="33.9" height="3.6" transform="translate(358.8 1139)" fill="#a7d8e2"/>
      <rect id="Rectangle_38" data-name="Rectangle 38" width="20.6" height="3.6" transform="translate(358.8 1144.5)" fill="#a7d8e2"/>
      <rect id="Rectangle_39" data-name="Rectangle 39" width="29.4" height="14.5" transform="translate(363.6 1106.1)" fill="#3b758c"/>
      <rect id="Rectangle_40" data-name="Rectangle 40" width="20.6" height="3.6" transform="translate(358.8 1161)" fill="#a7d8e2"/>
      <rect id="Rectangle_41" data-name="Rectangle 41" width="33.9" height="3.6" transform="translate(358.8 1150.3)" fill="#a7d8e2"/>
      <rect id="Rectangle_42" data-name="Rectangle 42" width="33.9" height="3.6" transform="translate(358.8 1155.8)" fill="#a7d8e2"/>
      <rect id="Rectangle_43" data-name="Rectangle 43" width="50.4" height="19.9" transform="translate(308.4 1106.1)" fill="#a7d8e2"/>
      <g id="Group_68" data-name="Group 68" transform="translate(219.7 772)">
        <path id="Path_10" data-name="Path 10" d="M94.3,348.9V338.8H97l2.1,3.7a37.784,37.784,0,0,1,1.7,3.5h0a28.167,28.167,0,0,1-.2-4.2v-3h2.1v10.1h-2.4L98.1,345c-.6-1.1-1.3-2.4-1.8-3.6h0c.1,1.3.1,2.8.1,4.4v3H94.3Z" fill="#2b5e76"/>
        <path id="Path_11" data-name="Path 11" d="M110.7,344.6H107V347h4.2v1.9h-6.5V338.8h6.2v1.9H107v2.1h3.7Z" fill="#2b5e76"/>
        <path id="Path_12" data-name="Path 12" d="M114.4,348.9,112,338.8h2.4l.8,4.2c.2,1.2.4,2.5.6,3.5h0c.2-1.1.4-2.3.7-3.6l.9-4.1h2.4l.8,4.3c.2,1.2.4,2.3.5,3.4h0c.2-1.1.4-2.3.6-3.5l.8-4.1h2.3L122.2,349h-2.5l-.9-4.4a28.678,28.678,0,0,1-.5-3.1h0a28.373,28.373,0,0,1-.6,3.1l-1,4.4h-2.3Z" fill="#2b5e76"/>
        <path id="Path_13" data-name="Path 13" d="M126.1,346.5a6.134,6.134,0,0,0,2.5.6c1.1,0,1.6-.4,1.6-1.1,0-.6-.5-1-1.7-1.4-1.7-.6-2.8-1.5-2.8-3,0-1.7,1.4-3,3.8-3a5.991,5.991,0,0,1,2.6.5l-.5,1.8a4.562,4.562,0,0,0-2.1-.5c-1,0-1.5.5-1.5,1,0,.6.6.9,1.9,1.4,1.8.7,2.6,1.6,2.6,3,0,1.7-1.3,3.1-4.1,3.1a6.993,6.993,0,0,1-2.9-.6Z" fill="#2b5e76"/>
      </g>
    </g>
    <rect id="Rectangle_56" data-name="Rectangle 56" width="118" height="118" transform="translate(406 637)" fill="none"/>
  </g>
</svg>
