<svg xmlns="http://www.w3.org/2000/svg" width="220" height="220" viewBox="0 0 220 220">
  <g id="Group_227" data-name="Group 227" transform="translate(-157 -1986)">
    <g id="Group_226" data-name="Group 226" transform="translate(-91.8 -234.4)">
      <rect id="Rectangle_79" data-name="Rectangle 79" width="212.024" height="153.204" transform="translate(256.597 2281.39)" fill="#c4bc95"/>
      <rect id="Rectangle_80" data-name="Rectangle 80" width="211.75" height="201.628" transform="translate(248.8 2226.4)" fill="#fff"/>
      <rect id="Rectangle_81" data-name="Rectangle 81" width="189.18" height="156.487" transform="translate(260.017 2261.145)" fill="#19b2b8"/>
      <rect id="Rectangle_82" data-name="Rectangle 82" width="130.908" height="10.943" transform="translate(318.289 2237.07)" fill="#c0d4d3"/>
      <circle id="Ellipse_9" data-name="Ellipse 9" cx="5.608" cy="5.608" r="5.608" transform="translate(259.558 2247.27) rotate(-80.782)" fill="#c0d4d3"/>
      <circle id="Ellipse_10" data-name="Ellipse 10" cx="5.608" cy="5.608" r="5.608" transform="translate(275.608 2246.984) rotate(-76.714)" fill="#c0d4d3"/>
      <circle id="Ellipse_11" data-name="Ellipse 11" cx="5.608" cy="5.608" r="5.608" transform="translate(290.844 2243.12) rotate(-45)" fill="#c0d4d3"/>
      <circle id="Ellipse_12" data-name="Ellipse 12" cx="25.716" cy="25.716" r="25.716" transform="translate(270.413 2274.96)" fill="#2b5e76"/>
      <path id="Path_293" data-name="Path 293" d="M213.052,202.207v.821a1.233,1.233,0,0,1-.137.684c0,.274-.137.41-.137.684l-.41,1.231a.134.134,0,0,1-.137.137c-.137.137-.137.41-.274.547a.134.134,0,0,1-.137.137,8.782,8.782,0,0,1-1.368,1.778l-.137.137-.274.274-.137.137c-.137.137-.274.274-.41.274h0c-.137.137-.41.274-.547.41s-.41.137-.547.274h0l-1.231.41c-.137,0-.137,0-.274.137a4.217,4.217,0,0,1-1.368.137H204.16c-.41,0-.821-.137-1.368-.137-.137,0-.137,0-.274-.137l-1.231-.41h0c-.137-.137-.41-.137-.547-.274-.274-.137-.41-.274-.684-.41h0c-.137-.137-.274-.274-.41-.274l-.137-.137-.274-.274-.274-.274a6.431,6.431,0,0,1-1.231-1.641.134.134,0,0,0-.137-.137c-.137-.137-.137-.41-.274-.547a.134.134,0,0,0-.137-.137l-.41-1.231c0-.274-.137-.41-.137-.684a1.233,1.233,0,0,0-.137-.684v-1.5h0v-.274a.5.5,0,0,1,.137-.41c0-.274.137-.41.137-.684l.41-1.231v-.274c.137-.137.137-.41.274-.547a.134.134,0,0,1,.137-.137,8.784,8.784,0,0,1,1.368-1.778l.137-.137.274-.274.137-.137c.137-.137.274-.274.41-.274h0c.41-.274.821-.41,1.231-.684h0l1.231-.41c.137,0,.137,0,.274-.137a4.217,4.217,0,0,1,1.368-.137h1.368c.41,0,.821.137,1.368.137.137,0,.137,0,.274.137l1.231.41h0a5.545,5.545,0,0,1,1.231.684h0c.137.137.274.274.41.274l.137.137.274.274.137.137a5.643,5.643,0,0,1,1.368,1.778.134.134,0,0,0,.137.137c.137.137.137.41.274.547a.134.134,0,0,0,.137.137l.41,1.231c0,.274.137.41.137.684a1.233,1.233,0,0,0,.137.684v.41S213.052,202.071,213.052,202.207Z" transform="translate(91.148 2087.937)" fill="#fff"/>
      <path id="Path_294" data-name="Path 294" d="M220.579,213.871v8.755c0,.137-.137.41-.274.41H192.81a.437.437,0,0,1-.41-.41V213.46a8.945,8.945,0,0,1,2.189-5.335l.137-.137a8.345,8.345,0,0,1,2.189-1.641.134.134,0,0,0,.137-.137c.274-.137.41-.274.684-.274h.137a1.233,1.233,0,0,1,.684-.137,3.626,3.626,0,0,0,.821.684,23.8,23.8,0,0,0,2.462,1.5c.137.137.274.137.547.274a14.035,14.035,0,0,0,1.915.547,10.353,10.353,0,0,0,2.052.137,13.476,13.476,0,0,0,2.325-.274h.274a.5.5,0,0,1,.41-.137h0c.41-.137.684-.274,1.094-.41.137,0,.274-.137.41-.137a8.721,8.721,0,0,0,1.915-1.094h0a.134.134,0,0,1,.137-.137,7.819,7.819,0,0,0,1.094-.958,8.522,8.522,0,0,1,6.292,7.8C220.579,213.6,220.579,213.734,220.579,213.871Z" transform="translate(89.64 2092.278)" fill="#fff"/>
      <circle id="Ellipse_13" data-name="Ellipse 13" cx="25.716" cy="25.716" r="25.716" transform="translate(266.604 2400.281) rotate(-80.782)" fill="#2b5e76"/>
      <path id="Path_295" data-name="Path 295" d="M213.052,259.407v.821a1.233,1.233,0,0,1-.137.684c0,.274-.137.41-.137.684l-.41,1.231a.134.134,0,0,1-.137.137c-.137.137-.137.41-.274.547a.134.134,0,0,1-.137.137,8.782,8.782,0,0,1-1.368,1.778l-.137.137-.274.274-.137.137c-.137.137-.274.274-.41.274h0c-.137.137-.41.274-.547.41s-.41.137-.547.274h0l-1.231.41c-.137,0-.137,0-.274.137a4.217,4.217,0,0,1-1.368.137H204.16c-.41,0-.821-.137-1.368-.137-.137,0-.137,0-.274-.137l-1.231-.41h0c-.137-.137-.41-.137-.547-.274-.274-.137-.41-.274-.684-.41h0c-.137-.137-.274-.274-.41-.274l-.137-.137-.274-.274-.274-.274a6.431,6.431,0,0,1-1.231-1.642.134.134,0,0,0-.137-.137c-.137-.137-.137-.41-.274-.547a.134.134,0,0,0-.137-.137l-.41-1.231c0-.274-.137-.41-.137-.684a1.233,1.233,0,0,0-.137-.684v-1.5h0v-.274a.5.5,0,0,1,.137-.41c0-.274.137-.41.137-.684l.41-1.231v-.274c.137-.137.137-.41.274-.547a.134.134,0,0,1,.137-.137,8.783,8.783,0,0,1,1.368-1.778l.137-.137.274-.274.137-.137c.137-.137.274-.274.41-.274h0c.41-.274.821-.41,1.231-.684h0l1.231-.41c.137,0,.137,0,.274-.137a4.216,4.216,0,0,1,1.368-.137h1.368c.41,0,.821.137,1.368.137.137,0,.137,0,.274.137l1.231.41h0a5.545,5.545,0,0,1,1.231.684h0c.137.137.274.274.41.274l.137.137.274.274.137.137a5.642,5.642,0,0,1,1.368,1.778.134.134,0,0,0,.137.137c.137.137.137.41.274.547a.134.134,0,0,0,.137.137l.41,1.231c0,.274.137.41.137.684a1.233,1.233,0,0,0,.137.684V259Q213.052,259.2,213.052,259.407Z" transform="translate(91.148 2108.98)" fill="#fff"/>
      <path id="Path_296" data-name="Path 296" d="M220.579,271.171v8.755c0,.137-.137.41-.274.41H192.81a.437.437,0,0,1-.41-.41V270.76a8.945,8.945,0,0,1,2.189-5.335l.137-.137a8.346,8.346,0,0,1,2.189-1.642.134.134,0,0,0,.137-.137c.274-.137.41-.274.684-.274h.137a1.233,1.233,0,0,1,.684-.137,3.624,3.624,0,0,0,.821.684,23.8,23.8,0,0,0,2.462,1.5c.137.137.274.137.547.274a14.037,14.037,0,0,0,1.915.547,10.352,10.352,0,0,0,2.052.137,13.474,13.474,0,0,0,2.325-.274h.274a.5.5,0,0,1,.41-.137h0c.41-.137.684-.274,1.094-.41.137,0,.274-.137.41-.137a8.722,8.722,0,0,0,1.915-1.094h0a.134.134,0,0,1,.137-.137,7.814,7.814,0,0,0,1.094-.958,8.522,8.522,0,0,1,6.292,7.8C220.579,270.9,220.579,271.034,220.579,271.171Z" transform="translate(89.64 2113.358)" fill="#fff"/>
      <path id="Path_297" data-name="Path 297" d="M272.973,198.8H231.8a2.6,2.6,0,0,1-2.6-2.6h0a2.6,2.6,0,0,1,2.6-2.6h41.174a2.6,2.6,0,0,1,2.6,2.6h0A2.6,2.6,0,0,1,272.973,198.8Z" transform="translate(103.178 2087.79)" fill="#2b5e76"/>
      <path id="Path_298" data-name="Path 298" d="M328.92,204.1H231.252a2.1,2.1,0,0,1-2.052-2.052h0A2.1,2.1,0,0,1,231.252,200H328.92a2.1,2.1,0,0,1,2.052,2.052h0A2.1,2.1,0,0,1,328.92,204.1Z" transform="translate(103.178 2090.144)" fill="#2b5e76"/>
      <path id="Path_299" data-name="Path 299" d="M328.92,209.8H231.252a2.1,2.1,0,0,1-2.052-2.052h0a2.1,2.1,0,0,1,2.052-2.052H328.92a2.1,2.1,0,0,1,2.052,2.052h0A2.1,2.1,0,0,1,328.92,209.8Z" transform="translate(103.178 2092.241)" fill="#2b5e76"/>
      <path id="Path_300" data-name="Path 300" d="M328.92,215.5H231.252a2.1,2.1,0,0,1-2.052-2.052h0a2.1,2.1,0,0,1,2.052-2.052H328.92a2.1,2.1,0,0,1,2.052,2.052h0A2.1,2.1,0,0,1,328.92,215.5Z" transform="translate(103.178 2094.338)" fill="#2b5e76"/>
      <path id="Path_301" data-name="Path 301" d="M328.92,221.2H231.252a2.1,2.1,0,0,1-2.052-2.052h0a2.1,2.1,0,0,1,2.052-2.052H328.92a2.1,2.1,0,0,1,2.052,2.052h0A2.014,2.014,0,0,1,328.92,221.2Z" transform="translate(103.178 2096.435)" fill="#2b5e76"/>
      <path id="Path_302" data-name="Path 302" d="M328.92,227H231.252a2.1,2.1,0,0,1-2.052-2.052h0a2.1,2.1,0,0,1,2.052-2.052H328.92a2.1,2.1,0,0,1,2.052,2.052h0A2.1,2.1,0,0,1,328.92,227Z" transform="translate(103.178 2098.569)" fill="#2b5e76"/>
      <path id="Path_303" data-name="Path 303" d="M272.973,254.8H231.8a2.6,2.6,0,0,1-2.6-2.6h0a2.6,2.6,0,0,1,2.6-2.6h41.174a2.6,2.6,0,0,1,2.6,2.6h0A2.6,2.6,0,0,1,272.973,254.8Z" transform="translate(103.178 2108.392)" fill="#2b5e76"/>
      <path id="Path_304" data-name="Path 304" d="M328.92,260.1H231.252a2.1,2.1,0,0,1-2.052-2.052h0A2.1,2.1,0,0,1,231.252,256H328.92a2.1,2.1,0,0,1,2.052,2.052h0A2.1,2.1,0,0,1,328.92,260.1Z" transform="translate(103.178 2110.746)" fill="#2b5e76"/>
      <path id="Path_305" data-name="Path 305" d="M328.92,265.8H231.252a2.1,2.1,0,0,1-2.052-2.052h0a2.1,2.1,0,0,1,2.052-2.052H328.92a2.1,2.1,0,0,1,2.052,2.052h0A2.1,2.1,0,0,1,328.92,265.8Z" transform="translate(103.178 2112.844)" fill="#2b5e76"/>
      <path id="Path_306" data-name="Path 306" d="M328.92,271.5H231.252a2.1,2.1,0,0,1-2.052-2.052h0a2.1,2.1,0,0,1,2.052-2.052H328.92a2.1,2.1,0,0,1,2.052,2.052h0A2.014,2.014,0,0,1,328.92,271.5Z" transform="translate(103.178 2114.94)" fill="#2b5e76"/>
      <path id="Path_307" data-name="Path 307" d="M328.92,277.3H231.252a2.1,2.1,0,0,1-2.052-2.052h0a2.1,2.1,0,0,1,2.052-2.052H328.92a2.1,2.1,0,0,1,2.052,2.052h0A2.1,2.1,0,0,1,328.92,277.3Z" transform="translate(103.178 2117.074)" fill="#2b5e76"/>
      <path id="Path_308" data-name="Path 308" d="M328.92,283H231.252a2.1,2.1,0,0,1-2.052-2.052h0a2.1,2.1,0,0,1,2.052-2.052H328.92a2.1,2.1,0,0,1,2.052,2.052h0A2.1,2.1,0,0,1,328.92,283Z" transform="translate(103.178 2119.171)" fill="#2b5e76"/>
    </g>
    <rect id="Rectangle_83" data-name="Rectangle 83" width="220" height="220" transform="translate(157 1986)" fill="none"/>
  </g>
</svg>
