<svg xmlns="http://www.w3.org/2000/svg" width="220" height="220" viewBox="0 0 220 220">
  <g id="Group_285" data-name="Group 285" transform="translate(752 -2171)">
    <g id="Group_280" data-name="Group 280" transform="translate(-1079.899 1906.7)">
      <rect id="Rectangle_245" data-name="Rectangle 245" width="165.202" height="216.575" transform="translate(357.023 267.725)" fill="#f9fcff"/>
      <rect id="Rectangle_246" data-name="Rectangle 246" width="165.202" height="216.575" transform="translate(353.8 264.501)" fill="#bcc751"/>
      <path id="Path_283" data-name="Path 283" d="M394.8,264.5l.2,216.575h82.6L477.4,264.3Z" transform="translate(41.601)" fill="#070707" opacity="0.14"/>
      <g id="Group_278" data-name="Group 278" transform="translate(378.379 282.029)">
        <g id="Group_277" data-name="Group 277">
          <g id="Group_276" data-name="Group 276">
            <path id="Path_284" data-name="Path 284" d="M462.795,291.424l-.806-.806-.2-.2A54.852,54.852,0,0,0,422.7,274.3a53.985,53.985,0,0,0-37.875,15.11l-.806.806-.4.4a55.558,55.558,0,1,0,94.89,39.286A56.553,56.553,0,0,0,462.795,291.424ZM431.567,383.7a30.745,30.745,0,0,1-6.044.6h-5.238c-2.015,0-4.029-.4-6.044-.6a54.476,54.476,0,0,1-45.733-52.985V329.5a54.748,54.748,0,0,1,16.319-38.278l.806-.806a54.347,54.347,0,0,1,28.407-14.1,30.743,30.743,0,0,1,6.044-.6h5.238c2.015,0,4.029.4,6.044.6a53.712,53.712,0,0,1,29.615,15.11l.806.806A54.728,54.728,0,0,1,477.1,329.3v1.209A54.484,54.484,0,0,1,431.567,383.7Z" transform="translate(-364.681 -271.882)" fill="#f9fcff"/>
            <path id="Path_285" data-name="Path 285" d="M424.223,389.144a58.259,58.259,0,0,1-41.1-16.923A58.958,58.958,0,0,1,366,331.122a58.258,58.258,0,0,1,16.923-41.1l.4-.4c.4-.2.6-.6,1.007-.806a57.927,57.927,0,0,1,80.586,1.209l.2.2.806.806h0a58.137,58.137,0,0,1-.6,81.392A58.933,58.933,0,0,1,424.223,389.144Zm-.2-109.8H421.6a28.774,28.774,0,0,0-5.842.6,52.472,52.472,0,0,0-27.2,13.3l-.806.806a51.1,51.1,0,0,0-15.513,36.465v1.209a51.486,51.486,0,0,0,43.517,50.568,28.763,28.763,0,0,0,5.842.6h4.835a28.768,28.768,0,0,0,5.843-.6h0A51.644,51.644,0,0,0,475.8,331.726v-1.209a51.936,51.936,0,0,0-14.506-35.458l-.806-.806a51.26,51.26,0,0,0-28.205-14.3,28.768,28.768,0,0,0-5.843-.6Z" transform="translate(-366 -273.1)" fill="#f9fcff"/>
          </g>
          <path id="Path_286" data-name="Path 286" d="M456.193,283.721c-.2-.2-.4-.6-.806-.806l-.2-.2-.806-.806-.806.806-.806.806a52.156,52.156,0,0,1-10.073,7.454c-.4.2-.6.4-1.007.6a56.8,56.8,0,0,1-16.117,5.641c-.4,0-.806.2-1.209.2a51.6,51.6,0,0,1-7.857.6,55.085,55.085,0,0,1-10.073-1.007c-.4,0-.806-.2-1.209-.2a55.218,55.218,0,0,1-15.714-6.044c-.4-.2-.6-.4-1.007-.6a57.19,57.19,0,0,1-9.469-7.454l-.806-.806-.806-1.007-1.007.806-.806.806-1.007.806.806,1.007c.2.2.4.6.806.806l.2.2a64.547,64.547,0,0,0,10.275,8.059,4.4,4.4,0,0,1,1.007.6,56.431,56.431,0,0,0,16.722,6.447c.4,0,.806.2,1.209.2a61.891,61.891,0,0,0,10.678,1.007,59.768,59.768,0,0,0,8.462-.6c.4,0,.806-.2,1.209-.2A55.588,55.588,0,0,0,443.1,295a4.406,4.406,0,0,0,1.007-.6,62.311,62.311,0,0,0,11.081-8.059l.806-.806,1.007-.806Z" transform="translate(-357.274 -265.186)" fill="#f9fcff"/>
          <path id="Path_287" data-name="Path 287" d="M456.092,328.717l-.806-.806a53.694,53.694,0,0,0-11.081-8.059c-.4-.2-.6-.4-1.007-.6a57.458,57.458,0,0,0-17.125-5.842c-.4,0-.806-.2-1.209-.2a59.75,59.75,0,0,0-8.462-.6,61.891,61.891,0,0,0-10.678,1.007c-.4,0-.806.2-1.209.2a56.431,56.431,0,0,0-16.721,6.447c-.4.2-.6.4-1.007.6a56.629,56.629,0,0,0-10.275,8.059l-.2.2c-.2.2-.4.6-.806.806l-.806,1.007,1.007.806.806.806,1.007.806.806-1.007c.2-.2.4-.6.806-.806a48.258,48.258,0,0,1,9.469-7.454c.4-.2.6-.4,1.007-.6a53.422,53.422,0,0,1,15.714-6.245c.4,0,.806-.2,1.209-.2a55.084,55.084,0,0,1,10.073-1.007,51.606,51.606,0,0,1,7.857.6c.4,0,.806.2,1.209.2a56.386,56.386,0,0,1,16.117,5.44c.4.2.6.4,1.007.6a52.153,52.153,0,0,1,10.073,7.454l.806.806.806.806.806-.806.2-.2c.2-.2.4-.6.806-.806l.806-1.007Z" transform="translate(-357.173 -233.021)" fill="#f9fcff"/>
          <path id="Path_288" data-name="Path 288" d="M430.565,290.723c-5.641-10.879-13.1-16.923-20.952-16.923-8.059,0-15.513,6.044-20.952,16.923-5.44,10.678-8.26,24.78-8.26,39.89,0,14.908,3.022,29.212,8.462,39.89,5.641,10.879,13.1,16.923,20.952,16.923,8.059,0,15.513-6.044,20.952-16.923,5.44-10.678,8.26-24.78,8.26-39.89C438.825,315.5,435.8,301.2,430.565,290.723ZM409.612,383.6c-6.85,0-13.5-5.44-18.333-15.311-5.037-10.073-7.857-23.571-7.857-37.674,0-14.3,2.821-27.6,7.857-37.674,5.037-9.872,11.484-15.311,18.333-15.311s13.5,5.44,18.333,15.311c5.037,10.073,7.857,23.571,7.857,37.674,0,14.3-2.821,27.6-7.857,37.674C422.909,378.159,416.462,383.6,409.612,383.6Z" transform="translate(-351.389 -272.39)" fill="#f9fcff"/>
          <path id="Path_289" data-name="Path 289" d="M478.312,300.9h-109.8a2.026,2.026,0,0,0,0,4.029h109.8a1.988,1.988,0,0,0,1.813-2.015A1.86,1.86,0,0,0,478.312,300.9Z" transform="translate(-365.29 -244.893)" fill="#f9fcff"/>
          <path id="Path_290" data-name="Path 290" d="M397.929,385.412v-109.8a2.026,2.026,0,0,0-4.029,0v109.8a1.988,1.988,0,0,0,2.015,1.813A1.754,1.754,0,0,0,397.929,385.412Z" transform="translate(-337.691 -272.39)" fill="#f9fcff"/>
        </g>
      </g>
      <g id="Group_279" data-name="Group 279" transform="translate(389.056 437.157)">
        <path id="Path_291" data-name="Path 291" d="M371.3,350.4a20.787,20.787,0,0,1,3.828-.2,7.205,7.205,0,0,1,4.231,1.007,3.144,3.144,0,0,1,1.41,2.619,2.993,2.993,0,0,1-1.209,2.619c-1.007,1.007-2.619,1.41-4.634,1.41a3.926,3.926,0,0,1-1.612-.2v5.037H371.3Zm2.015,6.044c.4,0,1.007.2,1.612.2,2.418,0,3.828-1.007,3.828-2.619s-1.41-2.418-3.626-2.418a4.472,4.472,0,0,0-1.813.2Z" transform="translate(-371.3 -349.998)" fill="#f9fcff"/>
        <path id="Path_292" data-name="Path 292" d="M379.326,358.762l-1.612,4.029H375.7l5.037-12.491h2.418l5.238,12.491h-2.015l-1.612-4.029Zm5.037-1.209-1.41-3.626a15.3,15.3,0,0,1-.806-2.216h0a9.824,9.824,0,0,1-.806,2.216l-1.41,3.626Z" transform="translate(-366.836 -349.897)" fill="#f9fcff"/>
        <path id="Path_293" data-name="Path 293" d="M383.2,360.979a8.572,8.572,0,0,0,3.425.806c2.015,0,3.224-.806,3.224-2.216,0-1.209-.806-1.813-2.821-2.418-2.418-.806-4.029-1.813-4.029-3.626,0-2.015,2.015-3.425,4.835-3.425a7.433,7.433,0,0,1,3.425.6l-.6,1.41a6.476,6.476,0,0,0-2.82-.6c-2.015,0-2.821,1.007-2.821,1.813,0,1.209,1.007,1.813,3.022,2.418,2.619.806,3.828,1.813,3.828,3.626,0,2.015-1.813,3.626-5.238,3.626a9.839,9.839,0,0,1-3.828-.806Z" transform="translate(-359.631 -350.1)" fill="#f9fcff"/>
        <path id="Path_294" data-name="Path 294" d="M388.7,360.979a8.572,8.572,0,0,0,3.425.806c2.015,0,3.223-.806,3.223-2.216,0-1.209-.806-1.813-2.82-2.418-2.418-.806-4.029-1.813-4.029-3.626,0-2.015,2.015-3.425,4.835-3.425a7.433,7.433,0,0,1,3.425.6l-.6,1.41a6.475,6.475,0,0,0-2.82-.6c-2.015,0-2.82,1.007-2.82,1.813,0,1.209,1.007,1.813,3.022,2.418,2.619.806,3.828,1.813,3.828,3.626,0,2.015-1.813,3.626-5.238,3.626a9.838,9.838,0,0,1-3.828-.806Z" transform="translate(-354.051 -350.1)" fill="#f9fcff"/>
        <path id="Path_295" data-name="Path 295" d="M394.1,350.4a20.787,20.787,0,0,1,3.828-.2,7.2,7.2,0,0,1,4.231,1.007,3.144,3.144,0,0,1,1.41,2.619,2.993,2.993,0,0,1-1.209,2.619c-1.007,1.007-2.619,1.41-4.634,1.41a3.926,3.926,0,0,1-1.612-.2v5.037H394.1Zm2.015,6.044c.4,0,1.007.2,1.612.2,2.418,0,3.828-1.007,3.828-2.619s-1.41-2.418-3.626-2.418a4.472,4.472,0,0,0-1.813.2Z" transform="translate(-348.166 -349.998)" fill="#f9fcff"/>
        <path id="Path_296" data-name="Path 296" d="M413.5,356.547c0,4.231-3.223,6.648-7.051,6.648-4.029,0-6.85-2.619-6.85-6.447,0-4.029,3.022-6.648,7.051-6.648S413.5,352.719,413.5,356.547Zm-11.886.2a4.816,4.816,0,0,0,4.835,5.037c3.022,0,4.835-2.418,4.835-5.238a4.8,4.8,0,0,0-4.835-5.037C403.226,351.51,401.615,353.928,401.615,356.748Z" transform="translate(-342.585 -350.1)" fill="#f9fcff"/>
        <path id="Path_297" data-name="Path 297" d="M407.7,350.4a21.941,21.941,0,0,1,3.828-.2,8.467,8.467,0,0,1,4.432,1.007,2.872,2.872,0,0,1,1.209,2.418,3.419,3.419,0,0,1-2.82,3.224h0a3.329,3.329,0,0,1,2.216,2.619,8.766,8.766,0,0,0,1.209,3.425h-2.015a16.293,16.293,0,0,1-1.007-3.022c-.4-1.813-1.209-2.418-3.022-2.418h-1.813v5.44H407.9Zm2.015,5.641h2.015c2.015,0,3.425-1.007,3.425-2.418,0-1.612-1.41-2.418-3.425-2.418a5.054,5.054,0,0,0-2.015.2Z" transform="translate(-334.367 -349.998)" fill="#f9fcff"/>
        <path id="Path_298" data-name="Path 298" d="M417.534,351.61H412.9V350.2h11.282v1.41h-4.634v11.081h-2.015Z" transform="translate(-329.09 -349.998)" fill="#f9fcff"/>
      </g>
    </g>
    <rect id="Rectangle_249" data-name="Rectangle 249" width="220" height="220" transform="translate(-752 2171)" fill="none"/>
  </g>
</svg>
