<svg xmlns="http://www.w3.org/2000/svg" width="222.286" height="220" viewBox="0 0 222.286 220">
  <g id="Group_598" data-name="Group 598" transform="translate(254.185 -2433)">
    <g id="Group_597" data-name="Group 597" transform="translate(-653 -820)">
      <path id="path1122" d="M-420.519-107.877H-581.339c-1.847,0-3.39.8-3.86,1.9l-21.767,10.131-3.061,1.424q-.286.133-.554.271a9.7,9.7,0,0,0-2.879,2.125,5.509,5.509,0,0,0-.5.661q-.108.167-.2.337a4.046,4.046,0,0,0-.287.681c-.036.114-.065.229-.089.344a3.38,3.38,0,0,0-.072.691c0,.115.007.23.018.346a3.546,3.546,0,0,0,.143.689,4.042,4.042,0,0,0,.286.68,5.521,5.521,0,0,0,1,1.319q.161.16.34.317a9.072,9.072,0,0,0,.787.615q.215.15.448.3.465.292,1,.568.269.138.555.27l3.19,1.478,8.175,3.788,13.439,6.227c.437,1.128,2,1.96,3.885,1.96H-403.2c2.218,0,4-1.155,4.01-2.59,0,0,0-.006,0-.008v-31.921s0-.006,0-.008c-.005-1.436-1.792-2.59-4.01-2.59h-17.322Z" transform="translate(1013.421 3456.467)" fill="#450064" opacity="0.173"/>
      <g id="g4576" transform="translate(403.581 3340.257)">
        <path id="rect4689" d="M633.281,633.227l-26.05,12.124c-6.1,2.841-6.109,7.381,0,10.209l25.95,12.025Z" transform="translate(-602.652 -631.898)" fill="#5d6c53" stroke="#450064" stroke-linejoin="round" stroke-width="8.442"/>
        <rect id="rect4685" width="186.162" height="37.116" rx="6.864" transform="translate(29.258 0)" fill="#ffcd55" stroke="#450064" stroke-linejoin="round" stroke-width="4.202"/>
        <rect id="rect4699" width="157.8" height="15.771" transform="translate(29.266 10.083)" fill="#ffcd55" stroke="#450064" stroke-linejoin="round" stroke-width="4.039"/>
        <path id="path4703" d="M633.281,633.227l-26.05,12.124c-6.1,2.841-6.109,7.381,0,10.209l25.95,12.025Z" transform="translate(-602.652 -631.898)" fill="#fffdf8" stroke="#450064" stroke-linejoin="round" stroke-width="4.039"/>
        <path id="rect4701" d="M610.292,651.539l-3.06,1.425c-6.1,2.841-6.109,7.381,0,10.209l3.189,1.478a10.2,10.2,0,0,0,.5-3.169v-6.4A10.165,10.165,0,0,0,610.292,651.539Z" transform="translate(-602.652 -639.51)" fill="#450064" stroke="#450064" stroke-linejoin="round" stroke-width="7.109"/>
        <path id="rect4709" d="M934.819,630.952v37.117h12.267c5.022,0,9.065-1.159,9.065-2.6V633.55c0-1.439-4.043-2.6-9.065-2.6Z" transform="translate(-740.732 -630.952)" fill="#ff8681" stroke="#450064" stroke-linejoin="round" stroke-width="4.039"/>
        <rect id="rect4697" width="12.642" height="36.584" transform="translate(184.85 0.127)" fill="#7acbf5" stroke="#450064" stroke-linejoin="round" stroke-width="3.994"/>
        <rect id="rect1262" width="12.642" height="36.584" transform="translate(184.85 0.127)" fill="none" stroke="#450064" stroke-linejoin="round" stroke-width="3.994"/>
      </g>
      <path id="path1095" d="M-590.814-82.145a.228.228,0,0,0,.007.026,4.037,4.037,0,0,0,.286.68,5.524,5.524,0,0,0,1,1.319q.161.16.34.317a9.073,9.073,0,0,0,.787.615q.215.15.448.3.465.292,1,.568.269.137.555.27l3.19,1.478-.807-.01,13.439,6.227c.437,1.128,2,1.96,3.885,1.96h178.141c2.218,0,4-1.154,4.01-2.59,0,0,0-.005,0-.008v-6.55l-184.593-.5Z" transform="translate(1003.531 3445.77)" fill="#450064" stroke="#000" stroke-width="0.356" opacity="0.187"/>
      <path id="path1146" d="M-606.187-106.233a.206.206,0,0,1,.007-.026,4.023,4.023,0,0,1,.286-.68,5.518,5.518,0,0,1,1-1.319q.161-.16.34-.317a9.076,9.076,0,0,1,.787-.615q.215-.15.448-.3.465-.292,1-.568.268-.138.555-.27l3.19-1.478,8.175-3.788,13.439-6.227c.437-1.128,2-1.96,3.885-1.96h178.141c2.218,0,4,1.155,4.01,2.59,0,0,0,.005,0,.008v7.05l-184.593-.723Z" transform="translate(1009.921 3463.077)" fill="#fefdfc" opacity="0.241"/>
      <g id="g1162" transform="translate(403.581 3340.257)">
        <path id="path1148" d="M633.281,633.227l-26.05,12.124c-6.1,2.841-6.109,7.381,0,10.209l25.95,12.025Z" transform="translate(-602.652 -631.898)" fill="none" stroke="#450064" stroke-linejoin="round" stroke-width="4.632"/>
        <rect id="rect1150" width="186.162" height="37.116" rx="6.864" transform="translate(29.258 0)" fill="none" stroke="#450064" stroke-linejoin="round" stroke-width="4.202"/>
        <path id="path1156" d="M610.292,651.539l-3.06,1.425c-6.1,2.841-6.109,7.381,0,10.209l3.189,1.478a10.2,10.2,0,0,0,.5-3.169v-6.4A10.165,10.165,0,0,0,610.292,651.539Z" transform="translate(-602.652 -639.51)" fill="none" stroke="#450064" stroke-linejoin="round" stroke-width="7.109"/>
      </g>
    </g>
    <rect id="Rectangle_368" data-name="Rectangle 368" width="220" height="220" transform="translate(-254 2433)" fill="none"/>
  </g>
</svg>
