<svg xmlns="http://www.w3.org/2000/svg" xmlns:xlink="http://www.w3.org/1999/xlink" width="220" height="220" viewBox="0 0 220 220">
  <defs>
    <clipPath id="clip-path">
      <path id="Path_646" data-name="Path 646" d="M357.935,213.21c-26.129-30.87-8.82-47.187-11.135-73.868-2.315-26.791-25.358-24.035-25.358-24.035s-23.042,2.756-19.073,29.216c3.969,26.57,24.586,38.367,6.395,74.419-17.309,34.178-11.907,83.129,8.6,112.014a9.69,9.69,0,0,0,9.04,3.969L347.02,332.5l20.617-2.426a9.753,9.753,0,0,0,7.938-5.954C388.915,291.267,382.741,242.426,357.935,213.21Z" transform="translate(-298.402 -115.227)"/>
    </clipPath>
  </defs>
  <g id="Group_672" data-name="Group 672" transform="translate(254 -2433)">
    <g id="Group_666" data-name="Group 666" transform="translate(-484 2318)">
      <g id="Group_663" data-name="Group 663" transform="translate(298.402 115.227)">
        <path id="Path_645" data-name="Path 645" d="M357.935,213.21c-26.129-30.87-8.82-47.187-11.135-73.868-2.315-26.791-25.358-24.035-25.358-24.035s-23.042,2.756-19.073,29.216c3.969,26.57,24.586,38.367,6.395,74.419-17.309,34.178-11.907,83.129,8.6,112.014a9.69,9.69,0,0,0,9.04,3.969L347.02,332.5l20.617-2.426a9.753,9.753,0,0,0,7.938-5.954C388.915,291.267,382.741,242.426,357.935,213.21Z" transform="translate(-298.402 -115.227)" fill="#fff"/>
        <g id="Group_661" data-name="Group 661" clip-path="url(#clip-path)">
          <rect id="Rectangle_392" data-name="Rectangle 392" width="46.085" height="7.277" transform="translate(8.223 66.536) rotate(-6.736)" fill="#cd0101"/>
        </g>
        <g id="Group_662" data-name="Group 662" clip-path="url(#clip-path)">
          <rect id="Rectangle_393" data-name="Rectangle 393" width="46.085" height="7.277" transform="translate(10.095 82.976) rotate(-6.736)" fill="#cd0101"/>
        </g>
      </g>
    </g>
    <rect id="Rectangle_394" data-name="Rectangle 394" width="220" height="220" transform="translate(-254 2433)" fill="none"/>
  </g>
</svg>
