<svg xmlns="http://www.w3.org/2000/svg" width="220" height="220" viewBox="0 0 220 220">
  <g id="Group_309" data-name="Group 309" transform="translate(752 -2171)">
    <g id="Group_308" data-name="Group 308" transform="translate(-48.8 -357.962)">
      <g id="Group_307" data-name="Group 307" transform="translate(-703.2 2558.962)">
        <g id="Group_306" data-name="Group 306" transform="translate(0 0)">
          <path id="Path_347" data-name="Path 347" d="M267.5,235.083,482.927,176.3,390.113,330.991l-48.2-52.269L331.33,296.8l6.025-53.246Z" transform="translate(-265.22 -174.122)" fill="#fff"/>
          <path id="Path_348" data-name="Path 348" d="M390.993,334.109a2.893,2.893,0,0,1-1.628-.651l-46.244-49.99-8.956,15.469a2.186,2.186,0,0,1-4.071-1.3l5.7-51.129-67.738-8.142a2.152,2.152,0,0,1-.326-4.234l215.59-59.108a2.09,2.09,0,0,1,2.28.814,2.209,2.209,0,0,1,.163,2.442L392.947,332.969a1.791,1.791,0,0,1-1.628.977C391.155,334.109,391.155,334.109,390.993,334.109Zm-48.2-56.666a2.893,2.893,0,0,1,1.628.651l46.244,50.152,88.418-147.526-199.47,54.386,58.783,7.165a2.309,2.309,0,0,1,1.954,2.443l-4.722,42.825,5.211-9.119a2.354,2.354,0,0,1,1.628-1.14C342.631,277.444,342.631,277.444,342.794,277.444Z" transform="translate(-266.1 -174.96)" fill="#292b37"/>
          <path id="Path_349" data-name="Path 349" d="M314.19,242.9,458.3,176.3,317.284,278.722,306.7,296.8l6.025-53.246Z" transform="translate(-240.59 -174.122)" fill="#d3d3d3"/>
          <path id="Path_350" data-name="Path 350" d="M307.526,299.916a.979.979,0,0,1-.651-.163,2.113,2.113,0,0,1-1.465-2.28l6.025-53.246a2.161,2.161,0,0,1,1.3-1.791l1.466-.651h0l144.107-66.6a2.087,2.087,0,0,1,2.768.814,2.121,2.121,0,0,1-.651,2.931L319.739,281.191l-10.258,17.586A2.483,2.483,0,0,1,307.526,299.916Zm7.979-54.06-4.722,41.685,5.211-9.119a1.271,1.271,0,0,1,.651-.651l122.939-89.4L315.831,245.53Z" transform="translate(-241.416 -174.962)" fill="#292b37"/>
        </g>
        <path id="Path_351" data-name="Path 351" d="M317.935,239l5.536,6.188L306.7,258.377Z" transform="translate(-240.59 -134.726)" fill="#afafaf"/>
      </g>
      <path id="Path_352" data-name="Path 352" d="M307.268,260.345a2.315,2.315,0,0,1-.977-.326,1.526,1.526,0,0,1-.326-1.791L317.2,238.851a1.371,1.371,0,0,1,1.14-.651,1.849,1.849,0,0,1,1.3.488l5.7,6.025a1.007,1.007,0,0,1,.326,1.14.985.985,0,0,1-.488.977L308.245,260.02A2.315,2.315,0,0,1,307.268,260.345Zm11.4-18.4-6.35,10.91,9.607-7.49Z" transform="translate(-944.358 2423.734)" fill="#292b37"/>
    </g>
    <rect id="Rectangle_253" data-name="Rectangle 253" width="220" height="220" transform="translate(-752 2171)" fill="none"/>
  </g>
</svg>
