<svg xmlns="http://www.w3.org/2000/svg" width="220" height="220" viewBox="0 0 220 220">
  <g id="Group_633" data-name="Group 633" transform="translate(254 -2433)">
    <g id="Group_631" data-name="Group 631" transform="translate(-690 -63)">
      <path id="Path_616" data-name="Path 616" d="M263.194,391.11c0,2.91-13.021,5.31-29.1,5.31s-29.1-2.4-29.1-5.31,13.021-5.31,29.1-5.31S263.194,388.128,263.194,391.11Z" transform="translate(309.479 2319.58)" fill="#3f575a"/>
      <g id="Group_606" data-name="Group 606" transform="translate(486.4 2589.21)">
        <path id="Path_617" data-name="Path 617" d="M285.406,285.6a59.5,59.5,0,1,0-59.5,59.5A59.482,59.482,0,0,0,285.406,285.6Z" transform="translate(-166.4 -226.1)" fill="#fff"/>
      </g>
      <g id="Group_607" data-name="Group 607" transform="translate(496.511 2648.713)">
        <path id="Path_618" data-name="Path 618" d="M180.3,307.9a49.392,49.392,0,1,0,98.784,0Z" transform="translate(-180.3 -307.9)" fill="#b6d049"/>
      </g>
      <g id="Group_608" data-name="Group 608" transform="translate(494.256 2623.181)">
        <ellipse id="Ellipse_76" data-name="Ellipse 76" cx="50.265" cy="14.185" rx="50.265" ry="14.185" transform="translate(0 0)" fill="#9ec10d"/>
      </g>
      <g id="Group_609" data-name="Group 609" transform="translate(529.9 2564.041)">
        <rect id="Rectangle_377" data-name="Rectangle 377" width="31.934" height="47.21" transform="translate(0 0)" fill="#fff"/>
      </g>
      <g id="Group_610" data-name="Group 610" transform="translate(522.917 2555.749)">
        <path id="Path_619" data-name="Path 619" d="M222.347,180.1h34.407a5.759,5.759,0,0,1,5.747,5.747v.8a5.759,5.759,0,0,1-5.747,5.747H222.347a5.759,5.759,0,0,1-5.747-5.747v-.8A5.759,5.759,0,0,1,222.347,180.1Z" transform="translate(-216.6 -180.1)" fill="#fff"/>
      </g>
      <g id="Group_611" data-name="Group 611" transform="translate(556.305 2568.115)">
        <rect id="Rectangle_378" data-name="Rectangle 378" width="2.037" height="23.423" transform="translate(0 0)" fill="#556a6d"/>
      </g>
      <g id="Group_612" data-name="Group 612" transform="translate(536.01 2536.181)">
        <path id="Path_620" data-name="Path 620" d="M240.929,165.857a6.329,6.329,0,1,1,6.329-6.329A6.333,6.333,0,0,1,240.929,165.857Zm0-10.62a4.254,4.254,0,0,0-4.292,4.292,4.292,4.292,0,1,0,8.584,0A4.254,4.254,0,0,0,240.929,155.237Z" transform="translate(-234.6 -153.2)" fill="#fff"/>
      </g>
      <g id="Group_613" data-name="Group 613" transform="translate(523.571 2509.485)">
        <path id="Path_621" data-name="Path 621" d="M223.829,129.157a6.329,6.329,0,1,1,6.329-6.329A6.333,6.333,0,0,1,223.829,129.157Zm0-10.62a4.292,4.292,0,0,0,0,8.584,4.254,4.254,0,0,0,4.292-4.292A4.3,4.3,0,0,0,223.829,118.537Z" transform="translate(-217.5 -116.5)" fill="#fff"/>
      </g>
      <g id="Group_614" data-name="Group 614" transform="translate(549.904 2503.956)">
        <path id="Path_622" data-name="Path 622" d="M265.63,132.759a11.93,11.93,0,1,1,11.93-11.93A11.937,11.937,0,0,1,265.63,132.759Zm0-21.9a9.893,9.893,0,1,0,9.893,9.893A9.9,9.9,0,0,0,265.63,110.864Z" transform="translate(-253.7 -108.9)" fill="#fff"/>
      </g>
      <g id="Group_615" data-name="Group 615" transform="translate(526.19 2636.638)">
        <path id="Path_623" data-name="Path 623" d="M222.991,292.246a.946.946,0,1,0-.946.946A.963.963,0,0,0,222.991,292.246Z" transform="translate(-221.1 -291.3)" fill="#fff"/>
      </g>
      <g id="Group_617" data-name="Group 617" transform="translate(542.339 2638.311)" opacity="0.5">
        <g id="Group_616" data-name="Group 616" transform="translate(0 0)">
          <path id="Path_624" data-name="Path 624" d="M249.847,296.873a3.273,3.273,0,1,0-3.273,3.273A3.26,3.26,0,0,0,249.847,296.873Z" transform="translate(-243.3 -293.6)" fill="#fff"/>
        </g>
      </g>
      <g id="Group_619" data-name="Group 619" transform="translate(549.031 2652.787)" opacity="0.1">
        <g id="Group_618" data-name="Group 618" transform="translate(0 0)">
          <path id="Path_625" data-name="Path 625" d="M256.283,315.391a1.891,1.891,0,1,0-1.891,1.891A1.878,1.878,0,0,0,256.283,315.391Z" transform="translate(-252.5 -313.5)" fill="#fff"/>
        </g>
      </g>
      <g id="Group_621" data-name="Group 621" transform="translate(537.902 2653.005)" opacity="0.1">
        <g id="Group_620" data-name="Group 620" transform="translate(0 0)">
          <path id="Path_626" data-name="Path 626" d="M238.946,314.673a.873.873,0,1,0-.873.873A.84.84,0,0,0,238.946,314.673Z" transform="translate(-237.2 -313.8)" fill="#fff"/>
        </g>
      </g>
      <g id="Group_623" data-name="Group 623" transform="translate(570.49 2636.784)" opacity="0.5">
        <g id="Group_622" data-name="Group 622" transform="translate(0 0)">
          <path id="Path_627" data-name="Path 627" d="M288.547,294.773a3.273,3.273,0,1,0-3.273,3.273A3.26,3.26,0,0,0,288.547,294.773Z" transform="translate(-282 -291.5)" fill="#fff"/>
        </g>
      </g>
      <g id="Group_625" data-name="Group 625" transform="translate(534.774 2628.491)" opacity="0.5">
        <g id="Group_624" data-name="Group 624" transform="translate(0 0)">
          <path id="Path_628" data-name="Path 628" d="M235.955,281.628a1.528,1.528,0,1,0-1.528,1.528A1.587,1.587,0,0,0,235.955,281.628Z" transform="translate(-232.9 -280.1)" fill="#fff"/>
        </g>
      </g>
      <g id="Group_627" data-name="Group 627" transform="translate(514.988 2640.057)" opacity="0.5">
        <g id="Group_626" data-name="Group 626" transform="translate(0 0)">
          <path id="Path_629" data-name="Path 629" d="M208.755,297.528a1.528,1.528,0,1,0-1.528,1.528A1.537,1.537,0,0,0,208.755,297.528Z" transform="translate(-205.7 -296)" fill="#fff"/>
        </g>
      </g>
      <g id="Group_629" data-name="Group 629" transform="translate(549.395 2628.491)" opacity="0.5">
        <g id="Group_628" data-name="Group 628" transform="translate(0 0)">
          <path id="Path_630" data-name="Path 630" d="M256.055,281.628a1.528,1.528,0,1,0-1.528,1.528A1.587,1.587,0,0,0,256.055,281.628Z" transform="translate(-253 -280.1)" fill="#fff"/>
        </g>
      </g>
      <g id="Group_630" data-name="Group 630" transform="translate(489.091 2496.1)">
        <path id="Path_631" data-name="Path 631" d="M170.1,111.776c8.875,0,13.676-4.8,13.676-13.676,0,8.875,4.8,13.676,13.676,13.676-8.875,0-13.676,4.8-13.676,13.676C183.776,116.577,178.975,111.776,170.1,111.776Z" transform="translate(-170.1 -98.1)" fill="#fff"/>
      </g>
    </g>
    <rect id="Rectangle_379" data-name="Rectangle 379" width="220" height="220" transform="translate(-254 2433)" fill="none"/>
  </g>
</svg>
