<svg xmlns="http://www.w3.org/2000/svg" xmlns:xlink="http://www.w3.org/1999/xlink" width="220" height="220.383" viewBox="0 0 220 220.383">
  <defs>
    <clipPath id="clip-path">
      <path id="path246" d="M903.12-2801.287h137.74v172.178H903.12Z" transform="translate(-903.12 2801.287)"/>
    </clipPath>
    <clipPath id="clip-path-2">
      <path id="path270" d="M1079.865-2927.526h41.322v20.661h-41.322Z" transform="translate(-1079.865 2927.526)"/>
    </clipPath>
  </defs>
  <g id="Group_577" data-name="Group 577" transform="translate(254 -2432.617)">
    <g id="Group_576" data-name="Group 576" transform="translate(564.932 -1019)">
      <g id="g238" transform="translate(-791.382 3472.276)">
        <path id="path240" d="M-146.9-104.618V-136.97a6.888,6.888,0,0,1,6.887-6.887h41.322A6.885,6.885,0,0,1-91.8-136.97v32.352A82.6,82.6,0,0,1-36.7-26.777,82.647,82.647,0,0,1-119.35,55.867a82.649,82.649,0,0,1-82.644-82.644,82.6,82.6,0,0,1,55.1-77.841" transform="translate(201.994 143.857)" fill="#383434" fill-rule="evenodd"/>
      </g>
      <g id="g242" transform="translate(-777.608 3486.05)">
        <g id="g256">
          <g id="g254" opacity="0.08" clip-path="url(#clip-path)">
            <g id="g252" transform="translate(0 0)">
              <path id="path250" d="M-146.9-95.507v-28.934a6.888,6.888,0,0,1,6.887-6.887h13.774a6.886,6.886,0,0,1,6.887,6.887v28.934a68.876,68.876,0,0,1,55.1,67.484,68.871,68.871,0,0,1-68.871,68.87,68.879,68.879,0,0,1-68.87-68.87,68.887,68.887,0,0,1,55.1-67.484" transform="translate(201.994 131.329)" fill="#fff" fill-rule="evenodd"/>
            </g>
          </g>
        </g>
      </g>
      <g id="g258" transform="translate(-777.608 3575.582)">
        <path id="path260" d="M-330.386-24.839a10.334,10.334,0,0,0-10.28-9.316,10.337,10.337,0,0,0-9.741,6.89c-.2,0-.392,0-.59,0a63.42,63.42,0,0,0-15.578,2.251,6.86,6.86,0,0,0-5.084-2.251,6.881,6.881,0,0,0-6.794,5.8c-6.936,2.268-13.923,4.694-20.864,6.267a13.775,13.775,0,0,0-13.665-12.068,13.775,13.775,0,0,0-13.745,12.923A145.286,145.286,0,0,1-454.3-20.381a68.879,68.879,0,0,0,68.87,68.87,68.871,68.871,0,0,0,68.87-68.87,78.18,78.18,0,0,0-13.824-4.458" transform="translate(454.303 34.155)" fill="#6aaf2e" fill-rule="evenodd"/>
      </g>
      <g id="g262" transform="translate(-743.173 3596.243)">
        <path id="path264" d="M-165.26,0a6.885,6.885,0,0,0-6.887,6.887,6.888,6.888,0,0,0,6.887,6.887,6.888,6.888,0,0,0,6.887-6.887A6.885,6.885,0,0,0-165.26,0m-41.322,34.435a6.888,6.888,0,0,0-6.887,6.887,6.891,6.891,0,0,0,6.887,6.887,6.888,6.888,0,0,0,6.887-6.887,6.885,6.885,0,0,0-6.887-6.887m0-17.218a10.333,10.333,0,0,0-10.33-10.33,10.333,10.333,0,0,0-10.331,10.33,10.333,10.333,0,0,0,10.331,10.331,10.334,10.334,0,0,0,10.33-10.331m27.548,3.444a6.885,6.885,0,0,0-6.887,6.887,6.888,6.888,0,0,0,6.887,6.887,6.888,6.888,0,0,0,6.887-6.887,6.885,6.885,0,0,0-6.887-6.887" transform="translate(227.243 0)" fill="#7fdd26" fill-rule="evenodd"/>
      </g>
      <g id="g266" transform="translate(-729.399 3451.617)">
        <g id="g280">
          <g id="g278" clip-path="url(#clip-path-2)">
            <g id="g276" transform="translate(0 -0.002)">
              <path id="path274" d="M-110.173-55.087V-68.861a6.885,6.885,0,0,0-6.887-6.887h-27.548a6.888,6.888,0,0,0-6.887,6.887v13.774Z" transform="translate(151.496 75.748)" fill="#b57521" fill-rule="evenodd"/>
            </g>
          </g>
        </g>
      </g>
      <g id="g282" transform="translate(-722.512 3486.05)">
        <path id="path284" d="M-55.087,0H-68.861a6.888,6.888,0,0,0-6.887,6.887v6.887a6.891,6.891,0,0,0,6.887,6.887h13.774A6.888,6.888,0,0,0-48.2,13.774V6.887A6.885,6.885,0,0,0-55.087,0" transform="translate(75.748 0)" fill="#663f25" fill-rule="evenodd"/>
      </g>
    </g>
    <rect id="Rectangle_358" data-name="Rectangle 358" width="220" height="220" transform="translate(-254 2433)" fill="none"/>
  </g>
</svg>
