<svg xmlns="http://www.w3.org/2000/svg" width="220" height="220.477" viewBox="0 0 220 220.477">
  <g id="Group_573" data-name="Group 573" transform="translate(254 -2432.523)">
    <g id="Group_572" data-name="Group 572" transform="translate(551 -973)">
      <g id="g356" transform="translate(-802.926 3451.162)">
        <path id="path358" d="M-293.641-401.813h-40.353a87.419,87.419,0,0,1-87.417-87.412,87.424,87.424,0,0,1,87.417-87.425h40.353a87.42,87.42,0,0,1,87.416,87.425,87.415,87.415,0,0,1-87.416,87.412" transform="translate(421.411 576.651)" fill="#ff860d" fill-rule="evenodd"/>
      </g>
      <g id="g360" transform="translate(-802.926 3451.162)">
        <path id="path362" d="M-494.542-200.922a87.421,87.421,0,0,0-87.416-87.425h-40.354a87.424,87.424,0,0,0-87.416,87.425,87.418,87.418,0,0,0,87.416,87.412c6.953,0,13.691-5.19,20.177-6.724,6.486,1.534,13.224,6.724,20.177,6.724a87.415,87.415,0,0,0,87.416-87.412m-127.77,0c0,48.274,9.034,87.412,20.177,87.412s20.177-39.138,20.177-87.412-9.034-87.425-20.177-87.425-20.177,39.142-20.177,87.425m-33.624,0c0,48.274,24.088,87.412,53.8,87.412s53.8-39.138,53.8-87.412-24.088-87.425-53.8-87.425-53.8,39.142-53.8,87.425m53.8-87.425a87.425,87.425,0,0,1,87.421,87.425,87.42,87.42,0,0,1-87.421,87.412,87.422,87.422,0,0,1-87.421-87.412,87.427,87.427,0,0,1,87.421-87.425" transform="translate(709.728 288.347)" fill="#ff6912" fill-rule="evenodd"/>
      </g>
      <g id="g364" transform="translate(-749.138 3559.61)">
        <path id="path366" d="M-199.366-18.768l-6.747-7.935-49.006.424-5.589,9.151-7.568-9.03-17.839.141c6.522,10.5,19.279,24.574,19.279,24.574l8.272-1.388s-.493,5.9-.65,7.785c30.583,21.579,47.943,2.534,47.943,2.534l2.857-8.677,5.464,2.956,24.447-28.7-15.6.141Z" transform="translate(286.114 26.935)" fill="#212428"/>
      </g>
      <g id="g368" transform="translate(-759.639 3488.826)">
        <path id="path370" d="M-55.988-90.482l15.2,8.547L-43.253-99.2-30.428-111-47.6-114.021l-7.275-15.832-8.141,15.41-17.328,2.019L-68.216-99.9l-3.436,17.1Z" transform="translate(80.349 129.853)" fill="#212428"/>
      </g>
      <g id="g372" transform="translate(-680.938 3488.826)">
        <path id="path374" d="M-19.989-108.116l15.659-7.673,15.193,8.547L8.405-124.5l12.82-11.809L4.059-139.327l-7.28-15.832-8.159,15.41-17.306,2.019,12.12,12.519Z" transform="translate(28.687 155.16)" fill="#212428"/>
      </g>
      <g id="g376" transform="translate(-716.102 3405.523)">
        <path id="path378" d="M-129.718-1.939c-2.709,2.386-1.252,7.522-3.427,14.025-.977,2.936-4.225,5.414-8.267,1.469-3.082-3.005-5.571-5.755-8.267-8.046A13.828,13.828,0,0,0-165.06,3.953a12.28,12.28,0,0,0-1.92,1.265c-2.409,1.9-4.378,5.226-5.881,8.9-3.4,8.287-9.9,23.7-13.3,31.745,2.584.848,4.454,4.232,7.6,4.194,4.768-.061,8.379-4.766,12.717-4.786.269,0,.52,0,.771.02h.009c.278-.015.556-.02.8-.02,4.431.016,7.971,4.715,12.708,4.782,3.288.045,5.235-3.458,7.917-4.293-1.826-3.285-4.455-7.942-7.63-13.459-2.548-4.405-3.1-5.812-2.032-6.668,1.229-.985,2.938.576,6.76,3.826,4.925,4.165,10.2,4.539,13.717,3.51,4.539-1.326,7.693-5.937,9.572-10.519,4.36-10.6,8.312-18.165,4.62-22.6-1.8-2.158-8.98-3.649-11.093-1.79" transform="translate(186.161 2.782)" fill="#6aaf2e"/>
      </g>
    </g>
    <rect id="Rectangle_356" data-name="Rectangle 356" width="220" height="220" transform="translate(-254 2433)" fill="none"/>
  </g>
</svg>
