<svg xmlns="http://www.w3.org/2000/svg" xmlns:xlink="http://www.w3.org/1999/xlink" width="576" height="576" viewBox="0 0 576 576">
  <defs>
    <clipPath id="clip-path">
      <path id="path1016" d="M5622.707-1329.141h73.6v82.491h-73.6Z" transform="translate(-5622.707 1329.141)"/>
    </clipPath>
    <clipPath id="clip-path-2">
      <path id="path1032" d="M5291.24-1325.061h73.6v82.495h-73.6Z" transform="translate(-5291.24 1325.061)"/>
    </clipPath>
    <clipPath id="clip-path-3">
      <path id="path1056" d="M5274.161-1048.5h220.7v130.415h-220.7Z" transform="translate(-5274.161 1048.5)"/>
    </clipPath>
  </defs>
  <g id="Group_106" data-name="Group 106" transform="translate(742 -1052)">
    <g id="Group_97" data-name="Group 97" transform="translate(-1304.934 -1382.808)">
      <g id="g1008" transform="translate(562.934 2498.877)">
        <path id="path1010" d="M-701.319-157.507c-27.328-32.025-57.816-45.206-91.509-42.9-24.422,1.688-47.147,11.607-68.09,29.522a163.157,163.157,0,0,0-69.432-23.325,81.74,81.74,0,0,1,6.4-21.047c7.764-15.834,20.035-28.659,36.723-38.935-12.61-7.622-25.237-15.281-37.9-23.11-36.6,18.263-56.372,46.369-59.55,86.457a158.817,158.817,0,0,0-47.776,18.947c-20.651-17.259-42.749-26.813-66.4-28.388-33.337-2.25-64.031,10.753-92.081,42.357-29.286,32.9-43.781,74.925-43.781,123A189.756,189.756,0,0,0-1230.1,7.278c10.332,51.244,34.623,93.056,73.239,124.5,34.734,28.753,67.283,40.548,97.584,38.213,15.937-1.247,30.637-8.962,44.287-22.931,23.671,12.375,45.9,18.487,66.525,18.468,22.153-.028,45.524-6.646,69.984-20.034q21.051,22.6,45.516,24.582c31.023,2.455,64.378-9.253,99.843-37.875,39.347-31.716,63.094-73.772,71.532-124.829a257.2,257.2,0,0,0,2.868-38.184c0-50.062-14.175-93.3-42.6-126.694" transform="translate(1234.719 277.301)" fill="#f98008"/>
      </g>
      <g id="g1012" transform="translate(879.948 2628.534)">
        <g id="g1026" transform="translate(0 0)">
          <g id="g1024" clip-path="url(#clip-path)">
            <g id="g1022" transform="translate(0.001 -0.001)">
              <path id="path1020" d="M0-60.535c42.093,14.587,73.452-46.041,73.452-46.041S79.818-14.4,9.412-24.92C6.872-36.995,5.147-52.707,0-60.535" transform="translate(0 106.576)" fill="#1a1a1a"/>
            </g>
          </g>
        </g>
      </g>
      <g id="g1028" transform="translate(736.755 2630.297)">
        <g id="g1042" transform="translate(0 0)">
          <g id="g1040" clip-path="url(#clip-path-2)">
            <g id="g1038" transform="translate(0.001 0)">
              <path id="path1036" d="M-96.761-60.546c-42.084,14.6-73.444-46.049-73.444-46.049S-176.571-14.4-106.164-24.94c2.54-12.074,4.265-27.768,9.4-35.606" transform="translate(170.354 106.594)" fill="#1a1a1a"/>
            </g>
          </g>
        </g>
      </g>
      <g id="g1044" transform="translate(878.477 2626.752)">
        <path id="path1046" d="M0-59.2c41.157,14.278,73.594-45.029,73.594-45.029s4.462,90.16-64.4,79.857C6.713-36.19,5.043-51.536,0-59.2" transform="translate(0 104.233)" fill="#1a1a1a"/>
      </g>
      <g id="g1048" transform="translate(738.523 2628.534)">
        <path id="path1050" d="M-94.635-59.2c-41.156,14.268-71.831-45.028-71.831-45.028s-6.216,90.14,62.615,79.847c2.494-11.813,4.182-27.169,9.216-34.819" transform="translate(166.611 104.232)" fill="#1a1a1a"/>
      </g>
      <g id="g1052" transform="translate(729.376 2749.771)">
        <g id="g1066">
          <g id="g1064" clip-path="url(#clip-path-3)">
            <g id="g1062" transform="translate(0.001)">
              <path id="path1060" d="M-145.106,0c-60.956,0-110.363,29.2-110.363,65.213,0,23.343,20.784,43.808,51.966,55.331L-186.59,90.61l7.462,36.646a181.189,181.189,0,0,0,34.022,3.159,177.7,177.7,0,0,0,41.916-4.883l6.881-34.922,15.122,27.74c28.078-11.822,46.415-31.21,46.415-53.137C-34.772,29.2-84.178,0-145.106,0" transform="translate(255.469)" fill="#1a1a1a"/>
            </g>
          </g>
        </g>
      </g>
      <g id="g1068" transform="translate(732.93 2745.955)">
        <path id="path1070" d="M-140.569,0c-59.043,0-106.912,28.294-106.912,63.2,0,22.6,20.128,42.44,50.353,53.6l16.379-29.015,7.228,35.521a176.517,176.517,0,0,0,32.953,3.075,173.372,173.372,0,0,0,40.613-4.735L-93.3,87.779l14.682,26.887C-51.421,103.2-33.675,84.431-33.675,63.2c0-34.9-47.85-63.2-106.894-63.2" transform="translate(247.481)" fill="#1a1a1a"/>
      </g>
    </g>
    <rect id="Rectangle_33" data-name="Rectangle 33" width="576" height="576" transform="translate(-742 1052)" fill="none"/>
  </g>
</svg>
