<svg xmlns="http://www.w3.org/2000/svg" width="220" height="220" viewBox="0 0 220 220">
  <g id="Group_591" data-name="Group 591" transform="translate(254 -2433)">
    <g id="Group_590" data-name="Group 590" transform="translate(-585.799 -1029.163)">
      <g id="g118" transform="translate(334.267 3507.705)">
        <path id="path120" d="M-293.916-402.19h-40.265a87.229,87.229,0,0,1-87.227-87.223,87.234,87.234,0,0,1,87.227-87.235h40.265a87.231,87.231,0,0,1,87.227,87.235,87.226,87.226,0,0,1-87.227,87.223" transform="translate(421.408 576.648)" fill="#ff860d" fill-rule="evenodd"/>
      </g>
      <g id="g122" transform="translate(334.267 3507.705)">
        <path id="path124" d="M-495.006-201.11a87.231,87.231,0,0,0-87.227-87.236H-622.5a87.234,87.234,0,0,0-87.227,87.236A87.229,87.229,0,0,0-622.5-113.887c6.938,0,13.661-5.179,20.133-6.709,6.472,1.531,13.195,6.709,20.132,6.709a87.226,87.226,0,0,0,87.227-87.223m-127.493,0c0,48.17,9.015,87.223,20.133,87.223s20.132-39.053,20.132-87.223-9.014-87.236-20.132-87.236S-622.5-249.289-622.5-201.11m-33.551,0c0,48.17,24.036,87.223,53.684,87.223s53.679-39.053,53.679-87.223-24.035-87.236-53.679-87.236-53.684,39.057-53.684,87.236m53.684-87.236a87.235,87.235,0,0,1,87.231,87.236,87.23,87.23,0,0,1-87.231,87.223A87.232,87.232,0,0,1-689.6-201.11a87.238,87.238,0,0,1,87.231-87.236" transform="translate(709.725 288.346)" fill="#ff6912" fill-rule="evenodd"/>
      </g>
      <g id="g126" transform="translate(420.903 3462.163)">
        <path id="path128" d="M-129.84-1.938c-2.7,2.381-1.249,7.511-3.42,14-.975,2.932-4.216,5.4-8.249,1.463-3.075-3-5.559-5.738-8.249-8.025a13.8,13.8,0,0,0-15.348-1.553,12.2,12.2,0,0,0-1.916,1.262c-2.4,1.9-4.368,5.215-5.868,8.88-3.388,8.267-9.874,23.65-13.271,31.671,2.578.851,4.444,4.225,7.587,4.19,4.758-.063,8.361-4.758,12.689-4.781.269,0,.519.009.77.023h.009c.278-.013.555-.023.8-.023,4.421.018,7.953,4.709,12.68,4.772,3.281.044,5.223-3.447,7.9-4.279-1.822-3.281-4.444-7.927-7.613-13.432-2.543-4.4-3.093-5.8-2.027-6.656,1.227-.98,2.931.578,6.745,3.822,4.914,4.154,10.179,4.53,13.687,3.5,4.53-1.325,7.676-5.927,9.552-10.5,4.35-10.577,8.294-18.123,4.61-22.546-1.8-2.157-8.96-3.643-11.069-1.79" transform="translate(186.161 2.778)" fill="#6aaf2e"/>
      </g>
      <g id="g130" transform="translate(458.787 3541.377)">
        <path id="path132" d="M0-49.561c19.65,6.817,35.136-21.5,35.136-21.5S37.267-28.013,4.391-32.932C3.205-38.572,2.408-45.9,0-49.561" transform="translate(0 71.058)" fill="#282828"/>
      </g>
      <g id="g134" transform="translate(391.972 3542.228)">
        <path id="path136" d="M-79.224-49.561c-19.649,6.812-34.3-21.5-34.3-21.5s-2.972,43.036,29.891,38.121c1.19-5.639,2-12.971,4.4-16.623" transform="translate(113.589 71.058)" fill="#282828"/>
      </g>
      <g id="g138" transform="translate(389.303 3598.289)">
        <path id="path140" d="M-117.674,0c-28.189,0-51.043,13.5-51.043,30.172,0,10.787,9.6,20.258,24.036,25.585l7.824-13.849,3.446,16.955a83.954,83.954,0,0,0,15.738,1.468,83.006,83.006,0,0,0,19.385-2.255l3.178-16.167,7.01,12.837c12.984-5.478,21.457-14.44,21.457-24.573C-66.643,13.5-89.489,0-117.674,0" transform="translate(168.717 0)" fill="#282828"/>
      </g>
    </g>
    <rect id="Rectangle_365" data-name="Rectangle 365" width="220" height="220" transform="translate(-254 2433)" fill="none"/>
  </g>
</svg>
