<svg xmlns="http://www.w3.org/2000/svg" width="220.236" height="220" viewBox="0 0 220.236 220">
  <g id="Group_589" data-name="Group 589" transform="translate(254.236 -2433)">
    <g id="Group_588" data-name="Group 588" transform="translate(-197 -1398)">
      <g id="g38" transform="translate(-25.463 4012.04)">
        <path id="path40" d="M-14.995,0H150.182c7.6,0,7.6,16.819,0,16.819H-14.995c-7.6,0-7.6-16.819,0-16.819" transform="translate(20.692)" fill="#855231" fill-rule="evenodd"/>
      </g>
      <g id="g42" transform="translate(35.225 3965.162)">
        <path id="path44" d="M-21.533-80.055-8.117-109.4l-11.661-1.075-9.936,32.153,16.668,14.724H-2.908Z" transform="translate(29.715 110.47)" fill="#4d4949"/>
      </g>
      <g id="g46" transform="translate(50.116 3961.101)">
        <path id="path48" d="M-21.523-84.583l13.416-29.332-6.108-2.8L-19.763-115-29.7-82.846l19.314,17.064H-.248Z" transform="translate(29.7 116.72)" fill="#4d4949"/>
      </g>
      <g id="g50" transform="translate(-57.236 3853.778)">
        <path id="path52" d="M-493-67.581S-481.36-78.322-460.068-87.5c-12.444-4.142-30.57,2.017-30.57,2.017s-14.664-18.083-37.87.913c-12.023,9.841-19.95,25.606-25.082,27.547-26.157,9.889-53.988,24.557-113.2,69.469l10.525,3.829-6.392,12.32,26.312-5.476L-680.3,52.465h26.918L-603.8,29.052s39.608,9.011,78.937-20.54c22.062-16.573,21.451-46.994,21.451-52.926,0-2.138,3.213-18.5,10.418-23.167" transform="translate(680.304 93.257)" fill="#4d4949"/>
      </g>
      <g id="g54" transform="translate(112.905 3864.468)">
        <path id="path56" d="M-26.311,0s1.247,3.359-.525,4.47c-3.9,2.439-9.472-2.043-9.472-2.043Z" transform="translate(36.308)" fill="#ff860d"/>
      </g>
      <g id="g58" transform="translate(-26.407 3929.361)">
        <path id="path60" d="M-34.554-107.362s71.478-13.111,90.167-40.791c0,0-11.425,36.141-103.3,49.566Z" transform="translate(47.683 148.153)" fill="#404040"/>
      </g>
    </g>
    <rect id="Rectangle_364" data-name="Rectangle 364" width="220" height="220" transform="translate(-254 2433)" fill="none"/>
  </g>
</svg>
