<svg xmlns="http://www.w3.org/2000/svg" width="220" height="220" viewBox="0 0 220 220">
  <g id="Group_142" data-name="Group 142" transform="translate(-157 -1986)">
    <g id="Group_138" data-name="Group 138" transform="translate(-399.3 -163.5)">
      <g id="Computer" transform="translate(556.3 2176.5)">
        <path id="Path_149" data-name="Path 149" d="M145.188,203H343.046a10.964,10.964,0,0,1,10.888,10.888V343.865a10.964,10.964,0,0,1-10.888,10.888H145.188A10.964,10.964,0,0,1,134.3,343.865V213.888A10.964,10.964,0,0,1,145.188,203Z" transform="translate(-134.3 -203)" fill="#05755f" fill-rule="evenodd"/>
        <path id="Path_150" data-name="Path 150" d="M232.347,389.8h51.8a3.2,3.2,0,0,1,3.147,3.147h0a3.123,3.123,0,0,1-3.147,3.062h-51.8a3.123,3.123,0,0,1-3.147-3.062h0a3.255,3.255,0,0,1,3.147-3.147Z" transform="translate(-148.475 -230.901)" fill="#05755f" fill-rule="evenodd"/>
        <path id="Path_151" data-name="Path 151" d="M262.743,379.1h0a3.631,3.631,0,0,1,3.658,3.658v5.019a3.631,3.631,0,0,1-3.658,3.658h0A3.7,3.7,0,0,1,259,387.776v-5.019a3.759,3.759,0,0,1,3.743-3.658Z" transform="translate(-152.926 -229.303)" fill="#05755f" fill-rule="evenodd"/>
        <path id="Path_152" data-name="Path 152" d="M149.565,211.8H341.213a6.444,6.444,0,0,1,6.465,6.38V342.2a6.517,6.517,0,0,1-6.465,6.465H149.565A6.517,6.517,0,0,1,143.1,342.2V218.18a6.557,6.557,0,0,1,6.465-6.38Z" transform="translate(-135.614 -204.314)" fill="#d2d2d2" fill-rule="evenodd"/>
        <path id="Path_153" data-name="Path 153" d="M268.759,211.8h90.423a6.444,6.444,0,0,1,6.465,6.38V342.2a6.517,6.517,0,0,1-6.465,6.465H268.759a5.391,5.391,0,0,1-5.359-5.359V217.159a5.391,5.391,0,0,1,5.359-5.359Z" transform="translate(-153.583 -204.314)" fill="#e9e9e9" fill-rule="evenodd"/>
      </g>
      <g id="Words" transform="translate(583.35 2214.864)">
        <path id="Path_185" data-name="Path 185" d="M167.546,250.992a1.446,1.446,0,0,1,0-2.892H271.409a1.446,1.446,0,1,1,0,2.892Z" transform="translate(-166.1 -248.1)" fill="gray"/>
        <path id="Path_186" data-name="Path 186" d="M216.046,269.992a1.446,1.446,0,1,1,0-2.892H295.24a1.446,1.446,0,0,1,0,2.892Z" transform="translate(-173.344 -250.938)" fill="gray"/>
        <path id="Path_187" data-name="Path 187" d="M217.446,290.492A1.434,1.434,0,0,1,216,289.046a1.491,1.491,0,0,1,1.446-1.446H282.86a1.491,1.491,0,0,1,1.446,1.446,1.434,1.434,0,0,1-1.446,1.446Z" transform="translate(-173.553 -254)" fill="gray"/>
        <path id="Path_188" data-name="Path 188" d="M226.846,312.092a1.491,1.491,0,0,1-1.446-1.446,1.434,1.434,0,0,1,1.446-1.446h62.522a1.384,1.384,0,0,1,1.446,1.446,1.434,1.434,0,0,1-1.446,1.446Z" transform="translate(-174.957 -257.226)" fill="gray"/>
      </g>
      <path id="A_Grade" d="M345.506,265.882H332.662l6.465-16.587Zm1.191,3.4,3.913,9.952a1.766,1.766,0,0,0,1.786,1.276,1.834,1.834,0,0,0,1.871-1.871,4.9,4.9,0,0,0-.17-.851l-13.27-33.515A1.866,1.866,0,0,0,339.041,243a1.758,1.758,0,0,0-1.7,1.276l-13.27,33.6a3.021,3.021,0,0,0-.17.851,1.888,1.888,0,0,0,1.871,1.871,1.837,1.837,0,0,0,1.786-1.361l4-9.952Z" transform="translate(393.681 1967.525)" fill="#45b431" fill-rule="evenodd"/>
    </g>
    <rect id="Rectangle_73" data-name="Rectangle 73" width="220" height="220" transform="translate(157 1986)" fill="none"/>
  </g>
</svg>
