<svg xmlns="http://www.w3.org/2000/svg" width="220" height="220.055" viewBox="0 0 220 220.055">
  <g id="Group_324" data-name="Group 324" transform="translate(752 -2170.945)">
    <g id="Group_321" data-name="Group 321" transform="translate(-462.2 -497.855)">
      <path id="Path_440" data-name="Path 440" d="M294.5,346.427V345.5H271.9c-.922-4.151-2.306-8.3-3.229-11.992l19.371-11.069-.461-.461h0l-8.3-14.3-8.3-14.3h0v-.461l-19.371,11.069a78.6,78.6,0,0,0-8.763-8.763l11.069-19.371h-.461l-14.3-8.3-14.3-8.3H224.4l-11.069,19.371c-3.69-1.384-7.841-1.845-11.992-2.767V254.184H184.269L166.743,252.8v1.384h0V275.4c-2.306.922-7.841,1.845-11.53,3.229l-11.069-19.371-29.057,16.6,11.069,19.371c-3.229,2.767-6,5.535-9.224,8.763L97.561,292.926,80.5,321.982l19.371,11.069A123.632,123.632,0,0,0,96.638,345.5H74.5v33.669H96.638a123.661,123.661,0,0,0,3.229,12.453L80.5,402.7l16.6,29.057,19.371-11.069c2.767,3.229,5.535,6,8.763,9.224l-11.069,19.371,29.057,16.6,11.069-19.371a123.669,123.669,0,0,0,12.453,3.229v22.138h33.669V449.739a123.633,123.633,0,0,0,12.453-3.229l11.069,19.371,29.057-16.6-11.069-19.371c3.228-2.767,6-6,9.224-8.763l19.371,11.069,16.6-29.057-19.371-11.069a91.1,91.1,0,0,0,3.69-11.992H294.5v-.461h-.922V347.349h.922ZM222.55,328.9A49.274,49.274,0,0,1,235,362.108a50.734,50.734,0,1,1-50.734-50.734,45.488,45.488,0,0,1,11.069,1.384C206.408,314.6,215.632,320.6,222.55,328.9Z" transform="translate(-364.3 2416)" fill="#3f434f"/>
      <path id="Path_441" data-name="Path 441" d="M216.7,282.461l-17.987,22.6a49.274,49.274,0,0,1,12.453,33.208,50.734,50.734,0,1,1-50.734-50.734,45.491,45.491,0,0,1,11.069,1.384l11.992-26.289a77.427,77.427,0,0,0-23.061-3.228A78.742,78.742,0,1,0,216.7,282.461Z" transform="translate(-340.46 2439.84)" fill="#292b37"/>
    </g>
    <rect id="Rectangle_275" data-name="Rectangle 275" width="220" height="220" transform="translate(-752 2171)" fill="none"/>
  </g>
</svg>
