<svg xmlns="http://www.w3.org/2000/svg" width="1051.004" height="1051" viewBox="0 0 1051.004 1051">
  <g id="Group_119" data-name="Group 119" transform="translate(2141 -729)">
    <g id="_2091009160" transform="translate(-2141 739.649)">
      <path id="Path_59" data-name="Path 59" d="M42061.992,43805.43c-1.992,27.082,51.523,45.406,69.578,63.266,22.633,22.434,41.227,48.934,53.172,78.734,27.82,69.238,5.445,155.344-27.953,216.555-34.781,63.734-68.641,98.586-130.18,136.555-72.828,44.883-193.117,49.063-262.492-1.527l-35.578-30.266c-39.437-35.984-62.273-72.227-80.469-120.027-16.4-42.957-13.539-127.66-1.187-174.07,7.1-26.7,28.477-65.395,47.391-87.492,59.555-69.715,121.758-43.016,106.82-79.406-6.57-16.066-24.5-24.832-42.422-23.836-30.273,1.727-63.4,28.422-84.781,47.012-22.234,19.25-43.281,49.316-58.281,76-54.9,97.926-39.633,219.145,17.4,313.82,26.023,43.211,92.672,105.48,138.078,127.855,76.281,37.641,130.984,44.012,215.43,31.133,70.766-10.75,121.414-44.418,170.547-95.531,38.57-40.156,81.859-114.375,93.875-171.937,25.016-120.363-2.2-206.27-97.328-280.348C42130.9,43814.188,42089.344,43789.031,42061.992,43805.43Z" transform="translate(-41396.328 -43495.074)" fill="#696969" fill-rule="evenodd"/>
      <path id="Path_60" data-name="Path 60" d="M46246.719,41914.047c-10.633,9.828-12.023,226.445,1.184,253.27,7.434,15,41.5,37.773,57.363,20.379,7.633-8.363-2.395-62.2-2.258-79.465.2-26.422-3.59-66.191-2.051-89.027.918-13.477-.137-28.277.789-38.965,1-11.285,16.133-36.512-20.051-58.82C46275.129,41917.367,46253.344,41907.809,46246.719,41914.047Z" transform="translate(-45744.09 -41747.496)" fill="#696969" fill-rule="evenodd"/>
      <path id="Path_61" data-name="Path 61" d="M48727.988,45288.648c15.6,3.383,35.707-52.977,39.484-68.047,9.371-36.719,12.625-66.914,11.156-105.883-1.59-41.3-27.348-149.437-71.234-161.719-17.652,19.648-8.754,18.117,4.656,31.4,22.633,22.438,40.691,90.945,45.008,120.555,6.512,44.945-.6,100.906-17.187,143.734C48734.418,45262.688,48722.141,45275.375,48727.988,45288.648Z" transform="translate(-48040.008 -44586.621)" fill="#696969" fill-rule="evenodd"/>
      <path id="Path_62" data-name="Path 62" d="M48576.348,47631c-28.293,26.883,22.957-7.84-16,99.176-4.055,11.086-17.664,25.3-2.793,24.035C48573.48,47752.75,48617.77,47641.48,48576.348,47631Z" transform="translate(-47902.969 -47086.84)" fill="#696969" fill-rule="evenodd"/>
      <path id="Path_63" data-name="Path 63" d="M39704.82,40267.414a425.632,425.632,0,0,0-78.008,155.75c-7.5,28.281-19.121,66.781-21.844,95.266-2.187,22.641-10.422,88.484-8.836,106.875,3.266,38.5.473,74.961,7.977,112.469,17.121,85.57,50.848,172.8,121.023,229.5,53.3,43.086,87.16,61.273,153.676,80.258,55.641,15.867,158.273,20.914,216.762,14.477,183.023-20.117,342.754-120.367,401.039-299.414,9.9-30.336,19.188-60.273,25.164-91.8,7.961-41.625,9.164-63.93,9.43-107.617.395-68.312-16.008-128.125-54.91-182.422-66.184-92.219-154.277-168.164-261.562-205.68l-132.039-44.141c-26.824-9.766-25.031-2.992-49.133-1.867-19.379.867-39.23-1.125-58.48,1.07-50.926,5.711-89.621,15.133-136.957,36.914-22.84,10.477-52.375,30.273-72.5,44.406-11.555,8.164-23.234,17-32.2,27.82C39723.074,40251.813,39713.184,40256.734,39704.82,40267.414Zm341.617,232.227c-13.2-26.828-11.812-243.445-1.191-253.273,6.637-6.227,28.41,3.328,34.988,7.367,36.184,22.32,21.047,47.539,20.051,58.828-.937,10.68.129,25.492-.8,38.961-1.527,22.844,2.258,62.6,2.063,89.031-.137,17.258,9.891,71.094,2.25,79.469C40087.926,40537.414,40053.875,40514.641,40046.438,40499.641Zm231.426-46.2c-18.055-17.859-71.555-36.18-69.562-63.273,27.344-16.4,68.9,8.766,91.605,26.5,95.137,74.078,122.355,159.984,97.324,280.336-12.012,57.563-55.3,131.781-93.875,171.953-49.129,51.109-99.77,84.773-170.539,95.531-84.445,12.867-139.156,6.508-215.437-31.133-45.4-22.375-112.059-84.648-138.074-127.867-57.031-94.664-72.3-215.9-17.395-313.812,15.008-26.687,36.043-56.758,58.281-76.008,21.379-18.594,54.508-45.281,84.781-47.008,17.918-.992,35.848,7.773,42.426,23.836,14.93,36.383-47.277,9.7-106.824,79.4-18.914,22.109-40.293,60.8-47.395,87.5-12.355,46.4-15.207,131.109,1.184,174.063,18.2,47.8,41.035,84.047,80.473,120.039l35.582,30.266c69.367,50.586,189.66,46.4,262.488,1.523,61.547-37.977,95.4-72.828,130.184-136.555,33.4-61.211,55.77-147.312,27.961-216.555C40319.1,40502.359,40300.508,40475.875,40277.863,40453.438Zm-61.871,170.547c41.43,10.484-2.852,121.758-18.785,123.2-14.875,1.273-1.266-12.937,2.789-24.023C40238.961,40616.148,40187.719,40650.867,40215.992,40623.984Zm26.488,117.9c16.6-42.82,23.7-98.781,17.2-143.727-4.32-29.6-22.375-98.109-45.02-120.555-13.4-13.273-22.3-11.75-4.633-31.406,43.875,12.281,69.633,120.422,71.23,161.719,1.449,38.969-1.8,69.18-11.156,105.891-3.785,15.07-23.9,71.43-39.5,68.047C40224.758,40768.57,40237.035,40755.9,40242.48,40741.883Z" transform="translate(-39542.621 -40079.82)" fill="#fff" stroke="#fff" stroke-width="11.644" fill-rule="evenodd"/>
      <path id="Path_64" data-name="Path 64" d="M38846.441,39979.68c-1.586-18.391,6.641-84.25,8.836-106.891,2.723-28.477,14.336-66.984,21.84-95.266a425.556,425.556,0,0,1,78-155.734c8.363-10.7,18.254-15.6,28.613-28.148,8.961-10.828,20.641-19.656,32.191-27.82,20.117-14.141,49.656-33.922,72.5-44.414,47.332-21.781,86.031-31.2,136.949-36.906,19.25-2.2,39.105-.2,58.484-1.062,24.1-1.133,22.309-7.9,49.133,1.859l132.043,44.141c107.281,37.516,195.375,113.461,261.563,205.672,38.9,54.3,55.3,114.117,54.9,182.43-.262,43.68-1.457,65.984-9.426,107.609-5.973,31.539-15.266,61.477-25.16,91.813-58.281,179.055-218.012,279.3-401.039,299.406-58.484,6.438-161.121,1.4-216.758-14.469-66.516-18.984-100.375-37.18-153.68-80.258-70.176-56.7-103.9-143.93-121.031-229.5C38846.91,40054.625,38849.7,40018.18,38846.441,39979.68Zm340.164-540.727c-17.852,3.852-34.652,3.992-53.172,8.633-30.336,7.7-106.75,45.148-134.7,62.672-46.668,29.281-99.977,83.242-129.523,129.922-32.457,51.242-55.363,135.688-65.719,193.969-9.027,51.125-16.4,193.328-3.988,245.172,19.523,81.531,21.516,116.25,72.238,187.609,37.438,52.719,79,91.289,135.621,124.281,94.137,54.836,208.258,72.563,318.395,72.688,39.5.07,73.156-6.906,111.2-13.68,127.73-22.9,247.086-92.266,319.852-200.016,32.664-48.4,61.34-129.914,72.359-187.8,32.859-172.8,15.137-262.359-96.59-390.359-107.152-122.68-177-147.172-322.84-197.039C39340.563,39451.375,39262.023,39422.688,39186.605,39438.953Z" transform="translate(-38792.93 -39434.188)" fill="#696969" fill-rule="evenodd"/>
    </g>
    <rect id="Rectangle_44" data-name="Rectangle 44" width="1051" height="1051" transform="translate(-2141 729)" fill="none"/>
  </g>
</svg>
