<svg xmlns="http://www.w3.org/2000/svg" xmlns:xlink="http://www.w3.org/1999/xlink" width="220" height="220" viewBox="0 0 220 220">
  <defs>
    <clipPath id="clip-path">
      <path id="Path_564" data-name="Path 564" d="M1601.064,871.375l72.82,42.042-46.714,80.911,35.061,20.242a31.142,31.142,0,0,1-31.142,53.94l-80.911-46.714a31.156,31.156,0,0,1-11.4-42.542Z" transform="translate(-1534.606 -871.375)" clip-rule="evenodd"/>
    </clipPath>
  </defs>
  <g id="Group_569" data-name="Group 569" transform="translate(254 -2433)">
    <g id="Group_432" data-name="Group 432" transform="translate(431.222 2337)">
      <g id="Group_565" data-name="Group 565" transform="translate(-652 96)">
        <path id="Path_563" data-name="Path 563" d="M1601.064,871.375l72.82,42.042-46.714,80.911,35.061,20.242a31.142,31.142,0,0,1-31.142,53.94l-80.911-46.714a31.156,31.156,0,0,1-11.4-42.542Z" transform="translate(-1534.605 -852.683)" fill="#c74237" fill-rule="evenodd"/>
        <g id="Group_430" data-name="Group 430" transform="translate(0 18.691)" clip-path="url(#clip-path)">
          <g id="Group_428" data-name="Group 428" transform="translate(73.2 126.394)">
            <ellipse id="Ellipse_28" data-name="Ellipse 28" cx="38.941" cy="46.712" rx="38.941" ry="46.712" transform="matrix(0.866, 0.5, -0.5, 0.866, 46.712, 0)" fill="#39893d"/>
          </g>
          <g id="Group_429" data-name="Group 429" transform="matrix(1, 0, 0, 1, -32.547, 82.394)">
            <ellipse id="Ellipse_29" data-name="Ellipse 29" cx="38.94" cy="46.712" rx="38.94" ry="46.712" fill="#39893d"/>
          </g>
        </g>
        <g id="Group_431" data-name="Group 431" transform="translate(45.979)">
          <path id="Path_565" data-name="Path 565" d="M1699.457,908.771a13.815,13.815,0,0,0-5.055-18.862l-70.48-40.692a13.814,13.814,0,0,0-18.861,5.054l-9.549,16.54a13.814,13.814,0,0,0,5.053,18.861l70.48,40.692a13.815,13.815,0,0,0,18.862-5.053Z" transform="translate(-1593.662 -847.367)" fill="#e9eae9" fill-rule="evenodd"/>
        </g>
      </g>
    </g>
    <rect id="Rectangle_353" data-name="Rectangle 353" width="220" height="220" transform="translate(-254 2433)" fill="none"/>
  </g>
</svg>
