<svg xmlns="http://www.w3.org/2000/svg" width="220" height="220.3" viewBox="0 0 220 220.3">
  <g id="Group_776" data-name="Group 776" transform="translate(254 -2432.7)">
    <g id="Group_775" data-name="Group 775" transform="translate(-908.741 -270)">
      <g id="Stopwatch" transform="translate(665.462 2702.7)">
        <path id="Path_879" data-name="Path 879" d="M440.5,492.8a96.2,96.2,0,1,0-96.2-96.2c.184,53.056,43.326,96.2,96.2,96.2Z" transform="translate(-340.926 -272.495)" fill="#ffcc74" fill-rule="evenodd"/>
        <path id="Path_880" data-name="Path 880" d="M430.05,459.4a73.25,73.25,0,1,0-73.25-73.25c.184,40.388,33.045,73.25,73.25,73.25Z" transform="translate(-330.478 -262.047)" fill="#ffe4b5" fill-rule="evenodd"/>
        <path id="Path_881" data-name="Path 881" d="M430.635,312.2a73.763,73.763,0,0,1,52.688,21.846A74.513,74.513,0,1,1,356.1,386.735a73.763,73.763,0,0,1,21.846-52.688A74.851,74.851,0,0,1,430.635,312.2Zm49.384,25.151A69.839,69.839,0,1,0,430.635,456.5a69.71,69.71,0,0,0,49.384-119.146Z" transform="translate(-331.063 -262.633)" fill="#ffa700"/>
        <path id="Path_882" data-name="Path 882" d="M391.224,285.2H420.23a5.328,5.328,0,0,1,5.324,5.324v10.1a5.328,5.328,0,0,1-5.324,5.324H391.224a5.328,5.328,0,0,1-5.324-5.324V290.34a5.174,5.174,0,0,1,5.324-5.14Z" transform="translate(-306.155 -285.2)" fill="#ffcf39" fill-rule="evenodd"/>
        <path id="Path_883" data-name="Path 883" d="M344,320.467l20.378-20.378a5.433,5.433,0,0,1,7.527,0l7.16,7.16a5.433,5.433,0,0,1,0,7.527L358.5,335.338a5.433,5.433,0,0,1-7.527,0l-7.16-7.16a5.867,5.867,0,0,1,.184-7.711Z" transform="translate(-342.462 -274.021)" fill="#ffcf39" fill-rule="evenodd"/>
        <path id="Path_884" data-name="Path 884" d="M446.376,300.1l20.561,20.378a5.433,5.433,0,0,1,0,7.527l-7.16,7.16a5.433,5.433,0,0,1-7.527,0L431.69,314.6a5.433,5.433,0,0,1,0-7.527l7.16-7.16a5.625,5.625,0,0,1,7.527.184Z" transform="translate(-269.149 -274.032)" fill="#ffcf39" fill-rule="evenodd"/>
        <rect id="Rectangle_503" data-name="Rectangle 503" width="10.097" height="7.711" transform="translate(94.615 20.561)" fill="#ff9600"/>
        <path id="Path_885" data-name="Path 885" d="M354.9,318.16l7.16-7.16,5.508,5.507-7.16,6.976Z" transform="translate(-332.066 -263.636)" fill="#ff9600" fill-rule="evenodd"/>
        <rect id="Rectangle_504" data-name="Rectangle 504" width="7.711" height="10.097" transform="translate(163.943 52.801) rotate(-45)" fill="#ff9600"/>
        <path id="Path_886" data-name="Path 886" d="M380.8,399l22.581-39.1a8.357,8.357,0,0,1-.918-3.672,7.561,7.561,0,0,1,7.527-7.527,7.527,7.527,0,1,1,0,15.054h0Z" transform="translate(-310.418 -232.125)" fill="#ff9629" fill-rule="evenodd"/>
        <path id="Path_887" data-name="Path 887" d="M502.967,384.348a2.387,2.387,0,1,1,0,4.773H489.2a2.387,2.387,0,1,1,0-4.773Zm-22.948-50.3a2.337,2.337,0,0,1,3.3,3.3l-4.773,4.957a2.337,2.337,0,0,1-3.3-3.3Zm-51.771-19.46a2.387,2.387,0,0,1,4.773,0v13.769a2.387,2.387,0,0,1-4.773,0Zm-50.3,22.764a2.337,2.337,0,0,1,3.3-3.3l4.773,4.773a2.337,2.337,0,0,1-3.3,3.3Zm-19.46,51.771a2.387,2.387,0,1,1,0-4.773h13.769a2.387,2.387,0,0,1,0,4.773Zm22.764,50.485a2.337,2.337,0,0,1-3.3-3.3l4.773-4.773a2.337,2.337,0,0,1,3.3,3.3Zm51.771,19.46a2.387,2.387,0,0,1-4.773,0V445.3a2.387,2.387,0,1,1,4.773,0Zm50.485-22.948a2.337,2.337,0,0,1-3.3,3.3l-4.773-4.773a2.337,2.337,0,0,1,3.3-3.3Z" transform="translate(-331.063 -262.633)" fill="#03386e"/>
      </g>
    </g>
    <rect id="Rectangle_505" data-name="Rectangle 505" width="220" height="220" transform="translate(-254 2433)" fill="none"/>
  </g>
</svg>
