<svg xmlns="http://www.w3.org/2000/svg" width="260" height="260" viewBox="0 0 260 260">
  <g id="Group_596" data-name="Group 596" transform="translate(254 -2433)">
    <g id="Group_594" data-name="Group 594" transform="translate(-248.479 -497.411)">
      <g id="g1048" transform="translate(-5.521 2984.769)" opacity="0.101">
        <path id="rect947" d="M-968.8-60.364h6.1c1.721,0,3.107,1.657,3.107,3.715v45.932C-959.589-8.66-960.975-7-962.7-7h-6.1c-1.721,0-3.107-1.657-3.107-3.715V-56.65c0-2.058,1.386-3.715,3.107-3.715Z" transform="translate(1213.571 146.564)" fill="#450064"/>
        <path id="rect949" d="M-1448.142-60.364h6.1c1.722,0,3.107,1.657,3.107,3.715v45.932c0,2.058-1.386,3.715-3.107,3.715h-6.1c-1.722,0-3.108-1.657-3.108-3.715V-56.65c0-2.058,1.386-3.715,3.108-3.715Z" transform="translate(1451.25 146.564)" fill="#450064"/>
        <path id="rect951" d="M-1430.783-231.34h219.6a13.311,13.311,0,0,1,13.34,13.34V-84.6a13.311,13.311,0,0,1-13.34,13.34h-219.6a13.311,13.311,0,0,1-13.34-13.34V-218a13.311,13.311,0,0,1,13.34-13.34Z" transform="translate(1447.716 231.34)" fill="#450064"/>
        <path id="rect953" d="M-1400.148-199.536h198.41a3.34,3.34,0,0,1,3.107,3.545v100.25a3.341,3.341,0,0,1-3.107,3.545h-198.41a3.341,3.341,0,0,1-3.108-3.545v-100.25a3.341,3.341,0,0,1,3.108-3.545Z" transform="translate(1427.452 215.571)" fill="#450064"/>
        <path id="rect955" d="M-1400.148-206.733h198.41a3.341,3.341,0,0,1,3.107,3.545v100.25a3.34,3.34,0,0,1-3.107,3.545h-198.41a3.341,3.341,0,0,1-3.108-3.545v-100.25a3.341,3.341,0,0,1,3.108-3.545Z" transform="translate(1427.452 219.139)" fill="#450064"/>
        <path id="rect957" d="M-1375.191-132.893h170.079a6.737,6.737,0,0,1,6.752,6.752v34.372a6.737,6.737,0,0,1-6.752,6.752h-170.079a6.737,6.737,0,0,1-6.752-6.752v-34.372A6.737,6.737,0,0,1-1375.191-132.893Z" transform="translate(1416.885 182.526)" fill="#450064" opacity="0.345"/>
        <path id="path959" d="M-1444.13,48.531v5.644a13.311,13.311,0,0,0,13.34,13.341h219.6a13.312,13.312,0,0,0,13.341-13.341V48.531a13.311,13.311,0,0,1-13.341,13.34h-219.6a13.311,13.311,0,0,1-13.34-13.34Z" transform="translate(1447.719 92.569)" fill="#450064"/>
        <path id="path961" d="M-1362.821,7.866a4.231,4.231,0,0,0-3.284,1.7,7.367,7.367,0,0,0-1.319,3.225l-.007.029-5.58,34.536h3.29l5.492-33.99a4.538,4.538,0,0,1,.7-1.825c.276-.36.4-.423.7-.423h154.194c.3,0,.429.063.7.423a4.54,4.54,0,0,1,.7,1.825l5.492,33.99h3.29l-5.578-34.536,0-.029a7.368,7.368,0,0,0-1.319-3.225,4.231,4.231,0,0,0-3.284-1.7h-154.195Z" transform="translate(1412.456 112.732)" fill="#450064"/>
        <path id="rect963" d="M-1375.191-139.509h170.079a6.737,6.737,0,0,1,6.752,6.752v34.372a6.737,6.737,0,0,1-6.752,6.752h-170.079a6.737,6.737,0,0,1-6.752-6.752v-34.372A6.737,6.737,0,0,1-1375.191-139.509Z" transform="translate(1416.885 185.806)" fill="#450064"/>
        <path id="path965" d="M-1331.227-125.544a17.171,17.171,0,0,0-17.171,17.171A17.171,17.171,0,0,0-1331.227-91.2a17.171,17.171,0,0,0,17.171-17.171,17.171,17.171,0,0,0-17.171-17.171Zm-2.135,3.807v.786a1.305,1.305,0,0,0,1.114,1.439h2.042a1.305,1.305,0,0,0,1.114-1.439v-.777a13.541,13.541,0,0,1,8.406,4.863l-.665.384a1.305,1.305,0,0,0-.689,1.684l1.021,1.769a1.305,1.305,0,0,0,1.8.245l.649-.375a13.537,13.537,0,0,1,.88,4.785,13.538,13.538,0,0,1-.925,4.878l-.6-.349a1.305,1.305,0,0,0-1.8.245l-1.021,1.769a1.306,1.306,0,0,0,.689,1.684l.6.344a13.54,13.54,0,0,1-8.337,4.793v-.667a1.305,1.305,0,0,0-1.114-1.439h-2.042a1.305,1.305,0,0,0-1.114,1.439v.658A13.541,13.541,0,0,1-1341.7-99.8l.6-.344a1.306,1.306,0,0,0,.69-1.684l-1.021-1.769a1.306,1.306,0,0,0-1.8-.245l-.616.356a13.542,13.542,0,0,1-.913-4.884,13.544,13.544,0,0,1,.889-4.78l.64.37a1.306,1.306,0,0,0,1.8-.245l1.021-1.769a1.306,1.306,0,0,0-.69-1.684l-.659-.38A13.54,13.54,0,0,1-1333.362-121.737Z" transform="translate(1400.251 178.882)" fill="#450064"/>
        <path id="path967" d="M-1098.8-125.544a17.171,17.171,0,0,0-17.171,17.171A17.171,17.171,0,0,0-1098.8-91.2a17.171,17.171,0,0,0,17.171-17.171,17.171,17.171,0,0,0-17.171-17.171Zm-2.135,3.807v.786a1.306,1.306,0,0,0,1.114,1.439h2.042a1.305,1.305,0,0,0,1.114-1.439v-.777a13.539,13.539,0,0,1,8.405,4.863l-.665.384a1.306,1.306,0,0,0-.69,1.684l1.021,1.769a1.306,1.306,0,0,0,1.8.245l.649-.375a13.537,13.537,0,0,1,.88,4.785,13.538,13.538,0,0,1-.925,4.878l-.6-.349a1.306,1.306,0,0,0-1.8.245l-1.021,1.769a1.306,1.306,0,0,0,.69,1.684l.6.344a13.54,13.54,0,0,1-8.336,4.793v-.667a1.306,1.306,0,0,0-1.114-1.439h-2.043a1.306,1.306,0,0,0-1.114,1.439v.658a13.541,13.541,0,0,1-8.336-4.784l.6-.344a1.305,1.305,0,0,0,.689-1.684l-1.021-1.769a1.305,1.305,0,0,0-1.8-.245l-.616.356a13.542,13.542,0,0,1-.913-4.884,13.547,13.547,0,0,1,.889-4.78l.64.37a1.305,1.305,0,0,0,1.8-.245l1.021-1.769a1.306,1.306,0,0,0-.689-1.684l-.659-.38A13.54,13.54,0,0,1-1100.937-121.737Z" transform="translate(1285.006 178.882)" fill="#450064"/>
        <g id="g973" transform="translate(94.082 53.715)">
          <path id="rect969" d="M577.1,44.343h59.091a3.1,3.1,0,0,1,3.107,3.107V73.163a3.1,3.1,0,0,1-3.107,3.107H577.1a3.1,3.1,0,0,1-3.107-3.107V47.45a3.1,3.1,0,0,1,3.107-3.107Z" transform="translate(-573.988 -44.343)" fill="#450064"/>
          <path id="path971" d="M577.1,44.343a3.1,3.1,0,0,0-3.108,3.108V73.163A3.1,3.1,0,0,0,577.1,76.27h28.376a44.467,44.467,0,0,0,.038-31.927Z" transform="translate(-573.988 -44.343)" fill="#450064"/>
        </g>
        <path id="circle975" d="M-1421.852-215.78a6.168,6.168,0,0,1-6.168,6.168,6.168,6.168,0,0,1-6.168-6.168,6.168,6.168,0,0,1,6.168-6.168A6.168,6.168,0,0,1-1421.852-215.78Z" transform="translate(1442.79 226.683)" fill="#450064"/>
        <path id="circle977" d="M-1421.852,56.968a6.168,6.168,0,0,1-6.168,6.168,6.168,6.168,0,0,1-6.168-6.168,6.168,6.168,0,0,1,6.168-6.168A6.168,6.168,0,0,1-1421.852,56.968Z" transform="translate(1442.79 91.444)" fill="#450064"/>
        <path id="circle979" d="M-977.115,56.968a6.168,6.168,0,0,1-6.168,6.168,6.168,6.168,0,0,1-6.168-6.168,6.168,6.168,0,0,1,6.168-6.168A6.168,6.168,0,0,1-977.115,56.968Z" transform="translate(1222.271 91.444)" fill="#450064"/>
        <path id="circle981" d="M-977.115-215.78a6.168,6.168,0,0,1-6.168,6.168,6.168,6.168,0,0,1-6.168-6.168,6.168,6.168,0,0,1,6.168-6.168A6.168,6.168,0,0,1-977.115-215.78Z" transform="translate(1222.271 226.683)" fill="#450064"/>
        <path id="circle983" d="M-1329.762,55.154a5.08,5.08,0,0,1-5.079,5.079,5.079,5.079,0,0,1-5.079-5.079,5.079,5.079,0,0,1,5.079-5.079A5.079,5.079,0,0,1-1329.762,55.154Z" transform="translate(1396.049 91.804)" fill="#450064"/>
        <path id="rect985" d="M-1294,40.719h4.125a2.891,2.891,0,0,1,3.108,2.626v3.092a2.891,2.891,0,0,1-3.108,2.626H-1294a2.891,2.891,0,0,1-3.108-2.626V43.345A2.891,2.891,0,0,1-1294,40.719Z" transform="translate(1374.818 96.442)" fill="#450064"/>
        <path id="circle987" d="M10.159,5.079a5.079,5.079,0,1,0-5.079,5.079A5.079,5.079,0,0,0,10.159,5.079Z" transform="translate(198.883 152.037) rotate(180)" fill="#450064"/>
        <path id="rect989" d="M3.108,8.345H7.233A2.891,2.891,0,0,0,10.34,5.718V2.626A2.891,2.891,0,0,0,7.233,0H3.108A2.891,2.891,0,0,0,0,2.626V5.718A2.891,2.891,0,0,0,3.108,8.345Z" transform="translate(177.296 145.506) rotate(180)" fill="#450064"/>
        <path id="circle991" d="M-1199.771,26.262a6.168,6.168,0,0,1-6.168,6.168,6.168,6.168,0,0,1-6.168-6.168,6.168,6.168,0,0,1,6.168-6.168A6.168,6.168,0,0,1-1199.771,26.262Z" transform="translate(1332.673 106.669)" fill="#450064"/>
        <path id="rect993" d="M-1393.187-34.921H-1203.4a2.891,2.891,0,0,1,3.107,2.626v12.706a2.891,2.891,0,0,1-3.107,2.626h-189.786a2.891,2.891,0,0,1-3.108-2.626V-32.3a2.891,2.891,0,0,1,3.108-2.626Z" transform="translate(1424.001 133.948)" fill="#450064"/>
        <path id="rect995" d="M-1430.783-231.34h219.6a13.311,13.311,0,0,1,13.34,13.34V-84.6a13.311,13.311,0,0,1-13.34,13.34h-219.6a13.311,13.311,0,0,1-13.34-13.34V-218a13.311,13.311,0,0,1,13.34-13.34Z" transform="translate(1447.716 231.34)" fill="#450064"/>
        <path id="path997" d="M-1400.148-206.733a3.341,3.341,0,0,0-3.107,3.545v3.265a3.341,3.341,0,0,1,3.107-3.545h198.411a3.341,3.341,0,0,1,3.107,3.545v-3.265a3.341,3.341,0,0,0-3.107-3.545Z" transform="translate(1427.452 219.139)" fill="#450064" opacity="0.313"/>
        <path id="rect999" d="M-1400.148-206.733h198.41a3.341,3.341,0,0,1,3.107,3.545v100.25a3.34,3.34,0,0,1-3.107,3.545h-198.41a3.341,3.341,0,0,1-3.108-3.545v-100.25a3.341,3.341,0,0,1,3.108-3.545Z" transform="translate(1427.452 219.139)" fill="#450064"/>
      </g>
      <rect id="rect4626" width="12.314" height="53.361" rx="6.157" transform="translate(242.165 3061.322)" fill="#450064"/>
      <rect id="rect4624" width="12.314" height="53.361" rx="6.157" transform="translate(0.498 3061.322)" fill="#450064"/>
      <rect id="rect4589" width="246.284" height="160.084" rx="26.461" transform="translate(4.091 2975.123)" fill="#7acbf5"/>
      <rect id="rect924" width="204.625" height="107.34" rx="6.164" transform="translate(22.344 2991.746)" fill="#6db5da"/>
      <rect id="rect4663" width="204.625" height="107.34" rx="6.164" transform="translate(24.698 2987.529)" fill="#3677bc" stroke="#450064" stroke-linejoin="round" stroke-width="2.023"/>
      <rect id="rect926" width="183.582" height="47.876" rx="13.392" transform="translate(33.985 3024.964)" fill="#450064" opacity="0.345"/>
      <path id="rect935" d="M-677.854-230.1v5.644a13.311,13.311,0,0,0,13.34,13.341h219.6a13.312,13.312,0,0,0,13.341-13.341V-230.1a13.311,13.311,0,0,1-13.341,13.34h-219.6A13.311,13.311,0,0,1-677.854-230.1Z" transform="translate(681.945 3346.329)" fill="#6db5da"/>
      <path id="rect4628" d="M-596.546-270.77a4.232,4.232,0,0,0-3.284,1.7,7.369,7.369,0,0,0-1.319,3.225l-.006.029-5.58,34.535h3.29l5.492-33.99a4.536,4.536,0,0,1,.7-1.825c.276-.36.4-.423.7-.423h154.194c.3,0,.429.063.7.423a4.537,4.537,0,0,1,.7,1.825l5.492,33.99h3.29l-5.578-34.535,0-.029a7.37,7.37,0,0,0-1.319-3.225,4.232,4.232,0,0,0-3.284-1.7h-154.2Z" transform="translate(646.681 3366.492)" fill="#450064"/>
      <rect id="rect4620" width="183.582" height="47.876" rx="13.392" transform="translate(35.441 3021.421)" fill="#473488" stroke="#450064" stroke-linejoin="round" stroke-width="2"/>
      <path id="path4591" d="M-564.958-404.181a17.171,17.171,0,0,0-17.171,17.171,17.171,17.171,0,0,0,17.171,17.171,17.171,17.171,0,0,0,17.171-17.171A17.171,17.171,0,0,0-564.958-404.181Zm-2.135,3.807v.786a1.306,1.306,0,0,0,1.114,1.439h2.042a1.306,1.306,0,0,0,1.114-1.439v-.777a13.54,13.54,0,0,1,8.405,4.863l-.665.384a1.306,1.306,0,0,0-.69,1.684l1.021,1.769a1.305,1.305,0,0,0,1.8.245l.649-.375a13.541,13.541,0,0,1,.88,4.785,13.539,13.539,0,0,1-.925,4.878l-.6-.349a1.305,1.305,0,0,0-1.8.245l-1.021,1.769a1.306,1.306,0,0,0,.69,1.684l.6.344a13.54,13.54,0,0,1-8.337,4.793v-.667a1.306,1.306,0,0,0-1.114-1.439h-2.042a1.306,1.306,0,0,0-1.114,1.439v.658a13.541,13.541,0,0,1-8.336-4.784l.6-.344a1.306,1.306,0,0,0,.69-1.684l-1.021-1.769a1.306,1.306,0,0,0-1.8-.245l-.616.356a13.543,13.543,0,0,1-.913-4.884,13.541,13.541,0,0,1,.889-4.78l.64.37a1.305,1.305,0,0,0,1.8-.245l1.021-1.769a1.306,1.306,0,0,0-.69-1.685l-.659-.38a13.54,13.54,0,0,1,8.4-4.875Z" transform="translate(634.48 3432.642)" fill="#fff"/>
      <path id="path4618" d="M-332.532-404.181A17.171,17.171,0,0,0-349.7-387.01a17.171,17.171,0,0,0,17.171,17.171,17.171,17.171,0,0,0,17.171-17.171,17.171,17.171,0,0,0-17.171-17.171Zm-2.135,3.807v.786a1.306,1.306,0,0,0,1.114,1.439h2.042a1.306,1.306,0,0,0,1.114-1.439v-.777a13.54,13.54,0,0,1,8.405,4.863l-.665.384a1.306,1.306,0,0,0-.69,1.684l1.021,1.769a1.305,1.305,0,0,0,1.8.245l.649-.375a13.54,13.54,0,0,1,.88,4.785,13.541,13.541,0,0,1-.925,4.878l-.6-.349a1.305,1.305,0,0,0-1.8.245l-1.021,1.769a1.306,1.306,0,0,0,.69,1.684l.6.344a13.54,13.54,0,0,1-8.337,4.793v-.667a1.306,1.306,0,0,0-1.114-1.439h-2.042a1.306,1.306,0,0,0-1.114,1.439v.658A13.54,13.54,0,0,1-343-378.439l.6-.344a1.305,1.305,0,0,0,.69-1.684l-1.021-1.769a1.305,1.305,0,0,0-1.8-.245l-.616.356a13.54,13.54,0,0,1-.913-4.884,13.541,13.541,0,0,1,.889-4.78l.64.37a1.305,1.305,0,0,0,1.8-.245l1.021-1.769a1.306,1.306,0,0,0-.69-1.685l-.659-.38a13.541,13.541,0,0,1,8.4-4.875Z" transform="translate(519.234 3432.642)" fill="#fff"/>
      <g id="g4661" transform="translate(94.579 3028.838)">
        <rect id="rect4622" width="65.306" height="31.927" rx="6.164" transform="translate(0 0)" fill="#7acbf5" stroke="#450064" stroke-linejoin="round" stroke-width="2.071"/>
        <path id="path4634" d="M577.1,44.343a3.1,3.1,0,0,0-3.108,3.108V73.163A3.1,3.1,0,0,0,577.1,76.27h28.376a44.467,44.467,0,0,0,.038-31.927Z" transform="translate(-573.988 -44.343)" fill="#450064"/>
      </g>
      <circle id="path4639" cx="6.168" cy="6.168" r="6.168" transform="translate(9.097 2979.859)" fill="#450064"/>
      <circle id="circle4641" cx="6.168" cy="6.168" r="6.168" transform="translate(9.097 3117.368)" fill="#450064"/>
      <circle id="circle4643" cx="6.168" cy="6.168" r="6.168" transform="translate(233.318 3117.368)" fill="#450064"/>
      <path id="rect1074" d="M-664.514-509.977a13.311,13.311,0,0,0-13.34,13.34v4.618a13.311,13.311,0,0,1,13.34-13.34h219.6a13.311,13.311,0,0,1,13.341,13.34v-4.618a13.311,13.311,0,0,0-13.341-13.34Z" transform="translate(681.945 3485.1)" fill="#fff" opacity="0.385"/>
      <circle id="circle4645" cx="6.168" cy="6.168" r="6.168" transform="translate(233.318 2979.859)" fill="#450064"/>
      <path id="rect4674" d="M-455.591-237.917h-4.125a2.891,2.891,0,0,0-3.107,2.626v3.092a2.891,2.891,0,0,0,3.107,2.626h4.125a2.891,2.891,0,0,0,3.107-2.626v-3.092A2.891,2.891,0,0,0-455.591-237.917Zm14.536,9.8a5.079,5.079,0,0,0,5.079,5.079,5.079,5.079,0,0,0,5.079-5.079,5.079,5.079,0,0,0-5.079-5.079,5.079,5.079,0,0,0-5.079,5.079Zm-107.9-9.8h4.125a2.891,2.891,0,0,1,3.108,2.626v3.092a2.891,2.891,0,0,1-3.108,2.626h-4.125a2.891,2.891,0,0,1-3.107-2.626v-3.092A2.891,2.891,0,0,1-548.957-237.917Zm-14.536,9.8a5.079,5.079,0,0,1-5.079,5.079,5.079,5.079,0,0,1-5.079-5.079,5.079,5.079,0,0,1,5.079-5.079A5.079,5.079,0,0,1-563.493-228.121Z" transform="translate(630.277 3350.202)" fill="#3677bc" stroke="#450064" stroke-linejoin="round" stroke-width="2.693"/>
      <circle id="circle4676" cx="6.168" cy="6.168" r="6.168" transform="translate(121.064 3101.886)" fill="#450064"/>
      <rect id="rect4678" width="196.001" height="17.958" rx="6.164" transform="translate(28.206 3074.149)" fill="#450064"/>
      <rect id="rect938" width="246.284" height="160.084" rx="26.461" transform="translate(4.091 2975.123)" fill="none" stroke="#450064" stroke-linejoin="round" stroke-width="5"/>
      <path id="rect942" d="M-633.872-485.369a3.341,3.341,0,0,0-3.107,3.545v3.265a3.341,3.341,0,0,1,3.107-3.545h198.411a3.341,3.341,0,0,1,3.107,3.545v-3.265a3.341,3.341,0,0,0-3.107-3.545Z" transform="translate(661.677 3472.899)" fill="#64c4f6" opacity="0.313"/>
      <rect id="rect945" width="204.625" height="107.34" rx="6.164" transform="translate(24.698 2987.529)" fill="none" stroke="#450064" stroke-linejoin="round" stroke-width="2.5"/>
      <path id="path1069" d="M-548.956-237.917a2.891,2.891,0,0,0-3.108,2.626v2.822a2.891,2.891,0,0,1,3.108-2.626h4.125a2.891,2.891,0,0,1,3.107,2.626v-2.822a2.891,2.891,0,0,0-3.107-2.626Zm89.24,0a2.891,2.891,0,0,0-3.107,2.626v2.822a2.891,2.891,0,0,1,3.107-2.626h4.125a2.891,2.891,0,0,1,3.108,2.626v-2.822a2.891,2.891,0,0,0-3.108-2.626ZM-568.571-233.2a5.079,5.079,0,0,0-5.079,5.079,5.076,5.076,0,0,0,.2,1.414,5.079,5.079,0,0,1,4.876-3.671,5.079,5.079,0,0,1,4.876,3.666,5.077,5.077,0,0,0,.2-1.409,5.079,5.079,0,0,0-5.079-5.079Zm132.6,0a5.079,5.079,0,0,0-5.079,5.079,5.078,5.078,0,0,0,.2,1.408,5.079,5.079,0,0,1,4.876-3.666,5.079,5.079,0,0,1,4.876,3.671,5.08,5.08,0,0,0,.2-1.414,5.079,5.079,0,0,0-5.079-5.079Z" transform="translate(630.276 3350.202)" fill="#450064" stroke="#450064" stroke-linejoin="round" stroke-width="2.693" opacity="0.388"/>
      <path id="rect1083" d="M-495.262-403.433a3.1,3.1,0,0,0-3.108,3.107v4.618a3.1,3.1,0,0,1,3.108-3.108h59.091a3.1,3.1,0,0,1,3.108,3.108v-4.618a3.1,3.1,0,0,0-3.108-3.107Z" transform="translate(592.949 3432.271)" fill="#450064" stroke="#450064" stroke-linejoin="round" stroke-width="2.071" opacity="0.237"/>
    </g>
    <rect id="Rectangle_367" data-name="Rectangle 367" width="260" height="260" transform="translate(-254 2433)" fill="none"/>
  </g>
</svg>
