<svg xmlns="http://www.w3.org/2000/svg" width="220" height="220.1" viewBox="0 0 220 220.1">
  <g id="Group_273" data-name="Group 273" transform="translate(752 -2170.9)">
    <g id="Group_272" data-name="Group 272" transform="translate(-845 -541)">
      <g id="Group_177" data-name="Group 177" transform="translate(125.938 2736.725)">
        <path id="Path_220" data-name="Path 220" d="M314.424,377.983H161.23a2.048,2.048,0,0,1-2.03-2.03V184.83a2.048,2.048,0,0,1,2.03-2.03H314.424a2.048,2.048,0,0,1,2.03,2.03V375.953A2.048,2.048,0,0,1,314.424,377.983Z" transform="translate(-159.2 -182.8)" fill="#1e4c4c"/>
      </g>
      <g id="Group_178" data-name="Group 178" transform="translate(122.8 2736.909)">
        <path id="Path_221" data-name="Path 221" d="M313.423,352.343V189.368A6.38,6.38,0,0,0,307.055,183H162.168a6.38,6.38,0,0,0-6.368,6.368V371.262a6.38,6.38,0,0,0,6.368,6.368H293.489Z" transform="translate(-155.8 -183)" fill="#fafafa"/>
      </g>
      <g id="Group_179" data-name="Group 179" transform="translate(167.466 2726.481)">
        <path id="Path_222" data-name="Path 222" d="M273.414,171.7H205.677a1.458,1.458,0,0,0-1.477,1.477v19.2h70.6v-19.2A1.44,1.44,0,0,0,273.414,171.7Z" transform="translate(-204.2 -171.7)" fill="#3fa9b3"/>
      </g>
      <g id="Group_194" data-name="Group 194" transform="translate(189.245 2711.9)">
        <path id="Path_223" data-name="Path 223" d="M241.735,183.77a13.935,13.935,0,1,1,13.935-13.935A13.982,13.982,0,0,1,241.735,183.77Zm0-21.5a7.567,7.567,0,1,0,7.567,7.567A7.6,7.6,0,0,0,241.735,162.268Z" transform="translate(-227.8 -155.9)" fill="#3fa9b3"/>
      </g>
      <g id="Group_195" data-name="Group 195" transform="translate(260.12 2906.345)">
        <path id="Path_224" data-name="Path 224" d="M304.6,392.255V366.6h20.3Z" transform="translate(-304.6 -366.6)" fill="#d5e3e6"/>
      </g>
      <g id="Group_196" data-name="Group 196" transform="translate(167.374 2747.153)">
        <rect id="Rectangle_189" data-name="Rectangle 189" width="70.967" height="1.2" fill="#bde2e5"/>
      </g>
      <g id="Group_197" data-name="Group 197" transform="translate(170.419 2728.973)">
        <rect id="Rectangle_190" data-name="Rectangle 190" width="64.784" height="1.2" fill="#1295a1"/>
      </g>
      <g id="Group_198" data-name="Group 198" transform="translate(241.294 2774.469)">
        <path id="Path_225" data-name="Path 225" d="M294.167,243.818l-9.967-5.353,2.215-4.245,5.722,3.138,6.829-13.658,4.245,2.123Z" transform="translate(-284.2 -223.7)" fill="#9ec10d"/>
      </g>
      <g id="Group_199" data-name="Group 199" transform="translate(241.294 2822.458)">
        <path id="Path_226" data-name="Path 226" d="M294.167,295.91l-9.967-5.445,2.215-4.153,5.722,3.045,6.829-13.658,4.245,2.123Z" transform="translate(-284.2 -275.7)" fill="#9ec10d"/>
      </g>
      <g id="Group_200" data-name="Group 200" transform="translate(241.294 2871.553)">
        <path id="Path_227" data-name="Path 227" d="M294.167,349.11l-9.967-5.353,2.215-4.245,5.722,3.138,6.829-13.75,4.245,2.123Z" transform="translate(-284.2 -328.9)" fill="#9ec10d"/>
      </g>
      <g id="Group_201" data-name="Group 201" transform="translate(187.676 2783.975)">
        <path id="Path_228" data-name="Path 228" d="M266.059,234H226.838a.728.728,0,0,0-.738.738v4.522a.728.728,0,0,0,.738.738h39.221a.728.728,0,0,0,.738-.738v-4.522C266.705,234.277,266.429,234,266.059,234Z" transform="translate(-226.1 -234)" fill="#1a7c7b"/>
      </g>
      <g id="Group_202" data-name="Group 202" transform="translate(187.676 2832.886)">
        <path id="Path_229" data-name="Path 229" d="M266.059,287H226.838a.728.728,0,0,0-.738.738v4.522a.728.728,0,0,0,.738.738h39.221a.728.728,0,0,0,.738-.738v-4.522C266.705,287.277,266.429,287,266.059,287Z" transform="translate(-226.1 -287)" fill="#1a7c7b"/>
      </g>
      <g id="Group_203" data-name="Group 203" transform="translate(145.502 2819.412)">
        <path id="Path_230" data-name="Path 230" d="M213.992,289.2a16.8,16.8,0,1,0-16.8,16.8A16.8,16.8,0,0,0,213.992,289.2Z" transform="translate(-180.4 -272.4)" fill="#9ec10d"/>
      </g>
      <g id="Group_204" data-name="Group 204" transform="translate(187.676 2880.228)">
        <path id="Path_231" data-name="Path 231" d="M266.059,338.3H226.838a.728.728,0,0,0-.738.738v4.522a.728.728,0,0,0,.738.738h39.221a.728.728,0,0,0,.738-.738v-4.522C266.705,338.577,266.429,338.3,266.059,338.3Z" transform="translate(-226.1 -338.3)" fill="#1a7c7b"/>
      </g>
      <g id="Group_235" data-name="Group 235" transform="translate(156.576 2827.256)">
        <g id="Group_219" data-name="Group 219" transform="translate(0 2.399)">
          <rect id="Rectangle_201" data-name="Rectangle 201" width="11.536" height="14.858" fill="#fafafa"/>
        </g>
        <g id="Group_220" data-name="Group 220" transform="translate(1.477 0.831)">
          <rect id="Rectangle_202" data-name="Rectangle 202" width="8.49" height="4.061" fill="#fafafa"/>
        </g>
        <g id="Group_221" data-name="Group 221" transform="translate(3.415)">
          <rect id="Rectangle_203" data-name="Rectangle 203" width="4.891" height="3.045" fill="#fafafa"/>
        </g>
        <g id="Group_232" data-name="Group 232" transform="translate(2.215 3.876)">
          <g id="Group_222" data-name="Group 222">
            <rect id="Rectangle_204" data-name="Rectangle 204" width="2.123" height="1.938" fill="#bfddb5"/>
          </g>
          <g id="Group_223" data-name="Group 223" transform="translate(0 3.415)">
            <rect id="Rectangle_205" data-name="Rectangle 205" width="2.123" height="1.938" fill="#bfddb5"/>
          </g>
          <g id="Group_224" data-name="Group 224" transform="translate(0 6.829)">
            <rect id="Rectangle_206" data-name="Rectangle 206" width="2.123" height="1.938" fill="#bfddb5"/>
          </g>
          <g id="Group_225" data-name="Group 225" transform="translate(4.983)">
            <rect id="Rectangle_207" data-name="Rectangle 207" width="2.123" height="1.938" fill="#bfddb5"/>
          </g>
          <g id="Group_226" data-name="Group 226" transform="translate(4.983 3.415)">
            <rect id="Rectangle_208" data-name="Rectangle 208" width="2.123" height="1.938" fill="#bfddb5"/>
          </g>
          <g id="Group_227" data-name="Group 227" transform="translate(4.983 6.829)">
            <rect id="Rectangle_209" data-name="Rectangle 209" width="2.123" height="1.938" fill="#bfddb5"/>
          </g>
          <g id="Group_228" data-name="Group 228" transform="translate(2.492 10.059)">
            <rect id="Rectangle_210" data-name="Rectangle 210" width="1.107" height="2.584" fill="#bfddb5"/>
          </g>
          <g id="Group_229" data-name="Group 229" transform="translate(3.784 10.059)">
            <rect id="Rectangle_211" data-name="Rectangle 211" width="1.107" height="2.584" fill="#bfddb5"/>
          </g>
          <g id="Group_230" data-name="Group 230" transform="translate(3.876 11.166)">
            <path id="Path_238" data-name="Path 238" d="M199.369,297.385a.185.185,0,1,0-.185.185A.2.2,0,0,0,199.369,297.385Z" transform="translate(-199 -297.2)" fill="#fafafa"/>
          </g>
          <g id="Group_231" data-name="Group 231" transform="translate(3.138 11.166)">
            <path id="Path_239" data-name="Path 239" d="M198.569,297.385a.185.185,0,1,0-.185.185A.2.2,0,0,0,198.569,297.385Z" transform="translate(-198.2 -297.2)" fill="#fafafa"/>
          </g>
        </g>
        <g id="Group_233" data-name="Group 233" transform="translate(3.599 17.073)">
          <rect id="Rectangle_212" data-name="Rectangle 212" width="4.522" height="0.923" fill="#fafafa"/>
        </g>
        <g id="Group_234" data-name="Group 234" transform="translate(3.968 16.611)">
          <rect id="Rectangle_213" data-name="Rectangle 213" width="3.784" height="0.554" fill="#bfddb5"/>
        </g>
      </g>
      <g id="Group_236" data-name="Group 236" transform="translate(145.502 2769.67)">
        <path id="Path_240" data-name="Path 240" d="M213.992,235.3a16.8,16.8,0,1,0-16.8,16.8A16.8,16.8,0,0,0,213.992,235.3Z" transform="translate(-180.4 -218.5)" fill="#9ec10d"/>
      </g>
      <g id="Group_253" data-name="Group 253" transform="translate(156.576 2777.515)">
        <g id="Group_237" data-name="Group 237" transform="translate(0 2.399)">
          <rect id="Rectangle_214" data-name="Rectangle 214" width="11.536" height="14.858" fill="#fafafa"/>
        </g>
        <g id="Group_238" data-name="Group 238" transform="translate(1.477 0.831)">
          <rect id="Rectangle_215" data-name="Rectangle 215" width="8.49" height="4.061" fill="#fafafa"/>
        </g>
        <g id="Group_239" data-name="Group 239" transform="translate(3.415)">
          <rect id="Rectangle_216" data-name="Rectangle 216" width="4.891" height="3.045" fill="#fafafa"/>
        </g>
        <g id="Group_250" data-name="Group 250" transform="translate(2.215 3.968)">
          <g id="Group_240" data-name="Group 240">
            <rect id="Rectangle_217" data-name="Rectangle 217" width="2.123" height="1.938" fill="#bfddb5"/>
          </g>
          <g id="Group_241" data-name="Group 241" transform="translate(0 3.322)">
            <rect id="Rectangle_218" data-name="Rectangle 218" width="2.123" height="1.938" fill="#bfddb5"/>
          </g>
          <g id="Group_242" data-name="Group 242" transform="translate(0 6.737)">
            <rect id="Rectangle_219" data-name="Rectangle 219" width="2.123" height="1.938" fill="#bfddb5"/>
          </g>
          <g id="Group_243" data-name="Group 243" transform="translate(4.983)">
            <rect id="Rectangle_220" data-name="Rectangle 220" width="2.123" height="1.938" fill="#bfddb5"/>
          </g>
          <g id="Group_244" data-name="Group 244" transform="translate(4.983 3.322)">
            <rect id="Rectangle_221" data-name="Rectangle 221" width="2.123" height="1.938" fill="#bfddb5"/>
          </g>
          <g id="Group_245" data-name="Group 245" transform="translate(4.983 6.737)">
            <rect id="Rectangle_222" data-name="Rectangle 222" width="2.123" height="1.938" fill="#bfddb5"/>
          </g>
          <g id="Group_246" data-name="Group 246" transform="translate(2.492 9.967)">
            <rect id="Rectangle_223" data-name="Rectangle 223" width="1.107" height="2.584" fill="#bfddb5"/>
          </g>
          <g id="Group_247" data-name="Group 247" transform="translate(3.784 9.967)">
            <rect id="Rectangle_224" data-name="Rectangle 224" width="1.107" height="2.584" fill="#bfddb5"/>
          </g>
          <g id="Group_248" data-name="Group 248" transform="translate(3.876 11.074)">
            <path id="Path_241" data-name="Path 241" d="M199.369,243.485a.185.185,0,1,0-.185.185A.2.2,0,0,0,199.369,243.485Z" transform="translate(-199 -243.3)" fill="#fafafa"/>
          </g>
          <g id="Group_249" data-name="Group 249" transform="translate(3.138 11.074)">
            <path id="Path_242" data-name="Path 242" d="M198.569,243.485a.185.185,0,1,0-.185.185A.2.2,0,0,0,198.569,243.485Z" transform="translate(-198.2 -243.3)" fill="#fafafa"/>
          </g>
        </g>
        <g id="Group_251" data-name="Group 251" transform="translate(3.599 17.073)">
          <rect id="Rectangle_225" data-name="Rectangle 225" width="4.522" height="0.923" fill="#fafafa"/>
        </g>
        <g id="Group_252" data-name="Group 252" transform="translate(3.968 16.611)">
          <rect id="Rectangle_226" data-name="Rectangle 226" width="3.784" height="0.554" fill="#bfddb5"/>
        </g>
      </g>
      <g id="Group_254" data-name="Group 254" transform="translate(145.502 2867.862)">
        <path id="Path_243" data-name="Path 243" d="M213.992,341.7a16.8,16.8,0,1,0-16.8,16.8A16.8,16.8,0,0,0,213.992,341.7Z" transform="translate(-180.4 -324.9)" fill="#9ec10d"/>
      </g>
      <g id="Group_271" data-name="Group 271" transform="translate(156.576 2875.706)">
        <g id="Group_255" data-name="Group 255" transform="translate(0 2.399)">
          <rect id="Rectangle_227" data-name="Rectangle 227" width="11.536" height="14.858" fill="#fafafa"/>
        </g>
        <g id="Group_256" data-name="Group 256" transform="translate(1.477 0.831)">
          <rect id="Rectangle_228" data-name="Rectangle 228" width="8.49" height="4.061" fill="#fafafa"/>
        </g>
        <g id="Group_257" data-name="Group 257" transform="translate(3.415)">
          <rect id="Rectangle_229" data-name="Rectangle 229" width="4.891" height="3.045" fill="#fafafa"/>
        </g>
        <g id="Group_268" data-name="Group 268" transform="translate(2.215 3.968)">
          <g id="Group_258" data-name="Group 258">
            <rect id="Rectangle_230" data-name="Rectangle 230" width="2.123" height="1.938" fill="#bfddb5"/>
          </g>
          <g id="Group_259" data-name="Group 259" transform="translate(0 3.322)">
            <rect id="Rectangle_231" data-name="Rectangle 231" width="2.123" height="1.938" fill="#bfddb5"/>
          </g>
          <g id="Group_260" data-name="Group 260" transform="translate(0 6.737)">
            <rect id="Rectangle_232" data-name="Rectangle 232" width="2.123" height="1.938" fill="#bfddb5"/>
          </g>
          <g id="Group_261" data-name="Group 261" transform="translate(4.983)">
            <rect id="Rectangle_233" data-name="Rectangle 233" width="2.123" height="1.938" fill="#bfddb5"/>
          </g>
          <g id="Group_262" data-name="Group 262" transform="translate(4.983 3.322)">
            <rect id="Rectangle_234" data-name="Rectangle 234" width="2.123" height="1.938" fill="#bfddb5"/>
          </g>
          <g id="Group_263" data-name="Group 263" transform="translate(4.983 6.737)">
            <rect id="Rectangle_235" data-name="Rectangle 235" width="2.123" height="1.938" fill="#bfddb5"/>
          </g>
          <g id="Group_264" data-name="Group 264" transform="translate(2.492 9.967)">
            <rect id="Rectangle_236" data-name="Rectangle 236" width="1.107" height="2.584" fill="#bfddb5"/>
          </g>
          <g id="Group_265" data-name="Group 265" transform="translate(3.784 9.967)">
            <rect id="Rectangle_237" data-name="Rectangle 237" width="1.107" height="2.584" fill="#bfddb5"/>
          </g>
          <g id="Group_266" data-name="Group 266" transform="translate(3.876 11.074)">
            <path id="Path_244" data-name="Path 244" d="M199.369,349.885a.185.185,0,1,0-.185.185A.2.2,0,0,0,199.369,349.885Z" transform="translate(-199 -349.7)" fill="#fafafa"/>
          </g>
          <g id="Group_267" data-name="Group 267" transform="translate(3.138 11.074)">
            <path id="Path_245" data-name="Path 245" d="M198.569,349.885a.185.185,0,1,0-.185.185A.2.2,0,0,0,198.569,349.885Z" transform="translate(-198.2 -349.7)" fill="#fafafa"/>
          </g>
        </g>
        <g id="Group_269" data-name="Group 269" transform="translate(3.599 17.073)">
          <rect id="Rectangle_238" data-name="Rectangle 238" width="4.522" height="0.923" fill="#fafafa"/>
        </g>
        <g id="Group_270" data-name="Group 270" transform="translate(3.968 16.611)">
          <rect id="Rectangle_239" data-name="Rectangle 239" width="3.784" height="0.554" fill="#bfddb5"/>
        </g>
      </g>
    </g>
    <rect id="Rectangle_240" data-name="Rectangle 240" width="220" height="220" transform="translate(-752 2171)" fill="none"/>
  </g>
</svg>
