<svg xmlns="http://www.w3.org/2000/svg" width="220.5" height="220" viewBox="0 0 220.5 220">
  <g id="Group_335" data-name="Group 335" transform="translate(752 -2171)">
    <g id="Group_334" data-name="Group 334" transform="translate(840.8 98)">
      <rect id="Rectangle_277" data-name="Rectangle 277" width="220.5" height="165.811" transform="translate(-1592.8 2100.1)" fill="#3f434f"/>
      <path id="Path_510" data-name="Path 510" d="M235.1,305.845V245.1l52.67,30.373Zm1.285-58.451v56.157l48.633-28.079Z" transform="translate(-1736.507 1901.798)" fill="#fafcfc"/>
      <rect id="Rectangle_278" data-name="Rectangle 278" width="220.5" height="9.36" transform="translate(-1592.8 2100.1)" fill="#fff"/>
      <rect id="Rectangle_279" data-name="Rectangle 279" width="220.5" height="27.987" transform="translate(-1592.8 2238.016)" fill="#fff"/>
      <rect id="Rectangle_280" data-name="Rectangle 280" width="102.772" height="1.743" transform="translate(-1567.933 2251.046)" fill="#f27768"/>
      <rect id="Rectangle_281" data-name="Rectangle 281" width="85.337" height="1.743" transform="translate(-1465.161 2251.046)" fill="#7d8995"/>
      <path id="Path_511" data-name="Path 511" d="M351.67,199.335a1.835,1.835,0,1,1-1.835-1.835A1.9,1.9,0,0,1,351.67,199.335Z" transform="translate(-1745.809 1905.72)" fill="#fff"/>
      <path id="Path_512" data-name="Path 512" d="M359.77,199.335a1.835,1.835,0,1,1-1.835-1.835A1.841,1.841,0,0,1,359.77,199.335Z" transform="translate(-1746.477 1905.72)" fill="#fff"/>
      <path id="Path_513" data-name="Path 513" d="M367.97,199.335a1.835,1.835,0,1,1-1.835-1.835A1.841,1.841,0,0,1,367.97,199.335Z" transform="translate(-1747.153 1905.72)" fill="#fff"/>
      <g id="Group_329" data-name="Group 329" transform="translate(-1585.551 2247.467)">
        <path id="Path_514" data-name="Path 514" d="M143.4,363.693V354.7l7.8,4.5Zm.642-7.891v6.7l5.873-3.4Z" transform="translate(-143.4 -354.7)" fill="#303d4c"/>
      </g>
    </g>
    <rect id="Rectangle_285" data-name="Rectangle 285" width="220" height="220" transform="translate(-752 2171)" fill="none"/>
  </g>
</svg>
