<svg xmlns="http://www.w3.org/2000/svg" width="220" height="220" viewBox="0 0 220 220">
  <g id="Group_140" data-name="Group 140" transform="translate(-157 -1986)">
    <g id="Wallet" transform="translate(-166.327 1681.853)">
      <path id="Path_163" data-name="Path 163" d="M341.293,337.3H510.849a7.43,7.43,0,0,1,7.393,7.393V445.806a7.43,7.43,0,0,1-7.393,7.393H341.293a7.43,7.43,0,0,1-7.393-7.393V344.693a7.43,7.43,0,0,1,7.393-7.393Z" transform="translate(10.942 45.908)" fill="#7e4b1e" fill-rule="evenodd"/>
      <path id="Path_164" data-name="Path 164" d="M343.331,341.1H497.863a4.528,4.528,0,0,1,4.531,4.531h0a4.528,4.528,0,0,1-4.531,4.531H343.331a4.528,4.528,0,0,1-4.531-4.531h0a4.691,4.691,0,0,1,4.531-4.531Z" transform="translate(17.727 51.17)" fill="#e6e6e6" fill-rule="evenodd"/>
      <rect id="Rectangle_67" data-name="Rectangle 67" width="131.877" height="64.388" transform="translate(355.475 434.031) rotate(-79.997)" fill="#45b431"/>
      <rect id="Rectangle_68" data-name="Rectangle 68" width="131.877" height="32.433" transform="translate(355.388 434.02) rotate(-79.997)" fill="#58bc46"/>
      <rect id="Rectangle_69" data-name="Rectangle 69" width="131.877" height="64.388" transform="translate(402.488 454.497) rotate(-64.767)" fill="#45b431"/>
      <path id="Path_165" data-name="Path 165" d="M414.28,317.2,358,436.438l29.332,13.832,56.28-119.238Z" transform="translate(44.314 18.075)" fill="#58bc46" fill-rule="evenodd"/>
      <path id="Path_166" data-name="Path 166" d="M337.624,344.9h186.25a8.96,8.96,0,0,1,8.824,8.824V458.891a8.96,8.96,0,0,1-8.824,8.824H337.624a8.96,8.96,0,0,1-8.824-8.824V353.724a8.96,8.96,0,0,1,8.824-8.824Z" transform="translate(3.879 56.432)" fill="#9c6127" fill-rule="evenodd"/>
      <path id="Path_167" data-name="Path 167" d="M339.523,357.323a2.707,2.707,0,0,1-2.623-2.862,2.647,2.647,0,0,1,2.623-2.623h5.485a2.647,2.647,0,0,1,2.623,2.623,2.863,2.863,0,0,1-2.623,2.862ZM500.494,351.6a2.647,2.647,0,0,1,2.623,2.623,2.864,2.864,0,0,1-2.623,2.862h-5.485a2.755,2.755,0,0,1-2.862-2.862,2.707,2.707,0,0,1,2.862-2.623Zm-22.178,0a2.646,2.646,0,0,1,2.623,2.623,2.863,2.863,0,0,1-2.623,2.862h-5.485a2.9,2.9,0,0,1-2.862-2.862,2.707,2.707,0,0,1,2.862-2.623Zm-22.417,0a2.864,2.864,0,0,1,2.862,2.623,2.9,2.9,0,0,1-2.862,2.862h-5.485a2.707,2.707,0,0,1-2.623-2.862,2.647,2.647,0,0,1,2.623-2.623Zm-21.94,0a2.647,2.647,0,0,1,2.623,2.623,2.863,2.863,0,0,1-2.623,2.862h-5.485a2.755,2.755,0,0,1-2.862-2.862,2.707,2.707,0,0,1,2.862-2.623Zm-22.178,0a2.647,2.647,0,0,1,2.623,2.623,2.863,2.863,0,0,1-2.623,2.862H406.3a2.9,2.9,0,0,1-2.862-2.862A2.707,2.707,0,0,1,406.3,351.6Zm-22.178,0a2.864,2.864,0,0,1,2.862,2.623,2.9,2.9,0,0,1-2.862,2.862h-5.485a2.707,2.707,0,0,1-2.623-2.862,2.647,2.647,0,0,1,2.623-2.623Zm-22.178,0a2.646,2.646,0,0,1,2.623,2.623,2.863,2.863,0,0,1-2.623,2.862H361.94a2.755,2.755,0,0,1-2.862-2.862,2.707,2.707,0,0,1,2.862-2.623Z" transform="translate(15.096 65.71)" fill="#db9d2c"/>
      <path id="Path_168" data-name="Path 168" d="M352.473,363.6H513.444a26.615,26.615,0,0,1,26.471,26.709h0a26.564,26.564,0,0,1-26.471,26.471H352.473A26.564,26.564,0,0,1,326,390.309h0A26.314,26.314,0,0,1,352.473,363.6Z" transform="translate(0 82.327)" fill="#71441b" fill-rule="evenodd"/>
      <path id="Path_169" data-name="Path 169" d="M348.946,392.993a2.146,2.146,0,1,1,0-4.292h4.293a2.146,2.146,0,1,1,0,4.292ZM469.853,388.7a2.146,2.146,0,1,1,0,4.292h-4.292a2.146,2.146,0,1,1,0-4.292Zm-16.693,0a2.146,2.146,0,1,1,0,4.292h-4.054a2.146,2.146,0,1,1,0-4.292Zm-16.693,0a2.146,2.146,0,0,1,0,4.292h-4.293a2.146,2.146,0,0,1,0-4.292Zm-16.693,0a2.146,2.146,0,1,1,0,4.292h-4.293a2.146,2.146,0,1,1,0-4.292Zm-16.693,0a2.146,2.146,0,0,1,0,4.292h-4.293a2.146,2.146,0,1,1,0-4.292Zm-16.455,0a2.146,2.146,0,0,1,0,4.292h-4.292a2.146,2.146,0,1,1,0-4.292Zm-16.932,0a2.146,2.146,0,0,1,0,4.292H365.4a2.146,2.146,0,0,1,0-4.292Z" transform="translate(28.805 117.085)" fill="#db9d2c"/>
      <path id="Path_170" data-name="Path 170" d="M362.639,368.2H491.416a6.666,6.666,0,0,1,6.677,6.677V393a6.666,6.666,0,0,1-6.677,6.677H362.639A6.469,6.469,0,0,1,356.2,393V374.877a6.469,6.469,0,0,1,6.439-6.677Z" transform="translate(41.822 88.697)" fill="#8b5d35" fill-rule="evenodd"/>
      <path id="Path_171" data-name="Path 171" d="M367.016,385.632a6.916,6.916,0,1,0-6.916-6.916,6.921,6.921,0,0,0,6.916,6.916Z" transform="translate(47.222 93.682)" fill="#71441b" fill-rule="evenodd"/>
    </g>
    <rect id="Rectangle_71" data-name="Rectangle 71" width="220" height="220" transform="translate(157 1986)" fill="none"/>
  </g>
</svg>
