<svg xmlns="http://www.w3.org/2000/svg" width="220" height="220" viewBox="0 0 220 220">
  <g id="Group_587" data-name="Group 587" transform="translate(253 -2433)">
    <g id="Group_586" data-name="Group 586" transform="translate(569 -1393)">
      <g id="g90" transform="translate(-807.95 3941.667)">
        <path id="path92" d="M-229.087-3.511c0-1.106-.779-1.557-1.736-1l-78.214,45.156A2.053,2.053,0,0,0-309.8,43.4l1.818,3.142a2.06,2.06,0,0,0,2.78.713L-227,2.1a1.062,1.062,0,0,0,0-2.009l-.343-.2a3.856,3.856,0,0,1-1.744-3.014Z" transform="translate(310.055 4.751)" fill="#4d4949"/>
      </g>
      <g id="g94" transform="translate(-716.081 3827.621)">
        <path id="path96" d="M-5.685-.056A2.112,2.112,0,0,0-7.695,2.031V92.308c0,1.105.787,1.557,1.744,1l.335-.2a3.859,3.859,0,0,1,3.481,0l.35.2c.954.553,1.737.1,1.737-1V2.031A2.1,2.1,0,0,0-2.052-.054s-.534-.022-1.819-.022-1.814.02-1.814.02" transform="translate(7.695 0.076)" fill="#4d4949"/>
      </g>
      <g id="g98" transform="translate(-716.081 3952.368)">
        <path id="path100" d="M-4.936-.69c-.958-.553-1.744-.1-1.744,1V90.592a2.112,2.112,0,0,0,2.009,2.087s.529.02,1.814.02,1.819-.02,1.819-.02A2.109,2.109,0,0,0,.968,90.592V.307C.968-.8.189-1.25-.769-.7l-.351.206a3.859,3.859,0,0,1-3.481,0Z" transform="translate(6.68 0.934)" fill="#4d4949"/>
      </g>
      <g id="g102" transform="translate(-807.949 3879.679)">
        <path id="path104" d="M-229.084-143.276a3.868,3.868,0,0,1,1.744-3.014l.339-.195a1.061,1.061,0,0,0,0-2.009l-78.2-45.15a2.064,2.064,0,0,0-2.78.716l-1.814,3.137a2.051,2.051,0,0,0,.759,2.759l78.214,45.158c.958.555,1.736.1,1.736-1Z" transform="translate(310.05 193.915)" fill="#4d4949"/>
      </g>
      <g id="g106" transform="translate(-700.338 3941.667)">
        <path id="path108" d="M-7.923-4.612A3.849,3.849,0,0,1-9.659-1.6l-.347.2a1.063,1.063,0,0,0,0,2.009L68.2,45.762a2.057,2.057,0,0,0,2.776-.713L72.8,41.907a2.052,2.052,0,0,0-.763-2.757L-6.183-6.006c-.954-.553-1.74-.1-1.74,1Z" transform="translate(10.723 6.242)" fill="#4d4949"/>
      </g>
      <g id="g110" transform="translate(-700.333 3879.677)">
        <path id="path112" d="M-7.908-144.412c0,1.1.787,1.557,1.74,1l78.218-45.162a2.053,2.053,0,0,0,.763-2.757L71-194.464a2.06,2.06,0,0,0-2.776-.717l-78.207,45.15a1.063,1.063,0,0,0,0,2.009l.343.194a3.872,3.872,0,0,1,1.736,3.014Z" transform="translate(10.703 195.451)" fill="#4d4949"/>
      </g>
      <g id="g114" transform="translate(-796.503 3839.525)">
        <path id="path116" d="M-21.627-400.4l76.6,44.229L131.582-400.4v-88.461L54.975-533.094l-76.6,44.229Zm-7.644,4.411v-97.286l84.246-48.641,84.246,48.641v97.286L54.975-347.345Zm30.4-17.546,53.847,31.092,53.851-31.092v-62.189L54.975-506.811,1.128-475.723Zm-7.648,4.408v-71l61.494-35.51,61.5,35.51v71l-61.5,35.515Zm28.981-16.727,32.513,18.772L87.5-425.855v-37.55L54.975-482.179,22.47-463.4Zm-7.636,4.411v-46.373l40.149-23.19,40.161,23.19v46.373L54.975-398.256Zm25.43-14.691,14.718,8.508L69.7-436.135v-17l-14.726-8.5-14.718,8.5Zm-7.648,4.415v-25.823l22.366-12.92,22.374,12.92v25.823L54.975-418.8Z" transform="translate(29.271 541.917)" fill="#595555"/>
      </g>
    </g>
    <rect id="Rectangle_363" data-name="Rectangle 363" width="220" height="220" transform="translate(-253 2433)" fill="none"/>
  </g>
</svg>
