<svg xmlns="http://www.w3.org/2000/svg" width="464" height="464.363" viewBox="0 0 464 464.363">
  <g id="Group_98" data-name="Group 98" transform="translate(899 -1072.637)">
    <g id="Group_89" data-name="Group 89" transform="translate(-169.612 -752)">
      <path id="path868" d="M-234.417-410.362c31.043,1.633,59.841,8.232,84.408,18.354l-89.825-176.849-85.122,169.321c26.55-8.465,57.586-12.559,90.539-10.826" transform="translate(-257.223 2393.495)" fill="#1a1a1a"/>
      <path id="path872" d="M-671.9-48.523c-24.567-10.113-53.366-16.715-84.408-18.351-32.953-1.729-63.99,2.365-90.54,10.829-48.921,15.609-82.539,46.132-84.468,82.839-1.4,26.583,13.187,49.321,38.752,66.462,3.543,3.963,7.618,6.488,11.778,7.068,28.225,15.286,66.39,24.9,109.743,27.166,93.7,4.919,175.969-26.244,178.962-82.893,1.972-37.866-30.256-72.705-79.819-93.121" transform="translate(264.665 2056.177)" fill="#1a1a1a"/>
      <path id="path876" d="M-12.289,0l2.454,3.888,4.469-1.164L-8.287,6.285l2.474,3.882L-10.1,8.486l-2.933,3.564.266-4.6-4.268-1.687L-12.574,4.6Z" transform="translate(-485.015 1843.191)" fill="#fdfae1"/>
      <path id="path880" d="M-21.87-24.524l3.181,1.242-1.844-2.868,2.183-2.639-3.313.861L-23.5-30.81l-.2,3.4-3.314.87,3.168,1.237-.187,3.4Zm5.726,3.343L-21.568-23.3l-3.694,4.478.351-5.8-5.406-2.119,5.647-1.46.339-5.8,3.12,4.9,5.642-1.458-3.694,4.478Z" transform="translate(-473.403 1875.591)" fill="#fdfae1"/>
      <path id="path884" d="M-13.73,0l2.781,4.369,5.042-1.307-3.3,4,2.781,4.375-4.825-1.893-3.283,4,.3-5.182-4.807-1.893,5.007-1.3Z" transform="translate(-465.696 1892.542)" fill="#fdfae1"/>
      <path id="path888" d="M-24.532-27.569l3.579,1.405L-23.014-29.4l2.418-2.96-3.712.955-2.068-3.226-.217,3.83-3.7.959,3.543,1.4-.23,3.84ZM-18.1-23.8l-6.1-2.389-4.142,5.046.4-6.527-6.065-2.386,6.307-1.635.392-6.525,3.507,5.508,6.331-1.636-4.148,5.04Z" transform="translate(-452.578 1928.964)" fill="#fdfae1"/>
      <path id="path892" d="M-13.807,0l2.782,4.374,5.043-1.312L-9.3,7.068l2.781,4.363-4.813-1.883-3.3,4,.321-5.178-4.831-1.9,5.007-1.3Z" transform="translate(-465.825 1933.407)" fill="#fdfae1"/>
      <path id="path896" d="M-24.532-27.576l3.579,1.4L-23.02-29.4l2.443-2.963-3.724.958-2.05-3.226-.236,3.827-3.712.97,3.567,1.39-.223,3.827Zm6.445,3.764L-24.175-26.2l-4.148,5.04.4-6.518-6.083-2.386,6.331-1.644.392-6.518,3.507,5.511,6.325-1.645-4.142,5.039Z" transform="translate(-452.808 1969.835)" fill="#fdfae1"/>
      <path id="path900" d="M-13.838,0l2.8,4.368,5.013-1.3-3.3,3.991,2.8,4.374-4.837-1.892-3.3,4,.308-5.173-4.831-1.9,5.036-1.3Z" transform="translate(-441.282 1966.559)" fill="#fdfae1"/>
      <path id="path904" d="M-24.548-27.584l3.585,1.409-2.061-3.241,2.443-2.959-3.713.955-2.062-3.232-.254,3.837-3.706.958,3.579,1.405-.236,3.822Zm6.445,3.761-6.082-2.389-4.148,5.052.4-6.533-6.1-2.385,6.349-1.636.375-6.524,3.543,5.5,6.307-1.638L-21.6-29.325Z" transform="translate(-428.292 2003.001)" fill="#fdfae1"/>
      <path id="path908" d="M-13.809,0l2.8,4.375L-6,3.071l-3.3,4L-6.5,11.443l-4.819-1.9-3.3,4.006.308-5.176L-19.143,6.47l5.037-1.288Z" transform="translate(-496.937 1960.377)" fill="#fdfae1"/>
      <path id="path912" d="M-24.578-27.584l3.567,1.412-2.068-3.244,2.436-2.959-3.712.958-2.062-3.226-.242,3.83-3.712.964,3.58,1.4-.236,3.827Zm6.433,3.776-6.1-2.41-4.136,5.052.4-6.524-6.088-2.388,6.325-1.642.4-6.517,3.5,5.508,6.337-1.648-4.148,5.046Z" transform="translate(-483.853 1996.818)" fill="#fdfae1"/>
      <path id="path916" d="M-13.807,0l2.781,4.374,5.037-1.3-3.314,4,2.8,4.375-4.825-1.9-3.29,4.011.3-5.185L-19.14,6.482l5.024-1.3Z" transform="translate(-548.672 1967.841)" fill="#fdfae1"/>
      <path id="path920" d="M-24.562-27.591-21-26.182l-2.044-3.241,2.424-2.966-3.712.971-2.05-3.238-.241,3.834-3.712.955,3.579,1.4-.236,3.837Zm6.439,3.764L-24.2-26.222l-4.148,5.046.4-6.524-6.1-2.4,6.337-1.629.4-6.525,3.5,5.5,6.337-1.629-4.154,5.037Z" transform="translate(-535.619 2004.299)" fill="#fdfae1"/>
      <path id="path924" d="M-13.793,0l2.787,4.369,5.024-1.294-3.3,4.006L-6.5,11.44l-4.813-1.883-3.3,3.991.321-5.169-4.825-1.9,5.024-1.3Z" transform="translate(-516.87 1927.327)" fill="#fdfae1"/>
      <path id="path928" d="M-24.53-27.6l3.555,1.405-2.038-3.241,2.425-2.969-3.712.965-2.056-3.223-.236,3.822-3.712.958,3.568,1.412-.23,3.83Zm6.434,3.754-6.082-2.385-4.136,5.052.381-6.524L-34-30.1l6.324-1.639.4-6.521,3.495,5.508,6.325-1.642-4.142,5.04Z" transform="translate(-503.83 1963.791)" fill="#fdfae1"/>
      <path id="path932" d="M-13.791,0l2.8,4.374L-5.979,3.08l-3.289,4,2.781,4.375-4.825-1.9L-14.6,13.552l.314-5.169-4.831-1.893,5.024-1.306Z" transform="translate(-501.744 1885.117)" fill="#fdfae1"/>
      <path id="path936" d="M-24.546-27.576l3.585,1.4L-23.022-29.4l2.424-2.975-3.712.973-2.055-3.244-.236,3.839-3.712.964,3.561,1.4-.224,3.83Zm6.44,3.758L-24.189-26.2l-4.154,5.043.411-6.518-6.094-2.4,6.337-1.633.381-6.515,3.513,5.5,6.325-1.636-4.136,5.052Z" transform="translate(-488.691 1921.56)" fill="#fdfae1"/>
      <path id="path940" d="M-282.039-86.008c-41.019.8-44.768-25.053-44.943-33.219-.834,36.865,7.425,36.466,7.425,36.466-40.463,7.851-46.176-14.615-46.176-14.615-16.887,32.182-22.886,30.193-25.238,47.4C-367.444-18.326-329.31-.614-281.252-6.681c29.373-3.719,59.236-19.394,78.355-45.7-13.1-18.825-65.646-33.9-79.142-33.63" transform="translate(-201.426 2222.61)" fill="#fdfae1"/>
      <path id="path944" d="M-93.287-31.16c3.38-2.28,4.662-7.253,4.662-7.253-.8,2.164-4.173,3.985-6.941,4.764-.278-.278-.556-.58-.871-.877A11.535,11.535,0,0,0-93.2-41.145a8.983,8.983,0,0,1-5.7,4.465c-.465-.393-.986-.759-1.518-1.127a7.611,7.611,0,0,0,2.025-5.387c-.4,1.916-2.891,3.3-4.686,3.845-5.024-2.385-11.464-2.724-18.52,4.009-6.657,6.364-7.721,11.056-7.721,11.056,2.642-3.272,9.765-13.759,21.767-12.426,11.875,1.3,13.188,11.594,20.177,7.171-.653.342-3.047,1.224-5.913-1.62" transform="translate(-348.652 2204.071)" fill="#1a1a1a"/>
      <path id="path948" d="M-15.373-30.878c-3.314-2.343-4.492-7.353-4.492-7.353.755,2.183,4.1,4.064,6.82,4.907.279-.281.593-.559.883-.856a11.628,11.628,0,0,1-3.078-6.69,8.889,8.889,0,0,0,5.6,4.574c.478-.371,1-.728,1.548-1.073A7.682,7.682,0,0,1-10.016-42.8c.374,1.922,2.818,3.343,4.626,3.948,5.055-2.292,11.5-2.5,18.417,4.374,6.524,6.5,7.486,11.216,7.486,11.216C17.961-26.585,11.013-37.229-1-36.156c-11.9,1.073-13.417,11.337-20.31,6.781.647.336,3.023,1.288,5.938-1.5" transform="translate(-543.823 2203.366)" fill="#1a1a1a"/>
      <path id="path952" d="M-54.953-37.475c-4.124.811-8.054-5.009-9.2-6.865C-66.127-43.258-72.33-40.192-75.5-42.9c-2.134-1.826,1.626-2.878.1-7.652-1.62-5.055,11.652,5.272,11.652,5.272l.084.23c3.362-.517,15.782-2.276,12.4.856-3.676,3.417-.907,6.171-3.676,6.724" transform="translate(-533.49 2310.031)" fill="#482954"/>
      <path id="path956" d="M-21.5-.174c-3.507-.332-7.117.6-8.078,2.1-.937,1.482,1.137,2.963,4.644,3.292s7.123-.619,8.054-2.107c.961-1.493-1.113-2.953-4.62-3.283" transform="translate(-474.248 2199.62)" fill="#f98008"/>
      <path id="path960" d="M-4.283-.01A1.826,1.826,0,0,0-5.933,1.876a1.862,1.862,0,0,0,1.9,1.753,1.947,1.947,0,0,0,1.753-2,1.94,1.94,0,0,0-2-1.635" transform="translate(-450.232 2184.104)" fill="#f98008"/>
      <path id="path964" d="M-4.315-.008A1.823,1.823,0,0,0-5.978,1.875,1.833,1.833,0,0,0-4.1,3.62a1.829,1.829,0,0,0,1.639-1.98A1.792,1.792,0,0,0-4.315-.008" transform="translate(-441.039 2183.501)" fill="#f98008"/>
      <path id="path968" d="M-4.237-.01A1.809,1.809,0,0,0-5.869,1.865,1.843,1.843,0,0,0-4,3.63,1.859,1.859,0,0,0-2.35,1.641,1.825,1.825,0,0,0-4.237-.01" transform="translate(-459.312 2184.702)" fill="#f98008"/>
      <path id="path972" d="M-4.222-.013A1.9,1.9,0,0,0-5.849,1.97,1.816,1.816,0,0,0-3.968,3.62,1.828,1.828,0,0,0-2.221,1.74a1.912,1.912,0,0,0-2-1.753" transform="translate(-445.207 2190.743)" fill="#f98008"/>
      <path id="path976" d="M-4.226-.012A1.816,1.816,0,0,0-5.853,1.969a1.754,1.754,0,0,0,1.88,1.651A1.735,1.735,0,0,0-2.328,1.733a1.838,1.838,0,0,0-1.9-1.745" transform="translate(-454.46 2191.362)" fill="#f98008"/>
      <path id="path980" d="M-4.509,0A1.813,1.813,0,0,0-6.251,1.774,1.82,1.82,0,0,0-4.48,3.636,1.949,1.949,0,0,0-2.611,1.75,1.936,1.936,0,0,0-4.509,0" transform="translate(-542.382 2183.956)" fill="#f98008"/>
      <path id="path984" d="M-4.541,0A1.8,1.8,0,0,0-6.294,1.79,1.816,1.816,0,0,0-4.529,3.646,1.834,1.834,0,0,0-2.781,1.76,1.81,1.81,0,0,0-4.541,0" transform="translate(-533.173 2183.874)" fill="#f98008"/>
      <path id="path988" d="M-4.494,0A1.8,1.8,0,0,0-6.23,1.769,1.839,1.839,0,0,0-4.44,3.639,1.837,1.837,0,0,0-2.7,1.744,1.785,1.785,0,0,0-4.494,0" transform="translate(-551.468 2184.028)" fill="#f98008"/>
      <path id="path992" d="M-4.524,0A1.936,1.936,0,0,0-6.271,1.893,1.791,1.791,0,0,0-4.506,3.64,1.817,1.817,0,0,0-2.637,1.874,1.938,1.938,0,0,0-4.524,0" transform="translate(-537.676 2190.87)" fill="#f98008"/>
      <path id="path996" d="M-4.54,0A1.862,1.862,0,0,0-6.293,1.886,1.755,1.755,0,0,0-4.516,3.646,1.719,1.719,0,0,0-2.762,1.874,1.836,1.836,0,0,0-4.54,0" transform="translate(-546.935 2190.942)" fill="#f98008"/>
      <path id="path1000" d="M-633.492-599.654c-9.929-.17-14.754-4.716-16.84-7.567,6.839-.272,15.352-7.349.278-30.45,0,0,12.172-12.564-4.124-24.2,0,0,11.464-8.148.726-26.982a44.982,44.982,0,0,0,4.753-14.46c2.7-8.674,4.4-21.066,2.969-37.065a165.315,165.315,0,0,0-5.2-28.681c-3.586-13.244-8.09-24.076-15.043-32.814-9.294-11.667-23.043-19.538-44.986-24.206-13.157-2.809-29.259-4.481-49.151-5.115-3.561-.1-7.317-.088-11.228.091-24.833,1.1-62.629,3.58-85.557,38.337-2.279,3.468-2.587,6.606-5.84,15.564-3.664,10.04-8.139,23.01-10.848,33.228-.635,2.334-1.179,4.55-1.578,6.515-3.168,15.416,3.513,31.4,10.388,41.4a19.269,19.269,0,0,0,4.341,7.249s-13.181,17.487-1.935,29.087c0,0-8.483,15.923,3.38,24.092,0,0-10.43,21.5-.363,29.08a6.908,6.908,0,0,0,2.474,1.091c-6.736,8.637-21.29,12.235-21.29,12.235,8.241,15.095,37.01,16.872,27.517,6.007-6.893-7.888-6.361-14.871-5.569-18.139,6.881,1.139,18.273-4.544,3.495-30.259,0,0,12.843-11.866-2.769-24.4,0,0,11.724-7.406,2.406-26.547a2.181,2.181,0,0,0,.333-1.049c0-.072.012-.124.012-.2A30.882,30.882,0,0,0-849.5-706.4c3.434-8.431,9.959-13.138,22.807-37.63,0,0,5.714,22.465,46.177,14.614,0,0-8.259.4-7.425-36.466.175,8.166,3.924,34.014,44.943,33.218,12.625-.254,59.425,12.925,76.119,30.042a20.3,20.3,0,0,0,6.131,12.28s-12.166,18.2-.3,29.138c0,0-7.558,16.4,4.746,23.865,0,0-9.221,22.076,1.263,29.056a7.572,7.572,0,0,0,3.846,1.083c1.845,10.778-5.206,23.932-5.206,23.932,16.725,4,37.325-16.159,22.9-16.385" transform="translate(259.529 2869.267)" fill="#f98008"/>
      <path id="path1004" d="M-13.481-43.823c4.2.284,7.347-6,8.229-7.991,2.111.823,8.653,3.063,11.452-.039,1.869-2.083-1.989-2.643-1.076-7.579.955-5.215-10.871,6.744-10.871,6.744l-.079.236c-3.38-.085-15.926-.217-12.166,2.446,4.075,2.912,1.705,6,4.511,6.183" transform="translate(-383.49 2314.825)" fill="#482954"/>
    </g>
    <rect id="Rectangle_25" data-name="Rectangle 25" width="464" height="464" transform="translate(-899 1073)" fill="none"/>
  </g>
</svg>
