<svg xmlns="http://www.w3.org/2000/svg" width="1051" height="1051.249" viewBox="0 0 1051 1051.249">
  <g id="Group_108" data-name="Group 108" transform="translate(2141 -728.751)">
    <g id="_1593110848" transform="translate(-2026 728.751)">
      <path id="Path_45" data-name="Path 45" d="M24419.516,3024.471c17.1.376,29.064,6.64,45.414,7.768,50.492,3.571,98.787,6.765,149.715,6.2,39.021-.438,142.135-11.025,184.293-15.66,61.074-6.7,61.2,2.506,73.355,29.943,25.555,58.006,33.012,111.878,27.748,172.64-.877,9.96-.189,40.4-1.066,44.037-.814,3.258-14.031,30.569-16.787,34.327-13.031,18.229-61.891,18.229-83.436,21.424-29.506,4.448-64.9,6.64-95.281,9.459-35.453,3.32-160.553,6.327-192-.188-84.566-17.477-98.1-18.855-96.092-111.878.75-34.14-1.568-66.275,0-98.724C24416.947,3092.563,24420.516,3054.727,24419.516,3024.471Zm378.479-41.532-80.365,6.828c-69.91,14.783-194.754,10.4-266.793,4.7-83.064-6.515-67.713,33.012-71.412,54.686-9.582,56.5-15.6,181.6-5.512,237.224,11.211,62.078,117.889,91.395,158.795,90.893,17.418-.25,13.406-6.264,56.443-6.014,21.234.063,38.9,2.694,59.318,2.443,46.545-.5,178.344-10.586,230.713-19.983,54.625-9.835,54.309-51.617,61.762-64.333,11.59-19.732,8.836,13.406,16.727-45.1,3.07-22.865,4.2-34.892,3.824-58.507-.5-34.077-25.057-114.447-42.973-145.83C24892.588,2994.4,24873.918,2977.177,24797.994,2982.939Z" transform="translate(-24257.336 -2877.656)" fill="#696969" fill-rule="evenodd"/>
      <path id="Path_46" data-name="Path 46" d="M26012.68,4693.529c19.105,4.071,12.215-20.046,55.254-73.479,9.771-12.152,54.559-63.769,64.705-68.968-.623,30.381-35.828,126.849-22.988,147.772,15.6-2.067,25.621-34.266,47.418-60.261,11.277-13.469,37.775-52.432,51.555-59.2-3.758,25.5-39.215,107.243-27.123,125.848,14.785,2.568,23.242-27.751,49.422-60.512,10.965-13.656,40.66-55.438,53.748-60.074-5.449,23.24-38.773,95.027-27.559,112.942,17.039,9.835,49.607-69.594,78.176-78.427-2.7,26.059-19.543,78.616,13.717,56.753.877-15.974-2.256-10.462-3.193-22.865-.564-7.83,1.436-15.221,2.82-22.676,2.506-13.343,8.453-31.7-.693-43.035-15.348-.438-56.5,59.7-69.219,66.275.379-28,35.582-85.318,26-108.245-11.215-4.009-18.357,12.09-27.061,21.862-17.414,19.543-70.664,87.26-78.113,91.9,4.758-25.307,41.215-110.375,31.32-127.476-11.842.688-7.955-.564-15.229,10.148l-89.7,110.061c4.51-36.52,33.012-105.864,24.242-138-14.158-3.32-20.732,12.716-31.07,24.493l-57.629,66.65c-7.52,9.647-19.168,30.507-29.193,35.644,2.316-29.128,38.836-135.056,31.32-152.6L26053.34,4487c-4.326,8.206-5.643,34.015-8.525,47.483-3.881,18.166-8.33,33.952-13.342,51.617C26026.084,4605.456,26007.543,4678.558,26012.68,4693.529Z" transform="translate(-25797.506 -4288.504)" fill="#696969" fill-rule="evenodd"/>
      <path id="Path_47" data-name="Path 47" d="M24799,12045.3c1,29,48.68,33.137,65.273,32.949,22.051-.251,70.6,11.149,86.387-5.388,9.586-10.086-4.012-23.616-14.6-28.063-13.715-5.826-34.574-5.326-49.859-7.079C24859.32,12034.651,24819.543,12031.581,24799,12045.3Z" transform="translate(-24660.682 -11363.775)" fill="#696969" fill-rule="evenodd"/>
      <path id="Path_48" data-name="Path 48" d="M24837,10327.673c10.65,29.319,47.98,27.376,75.42,26.813,16.287-.312,80.871,8.895,80.871-15.348,0-23.553-53.117-28.628-59.822-27.249C24900.58,10318.843,24852.91,10305.748,24837,10327.673Z" transform="translate(-24696.307 -9748.318)" fill="#696969" fill-rule="evenodd"/>
      <path id="Path_49" data-name="Path 49" d="M28222,10209.516c6.895,32.509,50.492,24.178,75.109,23.678,3.506-.062,87.637,13.844,74.17-18.792C28357.867,10181.889,28235.969,10188.029,28222,10209.516Z" transform="translate(-27869.262 -9635.858)" fill="#696969" fill-rule="evenodd"/>
      <path id="Path_50" data-name="Path 50" d="M24692,14374.064c.816,28.44,40.092,32.136,56.316,30.568,21.424-2.066,75.043,8.143,80.057-14.846,6.264-28.565-45.541-29.253-56.131-29.065-16.85.376-57.5.938-70.973,8.52l-7.393,3.885C24693.5,14373.312,24692.625,14373.688,24692,14374.064Z" transform="translate(-24560.389 -13543.702)" fill="#696969" fill-rule="evenodd"/>
      <path id="Path_51" data-name="Path 51" d="M31531.676,9982.9c-16.1,2.818-63.52,11.213-24.988,33.138,13.215,7.518,104.105,12.779,117.2-3.07,7.582-9.146-1.691-20.856-10.836-26.811C31599.77,9977.51,31549.027,9979.889,31531.676,9982.9Z" transform="translate(-30934.389 -9437.555)" fill="#696969" fill-rule="evenodd"/>
      <path id="Path_52" data-name="Path 52" d="M28386,14492.946c3.891,27.751,31.26,29.566,54.439,26.372,19.48-2.693,84.629.251,66.084-34.076C28493.182,14460.688,28398.279,14476.535,28386,14492.946Z" transform="translate(-28022.988 -13648.556)" fill="#696969" fill-rule="evenodd"/>
      <path id="Path_53" data-name="Path 53" d="M28491,12127.744c7.895,24.868,28.25,30.132,52.43,29.63,18.168-.438,67.467,7.579,71.912-14.407,5.643-27.625-34.074-28.563-51.93-28.689C28531.34,12114.088,28519.377,12113.775,28491,12127.744Z" transform="translate(-28121.414 -11437.95)" fill="#696969" fill-rule="evenodd"/>
      <path id="Path_54" data-name="Path 54" d="M31795,11777.694c10.336,19.295,20.8,27.062,45.793,28.627,13.656.879,61.2,2.694,66.461-11.9C31920.033,11759.217,31821.5,11755.331,31795,11777.694Z" transform="translate(-31218.441 -11109.449)" fill="#696969" fill-rule="evenodd"/>
      <path id="Path_55" data-name="Path 55" d="M31635,14316.616c4.57,41.095,73.473,34.077,95.531,14.095-2.7-25.306-16.1-27.937-39.473-28.251C31670.391,14302.209,31648.594,14302.9,31635,14316.616Z" transform="translate(-31068.467 -13489.074)" fill="#696969" fill-rule="evenodd"/>
      <path id="Path_56" data-name="Path 56" d="M25380.984,3701.662c9.9,17.1-26.557,102.169-31.322,127.476,7.455-4.635,60.7-72.351,78.117-91.9,8.705-9.772,15.852-25.872,27.063-21.862,9.586,22.927-25.621,80.244-26,108.245,12.715-6.578,53.867-66.714,69.219-66.275,9.146,11.338,3.191,29.692.688,43.035-1.379,7.454-3.383,14.846-2.818,22.676.938,12.4,4.07,6.891,3.193,22.865-33.264,21.862-16.414-30.695-13.717-56.754-28.564,8.833-61.141,88.262-78.176,78.427-11.211-17.915,22.109-89.7,27.559-112.943-13.092,4.635-42.783,46.417-53.744,60.073-26.187,32.761-34.643,63.08-49.426,60.512-12.088-18.6,23.365-100.352,27.127-125.847-13.783,6.765-40.281,45.728-51.555,59.2-21.8,26-31.822,58.194-47.422,60.261-12.84-20.923,22.361-117.39,22.992-147.772-10.15,5.2-54.937,56.816-64.713,68.969-43.031,53.433-36.141,77.551-55.246,73.479-5.137-14.971,13.4-88.074,18.793-107.43,5.008-17.665,9.457-33.451,13.338-51.617,2.881-13.468,4.2-39.276,8.52-47.482l10.273,1.065c7.52,17.539-29,123.467-31.316,152.6,10.021-5.136,21.674-26,29.189-35.643l57.629-66.651c10.334-11.777,16.912-27.813,31.07-24.492,8.77,32.135-19.732,101.48-24.242,138l89.7-110.062C25373.031,3701.1,25369.146,3702.351,25380.984,3701.662Zm-275.309,101.73c-2.006,93.023,11.527,94.4,96.09,111.877,31.449,6.516,156.541,3.508,192,.188,30.379-2.819,65.77-5.011,95.275-9.458,21.547-3.2,70.41-3.2,83.439-21.424,2.758-3.758,15.975-31.07,16.785-34.327.881-3.634.189-34.077,1.07-44.037,5.256-60.762-2.2-114.634-27.754-172.64-12.154-27.437-12.277-36.646-73.355-29.943-42.154,4.635-145.262,15.222-184.287,15.66-50.93.564-99.229-2.63-149.717-6.2-16.348-1.128-28.312-7.392-45.414-7.767,1,30.256-2.572,68.091-4.135,99.349C25104.111,3737.118,25106.424,3769.253,25105.676,3803.393Z" transform="translate(-24947.629 -3458.504)" fill="#fff" stroke="#fff" stroke-width="11.644" fill-rule="evenodd"/>
      <path id="Path_57" data-name="Path 57" d="M23476.1,2715.822c-11.213,174.019-14.221,193.75,209.727,202.646,29.441,1.19,280.318,1.566,304.936-4.385,58.637-14.282,38.527-5.262,96.721-10.085,96.844-7.956,84.443-37.9,91.518-122.089,3.133-36.771.441-66.149-.375-102.043-2.316-107.493,6.895-200.391-6.828-315.464-10.211-85.757-18.289-315.652-45.412-380.987-16.541-39.715-28.943-38.587-70.035-38.149-35.33.313-68.779,3.32-104.426,3.633-51.99.5-158.855,8.707-204.961,4.072-27.754-2.819-57.758,2.067-96.973,1.065-26.057-.626-76.545,1.19-101.1,6.139-26.811,5.45-50.619,22.363-59.576,48.359-4,11.526-10.775,84.379-8.516,94.777l4.887,102.419c-.816,17.352-2.947,33.2-3.072,50.8-.127,17.226,2.318,32.135,2.129,50.677-.375,35.33-1.127,66.463,0,101.73.625,17.665-.123,34.077-1.127,51.492-.877,15.034,2.756,32.072,1.506,49.8C23480.172,2578.574,23480.488,2647.1,23476.1,2715.822Zm208.785,36.144c-5.014,22.989-58.635,12.779-80.061,14.846-16.221,1.566-55.5-2.13-56.309-30.569.621-.376,1.5-.752,1.877-.94l7.393-3.884c13.467-7.58,54.123-8.144,70.973-8.519C23639.346,2722.713,23691.15,2723.4,23684.887,2751.966Zm-64.4-131.61c-16.6.188-64.271-3.946-65.271-32.949,20.545-13.719,60.324-10.649,87.2-7.58,15.281,1.754,36.141,1.253,49.857,7.078,10.59,4.448,24.186,17.978,14.6,28.063C23691.088,2631.506,23642.543,2620.105,23620.49,2620.356Zm12.529-108.308c-27.436.564-64.775,2.506-75.422-26.811,15.912-21.925,63.58-8.832,96.469-15.786,6.7-1.378,59.824,3.7,59.824,27.249C23713.891,2520.944,23649.3,2511.736,23633.02,2512.049Zm59.254-106.554c-40.9.5-147.578-28.815-158.791-90.893-10.088-55.626-4.074-180.721,5.512-237.224,3.7-21.674-11.652-61.2,71.412-54.686,72.039,5.7,196.883,10.085,266.789-4.7l80.369-6.828c75.92-5.763,94.594,11.464,120.523,57,17.916,31.384,42.475,111.753,42.973,145.83.379,23.616-.754,35.643-3.824,58.508-7.889,58.507-5.133,25.37-16.723,45.1-7.453,12.717-7.141,54.5-61.766,64.333-52.369,9.4-184.164,19.481-230.709,19.982-20.424.251-38.088-2.38-59.32-2.443C23705.684,2399.231,23709.691,2405.245,23692.273,2405.495Zm142.074,371.152c-23.178,3.195-50.551,1.379-54.436-26.372,12.281-16.412,107.182-32.26,120.525-7.7C23918.98,2776.9,23853.83,2773.953,23834.348,2776.647Zm244.621-29.128c-22.057,19.983-90.959,27-95.531-14.094,13.594-13.719,35.391-14.407,56.064-14.157C24062.867,2719.581,24076.271,2722.211,24078.969,2747.519Zm-39.719-144.765c-24.994-1.566-35.457-9.334-45.791-28.627,26.5-22.363,125.033-18.479,112.254,16.725C24100.453,2605.447,24052.906,2603.631,24039.25,2602.754Zm-200.326,22.551c-24.18.5-44.541-4.761-52.432-29.629,28.379-13.969,40.34-13.656,72.414-13.468,17.85.125,57.566,1.065,51.928,28.69C23906.385,2632.884,23857.086,2624.866,23838.924,2625.3Zm150.275-140.944c-38.523-21.925,8.895-30.319,24.994-33.138,17.354-3.007,68.092-5.387,81.369,3.258,9.15,5.951,18.418,17.665,10.838,26.81C24093.307,2497.14,24002.414,2491.878,23989.2,2484.361Zm-144.451,18.855c-24.621.5-68.215,8.833-75.109-23.679,13.973-21.486,135.869-27.625,149.275,4.886C23932.385,2517.06,23848.254,2503.153,23844.748,2503.216Z" transform="translate(-23416.904 -1905.882)" fill="#f0bb53" stroke="#ffbd49" stroke-width="11.644" fill-rule="evenodd"/>
      <path id="Path_58" data-name="Path 58" d="M22654.893,1515.7c-2.252-10.4,4.51-83.251,8.52-94.777,8.959-26,32.762-42.91,59.57-48.359,24.555-4.949,75.047-6.765,101.105-6.139,39.215,1,69.219-3.884,96.971-1.065,46.1,4.636,152.967-3.57,204.963-4.072,35.643-.313,69.1-3.32,104.422-3.633,41.1-.439,53.5-1.566,70.037,38.149,27.123,65.335,35.2,295.231,45.41,380.987,13.721,115.073,4.514,207.97,6.832,315.464.814,35.894,3.506,65.273.375,102.043-7.08,84.19,5.324,114.133-91.52,122.089-58.193,4.823-38.088-4.2-96.717,10.085-24.621,5.951-275.5,5.575-304.941,4.385-223.945-8.9-220.939-28.627-209.725-202.646,4.383-68.718,4.07-137.248,9.018-205.59,1.256-17.728-2.379-34.766-1.5-49.8,1-17.415,1.754-33.827,1.127-51.492-1.127-35.267-.373-66.4,0-101.73.189-18.542-2.254-33.451-2.131-50.677.127-17.6,2.26-33.451,3.07-50.8Zm560.52-194.314-227.641,6.765c-38.465.5-77.426-1.127-115.764.376-67.4,2.631-245.24-8.833-253.451,97.47l-12.025,392.513c-.621,19.231-1.943,36.332-1.754,56.315.318,37.773-4,73.98-3.691,112.943.375,38.211-2.32,74.732-6.141,112.066L22591,2210.648c4.885,70.848,34.951,112,101.98,133.615,51.867,16.788,26.621,9.9,71.352,16.412,93.646,13.719,161.426,7.517,257.27,7.016,38.088-.25,74.916-1.252,112.879-2.13,14.6-.376,42.533-.814,55.877-4.072,10.646-2.631-1.129-.94,9.4-3.759l92.773-9.521c23.365-1.253,29.064-1.253,51.426-7.454,23.93-6.7,20.986-2.443,36.643-22.175,11.969-15.159,17.607-16.162,22.49-36.082,14.973-60.825,7.334-158.671,7.832-221.375,1.193-146.833.123-197.885-12.529-338.7-3.008-34.265-9.021-73.541-10.021-107.117C23384.8,1495.718,23381.414,1290.567,23215.412,1321.386Z" transform="translate(-22590.998 -1318.271)" fill="#696969" fill-rule="evenodd"/>
    </g>
    <rect id="Rectangle_34" data-name="Rectangle 34" width="1051" height="1051" transform="translate(-2141 729)" fill="none"/>
  </g>
</svg>
