<svg xmlns="http://www.w3.org/2000/svg" width="1051" height="1051" viewBox="0 0 1051 1051">
  <g id="Group_109" data-name="Group 109" transform="translate(2141 -729)">
    <g id="_1588394096" transform="translate(-2141 780.658)">
      <path id="Path_27" data-name="Path 27" d="M1679,29462.654c7.135,18.359,43.2,21.215,61.429,22.25-.714,20.5-23.741,107.16,46.445,83.547,6.1-13.168,11.351-62.922,10.638-80.754,5.708,1.813,28.865,3.824,30.293,3.891,6.746.129,23.287-4.543,34.055-5.906,2.076-16.73,4.411-24-13.947-31.523-9.47-3.895-34.833-8.367-45.017-8.7,1.3-21.211,9.406-43.781-1.492-62.2-15.633-26.273-43.98-5.059-47.613,0-9.925,13.883.195,54.484-17.125,58.895C1717.531,29446.959,1692.1,29440.279,1679,29462.654Z" transform="translate(-1594.956 -28861.387)" fill="#696969" fill-rule="evenodd"/>
      <path id="Path_28" data-name="Path 28" d="M7096.41,29050.563c5.772,0,32.368-9.145,43.071-11.41,31.071-6.684,66.229-11.289,97.234-8.309,18.034,1.754,35.612,10.383,37.041-14.008-22.833-22.965-124.352-2.855-156.07,4.152C7098.68,29025.137,7083.761,29027.992,7096.41,29050.563Z" transform="translate(-6656.571 -28520.777)" fill="#696969" fill-rule="evenodd"/>
      <path id="Path_29" data-name="Path 29" d="M12304.736,28913.688c-40.152,20.824,2.594,81.344,45.73,57.148,15.7-8.82,24.066-31.852,9.471-46.7C12348.133,28912.133,12318.035,28906.75,12304.736,28913.688Z" transform="translate(-11516.432 -28431.451)" fill="#696969" fill-rule="evenodd"/>
      <path id="Path_30" data-name="Path 30" d="M12842.276,30689.734c-1.945,48.391,53.322,71.289,69.279,34.508,9.4-21.859-3.439-32.047-22.25-40.742C12871.985,30675.527,12855.382,30679.938,12842.276,30689.734Z" transform="translate(-12034.059 -30085.477)" fill="#696969" fill-rule="evenodd"/>
      <path id="Path_31" data-name="Path 31" d="M13893.16,28235.7c-32.887-24-71.613-9.855-52.738,30.1,7.008,14.727,23.678,20.3,37.756,12.52C13890.436,28271.572,13893.354,28249.846,13893.16,28235.7Z" transform="translate(-12962.862 -27789.332)" fill="#696969" fill-rule="evenodd"/>
      <path id="Path_32" data-name="Path 32" d="M8343.367,28422.387l-5.773-17.707c-12.455-1.1-53.71-1.75-64.542.133-11.807,2.008-40.479,14.98-26.076,30.488,11.155,12,2.073-10.187,48.845-9.277C8318.652,28426.477,8329.289,28437.246,8343.367,28422.387Z" transform="translate(-7733.188 -27957.342)" fill="#696969" fill-rule="evenodd"/>
      <path id="Path_33" data-name="Path 33" d="M2458.827,26132.652c26.011,5.059,7.2-2.98,43.007-41.059,6.746-7.137,16.411-14.27,26.141-18.1,11.806-4.672,19.4-3.57,20.368-19.141-22.9-24.512-68.889,40.027-76.089,48.586C2462.719,26114.23,2457.724,26115.137,2458.827,26132.652Z" transform="translate(-2324.057 -25755.303)" fill="#696969" fill-rule="evenodd"/>
      <path id="Path_34" data-name="Path 34" d="M14233.266,30229.98c-7.332-6.617-24.391-17.52-33.146-17.129-13.949.652-27.117,8.559-20.109,24.715C14193.047,30267.8,14232.357,30264.422,14233.266,30229.98Z" transform="translate(-13283.249 -29649.205)" fill="#696969" fill-rule="evenodd"/>
      <path id="Path_35" data-name="Path 35" d="M3448.456,26664.914c5.06-1.488,29.385-25.945,28.217-43.457C3455.2,26609.977,3442.229,26655.578,3448.456,26664.914Z" transform="translate(-3248.171 -26289.061)" fill="#696969" fill-rule="evenodd"/>
      <path id="Path_36" data-name="Path 36" d="M1762.094,25290.094c-44.888-12-57.6-24.973-106.641-17.062-32.693,5.32-21.276,11.68-48.066,13.492-16.476,1.039-37.169-5.445-53.645-5.254-12.908.2-37.687,4.48-48.909,2.859-29.255-4.285-27.374-2.145-56.175,1.23-60.585,7.07-142.577-7.852-223.4,19.008-32.369,10.766-45.472,32.105-66.553,56.758-62.142,72.391-72.262,207.375-79.462,294.492-3.7,44.758-5.773,71.031-1.1,116.242,2.53,24.586,14.854,78.035,27.633,98.727,30.358,49.234,129.993,72.328,179.941,44.172,94.381-53.187,84.262-187.008,113.387-261.148,42.488-108.2,331.275-102.816,369.027-44.953,26.855,41.188,16.671,59.156,21.147,104.172,6.616,66.945-9.665,165.152,41.385,207.578,25.817,21.406,66.294,25.813,97.819,11.676,16.865-7.527,20.239-19.852,26.466-35.16,6.162-15.113,15.244-28.148,21.536-42.812,31.071-73.105,33.731-123.113,45.212-203.613,7.4-51.445-1.1-174.039-25.752-219.707-14.984-27.7-32.887-47.352-59.872-63.375-26.4-15.633-51.18-33.406-78.813-46.832C1836.5,25310.461,1786.094,25296.449,1762.094,25290.094Zm-553.768,73.754c-35.807,38.078-17,46.121-43.007,41.059-1.1-17.512,3.892-18.422,13.427-29.707,7.2-8.562,53.191-73.109,76.089-48.586-.973,15.57-8.562,14.465-20.368,19.137C1224.737,25349.578,1215.072,25356.711,1208.326,25363.848Zm75.181,256.484c18.357,7.523,16.022,14.789,13.946,31.523-10.768,1.363-27.309,6.031-34.055,5.9-1.427-.062-24.585-2.074-30.293-3.891.714,17.836-4.541,67.59-10.638,80.758-70.186,23.613-47.158-63.051-46.445-83.547-18.228-1.039-54.294-3.895-61.429-22.25,13.1-22.379,38.531-15.7,57.667-20.5,17.319-4.414,7.2-45.02,17.125-58.9,3.633-5.062,31.979-26.273,47.612,0,10.9,18.418,2.79,41,1.492,62.2C1248.673,25611.965,1274.036,25616.438,1283.506,25620.332Zm260.83-114.816c-14.4-15.5,14.271-28.477,26.076-30.484,10.833-1.883,52.088-1.234,64.542-.133l5.773,17.711c-14.076,14.852-24.714,4.082-47.547,3.633C1546.412,25495.336,1555.493,25517.516,1544.336,25505.516Zm-73.948,51.828c-12.649-22.57,2.27-25.426,21.276-29.578,31.72-7.008,133.237-27.113,156.07-4.156-1.427,24.395-19.006,15.766-37.039,14.016-31.006-2.984-66.164,1.625-97.235,8.3C1502.757,25548.2,1476.161,25557.344,1470.388,25557.344Zm-211.336-197.387c1.167,17.512-23.158,41.969-28.217,43.457C1224.607,25394.078,1237.581,25348.473,1259.052,25359.957Zm605.532,206.988c-43.136,24.2-85.884-36.324-45.731-57.148,13.3-6.941,43.4-1.555,55.2,10.445C1888.649,25535.1,1880.281,25558.125,1864.583,25566.945Zm62.726,48.977c-7.005-16.152,6.162-24.066,20.109-24.715,8.757-.391,25.817,10.5,33.147,17.125C1979.657,25642.777,1940.348,25646.145,1927.31,25615.922Zm-19.2-111.9c-18.876-39.957,19.849-54.1,52.737-30.1.195,14.141-2.724,35.871-14.984,42.617C1931.786,25524.328,1915.115,25518.75,1908.109,25504.023Zm-.065,162.3c-15.958,36.781-71.224,13.883-69.278-34.508,13.1-9.8,29.708-14.207,47.028-6.23C1904.606,25634.277,1917.45,25644.461,1908.044,25666.32Z" transform="translate(-1030.549 -25027.557)" fill="#f0bb53" stroke="#ffbd49" stroke-width="11.644" fill-rule="evenodd"/>
      <path id="Path_37" data-name="Path 37" d="M1008.265,21769.188c49.039-7.914,61.753,5.059,106.641,17.061,24,6.355,74.4,20.365,95.16,30.486,27.633,13.428,52.413,31.2,78.813,46.836,26.985,16.021,44.888,35.674,59.872,63.371,24.65,45.668,33.147,168.266,25.752,219.7-11.482,80.5-14.141,130.516-45.212,203.617-6.292,14.662-15.374,27.7-21.536,42.813-6.227,15.309-9.6,27.635-26.465,35.16-31.526,14.139-72,9.729-97.819-11.678-51.05-42.42-34.769-140.631-41.385-207.574-4.476-45.014,5.708-62.984-21.147-104.172-37.752-57.865-326.54-63.25-369.027,44.949-29.125,74.145-19.006,207.963-113.387,261.156-49.947,28.148-149.583,5.059-179.94-44.178-12.779-20.689-25.1-74.141-27.633-98.725-4.67-45.215-2.595-71.482,1.1-116.246,7.2-87.111,17.319-222.1,79.462-294.49,21.082-24.652,34.185-45.992,66.553-56.76,80.824-26.855,162.816-11.934,223.4-19.008,28.8-3.373,26.92-5.512,56.175-1.23,11.222,1.623,36-2.66,48.91-2.854,16.476-.2,37.169,6.291,53.645,5.252C986.989,21780.863,975.573,21774.5,1008.265,21769.188Zm-149.907-35.1c-21.147,1.494-41.19-2.527-63.44.779-29,4.414-118.706,2.207-190.384,11.549-40.607,5.252-61.429,15.5-88.867,41.773-20.5,19.656-44.888,47.416-60.132,74.141-62.921,110.018-86.662,329.2-63.44,448.813,5.189,26.729,23.612,67.207,41.645,89.453a109.327,109.327,0,0,0,36.974,29.713c33.731,16.539,37.493,12.709,48.65,18.875,12.844,7.135,17,1.75,50.791,7.459,27.439,4.6,33.666,2.27,60.067.584,42.423-2.725,59.288-21.344,86.857-46.77,30.293-27.893,32.888-43.85,50.661-80.564,34.315-71.029,14.725-174.3,66.294-202.969,41.839-23.289,65.71-18.748,110.792-23.678,29.969-3.244,91.138-3.762,117.15,10.639,24.649,13.623,26.141,80.3,28.606,106.838,6.162,66.68-2.53,168.395,51.31,213.863,59.223,49.883,136.221,47.287,199.4,9.408,14.79-8.953,20.109-25.82,24.974-41.58,5.773-18.619,16.152-29.062,21.341-45.863,10.184-33.277,28.217-67.2,31.266-103.006,4.67-53.906,19.979-126.361,14.206-178.125-2.335-20.436-.908-42.686-4.541-62.793-14.725-82.186-27.828-122.469-97.949-167.029-62.4-39.7-108.263-65.844-180.654-85.236-46.51-12.453-47.872-24.393-104.955-28.479-41.19-2.982-87.83,5.191-128.891,4.865.584-9.145,8.5-48.391,11.092-57.016,6.032-20.047,21.211-56.5,36.65-68.824,10.833-8.7,29.514-24.975,41.061-29.322,110.533-41.771,174.751,5.582,206.86-14.98,20.757-13.3-4.606-30.686-17.839-33.732-45.212-10.25-78.424-9.666-125.323-8.629-37.169.842-79.592,12.07-110.014,29.32C887.937,21593.658,857.385,21649.119,858.358,21734.092Z" transform="translate(-383.362 -21523.711)" fill="#696969" fill-rule="evenodd"/>
    </g>
    <rect id="Rectangle_35" data-name="Rectangle 35" width="1051" height="1051" transform="translate(-2141 729)" fill="none"/>
  </g>
</svg>
