<svg xmlns="http://www.w3.org/2000/svg" width="1051" height="1051" viewBox="0 0 1051 1051">
  <g id="Group_118" data-name="Group 118" transform="translate(2141 -729)">
    <g id="_1593107440" transform="translate(-2141 898)">
      <path id="Path_38" data-name="Path 38" d="M22581.811,66441.719c15.947-2.023,15.313-31.953,17.328-46.219,7.313-51.648,5.816-62.883-2.361-116.594-2.3-14.914-5.125-35.812-19.055-41.906-13.238,15.594-.633,17.906,3.973,39.664,6.1,28.836,10.42,84.1,6.162,114.68C22585.725,66406.484,22576.285,66429.8,22581.811,66441.719Z" transform="translate(-22388.076 -65806.508)" fill="#696969" fill-rule="evenodd"/>
      <path id="Path_39" data-name="Path 39" d="M34024.4,66172.7c-3.285-35.461,4.66-58.492,5.18-90.844.922-59.812,24.465-57.508,18.539-73.117-26.828-6.9-31.781,68.977-32.937,86.07-1.379,21.3-16.344,95.68,6.453,105.3,9.73-3.172,10.129-12.031,11.977-21.469Z" transform="translate(-33166.887 -65590.977)" fill="#696969" fill-rule="evenodd"/>
      <path id="Path_40" data-name="Path 40" d="M22145.01,67729.375c11.629-9.219,14.795-93.156.748-99.375-8.752,10.141-2.07,34.031-2.533,47.609C22142.766,67692.234,22137.871,67718.313,22145.01,67729.375Z" transform="translate(-21982.191 -67119.328)" fill="#696969" fill-rule="evenodd"/>
      <path id="Path_41" data-name="Path 41" d="M34748.063,67620.992c-7.367,10.2-5.984,76.266,7.082,86.352.98-15.359.348-32.977.176-48.594C34755.2,67647.813,34759.117,67625.148,34748.063,67620.992Z" transform="translate(-33859.121 -67110.828)" fill="#696969" fill-rule="evenodd"/>
      <path id="Path_42" data-name="Path 42" d="M20361.023,65862.359c14.045,6.2,10.881,90.141-.748,99.359-7.139-11.055-2.244-37.133-1.785-51.758C20358.953,65896.383,20352.271,65872.492,20361.023,65862.359Zm-106.965,25.031c-8.346,32.125-12.035,74.156,8.523,101.625,25.326,34.008,44.842,38.852,87.043,35.969,37.592-2.523,52.848-21.867,76.684-45.937,29.072-29.3,27.977-46.4,34.943-84.281,9.1-49.391.52-109.32-49.508-130.453-12.32-5.18-35.754-12.039-48.477-9.328-17.154,3.742-30.166,9.273-42.775,19.688C20293.955,65796.664,20262.291,65855.727,20254.059,65887.391Zm143.172,49.109c4.26-30.562-.051-85.844-6.156-114.68-4.605-21.758-17.211-24.062-3.971-39.672,13.928,6.1,16.752,27,19.053,41.914,8.174,53.711,9.67,64.945,2.361,116.586-2.016,14.273-1.385,44.211-17.332,46.227C20385.664,65974.953,20395.1,65951.641,20397.23,65936.5Z" transform="translate(-20197.457 -65351.676)" fill="#f0bb53" stroke="#ffbd49" stroke-width="11.644" fill-rule="evenodd"/>
      <path id="Path_43" data-name="Path 43" d="M33476.3,65418.7c11.055,4.156,7.125,26.828,7.246,37.766.172,15.609.8,33.227-.176,48.594C33470.309,65494.992,33468.922,65428.906,33476.3,65418.7Zm-26.258-19.281c-.523,32.352-8.461,55.383-5.18,90.844l9.211,5.93c-1.844,9.445-2.246,18.313-11.98,21.477-22.8-9.617-7.824-84-6.441-105.289,1.152-17.1,6.1-92.984,32.926-86.078C33474.516,65341.914,33450.961,65339.609,33450.043,65399.422Zm-51.578-40.7c-9.793,24.3-1.152,129.586,8.508,161.078,23.1,75.234,111.063,27.4,146.117-9.555,26.773-28.1,31.262-50.492,24.238-89.469-6.676-36.789,2.824-18.758-3.57-38.914-14.793-46.516-14.156-32.07-16.926-37.25-.168-.344,5.3-6.039-6.219-19.8-27.172-32.641-59.461-50.781-103.1-34.656-14.859,5.523-18.02,19.578-24.184,33.68C33415.68,65341.336,33403.121,65347.094,33398.465,65358.727Zm164.129-2.883c-.18-.109-.4-.234-.281-.344Zm.176.281-.176-.281C33562.648,65355.961,33562.77,65356.023,33562.77,65356.125Z" transform="translate(-32587.35 -64908.547)" fill="#f0bb53" stroke="#ffbd49" stroke-width="11.644" fill-rule="evenodd"/>
      <path id="Path_44" data-name="Path 44" d="M19643.6,59302.473c-6.965,37.867-5.869,54.977-34.945,84.281-23.832,24.055-39.088,43.406-76.68,45.938-42.2,2.883-61.717-1.953-87.049-35.984-20.551-27.461-16.865-69.484-8.518-101.6,8.23-31.664,39.9-90.734,66.436-112.727,12.605-10.422,25.619-15.945,42.771-19.687,12.727-2.711,36.158,4.141,48.477,9.328C19644.115,59193.137,19652.691,59253.066,19643.6,59302.473Zm705.689-107.031c2.764,5.188,2.133-9.266,16.926,37.25,6.389,20.156-3.109,2.133,3.572,38.922,7.023,38.977,2.531,61.367-24.24,89.461-35.059,36.961-123.025,84.8-146.109,9.555-9.674-31.492-18.309-136.781-8.521-161.078,4.662-11.625,17.213-17.391,24.869-34.891,6.16-14.1,9.328-28.141,24.182-33.672,43.637-16.117,75.934,2.008,103.105,34.656C20354.584,59189.4,20349.113,59195.105,20349.285,59195.441Zm5.471,10.883c-.172.234.461.344.461.633Zm-700.68-36.039c-19.055-7.367-8.234-19.461-78.871-35.4-30.4-6.859-50.605-16.523-93.781,2.82-42.832,19.117-88.025,100.281-94.473,133.273-6.273,31.945-12.031,67.063-.633,99.2,8.518,23.945,24.006,55.547,45.6,67.7,31.318,17.617,42.2,29.992,81.75,32.813,100.344,7.094,108.113-19.109,154.342-71.148,21.357-24.07,25.676-53.766,28.959-84.578,4.262-39.367-5.184-61.594.689-103.4,4.895-34.711,9.385-68.445,13.012-103.852,6.793-66.2,12.549-126.7,39.9-188.43,26.709-60.156,61.943-84.852,122.158-108.977,50.088-19.977,148.475-30.734,192-2.3,47.668,31.2,50.488,75.883,58.895,113.063,40.068,177.492-15.889,388.594,35.75,466.945,32.527,49.336,101.783,71.734,158.258,48.477,45.885-18.875,105.3-65.8,110.191-118.875,7.082-76.8-33.219-190.391-130.512-210.3-36.5-7.492-70.062,4.031-104.258,8.688-2.59-35.461-.8-126.125-8.117-153.539-12.32-46.227-10.3-80.477-39.723-123.43-60.623-88.531-139.551-88.422-238.914-69.656-148.936,28.148-213.871,111.977-236.611,252.438Z" transform="translate(-19379.803 -58759.379)" fill="#696969" fill-rule="evenodd"/>
    </g>
    <rect id="Rectangle_43" data-name="Rectangle 43" width="1051" height="1051" transform="translate(-2141 729)" fill="none"/>
  </g>
</svg>
