<svg xmlns="http://www.w3.org/2000/svg" width="1051" height="1051" viewBox="0 0 1051 1051">
  <g id="Group_116" data-name="Group 116" transform="translate(2141 -729)">
    <g id="_2091010096" transform="translate(-2141 729)">
      <path id="Path_65" data-name="Path 65" d="M24160.281,43097.332c.66-21.773-.73-42.52,2.2-63.418,5.113-35.937-.437-197.172.949-246.121l158.09,145.02c25.2,22.5,158.82,125.867,166.273,138.145-7.16,11.977-56.687,55.742-70.789,69.039-31.633,29.652-130.914,88.031-171.242,105.7-28.641,12.5-64.434,34.855-93.363,42.887l3.8-125.582C24156.918,43141.242,24159.48,43120.129,24160.281,43097.332Zm94.1-291.855c-9.133-8.621-6.937-8.766-18.633-17.172-24.105-17.461-54.715-72.91-102.934-60.859-5.551,9.133-3.5,10.594,1.535,18.7-13.664.441-20.164-6.059-24.324,3.949l-2.777,238.676c-.8,19.355-5.258,40.027-6.871,60.488l-13.145,192.059c-3.8,42.594-4.457,58.156,18.043,82.184,5.039,5.41,8.4,12.93,15.852,16.891,35.289,18.691,153.2-44.133,202.367-63.859,44.27-17.824,49.895-28.418,87.66-47.051,18.777-9.355,65.391-42.449,77.809-60.191,22.867-32.664,62.895-58.961,68.672-66.48,8.184-10.672,4.891-36.164-5.848-48.152l-153.051-119.8c-26.668-19.145-79.484-76.2-107.023-97.164C24277.9,42827.172,24266.875,42817.16,24254.379,42805.477Z" transform="translate(-23725.809 -42529.695)" fill="#696969" fill-rule="evenodd"/>
      <path id="Path_66" data-name="Path 66" d="M25669.832,45211.551c-16.367-.8-14.465,12.207-16.437,27.328-1.75,13.73-3.656,26.738-5.844,40.25-4.6,28.051-16.367,239.109-8.691,246.637,14.242,14.1,15.336-14.395,15.484-22.133.145-14.766,2.117-27.621,2.633-42.887l7.3-174.1C25666.105,45269.266,25677.5,45224.777,25669.832,45211.551Z" transform="translate(-25163.619 -44833.863)" fill="#696969" fill-rule="evenodd"/>
      <path id="Path_67" data-name="Path 67" d="M26275.973,47908.277c21.035-.652,16.145-9.277,16.145-29.367,0-13.3,4.6-32.215-4.234-40.91C26271,47838.3,26276.266,47882.34,26275.973,47908.277Z" transform="translate(-25756.027 -47268.477)" fill="#696969" fill-rule="evenodd"/>
      <path id="Path_68" data-name="Path 68" d="M20177.328,40702.777c-37.7,37.918-55.592,75.461-74.662,99.867a285.383,285.383,0,0,0-24.184,35.355c-6.352,11.4-11.541,25.133-17.893,37.922l-34.562,84.227c-21.693,61.953-26.662,194.773-18.775,261.984,10.67,89.707,50.775,171.023,122.521,227.2,78.6,61.586,134.422,89.2,239.254,113.828,68.234,16,138.953,17.969,210.105-.441,123.322-31.926,198.27-95.27,273.668-194.547,82.26-108.266,82.77-256.934,59.975-385.3-8.4-47.039-37.842-132.523-68.01-166.273-39.889-44.781-70.43-81.312-125.439-108.562-59.83-29.586-98.408-50.922-162.912-71.148-82.918-25.941-125.51-19.437-209.234-17.758a4.707,4.707,0,0,0-1.24,2.563l-5.26,16.578c-37.254,10.156-26.883-10.293-93.658,15.047C20197.783,40672.027,20215.1,40664.941,20177.328,40702.777Zm293.754,148.16c12.5,11.684,23.525,21.7,37.332,32.215,27.541,20.969,80.361,78.027,107.031,97.16l153.049,119.813c10.74,11.98,14.025,37.48,5.842,48.145-5.77,7.531-45.8,33.828-68.672,66.48-12.42,17.754-59.025,50.844-77.8,60.2-37.771,18.621-43.4,29.219-87.668,47.039-49.168,19.73-167.076,82.551-202.361,63.852-7.449-3.941-10.816-11.469-15.857-16.871-22.5-24.039-21.838-39.6-18.041-82.187l13.148-192.066c1.605-20.449,6.066-41.129,6.867-60.488l2.775-238.676c4.162-10.008,10.668-3.5,24.332-3.941-5.047-8.113-7.088-9.566-1.537-18.7,48.215-12.055,78.826,43.391,102.934,60.855C20464.145,40842.168,20461.955,40842.313,20471.082,40850.938Z" transform="translate(-19942.514 -40575.156)" fill="#fff" stroke="#fff" stroke-width="11.644" fill-rule="evenodd"/>
      <path id="Path_69" data-name="Path 69" d="M25079.082,43769.688l-7.3,174.1c-.512,15.266-2.486,28.117-2.633,42.875-.145,7.75-1.24,36.234-15.486,22.141-7.672-7.523,4.092-218.586,8.689-246.633,2.193-13.516,4.092-26.523,5.848-40.25,1.975-15.125.076-28.133,16.438-27.328C25092.307,43707.813,25080.908,43752.3,25079.082,43769.688Zm-64,51.438c-2.918,20.9-1.535,41.641-2.193,63.414-.8,22.8-3.357,43.906-4.086,65.672l-3.8,125.586c28.934-8.039,64.729-30.391,93.365-42.891,40.328-17.68,139.609-76.047,171.238-105.7,14.105-13.3,63.633-57.055,70.793-69.039-7.449-12.273-141.066-115.648-166.27-138.156l-158.1-145.008C25014.645,43623.953,25020.2,43785.18,25015.082,43821.125Zm83.285,135.586c.291-25.93-4.969-69.984,11.908-70.273,8.838,8.688,4.236,27.609,4.236,40.906C25114.512,43947.438,25119.41,43956.063,25098.367,43956.711Z" transform="translate(-24578.416 -43316.902)" fill="#f0bb53" stroke="#ffbd49" stroke-width="11.644" fill-rule="evenodd"/>
      <path id="Path_70" data-name="Path 70" d="M19570.5,40086.137c83.723-1.684,126.316-8.184,209.234,17.742,64.5,20.246,103.074,41.574,162.91,71.164,55.012,27.246,85.551,63.777,125.441,108.563,30.168,33.754,59.609,119.223,68.008,166.262,22.8,128.359,22.285,277.031-59.973,385.3-75.4,99.285-150.348,162.625-273.668,194.543-71.16,18.406-141.871,16.438-210.105.438-104.836-24.621-160.652-52.234-239.262-113.816-71.738-56.184-111.844-137.488-122.516-227.2-7.887-67.215-2.918-200.031,18.777-261.977l34.555-84.234c6.359-12.789,11.547-26.523,17.9-37.918a285.8,285.8,0,0,1,24.184-35.359c19.066-24.4,36.965-61.949,74.664-99.867,37.766-37.848,20.453-30.754,69.691-49.457,66.773-25.348,56.4-4.891,93.66-15.043l5.258-16.59A4.738,4.738,0,0,1,19570.5,40086.137Zm-98.48-34.2c-12.637,24.328-29.953,9.5-83.355,46.754-24.687,17.246-43.754,44.93-64.145,67.285-32.359,35.5-81.82,115.348-100.957,162.043-28.277,68.887-45.516,132.957-54.937,207.836-8.332,66.121,2.555,171.469,25.2,234.141,21.84,60.715,56.984,114.184,104.977,157.723,73.129,66.418,162.625,112.3,257.449,136.992,135.961,35.578,195.063,37.109,343.508-1.105,42.516-10.875,131.5-67.863,161.527-101.609,8.547-9.652,6.352-10.449,13.438-19.285,4.094-5.125,11.25-12.2,15.711-17.316,40.4-46.98,83.426-99.437,104.836-158.172,20.6-56.7,4.234-26,8.324-50.922,1.246-7.234,5.191-18.7,6.141-25.711,9.859-70.43,9.352-141.285-3.8-210.113-3.508-18.336-2.48-38.93-8.844-56.613-36.6-101.109-44.2-127.191-122.367-206.16-59.242-59.828-74-61.367-158.02-104.988-17.457-9.051-25.27-15.043-43.9-21.98-74.3-27.625-68.527-26.234-153.121-43.91-28.715-5.988-161.312-5.773-187.387-1.824C19508.109,40048.727,19497.148,40051.063,19472.016,40051.941Z" transform="translate(-19165.83 -40042.164)" fill="#696969" fill-rule="evenodd"/>
    </g>
    <rect id="Rectangle_41" data-name="Rectangle 41" width="1051" height="1051" transform="translate(-2141 729)" fill="none"/>
  </g>
</svg>
