<svg xmlns="http://www.w3.org/2000/svg" width="1051" height="1051" viewBox="0 0 1051 1051">
  <g id="Group_117" data-name="Group 117" transform="translate(2141 -729)">
    <g id="_2091010816" transform="translate(-2141 745)">
      <path id="Path_71" data-name="Path 71" d="M47150.809,27871.385c9.645-3.232,14.3,2.791,28.242,3.018,14.391.223,16.191-4.6,30.813.678,13.172,24.254,2.7,175.051,2.855,214.518.227,46.246-6.777,28.1-3.309,98.369,1.66,32.842.453,74.576-.527,107.787-27.191,4.07-54.992-.67-80.891-2.406,1.348-71.031,12.273-139.727,13.172-210.605.453-36.455,6.789-69.221,6.25-105.154C47147.2,27962.525,47147.953,27877.336,47150.809,27871.385Zm-67.863,145.451c-3.395,29.6-2.715,60.41-4.52,89.859-1.887,29.832-6.707,55.066-7.469,84.738-.672,26.818-1.648,65.154-4.133,91.143-1.508,15.287-2.645,22.369,7.156,34.35,16.793,20.561,84.359,21.016,108.391,22.064,68.691,3.168,94.148,38.492,93.395-69.441-.074-15.062.98-32.918.309-47.232-.609-13.254-3.621-25.836-3.395-41.277.527-29.447,7.758-57.094,7.234-88.049l-.828-186.807c-.98-33.818-1.887-41.729-30.656-59.049-25.016-15.064-46.625-18.232-76.156-18.156-42.934.15-40.3.223-78.262,13.48Z" transform="translate(-46509.887 -27570.055)" fill="#696969" fill-rule="evenodd"/>
      <path id="Path_72" data-name="Path 72" d="M43331.285,27810.082c15.973,2.783,18.453,6.254,37.363,7.076,13.625.68,31.328,1.357,41.578,5.873,11.227,30.057-.227,257.309-7.531,308.375-3.988,28.1-7.156,73.973-6.781,102.672l-79.617-7.23c-6.93-15.668,5.645-79.316,8.367-100.707l8.512-213.922C43330.309,27870.416,43326.7,27852.787,43331.285,27810.082Zm115.539,466.777c14.246-15.439,11.3-9.189,11.992-32.311.973-34.273,10.383-97.094,13.25-131.066,1.281-15.514-2.785-25.082-.824-41.277,5.414-45.643,12.8-75.248,7.375-128.578-5.5-54.533,14.082-134.3-28.551-153.807-18.969-8.668-149.59-23.053-160.434-14.842-15.895,11.979-15.594,141.914-16.574,160.965-2.941,55.668-4.219,118.635-10.543,173.549-3.164,27.264-4.594,60.111-7.008,87.975-3.008,33.67-7.383,44.141,27.121,58.3,32.461,13.484,44.438,11.375,78.633,15.75Z" transform="translate(-42984.73 -27517.859)" fill="#696969" fill-rule="evenodd"/>
      <path id="Path_73" data-name="Path 73" d="M44567.348,30461.213c19.137-9.041,12.887-25.762,15.9-50.24s10.395-53.707-3.012-56.117c-18.074-3.164-17.328,37.514-19.359,52.574C44556.508,30440.422,44552.973,30449.309,44567.348,30461.213Z" transform="translate(-44190.066 -29905.514)" fill="#696969" fill-rule="evenodd"/>
      <path id="Path_74" data-name="Path 74" d="M48194.137,32237.949c16.8-7.152,13.406-15.512,18.012-33.895,4.059-16.5,9.934-25.984-4.375-37.055-15.441,10.691-10.621,19.2-15.512,36.906C48187.594,32220.477,48179.461,32225.977,48194.137,32237.949Z" transform="translate(-47545.461 -31581.322)" fill="#696969" fill-rule="evenodd"/>
      <path id="Path_75" data-name="Path 75" d="M40851.18,25020.219c-137.4,19.5-204.961,60.027-288.867,168.648-40.449,52.27-79.32,201.561-80.3,266.867-1.434,100.182-1.8,206.311,48.289,298.957,38.262,70.732,57.848,79.4,112.98,118.186,50.844,35.707,111.1,44.594,171.813,59.205,65.527,15.82,150.574,9.566,217.836,6.254,72.316-3.617,115.93-18.3,181.309-46.479,62.137-26.814,86.7-55.658,119.609-111.553,71.258-121.041,83.906-241.637,58.449-381.291l-18.082-66.879c-12.727-32.244-32.68-64.557-54.078-92.129-34.117-43.758-83-71.854-125.262-105.6-38.492-30.736-95.512-71.861-141.234-90.018C40999.184,25022.775,40908.563,25012,40851.18,25020.219Zm-124.668,207.211c10.848-8.207,141.457,6.178,160.438,14.838,42.633,19.512,23.051,99.275,28.555,153.814,5.426,53.322-1.961,82.928-7.383,128.57-1.961,16.2,2.113,25.766.828,41.283-2.863,33.969-12.277,96.787-13.258,131.059-.68,23.125,2.262,16.871-11.977,32.316l-85.57-5.348c-34.2-4.365-46.168-2.26-78.637-15.744-34.5-14.164-30.129-24.627-27.117-58.3,2.414-27.867,3.844-60.711,7-87.979,6.328-54.908,7.613-117.879,10.547-173.543C40710.922,25369.34,40710.617,25239.4,40726.512,25227.43Zm263.637,279.525c1.8-29.451,1.129-60.258,4.52-89.863l11.07-174.371c37.957-13.254,35.324-13.33,78.262-13.488,29.531-.07,51.145,3.094,76.152,18.154,28.777,17.324,29.676,25.24,30.652,59.055l.832,186.8c.527,30.963-6.7,58.607-7.234,88.057-.223,15.441,2.793,28.021,3.387,41.275.688,14.311-.367,32.162-.293,47.227.754,107.941-24.707,72.615-93.41,69.451-24.02-1.057-91.59-1.5-108.383-22.07-9.789-11.979-8.66-19.055-7.16-34.346,2.492-25.988,3.473-64.324,4.145-91.143C40983.441,25562.016,40988.266,25536.783,40990.148,25506.955Z" transform="translate(-40421.613 -24970.311)" fill="#fff" stroke="#fff" stroke-width="11.644" fill-rule="evenodd"/>
      <path id="Path_76" data-name="Path 76" d="M44070.1,28587.059c-2.7,21.387-15.285,85.039-8.355,100.707l79.613,7.23c-.371-28.7,2.785-74.568,6.773-102.668,7.316-51.07,18.77-278.314,7.543-308.371-10.242-4.52-27.945-5.2-41.578-5.877-18.91-.83-21.395-4.293-37.363-7.084-4.6,42.709-.98,60.334,1.875,102.141Zm53.254-102.816c-3.008,24.477,3.242,41.2-15.895,50.236-14.387-11.9-10.84-20.785-6.465-53.777,2.031-15.068,1.277-55.74,19.352-52.578C44133.754,28430.531,44126.371,28459.76,44123.355,28484.242Z" transform="translate(-43730.184 -27978.777)" fill="#f0bb53" stroke="#ffbd49" stroke-width="11.644" fill-rule="evenodd"/>
      <path id="Path_77" data-name="Path 77" d="M47904.172,28591.643c-.9,70.879-11.832,139.576-13.184,210.605,25.91,1.729,53.711,6.473,80.9,2.41.98-33.217,2.188-74.945.527-107.787-3.469-70.279,3.535-52.125,3.309-98.371-.152-39.473,10.316-190.273-2.855-214.525-14.613-5.273-16.422-.449-30.812-.68-13.934-.223-18.609-6.254-28.242-3.014-2.867,5.959-3.621,91.143-3.395,106.211C47910.949,28522.418,47904.625,28555.184,47904.172,28591.643Zm35.4,110.049c-4.59,18.381-1.207,26.742-18,33.895-14.687-11.973-6.562-17.479-1.887-34.049,4.9-17.7.078-26.205,15.512-36.91C47949.52,28675.7,47943.637,28685.193,47939.574,28701.691Z" transform="translate(-47272.895 -28078.947)" fill="#f0bb53" stroke="#ffbd49" stroke-width="11.644" fill-rule="evenodd"/>
      <path id="Path_78" data-name="Path 78" d="M40114.664,24441.408c57.395-8.211,148.016,2.557,202.469,24.178,45.723,18.154,102.738,59.281,141.238,90.01,42.254,33.746,91.137,61.84,125.262,105.607,21.391,27.568,41.355,59.881,54.078,92.119l18.078,66.889c25.461,139.652,12.809,260.24-58.449,381.289-32.918,55.887-57.477,84.74-119.617,111.555-65.375,28.168-108.988,42.859-181.3,46.473-67.262,3.314-152.3,9.568-217.836-6.254-60.707-14.615-120.973-23.5-171.816-59.2-55.133-38.8-74.719-47.453-112.984-118.186-50.09-92.65-49.7-198.785-48.281-298.961.98-65.3,39.844-214.594,80.3-266.867C39909.7,24501.441,39977.281,24460.92,40114.664,24441.408Zm-46.094-46.852c-35.934,6.178-72.609,10.846-105.977,23.574-18.465,7.01-25.469,15.217-40.91,23.277-14.008,7.379-26.363,15.291-40.293,24.027-94.836,59.73-171.965,189.367-182.355,303.023-1.059,11.229-4.754,17.479-6.484,27.646-10.164,59.807-6.48,55.963-7.3,114.795-1.5,108.314,7.98,216.551,73.367,310.857,40.6,58.527,79.613,86.4,143.34,117.355,93.781,45.42,214.219,71.48,319.9,70.5,105.68-.9,233.953-3.236,321.324-62.07,67.645-45.57,71.863-29.449,127.223-133.547,18.078-33.9,28.855-49.264,41.359-87.521,11-33.754,22.664-67.266,23.727-103.348,2.48-85.043-1.887-153.961-24.859-234.783-39.168-137.766-130.91-197.877-239.684-279-47.3-35.326-112.383-75.021-169.852-90.992C40243.395,24402.391,40129.129,24384.158,40068.57,24394.557Z" transform="translate(-39685.105 -24391.506)" fill="#696969" fill-rule="evenodd"/>
    </g>
    <rect id="Rectangle_42" data-name="Rectangle 42" width="1051" height="1051" transform="translate(-2141 729)" fill="none"/>
  </g>
</svg>
