<svg xmlns="http://www.w3.org/2000/svg" width="1051" height="1051" viewBox="0 0 1051 1051">
  <g id="Group_113" data-name="Group 113" transform="translate(2141 -729)">
    <g id="_1588372736" transform="translate(-1935.931 729)">
      <path id="Path_1" data-name="Path 1" d="M49212.895,8167.467c12.457-1.312,15.859-30.448,18-41.974,7.68-41.2,24.852-117.361,1.07-155.493-15.32,7.636-5.449,11.431-3.016,45.037,2.48,33.949-3.941,103.16-15.957,131.612C49208.957,8156.183,49206.574,8157.885,49212.895,8167.467Z" transform="translate(-48824.758 -7582.377)" fill="#696969" fill-rule="evenodd"/>
      <path id="Path_2" data-name="Path 2" d="M44897.508,9572.449c17.508-8.074-.051-32.734-4.57-70.28-1.656-13.718-.535-31.906-.395-46.012.1-9.338,5.594-38.083-3.793-38.181-12.836-.193-9.629,24.806-9.918,33.8-1.074,32.148-2.578,56.71,6.172,85.019C44888.215,9547.205,44888.508,9567.341,44897.508,9572.449Z" transform="translate(-44704.402 -8959.927)" fill="#696969" fill-rule="evenodd"/>
      <path id="Path_3" data-name="Path 3" d="M45775.1,11049.346c12.84-3.16,5.3-16.73,4.234-30.154-1.312-15.76-.539-32.684-10.652-34.191-5.059,8.316-1.848,24.123-1.555,34.338C45767.512,11031.592,45765.273,11042,45775.1,11049.346Z" transform="translate(-45549.07 -10450.736)" fill="#696969" fill-rule="evenodd"/>
      <path id="Path_4" data-name="Path 4" d="M48772.082,10131.98c5.6-9.336,9.832-47.711,4.621-55.98-3.16,1.313-3.836-.875-6.273,12.891-1.02,5.689-2.379,10.648-3.3,16.049C48765.176,10115.736,48760.07,10130.473,48772.082,10131.98Z" transform="translate(-48401.746 -9585.946)" fill="#696969" fill-rule="evenodd"/>
      <path id="Path_5" data-name="Path 5" d="M46369.008,11987.35c8.8-4.717,4.227-8.51,4.133-19.113-.047-8.365,1.359-15.225.977-24.611l-5.109-2.625C46362.633,11950.775,46358.453,11977.088,46369.008,11987.35Z" transform="translate(-46116.762 -11360.238)" fill="#696969" fill-rule="evenodd"/>
      <path id="Path_6" data-name="Path 6" d="M51695.8,6038.761c-2.094,5.691,1.746,36.088,1.648,46.546-.1,17.363-.68,33.754-1.215,50.777,12.938.292,25.781-2.626,35.648-10.9,12.5-10.505,8.273-70.815-1.312-78.5C51724.055,6041.437,51703.285,6036.913,51695.8,6038.761Z" transform="translate(-51190.004 -5744.667)" fill="#fff" stroke="#fff" stroke-width="11.644" fill-rule="evenodd"/>
      <path id="Path_7" data-name="Path 7" d="M42795.129,6574.477l3.016-85.7-17.9-.777c-12.551,15.223-14.539,62.3-11.141,82.245Z" transform="translate(-42696.676 -6172.458)" fill="#fff" stroke="#fff" stroke-width="11.644" fill-rule="evenodd"/>
      <path id="Path_8" data-name="Path 8" d="M44158.2,989.69c-.73,52.285-6.855,154.326,18.582,196.835,12.938,21.546,27.473,45.524,51.453,56.273,29.863,13.375,47.617,20.136,84.145,21.838,74.8,3.4,115.508,6.566,139.008-72.858,10.156-34.192,11.961-59.338,13.66-94.7.633-13.521,2.973-32.344,4.867-47.032,1.941-15.369,1.941-33.706,3.16-49.367,2.535-33.462,1.656-67.362.582-98.539-1.605-46.838-.34-175.58-6.125-209.237-3.066-17.85-18.145-62.061-36.527-69.016-6.516,8.22-.926,52.09-.344,59.775.641,8.609-2.281,20.087-2.281,29.912,0,34.143,6.227,51.458-.973,99.8-2.1,13.813,1.988,52.625-3.8,62.012-8.02,3.5-20.816-.486-27.625-6.226-1.8-42.606,2.48-84.58,2.973-127.089l-.926-91.973c-.25-10.7,1.164-20.768.973-31.663-18.535-3.94-28.648-3.7-47.18-1.313-1.312,12.694-.441,20.817-.828,32.927-.293,10.019-3.258,18.531-3.551,28.55-.535,21.692,3.4,38.423.391,61.964-3.113,24.562,2.816,99.609-4.332,120.328-10.746,3.794-16.391,4.669-26.312-.778-15.9-15.369,4.473-236.766-5.781-239.343-.445-.1-1.219-.486-1.758-.584-1.016-.195-1.8-.34-2.383-.486-.391,0-.777-.049-1.262-.049-16.926-.729-42.172,8.706-48.977,9.971,9.285,27.626,3.742,31.079,3.84,60.845.1,41.05-5.254,83.169-.148,124.268.926,7.15,2.922,55.544,2.238,61.672-17.359,6.712-18.141,3.4-22.371.924-11.965-6.955-11.816-8.9-13.812-22.908-10.164-72.08,2.676-145.522,3.211-209.529-19.164,3.988-48.59,35.554-56.32,52.966-16.105,36.332-15.859,44.795-16.3,83.267C44156.6,851.171,44159.172,919.458,44158.2,989.69Zm116.68,203.789c.1,10.6,4.668,14.4-4.137,19.115-10.551-10.263-6.367-36.575,0-46.351l5.109,2.626C44276.242,1178.256,44274.832,1185.114,44274.883,1193.479Zm-26.121-39.542c1.07,13.424,8.613,26.994-4.23,30.155-9.824-7.344-7.59-17.752-7.977-30.009-.285-10.214-3.5-26.021,1.563-34.338C44248.23,1121.253,44247.449,1138.179,44248.762,1153.937Zm-42.117-72.226c-.148,14.1-1.27,32.3.387,46.011,4.527,37.548,22.082,62.207,4.574,70.281-9-5.107-9.289-25.243-12.5-35.651-8.754-28.307-7.246-52.869-6.176-85.018.3-9-2.922-34,9.922-33.8C44212.234,1043.628,44206.746,1072.373,44206.645,1081.711Zm177.234,22.762c.926-5.4,2.285-10.36,3.309-16.05,2.434-13.764,3.109-11.576,6.273-12.889,5.2,8.268.969,46.643-4.625,55.981C44376.824,1130.008,44381.934,1115.271,44383.879,1104.473Zm22.859,45.281c12.012-28.453,18.43-97.663,15.949-131.612-2.426-33.608-12.3-37.4,3.02-45.038,23.781,38.131,6.613,114.3-1.07,155.493-2.145,11.527-5.543,40.661-18,41.974C44400.32,1160.99,44402.7,1159.287,44406.738,1149.754Z" transform="translate(-44018.508 -585.481)" fill="#f0bb53" stroke="#ffbd49" stroke-width="11.644" fill-rule="evenodd"/>
      <path id="Path_9" data-name="Path 9" d="M41356.34,415.065c2.578-1.265,2.676-2.383,10.9.924,4.133,1.605,9.191,4.28,12.355,5.4l26.8,9.29c-3.016,75.874-4.961,142.944,41.1,205.735,52.617,71.788,205.34,91.973,281.461,60.6,98.73-40.709,73.637-259.771,85.988-286.181,5.984-.535,4.184,10.992,59.773-4.086,20.527-5.545,9.922-7.3,17.9-4.475,4.77,18.482,6.9,56.516,9.484,71.351,9.191,53.306-12.258,159.238-31.324,207.389-13.621,34.386-40.516,77.382-78.258,87.012-49.562,12.6-255.3,9.1-305.391-2.286-103.062-23.443-133.75-93.529-134.391-194.743C41352.648,552.611,41354.008,424.258,41356.34,415.065Zm24.8-16.974c-3.4-19.941-1.406-67.022,11.145-82.245l17.895.778-3.016,85.7ZM41814.5,294.4c7.5-1.848,28.262,2.675,34.773,7.928,9.586,7.685,13.816,67.995,1.313,78.5-9.867,8.268-22.711,11.187-35.648,10.895.535-17.023,1.121-33.414,1.215-50.777C41816.254,330.485,41812.414,300.087,41814.5,294.4ZM41547.242,44.451c6.813-1.265,32.055-10.7,48.977-9.971,11.238.486-7.73-1.654,3.652.535.535.1,1.313.486,1.746.584,10.266,2.578-10.113,223.974,5.793,239.343,9.918,5.447,15.563,4.572,26.313.778,7.148-20.719,1.215-95.766,4.324-120.328,3.02-23.54-.922-40.272-.387-61.964.289-10.019,3.258-18.531,3.555-28.55.387-12.111-.492-20.233.82-32.927,18.531-2.383,28.648-2.626,47.176,1.313.2,10.895-1.211,20.963-.969,31.663l.922,91.973c-.48,42.509-4.766,84.483-2.965,127.089,6.809,5.739,19.6,9.727,27.629,6.226,5.785-9.387,1.7-48.2,3.789-62.012,7.2-48.345.969-65.66.969-99.8,0-9.825,2.922-21.3,2.293-29.912-.582-7.685-6.18-51.555.34-59.775,18.383,6.955,33.465,51.166,36.527,69.016,5.789,33.657,4.523,162.4,6.129,209.237,1.063,31.176,1.941,65.076-.582,98.539-1.219,15.661-1.219,34-3.16,49.367-1.9,14.688-4.234,33.511-4.867,47.032-1.7,35.359-3.5,60.5-13.668,94.7-23.492,79.424-64.2,76.263-139.008,72.858-36.523-1.7-54.273-8.463-84.141-21.838-23.977-10.749-38.523-34.727-51.457-56.273-25.441-42.509-19.309-144.549-18.578-196.834.973-70.232-1.605-138.518-.828-208.556.438-38.472.191-46.935,16.289-83.267,7.738-17.412,37.164-48.978,56.328-52.966-.539,64.006-13.375,137.448-3.211,209.529,1.992,14.008,1.848,15.953,13.813,22.908,4.234,2.48,5.008,5.788,22.371-.924.688-6.128-1.312-54.522-2.234-61.672-5.109-41.1.238-83.218.148-124.268C41550.988,75.53,41556.531,72.076,41547.242,44.451Zm-137.59,250.53c-12.6-5.934-31.418-1.751-48.105-1.9,2.039-7.733,3.7-30.252-.437-37.159-6.18-10.36-20.867-10.846-32.395-10.846l-7.828,8.609c.879,13.181-4.965,72.956-4.234,98.247l-3.4,98.15c-3.113,33.122-2.629,67.849-4.133,101.262-3.848,86.574,19.113,169.111,98.438,214.636,50.875,29.231,115.859,33.365,173.105,37.451,3.113,32.733,6.367,117.215,2.914,151.31-1.945,19.455,3.844,32.441,3.75,50.1-30.109-.389-73.98-6.031-114.012-6.031l-88.129,1.994c-7.875,2.091-8.945,2.578-11.184,8.317,3.105,5.69,8.7,10.652,13.566,13.57,13.766,8.317,6.9,5.253,19.508,6.177,70.668,5.3,98.344-1.508,173.391,6.906l105.832,13.861c19.992,2.481,94.6,2.772,108.461-3.161l2.285-8.609c-5.934-9-18.43-16.294-29.422-18.288-14.25-2.529-31.613.34-46.547-1.362-17.754-1.994-77.918-3.161-90.469-8.463-5.687-12.792-2.863-81.856-2.816-101.263.145-38.618-.539-65.9-6.57-103.889,48.734,3.064,164.2,3.94,210.746-13.083,35.555-12.986,42.512-22.811,61.281-54.571,17.7-29.912,30.891-42.217,36.965-78.841,2.531-15.467,3.988-34.484,8.516-48.88l10.7-76.555c2.242-12.159-4.324-67.07-5.637-79.862-2.047-20.136-5.7-28.355-5.988-50.485-.094-9.436-2.137-17.412-2.234-26.264-.293-23.005,3.6-54.425.051-85.7-2.437-21.3,1.551-38.472,1.164-56.76-9.82-10.36-20.035-13.083-35.164-11.965-19.113,7.928-6.762,39.2-8.223,52.723-1.016,9.436-.82,14.2-.82,23.686-13.187-10.506-14.352-15.564-32.977-21.011-18.34-5.4-26.562-6.274-46.211-6.469-5.687-54.376,5.742-117.6-6.176-176.5-4.031-19.8-33.02-62.3-47.609-72.032-18.488-12.257-32.738-7.441-47.77-13.959-26.5-11.576-76.359-7.539-105-4.766-35.551,3.453-67.168,3.794-99.121,21.595-49.223,27.48-72.371,48-85.891,97.469l-6.379,24.708c-2.039,10.943-2.723,15.467-2.812,27.383-.148,20.038-2,38.618-1.953,59.143C41410.668,253.3,41410.57,275.428,41409.652,294.98Z" transform="translate(-41308.715 -0.303)" fill="#696969" fill-rule="evenodd"/>
    </g>
    <rect id="Rectangle_38" data-name="Rectangle 38" width="1051" height="1051" transform="translate(-2141 729)" fill="none"/>
  </g>
</svg>
