<svg xmlns="http://www.w3.org/2000/svg" width="1051" height="1051" viewBox="0 0 1051 1051">
  <g id="Group_115" data-name="Group 115" transform="translate(2141 -729)">
    <g id="_1588385408" transform="translate(-2071.204 729)">
      <path id="Path_22" data-name="Path 22" d="M9593.444,60354.82c-17.422-11.773-10.8-48.422-28.852-57.211-16.588,6.906-9.966,33.664-15.125,55.969-.278,1.039-.417,1.813-.7,2.789l-2.09,5.289a11.919,11.919,0,0,1-1.254,2.516c-12.407-10.68-16.17-35.484-33.873-37.227-8.362,11.148-2.646,16.8-15.47,14.852-7.04-1.047,5.018-2.375-8.086-1.953,0,8.227,13.032,42.8,17.006,47.4,16.379-6.562,7.666-18.609,16.029-31.656,16.308,17.227,17.006,28.727,23.276,44.617,3,7.734,4.043,6.2,5.855,11.148,15.4-8.914,10.176-14.148,11.359-32.2.976-15.187,3.973-26.477,5.018-42.3,15.682,16.594,15.123,53.453,26.555,72.617,16.237-3.055,11.848-9.336,12.2-24.1.976-36.656,16.1-97.5-7.6-95.211C9591.7,60300.813,9593.516,60339.641,9593.444,60354.82Z" transform="translate(-8848.401 -60167.77)" fill="#696969" fill-rule="evenodd"/>
      <path id="Path_23" data-name="Path 23" d="M4190.8,59610.254c-11.429-19.164-10.872-56.031-26.553-72.617-1.045,15.813-4.042,27.109-5.018,42.3-1.185,18.047,4.043,23.273-11.36,32.188-1.812-4.945-2.858-3.406-5.854-11.141-6.272-15.9-6.969-27.4-23.278-44.609-8.362,13.039.349,25.086-16.028,31.641-3.973-4.6-17.006-39.164-17.006-47.383,13.1-.422,1.045.906,8.085,1.938,12.824,1.961,7.109-3.687,15.472-14.844,17.7,1.75,21.466,26.555,33.871,37.219a12,12,0,0,0,1.255-2.5l2.091-5.3.7-2.789c5.158-22.3-1.463-49.055,15.124-55.953,18.051,8.773,11.43,45.43,28.854,57.211.069-15.2-1.743-54.016,4.251-64.68,23.7-2.289,8.572,58.539,7.6,95.211C4202.653,59600.918,4207.043,59607.184,4190.8,59610.254Zm63.63-28.016c-7.6-38.258-9.826-110.883-9.2-151.242l-68.647,27.391c-20.7,8.094-42.234,20.7-63.143,27.953-45.23,15.68-90.113,32.2-136.25,45.992-48.368,14.492-93.807,29.7-143.987,40.984-44.325,9.891-108.721,27.734-152.21,30.516,1.743,28.023,3.973,53.953,3.764,82.594-.558,62.648,12.266,169.148,12.823,235.633,14.218-.344,30.248-8.914,44.465-12.477-.628-18.328-7.317-51.078-9.687-72.133-2.578-23.891-3.833-48.289-6.481-72.266-2.649-24.258-2.37-48.227-4.67-72.906-1.673-17.977-10.454-50.8,0-63.352,18.469-1.391,13.729,24.4,15.263,40.008l7.805,163.289c17.005-20.211,5.924-152.422,20.629-175.7,20.769-.2,18.748,59.523,20.978,76.242l14.984,86.43c14.008-15.828,20.351-99.117,35.125-112.633,17.7,5.367,15.193,67.469,25.229,89.273,13.729-9.75,13.1-39.8,37.425-47.945,10.245,8.086,20.071,26.211,11.36,37.281-10.8,0-8.851-2.992-14.706-13.727-13.66,13.875-18.051,47.039-34.359,52.484-18.05-9.133-14.427-58.547-24.95-71.367-17.145,25.367-14.357,90.813-28.435,105.586-23.417-5.094-26.693-103.773-34.568-128.656-14.5,15.609-12.614,145.453-14.217,171.656,53.455-13.1,194.932-69.906,252.777-85.516,39.237-10.523,135.344-50.039,186.29-68.3,59.867-21.469,23.208-10.039,68.926-12.82C4257.014,59688.512,4263.5,59627.465,4254.435,59582.238Z" transform="translate(-3446.109 -59368.555)" fill="#f0bb53" stroke="#ffbd49" stroke-width="11.644" fill-rule="evenodd"/>
      <path id="Path_24" data-name="Path 24" d="M1228.043,71388.578c-38.68-5.969-6.2-7.094-64.954-7.719-95.967-.984-110.324,67.734-82.377,110.953,38.819,4.313,64.884-6.625,91.437-32.562C1188.178,71443.641,1221.282,71410.2,1228.043,71388.578Z" transform="translate(-1015.245 -70485.594)" fill="#f0bb53" stroke="#ffbd49" stroke-width="11.644" fill-rule="evenodd"/>
      <path id="Path_25" data-name="Path 25" d="M10067.82,70180.641c-34.988-36.109-168.031-20.094-148.588,28.5C9940.35,70261.906,10055.9,70191.57,10067.82,70180.641Z" transform="translate(-9247.786 -69350.734)" fill="#f0bb53" stroke="#ffbd49" stroke-width="11.644" fill-rule="evenodd"/>
      <path id="Path_26" data-name="Path 26" d="M376.118,59541.238c-27.947-43.2-13.59-111.93,82.377-110.945,58.751.625,26.274,1.742,64.954,7.734-6.76,21.617-39.865,55.055-55.894,70.672C441,59534.629,414.937,59545.566,376.118,59541.238Zm754.568-176.32c-11.917,10.945-127.469,81.266-148.586,28.508C962.656,59344.848,1095.7,59328.816,1130.686,59364.918Zm-524.093-288.883c-14.217,3.563-30.247,12.133-44.464,12.477-.558-66.484-13.381-172.969-12.824-235.625.209-28.656-2.021-54.57-3.763-82.586,43.489-2.789,107.885-20.633,152.21-30.531,50.179-11.289,95.619-26.477,143.986-40.977,46.137-13.8,91.019-30.32,136.25-46,20.908-7.25,42.443-19.859,63.142-27.937l68.648-27.4c-.627,40.352,1.6,112.977,9.2,151.242,9.06,45.219,2.579,106.281,12.336,152.273-45.719,2.781-9.06-8.648-68.926,12.82-50.946,18.266-147.053,57.781-186.29,68.3-57.845,15.617-199.322,72.414-252.777,85.508,1.6-26.2-.279-156.047,14.217-171.648,7.875,24.875,11.151,123.563,34.568,128.656,14.078-14.781,11.29-80.227,28.435-105.594,10.524,12.828,6.9,62.242,24.95,71.367,16.308-5.43,20.7-38.617,34.359-52.477,5.854,10.734,3.9,13.727,14.705,13.727,8.712-11.078-1.115-29.2-11.36-37.281-24.323,8.156-23.7,38.2-37.425,47.953-10.036-21.82-7.527-83.922-25.229-89.289-14.775,13.531-21.117,96.8-35.125,112.633l-14.984-86.43c-2.23-16.727-.209-76.445-20.978-76.242-14.705,23.289-3.624,155.484-20.629,175.7l-7.806-163.3c-1.533-15.594,3.206-41.4-15.263-39.992-10.454,12.539-1.673,45.367,0,63.344,2.3,24.672,2.021,48.648,4.669,72.891,2.648,23.977,3.9,48.375,6.482,72.273C599.276,59024.957,605.966,59057.707,606.594,59076.035Zm492.522-539.211c-12.475,11.7-47.461,29.969-63.212,36.445-152.28,62.867-309.3,116.25-471.2,150.539-15.472,3.281-26,6.133-40.7,9.758-29.132,7.25-6.412-4.664-41.816,4.813l11.917,258.977c.488,28.586,5.785,55.68,5.924,84.813.07,19.242,3.206,19.523,8.294,35.273,13.033,40.563,32.616,245.461,35.543,285.523-20.908-1.734-120.987-39.508-177.09-4.516-125.866,78.539-17.7,234.023,105.376,174.156,77.5-37.7,91.019-94.219,106.421-103.7,9.966-6.2,12.754,5.156,29.062-17.633l-14.5-162.039c-1.394-26.484-25.159-140.711-25.508-163.156,10.942-6.758,25.09-7.867,37.774-11.07l106.421-34.227c26.414-8.078,47.6-14.984,73.039-21.258l215-73.664c22.441-9.687,126.005-47.109,145.031-49.9.139,44.047,1.533,159.109,8.921,197.867l6.482,203.781c-13.73-4.328-39.934-25.023-81.611-33.523-27.459-5.656-74.154-7.6-98.895,4.531-77.847,38.18-47.322,105.094-2.3,130.32,37.356,20.906,43.558,23.2,87.256,19.438,14.775-1.25,29.411-7.039,42.583-13.516,13.66-6.758,26-11.289,37.983-18.531,14.357-8.789,22.163-18.828,39.516-12.758,50.527,17.711,36.1-7.523,32.129-111.859-2.509-66.969-1.255-140.57-12.336-206.148-3.973-23.562-9.13-80.633-8.642-104.539.7-33.461-4.53-74.914-7.736-108.445-3-30.242-2.579-69.133-6.76-100.156-3.694-26.82-10.593-76.727-10.942-102.094-.07-5.367.7-25.789.7-26.062.07-3.07-1.185-16.8-1.394-24.4-.418-16.031-2.021-36.594-3.763-52.828C1160.933,58529.574,1139.677,58533.473,1099.115,58536.824Z" transform="translate(-310.652 -58535.012)" fill="#696969" fill-rule="evenodd"/>
    </g>
    <rect id="Rectangle_40" data-name="Rectangle 40" width="1051" height="1051" transform="translate(-2141 729)" fill="none"/>
  </g>
</svg>
