<svg xmlns="http://www.w3.org/2000/svg" width="1051.004" height="1051" viewBox="0 0 1051.004 1051">
  <g id="Group_120" data-name="Group 120" transform="translate(2141 -729)">
    <g id="_1588374344" transform="translate(-2141 748.271)">
      <path id="Path_10" data-name="Path 10" d="M41877.2,61535.684c-13.016-22.07-92.375-59.391-57.41-169.43,8.891-27.953,25.586-57.586,44.949-77.852,10.461-10.875,18.086-20.445,33.266-26.914,12.16-5.141,36.844-5.562,17.727-24.5-42.586,17.789-50.328,27.531-73.555,58.742-19.66,26.25-36.656,57.4-43.434,89.953-13.613,65.258,2.422,103.984,45.668,145.047C41853.66,61539.512,41868.3,61565.332,41877.2,61535.684Z" transform="translate(-41719.738 -60990.621)" fill="#696969" fill-rule="evenodd"/>
      <path id="Path_11" data-name="Path 11" d="M48326.813,58355.953c-16.562-2.906-12.82,19.047-13.906,34.359-1.273,17.352-1.883,33.875-3.445,51.234-1.094,12.516-14.156,91.156.242,93.4,17.773,2.781,8.344-50.75,12.156-85.477C48323.547,58433.8,48332.867,58364.727,48326.813,58355.953Z" transform="translate(-47834.977 -58283.613)" fill="#696969" fill-rule="evenodd"/>
      <path id="Path_12" data-name="Path 12" d="M50630.477,62887.121l-8.465-2.836c.117-23.953,20.992-104.586,11.738-119.289-13.918,2.43-11.316,29.523-13.07,42.352-2.418,18.086-4.418,32.414-7.562,49.9-1.934,10.586-8.648,42.227-5.684,51.055C50613.48,62926.387,50627.211,62895.715,50630.477,62887.121Z" transform="translate(-49999.324 -62426.195)" fill="#696969" fill-rule="evenodd"/>
      <path id="Path_13" data-name="Path 13" d="M49244.082,58516.039c12.828-.187,17-12.164,22.688-22.633l-8.109-2.836c1.578-15.859,11.191-55.594-2.109-65.578-10.168,7.867-6.84,31.344-9.2,44.766C49245.234,58481.547,49238.465,58506.414,49244.082,58516.039Z" transform="translate(-48717.098 -58348.715)" fill="#696969" fill-rule="evenodd"/>
      <path id="Path_14" data-name="Path 14" d="M51565.852,63971.008c19.531-10.586,8.348-7.984,10.344-30.977,1.148-12.992,4.77-28.664-3.09-40.039C51564.215,63908.945,51558.957,63960,51565.852,63971.008Z" transform="translate(-50897.5 -63492.535)" fill="#696969" fill-rule="evenodd"/>
      <path id="Path_15" data-name="Path 15" d="M50052.957,58751.094l9.438-44.094C50045.4,58710.016,50036.148,58747.523,50052.957,58751.094Z" transform="translate(-49470.742 -58613.672)" fill="#696969" fill-rule="evenodd"/>
      <path id="Path_16" data-name="Path 16" d="M52257.184,65067.125c10.473-2,11.2-12.7,13.918-24.125C52261.055,65046.5,52252.105,65056.711,52257.184,65067.125Z" transform="translate(-51548.605 -64566.402)" fill="#696969" fill-rule="evenodd"/>
      <path id="Path_17" data-name="Path 17" d="M41471.8,60610.629c-41.133,10.4-87.344,36.531-113.418,69.672-52.988,67.266-103.012,194.414-25.949,264.289,92.617,84.016,278.5,130.352,260.711,284.906-1.934,16.633-18.2,47.3-26.734,62.242-14.156,24.859-26.137,31.453-41.984,50.938,2.727,1.93,46.4,22.625,52.391,24.43,13.852-21.656,51.172-48.508,70.473-95.82,12.156-29.7,35.809-103.555,36.164-133.914.977-93.4-100.164-133.023-159.687-177.234-52.562-39.141-166.285-112.578-120.008-193.82,37.316-65.5,70.461-84.742,149.227-100.828,16.754-3.453,72.406-3.273,75.18-4.609l2.371-30.6C41591.207,60614.855,41513.172,60600.215,41471.8,60610.629Zm-122.914,163.852c-34.961,110.039,44.4,147.359,57.406,169.438-8.895,29.641-23.527,3.813-32.785-4.961-43.246-41.07-59.277-79.789-45.668-145.055,6.777-32.547,23.773-63.7,43.434-89.945,23.23-31.219,30.969-40.953,73.555-58.742,19.117,18.938-5.566,19.359-17.723,24.5-15.184,6.469-22.8,16.039-33.27,26.914C41374.473,60716.91,41357.781,60746.543,41348.883,60774.48Z" transform="translate(-41248.832 -60398.852)" fill="#fff" stroke="#fff" stroke-width="11.644" fill-rule="evenodd"/>
      <path id="Path_18" data-name="Path 18" d="M47507.391,58039.977l-.117,114.633c-.664,17.9-4.781,8.773-4.781,51.656,0,16.148,1.031,41.32-.961,56.375-1.875,14.344-5.57,38.656-4.062,52.742,21.477,13.617,160.063,34.313,196.117,36.367,215.4,12.094,153.7,45.844,193.2-137.8,14.094-65.57,10.945-33.039,11.977-105.8l-2.539-171.727c-.547-19-4.719-37.391-5.508-55.648l-191.7,2.477c-14.516-.781-27.7-4.719-43.43-5.508-16.445-.781-32.906.547-49.3.609-16.086.063-30.062-2.3-46.336-2.359-16.211,0-26.555,1.938-43.734.727-3.992,36.9-2.6,74.156-3.7,111.484C47511.992,58005.563,47507.031,58022.68,47507.391,58039.977Zm178.57,275.055c-2.961-8.828,3.75-40.469,5.688-51.055,3.141-17.484,5.141-31.82,7.563-49.906,1.75-12.82-.852-39.922,13.07-42.344,9.25,14.7-11.625,95.328-11.742,119.289l8.469,2.836C47705.742,58302.445,47692.016,58333.125,47685.961,58315.031Zm-58.43-337.422c-5.687,10.469-9.867,22.453-22.687,22.633-5.625-9.617,1.148-34.484,3.266-46.281,2.359-13.43-.969-36.891,9.2-44.758,13.3,9.977,3.688,49.719,2.117,65.57Zm-57.828-72.336c6.047,8.766-3.266,77.852-4.961,93.516-3.82,34.719,5.625,88.258-12.164,85.469-14.391-2.234-1.328-80.875-.25-93.391,1.586-17.359,2.188-33.875,3.453-51.234C47556.875,57924.328,47553.125,57902.359,47569.7,57905.273Zm216.734,428.391c-5.078-10.414,3.867-20.633,13.906-24.133C47797.633,58320.961,47796.9,58331.664,47786.438,58333.664Zm-40.227-22.266c-6.9-11.008-1.633-62.062,7.25-71.016,7.875,11.375,4.242,27.039,3.094,40.047C47754.555,58303.422,47765.75,58300.813,47746.211,58311.4Zm-76.7-385.141-9.445,44.094C47643.258,57966.781,47652.516,57929.281,47669.516,57926.258Z" transform="translate(-47077.852 -57832.938)" fill="#f0bb53" stroke="#ffbd49" stroke-width="11.644" fill-rule="evenodd"/>
      <path id="Path_19" data-name="Path 19" d="M54893.832,63409.98c-25.344-1.156-107.07-6.414-127.867-2.18-5.023,15.492-14.4,54.8-10.359,69.5,6.844,1.156,9.266.359,12.648.609,4.242.359,7.742,1.391,16.148,1.328,11.141-.062,24.258-.9,35.633-1.328,20.141-.789,43.914,3.859,64.6-.609C54889.355,63463.629,54893.652,63425.035,54893.832,63409.98Z" transform="translate(-53896.352 -63028.598)" fill="#fff" stroke="#fff" stroke-width="11.644" fill-rule="evenodd"/>
      <path id="Path_20" data-name="Path 20" d="M55009.234,59251.469l125.875,2.484,1.039-80.391c-18.328.242-46.344,2.414-61.164,1.391-21.414-1.391-44.523-1.82-65.992-1.391Z" transform="translate(-54135.336 -59051.859)" fill="#fff" stroke="#fff" stroke-width="11.644" fill-rule="evenodd"/>
      <path id="Path_21" data-name="Path 21" d="M41425.281,57612.8c-4.055-14.7,5.32-54.023,10.344-69.508,20.813-4.234,102.535,1.031,127.871,2.18-.18,15.07-4.477,53.656-9.187,67.328-20.687,4.477-44.461-.187-64.609.609-11.367.414-24.488,1.266-35.621,1.32-8.41.063-11.926-.961-16.148-1.32C41434.539,57613.172,41432.125,57613.961,41425.281,57612.8Zm-439.645,33.758c-1.508-14.094,2.188-38.406,4.055-52.75,2-15.07.969-40.227.969-56.383,0-42.883,4.109-33.75,4.777-51.648l.117-114.633c-.359-17.3,4.609-34.422,5.145-51.789,1.094-37.312-.309-74.578,3.7-111.469,17.176,1.211,27.52-.734,43.734-.734,16.262.063,30.238,2.414,46.328,2.367,16.395-.07,32.852-1.4,49.3-.609,15.719.781,28.91,4.719,43.434,5.492l191.691-2.461c.793,18.266,4.961,36.648,5.5,55.641l2.547,171.742c-1.031,72.758,2.117,40.219-11.984,105.781-39.5,183.656,22.2,149.9-193.2,137.8C41145.7,57680.859,41007.109,57660.164,40985.637,57646.563Zm-144.027,461.359c15.859-19.484,27.828-26.07,41.984-50.937,8.527-14.937,24.8-45.609,26.738-62.242,17.777-154.555-168.105-200.891-260.711-284.906-77.066-69.867-27.043-197.023,25.949-264.289,26.07-33.148,72.281-59.273,113.414-69.68,41.383-10.406,119.41,4.234,158.734,19.656l-2.363,30.617c-2.785,1.32-58.43,1.141-75.191,4.594-78.762,16.094-111.91,35.32-149.23,100.844-46.27,81.227,67.453,154.656,120.008,193.8,59.531,44.211,160.672,83.844,159.7,177.234-.359,30.367-24.016,104.219-36.176,133.922-19.3,47.3-56.617,74.156-70.473,95.813C40888,58130.539,40844.34,58109.859,40841.609,58107.922Zm598.07-822.125c21.477-.43,44.586,0,66,1.4,14.809,1.023,42.82-1.156,61.148-1.4l-1.027,80.391-125.879-2.477Zm-478.9-113.547-9.859,136.414c-2,18.938-4.9,26.188-4.6,46.875-38.043-3.93-110.875-33.148-163.871-26.078-45.3,6.063-93.391,36.422-126.66,66.3-60.074,53.906-116.816,199.016-75.859,280.367,68.238,135.867,293.316,151.289,280.555,297.313-5.875,67.508-70,109.609-73.254,119.961,1.152,30.836,18.566,39.258,41.68,52.984l67.57,30.422c18.984,1.578,42.641-26.789,54.438-39.07,42.043-43.734,49.965-68.18,70.953-122.07,32.848-84.57,40.77-140.883-22.5-216.914-56.809-68.3-155.891-96.062-220.855-166.047-16.875-18.156-32.789-40.047-26.074-66.234,4-15.617,26.8-50.148,40.648-58.2,27.645-16.148,31.883-21.281,65.7-29.875,26.734-6.773,58.8-12.648,88.438-9.32-2.6,19.063,3.688,28.43,2.891,43.313-.9,17.18-1.383,35.023-2.59,52.383-1.57,22.508-14.035,75.859-4.355,94.125l11.852,12.578c5.563,4,11.141,6.594,17.727,9.383,24.672,10.406,104.219,25.406,130.836,29.516,70.285,10.828,129.387,11.984,193.7,18.7,113.477,11.906,99.262-9.859,111.785-37.625,7.129-15.852,4.6-29.1,11.609-43.187,23.164,1.8,37.563,6.531,63.641,5.68,8.707-.3,22.8-2.719,29.762-2.359,21.895,1.148,69.621,9.672,84.016-13.789,17-27.7,7.512-26.437,12.406-55.828,7.2-43.2,16.031-72.352-39.566-75.375l-130.84,1.875,1.7-106.953c13.422-.352,23.465,3.75,39.738,3.875,24.441.242,116.879,5.758,125.219-1.867,9.926-14.578-.605-12.219,8.105-32.312,3.27-7.492,1.023-26.125.6-35.437-1.27-26.2,9.016-55.781-10.762-76.891-16.883-18.023-126.309-5.68-167.133-6.766-9.074-104.477-35.574-83.242-133.141-81.969l-141.969.484c-21.055-2.672-171.074-10.047-189.273-4.539Z" transform="translate(-40566.02 -57164.094)" fill="#696969" fill-rule="evenodd"/>
    </g>
    <rect id="Rectangle_45" data-name="Rectangle 45" width="1051" height="1051" transform="translate(-2141 729)" fill="none"/>
  </g>
</svg>
