<svg xmlns="http://www.w3.org/2000/svg" width="1051" height="1051" viewBox="0 0 1051 1051">
  <g id="Group_112" data-name="Group 112" transform="translate(2141 -729)">
    <g id="_2091012856" transform="translate(-2121.294 729)">
      <path id="Path_86" data-name="Path 86" d="M25320.246,26768.34c-6.07-27.187-8.816-65.773-8.645-94.211,12.637,4.32,58.453,48.563,86.391,69.438,29.688,22.113,54.715,45.227,84.484,65.355,21.121,14.293,40.664,28.434,61.449,7.148,18.457-18.957,19.789,2.824,27.6-20.621,8.234-24.7-4.316-112.672-6.48-141.605,25.449,11.477,87.391,88.965,106.516,116.078,16.133,22.867,95.375,103.852,102.2,115.078-4.414,9.813-34.762,38.25-46.156,50.973-14.879,16.633-28.016,32.43-43.738,49.809-16.379,18.211-34.008,30.352-50.555,46.98-15.883,15.883-28.684,40.5-48.312,48.48-3.074-9.566-8.062-143.687-56.211-152.418-3.074-.586-52.133,8.566-56.539,10.895-8.484,4.4-62.617,57.621-75.914,69.6l-83.906,60.367c-.16-33.426-2.246-73.094.664-105.77C25315.926,26931.484,25325.566,26791.875,25320.246,26768.34Zm196.152,1.746c-34-15.215-162.977-125.391-181.434-135.621-16.051-8.9-64.691-18.293-75.25-9.145-8.484,11.227-7.234,194.824-8.82,226.008-3.988,81.074-3.906,154.492-3.82,235.9.082,20.207-2.414,31.266,14.633,43.324,13.8,9.813,27.105,10.891,40.664,11.973,43.813,3.66,48.227-19.207,75.254-43.238,25.277-22.535,45.813-31.43,70.012-49.973,19.789-15.219,43.484-43.9,64.188-55.969,9.066,70.105-5.4,135.375,49.73,143.938,38.5,5.992,77.914-18.2,100.117-42.32,31.926-34.422,66.77-57.629,78.66-71.262l70.676-79.156c24.945-29.191,19.793-2.086,27.938-35.676,3.5-14.391,15.887-22.449-14.629-52.055l-140.7-155.328c-36.586-36.086-111.508-139.527-168.133-113.918-15.883,7.238-5.656,67.77-3.578,84.234A687.813,687.813,0,0,1,25516.4,26770.086Z" transform="translate(-25005.99 -26351.176)" fill="#696969" fill-rule="evenodd"/>
      <path id="Path_87" data-name="Path 87" d="M26409.186,29326.543c30.684-1,15.465-35.672,17.879-59.453,2.492-24.859,10.309-49.559,2.66-73.094-30.68.672-17.543,31.852-20.875,61.457C26406.275,29278.148,26393.885,29307.836,26409.186,29326.543Z" transform="translate(-26064.664 -28744.574)" fill="#696969" fill-rule="evenodd"/>
      <path id="Path_88" data-name="Path 88" d="M29431.359,30082.254c26.027-4.988,15.793-39,18.125-61.785,1.5-14.047,14.719-63.441-3.492-66.1-14.219-2.078-10.973,18.3-11.469,27.859C29432.609,30019.227,29414.484,30060.3,29431.359,30082.254Z" transform="translate(-28835.887 -29441.58)" fill="#696969" fill-rule="evenodd"/>
      <path id="Path_89" data-name="Path 89" d="M27044.578,29868c-15.3,9.73-14.055,53.629,0,64.191C27061.293,29921.3,27056.3,29882.3,27044.578,29868Z" transform="translate(-26644.008 -29362.529)" fill="#696969" fill-rule="evenodd"/>
      <path id="Path_90" data-name="Path 90" d="M30089.8,30321.543c11.145-2.918,10.063-11.562,11.8-25.867,1.836-14.8,3-21.449-5.4-31.676C30082.145,30271.316,30080.48,30308.816,30089.8,30321.543Z" transform="translate(-29440.771 -29725.602)" fill="#696969" fill-rule="evenodd"/>
      <path id="Path_91" data-name="Path 91" d="M23566.238,24377.223c-95.707-18.957-102.191-4.574-156.156.664-91.051,8.816-134.785,18.879-211.785,73.512-43.41,30.766-83.9,76.5-100.449,128.969-9.316,29.355-18.547,58.7-28.27,87.887-18.711,56.383-34.262,257.355-21.285,312.984,30.762,132.547,66.762,199.148,184.512,273.152,140.7,88.477,415.344,83.574,545.727-12.719,80.656-59.535,126.723-160.9,141.938-258.605,2.66-16.8-1.082-38.91,1.332-53.965,8.145-49.891-15.3-140.609-30.687-190.332-18.7-60.453-35.59-110.008-65.773-163.148C23752.918,24447.734,23718.492,24407.328,23566.238,24377.223Zm-251.527,225.676c18.453,10.227,147.422,120.406,181.434,135.621a689.419,689.419,0,0,0-4.492-98.281c-2.078-16.469-12.3-77,3.578-84.238,56.625-25.613,131.547,77.832,168.129,113.918l140.7,155.328c30.516,29.6,18.125,37.668,14.629,52.051-8.148,33.6-2.988,6.488-27.937,35.676l-70.676,79.16c-11.895,13.637-46.734,36.832-78.66,71.262-22.2,24.117-61.617,48.313-100.117,42.324-55.129-8.566-40.656-73.84-49.723-143.937-20.707,12.055-44.406,40.746-64.2,55.965-24.2,18.535-44.734,27.438-70.012,49.969-27.027,24.031-31.434,46.9-75.254,43.238-13.559-1.082-26.859-2.164-40.664-11.973-17.043-12.059-14.547-23.109-14.633-43.32-.086-81.406-.168-154.828,3.824-235.9,1.578-31.18.332-214.781,8.816-226.008C23250.016,24584.6,23298.656,24594,23314.711,24602.9Z" transform="translate(-22985.732 -24319.611)" fill="#fff" stroke="#fff" stroke-width="11.644" fill-rule="evenodd"/>
      <path id="Path_92" data-name="Path 92" d="M26082.98,27575.762c7.652,23.535-.164,48.23-2.66,73.094-2.406,23.781,12.8,58.453-17.875,59.449-15.3-18.707-2.91-48.4-.336-71.094C26065.438,27607.609,26052.3,27576.426,26082.98,27575.762Zm-50.8-32.262c5.324,23.531-4.324,163.141-7.148,195.574-2.91,32.68-.836,72.34-.664,105.766l83.895-60.367c13.309-11.973,67.441-65.187,75.918-69.6,4.41-2.328,53.465-11.473,56.547-10.891,48.148,8.727,53.129,142.852,56.211,152.41,19.621-7.977,32.426-32.59,48.313-48.469,16.547-16.637,34.172-28.777,50.555-46.988,15.711-17.371,28.852-33.176,43.738-49.809,11.391-12.719,41.742-41.152,46.148-50.965-6.82-11.223-86.066-92.223-102.191-115.086-19.129-27.105-81.078-104.605-106.523-116.082,2.164,28.941,14.723,116.914,6.488,141.609-7.812,23.453-9.145,1.664-27.609,20.621-20.789,21.293-40.328,7.152-61.449-7.152-29.762-20.117-54.789-43.23-84.48-65.355-27.937-20.871-73.75-65.109-86.4-69.434C26023.363,27477.727,26026.105,27516.309,26032.176,27543.5Zm86.309,88.3c11.727,14.3,16.715,53.3,0,64.2C26104.438,27685.441,26103.191,27641.531,26118.484,27631.8Zm194.91,135.2c-16.883-21.949,1.25-63.023,3.16-100.027.5-9.562-2.742-29.937,11.477-27.855,18.211,2.664,4.988,52.051,3.5,66.105C26329.2,27728.016,26339.426,27762.02,26313.395,27767.008Zm53.551-44.734c-9.316-12.723-7.652-50.227,6.4-57.535,8.4,10.227,7.23,16.875,5.4,31.676C26377,27710.719,26378.086,27719.363,26366.945,27722.273Z" transform="translate(-25717.922 -27126.334)" fill="#f0bb53" stroke="#ffbd49" stroke-width="11.644" fill-rule="evenodd"/>
      <path id="Path_93" data-name="Path 93" d="M23284.762,24398.625c-2.414,15.051,1.332,37.168-1.332,53.969-15.217,97.7-61.283,199.066-141.936,258.6-130.387,96.289-405.035,101.2-545.729,12.723-117.74-74.008-153.752-140.613-184.514-273.152-12.977-55.633,2.58-256.605,21.287-312.988,9.727-29.187,18.957-58.539,28.271-87.887,16.549-52.469,57.037-98.2,100.445-128.977,77-54.625,120.74-64.687,211.789-73.5,53.967-5.238,60.453-19.621,156.16-.664,152.252,30.105,186.676,70.512,259.1,198.4,30.188,53.137,47.064,102.7,65.777,163.148C23269.461,24258.012,23292.91,24348.734,23284.762,24398.625Zm-465.318-606.844c-36.838,6.82-81.9,3.742-121.4,8.484-41.74,4.9-63.613,10.059-100.035,30.516-100.113,56.293-151.666,85.48-191.994,192.992-43.738,116.5-23.365,65.863-41.576,153.746-3.324,15.973-8.564,40.336-10.477,55.637-5.57,44.152-4.408,82.648-5.154,127.133-2.664,144.105,43.568,263.012,152.834,356.309,205.217,175.367,616.4,159.652,764.494-19.375,19.709-23.777,36.838-49.141,49.389-77.742,13.057-29.605,42.658-119.574,42.5-150.426-.5-89.473,8.393-82.238-10.564-186.84-10.979-60.535-39.582-137.2-63.111-195.328-22.949-56.875-60.7-112.164-96.453-161.48-36.506-50.473-95.791-84.648-154.5-103.609l-104.357-25.691c-12.391-1.664-19.213.254-30.186-.5C22880.563,23794.277,22858.609,23784.551,22819.443,23791.781Z" transform="translate(-22348.697 -23789.133)" fill="#696969" fill-rule="evenodd"/>
    </g>
    <rect id="Rectangle_37" data-name="Rectangle 37" width="1051" height="1051" transform="translate(-2141 729)" fill="none"/>
  </g>
</svg>
