<svg xmlns="http://www.w3.org/2000/svg" width="1051" height="1051" viewBox="0 0 1051 1051">
  <g id="Group_114" data-name="Group 114" transform="translate(2141 -729)">
    <g id="_2091012592" transform="translate(-2126.363 729)">
      <path id="Path_79" data-name="Path 79" d="M5545.839,44033.063c12.722,19.242,17.1,187.352,16.521,223.211-1.321,77.063,2.313,152.578,13.63,227.18-60.883,1.977-121.683,3.883-182.4,4.453-30.9.328-155.141-.414-176.206-7.016-21.974-65.844,4.956-315.492,7.269-395.953.5-16.93-3.717-31.883-2.725-48.406,1.569-27.008,8.839-19.828,33.291-15.281,37.588,6.938,68.483.742,104.417,4.547,36.514,3.789,51.8,10.563,89.3,8.836C5467.195,44033.727,5536.5,44027.859,5545.839,44033.063Zm-361.167-63.125c-25.36,7.938-24.865,11.742-25.03,40.484l-6.94,201.32c-4.625,46.594-.331,89.383-3.717,134.328-3.056,40.969-4.708,3.133-.66,36.336.743,6.367.248,12.727.329,19.086.083,22.719,5.123,44.453,4.626,67.414-.413,16.68-3.469,32.219,12.144,45.188,44.939,37.414,60.387,18.672,116.479,24.289,50.31,4.953,282.441.984,328.124-4.875,72.034-9.422,27.012-93.852,31.308-213.969,3.3-89.7-3.056-181.555-10.9-267.727-10.988-119.617-94.341-51.8-254.436-74.844-20.735-2.969-50.8-3.055-61.462-2.234C5280.747,43977.211,5210.281,43961.938,5184.672,43969.938Z" transform="translate(-4874.414 -43741.059)" fill="#696969" fill-rule="evenodd"/>
      <path id="Path_80" data-name="Path 80" d="M6554.624,45168.238c30.565-9.422,4.462-42.723,15.447-111.109l19.5-81.047c2.4-15.609,2.727-10.652-9-19.082-14.621,7.355-13.3,24.953-17.514,43.453C6556.688,45028.461,6532.318,45153.781,6554.624,45168.238Z" transform="translate(-6158.288 -44648.715)" fill="#696969" fill-rule="evenodd"/>
      <path id="Path_81" data-name="Path 81" d="M7270.869,45738.211c23.131.906,16.356-33.863,17.6-54.687,2.4-38.992,10.408-53.031-10.492-54.52C7272.933,45638.594,7264.342,45724.832,7270.869,45738.211Z" transform="translate(-6821.662 -45265.211)" fill="#696969" fill-rule="evenodd"/>
      <path id="Path_82" data-name="Path 82" d="M8178.563,46162.172c1.57-11.98-1.487-56.91-6.938-66.164C8155.6,46102.359,8153.449,46161.344,8178.563,46162.172Z" transform="translate(-7639.146 -45693.645)" fill="#696969" fill-rule="evenodd"/>
      <path id="Path_83" data-name="Path 83" d="M3454.345,41957.68c-53.2-57.16-183.475-128.2-253.774-148.2-15.943-4.543-27.592-10.984-41.057-14.379-107.887-27.25-289.214-10.234-369.675,95.832-8.674,11.4-4.3,6.7-10.574,19.176-5.039,10.07-15.613,20.641-22.222,33.609-60.3,117.477-74.926,252.039-69.97,383.465.661,17.934,4.792,32.73,5.536,51.973,8.426,219,176.948,325.066,384.875,358.27,52.7,8.438,159.931,2.316,212.471-11.145,61.626-15.863,111.439-23.3,149.026-78.727,25.526-37.676,65.343-104.008,82.031-145.227,23.792-58.984,26.683-132.426,35.026-192.973C3573.468,42182.961,3540.01,42049.875,3454.345,41957.68Zm-564.963,405.867Zm230.066-390.168c160.1,23.051,243.448-44.777,254.435,74.848,7.848,86.148,14.209,178.016,10.9,267.727-4.3,120.121,40.727,204.543-31.308,213.965-45.683,5.863-277.814,9.824-328.123,4.879-56.092-5.629-71.539,13.125-116.479-24.293-15.613-12.977-12.556-28.492-12.144-45.187.5-22.969-4.543-44.687-4.625-67.406-.083-6.367.412-12.727-.331-19.09-1.57-12.8-2.231-15.039-2.4-15.273.165.16,1.4.988,3.057-21.066,3.387-44.941-.908-87.727,3.717-134.324l6.94-201.324c.165-28.742-.331-32.547,25.03-40.48,25.609-8.012,96.075,7.273,129.862,4.8C3068.644,41970.324,3098.714,41970.4,3119.449,41973.379Z" transform="translate(-2617.868 -41737.465)" fill="#fff" stroke="#fff" stroke-width="11.644" fill-rule="evenodd"/>
      <path id="Path_84" data-name="Path 84" d="M6274.4,45030.363c-11.319-74.594-14.954-150.1-13.63-227.168.578-35.855-3.8-203.973-16.524-223.2-9.334-5.215-78.642.648-96.9,1.551-37.5,1.746-52.788-5.035-89.3-8.828-35.934-3.8-66.831,2.395-104.418-4.539-24.451-4.551-31.72-11.738-33.29,15.27-.993,16.527,3.221,31.488,2.725,48.414-2.312,80.465-29.244,330.109-7.269,395.941,21.065,6.609,145.309,7.363,176.2,7.023C6152.717,45034.258,6213.519,45032.344,6274.4,45030.363Zm-162.162-273.848c-25.114-.828-22.966-59.809-6.939-66.164C6110.752,44699.605,6113.809,44744.535,6112.24,44756.516Zm-72.614-50.219c-1.239,20.809,5.534,55.594-17.6,54.688-6.525-13.387,2.065-99.633,7.105-109.211C6050.034,44653.25,6042.022,44667.3,6039.626,44706.3Zm-55.017-9.918c-10.989,68.395,15.116,101.68-15.449,111.1-22.305-14.457,2.064-139.762,8.425-167.777,4.213-18.508,2.892-36.094,17.513-43.445,11.731,8.426,11.4,3.469,9.005,19.074Z" transform="translate(-5572.824 -44287.973)" fill="#f0bb53" stroke="#ffbd49" stroke-width="11.644" fill-rule="evenodd"/>
      <path id="Path_85" data-name="Path 85" d="M2797.434,41797.133c-8.344,60.551-11.235,133.988-35.026,192.973-16.687,41.23-56.5,107.566-82.031,145.227-37.588,55.426-87.4,62.867-149.027,78.73-52.54,13.457-159.767,19.582-212.471,11.156-207.927-33.219-376.45-139.285-384.876-358.285-.743-19.25-4.874-34.031-5.535-51.957-4.957-131.43,9.665-266,69.97-383.469,6.609-12.977,17.183-23.539,22.222-33.617,6.278-12.488,1.9-7.777,10.574-19.18,80.461-106.062,261.788-123.082,369.676-95.816,13.465,3.379,25.113,9.824,41.057,14.363,70.3,20,200.574,91.039,253.775,148.211C2781.407,41537.652,2814.864,41670.738,2797.434,41797.133Zm-577.52-570.578c-80.3,17.594-110.036,9.082-195.784,63.188-41.057,25.945-88.97,105.66-109.622,150.18-50.64,109.055-63.03,270.055-50.969,392.82,8.922,90.617,19.743,165.957,80.543,245.5,33.375,43.7,90.953,95.414,141.675,118.387,155.387,70.293,260.218,92.684,438.323,72.52,52.788-6.02,155.883-27.008,197.187-63.191,41.966-36.84,73.854-107.551,101.94-158.035,62.453-112.184,64.27-260.051,53.2-385.781l-15.117-51.469c-10.491-40.062-13.548-63.277-31.639-90.859-19.826-30.238-29-47.918-52.457-77.656-58.735-74.512-237.832-164.469-329.61-190.906-31.721-9.172-74.927-17.6-107.722-22.465-17.017-2.566-46.427-.84-64.1.66C2253.867,41231.258,2240.731,41221.918,2219.914,41226.555Z" transform="translate(-1859.265 -41225.25)" fill="#696969" fill-rule="evenodd"/>
    </g>
    <rect id="Rectangle_39" data-name="Rectangle 39" width="1051" height="1051" transform="translate(-2141 729)" fill="none"/>
  </g>
</svg>
