<svg xmlns="http://www.w3.org/2000/svg" width="1051" height="1051" viewBox="0 0 1051 1051">
  <g id="Group_111" data-name="Group 111" transform="translate(2141 -729)">
    <g id="Group_110" data-name="Group 110">
      <g id="_2091015064" transform="translate(-2141 745.842)">
        <path id="Path_94" data-name="Path 94" d="M3232,7670.671c44.974-14.537,18.621-177.855,25.8-242.44,2.66-24.25-2.227-22.951-6.434-43.3-5.568-26.91-9.774-66.627-18.373-90.629-16.765-46.707-97.434-11.074-173.588-2.66-66.935,7.423-133.067-.124-200.25-2.351l-.557,118.157c.928,59.08-13.115,182.558,41.634,202.787,64.771,23.941,106.4-9.342,111.415,16.517a44.062,44.062,0,0,1-.124,13.054c-22.765,7.237-93.289-.558-117.168-7.609-13.362-3.959-27.219-20.229-32.911-33.035-10.021-22.7-11.135-23.94-15.589-51.036-7.3-43.923-2.537-84.69-3.959-129.417l.927-130.16c-21.652-6.743-42-2.413-64.337-4.516-.371,15.96,2.412,35.633,2.6,53.82.124,17.755-.928,35.571-.619,53.018.371,18.683,3.031,32.786,3.031,52.892-.124,39.283,2.351,176.743,14.724,204.087,15.156,33.405,196.538,26.539,231.924,27.28C3077.839,7676.054,3188.758,7684.715,3232,7670.671Zm-294.9-128.118c22.147,17.569,57.408-3.9,43.8,30.685-20.91,3.649-49.676-7.794-62.6-23.075-12.682-14.908-15.342-49.49-15.837-70.091-.557-27.9-4.021-54.067-4.764-80.854-.681-22.829-11.692-65.39,1.485-71.7,11.507,4.33,8.352,19.549,9.651,33.281,1.3,13.115,2.907,25.426,3.65,38.418,1.546,25.362,3.712,52.521,5.939,78.009C2920.583,7501.537,2917.675,7527.087,2937.1,7542.553Zm34.21-93.227c14.785-7.918,12.558,11.26,14.785,24.25,1.67,9.96,6.372,23.445.433,31.8C2970.568,7497.207,2968.774,7455.637,2971.311,7449.326Z" transform="translate(-2606.556 -6892.426)" fill="#fff" stroke="#fff" stroke-width="11.644" fill-rule="evenodd"/>
        <path id="Path_95" data-name="Path 95" d="M870.7,6456.142c215.345,23.2,346.123,7.857,548.415-18.5,28.952-3.774,66.626.556,91.928-6.125,43.118-11.321,26.663-25.488,42-55.12,13.919-.495,11.63.5,23.694,3.588,11.63-45.9,4.64-320.388-4.949-373.589-10.517-58.337-6.124-103.312-71.2-124.654-46.83-15.4-130.345-4.084-178.907-.31-123.849,9.65-249,9.279-373.4,13.857l-142.161,2.6c-16.827,0-31.241,2.722-47.325,3.278-30.251,1.114-65.637,1.98-91.248,2.536-60.193,1.361-54.563-1.361-48.068,53.945,2.474,20.352,7.609,22.084,7.3,64.213-.186,30.189,2.908,63.657,3.774,94.774.866,31.921-4.021,62.357-2.351,94.4,1.547,29.262,5.815,59.326,8.29,89.145C647.441,6431.831,755.577,6443.769,870.7,6456.142Zm408.728-152.677c-2.722,69.039-33.653,92.732-97.867,98.8-100.589,9.464-136.531-3.032-194,.866-34.519,2.289-169.69-6.743-185.651-10.022-30.808-6.247-69.286-24.311-79.308-56.17-14.909-47.264-15.033-195.859-15.4-251.04-.124-19.363,1.237-113.519,7.547-125.087,6.743-12.5,31.488-18.559,46.645-19.61,23.013-1.609,46.954,0,69.905.742,94.527,3.031,152.43,11.754,249.184-7.857,52.212-10.517,145.563-25.24,179.464,35.077,7.485,13.3,5.877,12.805,5.63,25.674,0,1.36,5.568,20.662,6.248,26.105l2.784,60.378c-1.175,11.321-.247,20.725-.618,32.54-1.237,36.933-.8,93.352,4.083,129.355C1281.474,6268.141,1280.422,6278.348,1279.432,6303.465Zm168.082-30.684c-11.878,1.114-25.116,3.28-36.87,4.33-75.411,6.372-65.822-37.613,14.909-44.293,46.026-3.774,51.718,2.784,52.336,28.766C1462.732,6271.977,1467.867,6270.862,1447.514,6272.781Zm-68.111-105.1c-15.775-5.073-21.776-2.909-29.323-17.322,2.536-7.052,7.238-11.321,14.847-15.341,13.981-7.423,35.2-3.341,57.038-4.516,68.235-3.65,73.431,36.994,27.405,40.521C1436.5,6172.006,1389.363,6170.892,1379.4,6167.676Zm37.922-71.514c-53.016-3.835-85.742-15.836-94.093-72.07-3.341-22.641,5.815-44.046,21.9-59.7,13.8-13.424,97.063-39.839,122.674-7.857,11.692,14.6,24.621,23.693,28.89,54.625,4.949,35.448-25.178,72.255-43.489,80.606C1446.648,6094.74,1425.738,6096.719,1417.325,6096.162Z" transform="translate(-577.525 -5582.011)" fill="#f0bb53" stroke="#ffbd49" stroke-width="11.644" fill-rule="evenodd"/>
        <path id="Path_96" data-name="Path 96" d="M6437,4712.793l178.846-4.887c-7.486-33.1-48.315-61.863-90.32-52.274-22.084,5.011-33.592,7.981-51.221,21.59C6462.425,4686.316,6442.815,4699.927,6437,4712.793Z" transform="translate(-6038.777 -4437.371)" fill="#f0bb53" stroke="#ffbd49" stroke-width="11.644" fill-rule="evenodd"/>
        <path id="Path_97" data-name="Path 97" d="M12842.686,15527l-85.557,9.652c-3.895,8.537-7.051,46.4-2.473,56.975,10.518,4.33,51.9-2.227,65.7-6.93,12.063-4.143,14.475-8.6,18-21.836C12841.635,15552.733,12842.5,15541.042,12842.686,15527Z" transform="translate(-11963.479 -14637.957)" fill="#f0bb53" stroke="#ffbd49" stroke-width="11.644" fill-rule="evenodd"/>
        <path id="Path_98" data-name="Path 98" d="M2230.338,15489.248c16.27-28.025,15.589-48.314,13.734-81.844-25.116-2.969-58.955-15.4-83.267-21.4l-.8,88.217Z" transform="translate(-2026.365 -14505.681)" fill="#f0bb53" stroke="#ffbd49" stroke-width="11.644" fill-rule="evenodd"/>
        <path id="Path_99" data-name="Path 99" d="M12666.606,7480.187c-38.6,65.327,89.638,108.322,74.172,3.526-2.226-15.28-7.114-15.65-14.228-27.714C12692.216,7457.485,12684.113,7450.493,12666.606,7480.187Z" transform="translate(-11876.174 -7066.254)" fill="#fff" stroke="#fff" stroke-width="11.644" fill-rule="evenodd"/>
        <g id="Group_107" data-name="Group 107">
          <path id="Path_100" data-name="Path 100" d="M791,2111.515c-4.578-10.578-1.423-48.438,2.474-56.976l85.556-9.651c-.186,14.043-1.052,25.735-4.331,37.86-3.526,13.239-5.939,17.693-18,21.838C842.9,2109.288,801.512,2115.845,791,2111.515Zm-656.737-75.349c24.312,6,58.151,18.435,83.267,21.4,1.856,33.53,2.536,53.821-13.734,81.845l-70.338-15.033Zm841.088-85.927c-15.342,29.633,1.114,43.8-42,55.12-25.3,6.681-62.976,2.351-91.928,6.125-202.292,26.354-333.07,41.7-548.414,18.5-115.127-12.373-223.263-24.312-234.213-155.956-2.475-29.818-6.743-59.883-8.29-89.144-1.67-32.045,3.217-62.482,2.351-94.4-.866-31.117-3.959-64.585-3.774-94.774.309-42.129-4.825-43.861-7.3-64.214-6.5-55.306-12.125-52.584,48.067-53.944,25.611-.557,61-1.423,91.248-2.536,16.084-.557,30.5-3.279,47.325-3.279l142.161-2.6c124.406-4.578,249.555-4.207,373.4-13.858,48.562-3.774,132.077-15.094,178.907.309,65.08,21.343,60.688,66.317,71.2,124.654,9.589,53.2,16.579,327.688,4.949,373.59C986.977,1950.734,989.266,1949.744,975.347,1950.239Zm-577.3-518.968c5.815-12.867,25.426-26.477,37.3-35.571,17.631-13.61,29.137-16.579,51.222-21.59,42-9.589,82.835,19.177,90.32,52.274ZM316.321,1166.5c21.466,28.58,31.364,26.724,66.5,85.371,9.651,16.084,49.119,88.216,52.274,101.95-19.611,4.454-33.715,18.25-48.377,29.756-22.209,17.445-23.693,29.509-30.5,44.418-.247.619-.866,1.547-1.052,2.041-.247.433-.8,1.3-1.237,1.918-16.084.743-31.488.309-47.511.186l-91.99,3.4c-13.61.928-25.8,4.207-41.819,5.135-29.57,1.732-59.76,2.536-89.268,4.825L8.492,1465.543c-1.67,26.787-8.6,29.2-3.9,76.586,7.176,72.751-23.941,273.31,16.27,386.89,11.754,33.344,47.82,77.391,80.607,89.083-.495,24.5-8.29,85.618-2.6,106.219,7.98,28.89,46.212,29.137,69.967,37.8,26.292,9.589,45.593,14.6,66.5,6.186,12-4.825,8.97.124,17.074-10.7,15.528-20.724,9.774-67.06,9.218-93.475L378.8,2074.274c32.849,1.67,230.625,1.732,257.473-1.423,19.363-2.289,40.644-3.4,60.44-4.949,18.621-1.485,38.479-5.692,59.141-7.3-.557,12.125-3.217,31.426-2.536,42.19,1.237,19.487,2.722,18.188,14.352,29.385,19.363,18.683,54.13,12.435,79.494,12,24.25-.433,51.408-2.846,66.936-21.59,15.651-18.807,16.456-53.388,10.393-76.339,64.709-11.507,71.514-22.642,90.382-59.822,34.272,19.611,35.633-22.456,35.942-45.1L1050.387,1749c.8-58.831-3.279-182.681-19.116-237.677-8.352-29.013-25.549-60.811-53.635-73.617-32.725-15.033-67.245-24.683-102.631-25.364-33.9-.681-91,.433-123.788,4.64-40.087,5.135-81.164,10.022-122.365,7.052-6.372-19.24-25.735-48.438-42.624-57.966,6.5-9.712,2.413-4.268,11.506-11.506,3.155-2.412,7.3-6.31,10.331-9.032a240.808,240.808,0,0,0,19.177-19.858l75.349-86.3c12.744-12.187,30.993-26.354,31.3-46.273-45.84-33.1-78.5,22.827-104.486,53.882-27.034,32.168-54.625,69.225-80.484,99.1-28.086-6.5-40.273-8.661-70.524-7.919C469.741,1298.637,365.44,1109.4,316.321,1166.5Z" transform="translate(0.18 -1155.848)" fill="#696969" fill-rule="evenodd"/>
          <path id="Path_101" data-name="Path 101" d="M2138.139,6740.855c22.333,2.1,42.685-2.227,64.337,4.517l-.928,130.158c1.423,44.728-3.341,85.5,3.959,129.417,4.454,27.1,5.568,28.334,15.59,51.038,5.691,12.8,19.549,29.075,32.911,33.034,23.879,7.053,94.4,14.848,117.168,7.609a44.071,44.071,0,0,0,.124-13.053c-5.011-25.86-46.645,7.423-111.415-16.519-54.749-20.229-40.706-143.707-41.634-202.786l.557-118.158c67.183,2.227,133.315,9.774,200.25,2.352,76.153-8.413,156.823-44.047,173.588,2.66,8.6,24,12.806,63.718,18.373,90.629,4.207,20.353,9.094,19.054,6.434,43.3-7.176,64.585,19.178,227.9-25.8,242.44-43.242,14.043-154.163,5.383-201.859,4.454-35.385-.742-216.767,6.124-231.924-27.281-12.373-27.344-14.847-164.8-14.724-204.086,0-20.105-2.66-34.21-3.031-52.893-.309-17.445.743-35.263.619-53.016C2140.551,6776.489,2137.768,6756.816,2138.139,6740.855Zm516.122,21.219c.248-12.867,1.856-12.373-5.629-25.674-33.9-60.315-127.252-45.592-179.464-35.076-96.754,19.611-154.657,10.888-249.184,7.856-22.951-.741-46.892-2.35-69.905-.741-15.156,1.052-39.9,7.113-46.645,19.61-6.31,11.568-7.671,105.724-7.547,125.087.371,55.182.5,203.776,15.4,251.04,10.022,31.859,48.5,49.922,79.308,56.17,15.961,3.28,151.131,12.312,185.651,10.022,57.471-3.9,93.413,8.6,194-.866,64.214-6.062,95.145-29.757,97.867-98.795.989-25.116,2.041-35.323-1.361-60.254-4.887-36-5.32-92.424-4.083-129.355.371-11.815-.557-21.22.619-32.54l-2.784-60.379C2659.828,6782.736,2654.26,6763.435,2654.26,6762.074Z" transform="translate(-1966.21 -6349.253)" fill="#696969" fill-rule="evenodd"/>
          <path id="Path_102" data-name="Path 102" d="M12148.3,6994.983c7.116,12.063,12,12.436,14.229,27.715,15.467,104.795-112.775,61.8-74.173-3.525C12105.866,6989.478,12113.969,6996.468,12148.3,6994.983Zm-104.672,52.336c8.353,56.233,41.077,68.235,94.095,72.071,8.414.557,29.322-1.423,35.88-4.393,18.313-8.352,48.439-45.16,43.49-80.606-4.269-30.933-17.2-40.026-28.891-54.627-25.61-31.981-108.88-5.567-122.674,7.858C12049.447,7003.272,12040.291,7024.677,12043.631,7047.319Z" transform="translate(-11297.926 -6605.238)" fill="#696969" fill-rule="evenodd"/>
          <path id="Path_103" data-name="Path 103" d="M4714.05,8434.721c13.61-34.585-21.652-13.116-43.8-30.686-19.425-15.467-16.518-41.017-18.683-65.327-2.228-25.487-4.394-52.646-5.939-78.012-.742-12.988-2.351-25.3-3.649-38.416-1.3-13.732,1.856-28.952-9.65-33.281-13.177,6.311-2.166,48.873-1.486,71.7.743,26.789,4.208,52.956,4.764,80.856.495,20.6,3.155,55.182,15.837,70.091C4664.374,8426.925,4693.141,8438.37,4714.05,8434.721Z" transform="translate(-4339.707 -7753.908)" fill="#696969" fill-rule="evenodd"/>
          <path id="Path_104" data-name="Path 104" d="M12488,10038.345c7.545,14.413,13.547,12.249,29.32,17.322,9.963,3.216,57.1,4.33,69.969,3.34,46.025-3.526,40.828-44.17-27.406-40.52-21.836,1.174-43.055-2.909-57.037,4.516C12495.236,10027.023,12490.535,10031.292,12488,10038.345Z" transform="translate(-11715.444 -9470.002)" fill="#696969" fill-rule="evenodd"/>
          <path id="Path_105" data-name="Path 105" d="M12753.891,11689.84c-.619-25.981-6.31-32.54-52.336-28.765-80.731,6.68-90.319,50.664-14.909,44.292,11.754-1.051,24.993-3.217,36.87-4.331C12743.87,11699.12,12738.734,11700.233,12753.891,11689.84Z" transform="translate(-11853.526 -11010.269)" fill="#696969" fill-rule="evenodd"/>
          <path id="Path_106" data-name="Path 106" d="M5881.695,10129.846c-2.536,6.309-.742,47.881,15.219,56.047,5.938-8.352,1.237-21.838-.433-31.8C5894.252,10141.105,5896.48,10121.928,5881.695,10129.846Z" transform="translate(-5516.941 -9572.946)" fill="#696969" fill-rule="evenodd"/>
        </g>
      </g>
      <rect id="Rectangle_36" data-name="Rectangle 36" width="1051" height="1051" transform="translate(-2141 729)" fill="none"/>
    </g>
  </g>
</svg>
